<svg width="55" height="55" viewBox="0 0 55 55" fill="none" xmlns="http://www.w3.org/2000/svg">
<rect x="1.5" y="1.5" width="52" height="52" rx="3.5" stroke="black" stroke-width="3"/>
<path d="M47.6061 24.2495C47.8611 25.5884 48 26.9882 48 28.449C48 39.8753 40.1961 48 28.4095 48C25.729 48.0008 23.0747 47.484 20.5981 46.4792C18.1216 45.4744 15.8713 44.0012 13.976 42.1439C12.0806 40.2866 10.5773 38.0815 9.55192 35.6546C8.52653 33.2277 7.99918 30.6267 8 28C7.99918 25.3733 8.52653 22.7723 9.55192 20.3454C10.5773 17.9185 12.0806 15.7134 13.976 13.8561C15.8713 11.9987 18.1216 10.5256 20.5981 9.52078C23.0747 8.51597 25.729 7.9992 28.4095 8C33.9203 8 38.5251 9.987 42.0579 13.2133L36.3046 18.8513V18.8371C34.1629 16.8379 31.4448 15.8119 28.4095 15.8119C21.6754 15.8119 16.2019 21.3868 16.2019 27.9878C16.2019 34.5868 21.6754 40.1739 28.4095 40.1739C34.5195 40.1739 38.6785 36.7505 39.5327 32.0492H28.4095V24.2495H47.6081H47.6061Z" fill="black"/>
</svg>
