<svg width="422" height="382" viewBox="0 0 422 382" fill="none" xmlns="http://www.w3.org/2000/svg">
<path d="M403.839 213.954C403.839 169.875 386.092 127.582 354.466 96.2932C322.839 65.004 279.897 47.2546 234.998 46.9131L234.515 108.161C262.951 108.378 290.147 119.619 310.177 139.436C330.208 159.252 341.447 186.037 341.447 213.954H403.839Z" fill="#53CC89" stroke="white"/>
<path d="M234.997 46.9129C193.797 46.5995 153.88 60.9722 122.656 87.3628L163.364 133.78C183.139 117.065 208.42 107.963 234.514 108.161L234.997 46.9129Z" fill="#53CC89" stroke="white"/>
<path d="M122.657 87.3629C101.446 105.291 85.0668 128.079 74.9721 153.708C64.8773 179.336 61.3784 207.013 64.7853 234.287L126.713 226.831C124.555 209.558 126.771 192.029 133.165 175.798C139.558 159.567 149.931 145.134 163.365 133.78L122.657 87.3629Z" fill="#53CC89" stroke="white"/>
<path d="M64.7852 234.287C69.9177 275.374 90.4076 313.128 122.283 340.228C154.158 367.328 195.147 381.844 237.304 380.962L235.975 319.726C209.275 320.284 183.315 311.091 163.128 293.927C142.941 276.764 129.964 252.854 126.713 226.831L64.7852 234.287Z" fill="#53CC89" stroke="white"/>
<path d="M237.304 380.962C281.795 380.031 324.145 362.027 355.275 330.808C386.405 299.59 403.838 257.641 403.838 213.954H341.447C341.447 241.622 330.406 268.19 310.69 287.962C290.974 307.733 264.153 319.136 235.975 319.726L237.304 380.962Z" fill="#53CC89" stroke="white"/>
<path d="M354.465 96.2929L381.307 70.146" stroke="#53CC89"/>
<path d="M387.189 52.5685C387.189 52.9943 387.076 53.3732 386.85 53.7052C386.627 54.0372 386.324 54.297 385.941 54.4845C386.387 54.6759 386.738 54.9552 386.996 55.3224C387.258 55.6896 387.389 56.1056 387.389 56.5704C387.389 57.3087 387.139 57.8966 386.639 58.3341C386.143 58.7716 385.488 58.9904 384.676 58.9904C383.855 58.9904 383.197 58.7716 382.701 58.3341C382.209 57.8927 381.963 57.3048 381.963 56.5704C381.963 56.1095 382.088 55.6935 382.338 55.3224C382.592 54.9513 382.941 54.67 383.387 54.4786C383.008 54.2911 382.709 54.0314 382.49 53.6993C382.271 53.3673 382.162 52.9904 382.162 52.5685C382.162 51.8497 382.393 51.2794 382.854 50.8575C383.314 50.4357 383.922 50.2247 384.676 50.2247C385.426 50.2247 386.031 50.4357 386.492 50.8575C386.957 51.2794 387.189 51.8497 387.189 52.5685ZM386.305 56.547C386.305 56.0704 386.152 55.6818 385.848 55.381C385.547 55.0802 385.152 54.9298 384.664 54.9298C384.176 54.9298 383.783 55.0782 383.486 55.3751C383.193 55.672 383.047 56.0626 383.047 56.547C383.047 57.0314 383.189 57.4122 383.475 57.6896C383.764 57.9669 384.164 58.1056 384.676 58.1056C385.184 58.1056 385.582 57.9669 385.871 57.6896C386.16 57.4083 386.305 57.0275 386.305 56.547ZM384.676 51.1154C384.25 51.1154 383.904 51.2482 383.639 51.5138C383.377 51.7755 383.246 52.1329 383.246 52.5861C383.246 53.0197 383.375 53.3712 383.633 53.6407C383.895 53.9064 384.242 54.0392 384.676 54.0392C385.109 54.0392 385.455 53.9064 385.713 53.6407C385.975 53.3712 386.105 53.0197 386.105 52.5861C386.105 52.1525 385.971 51.799 385.701 51.5255C385.432 51.2521 385.09 51.1154 384.676 51.1154ZM394.104 55.2345C394.104 56.504 393.887 57.4474 393.453 58.0646C393.02 58.6818 392.342 58.9904 391.42 58.9904C390.51 58.9904 389.836 58.6896 389.398 58.088C388.961 57.4825 388.734 56.5802 388.719 55.381V53.9337C388.719 52.6798 388.936 51.7482 389.369 51.1388C389.803 50.5294 390.482 50.2247 391.408 50.2247C392.326 50.2247 393.002 50.5197 393.436 51.1095C393.869 51.6954 394.092 52.6017 394.104 53.8282V55.2345ZM393.02 53.7521C393.02 52.8341 392.891 52.1661 392.633 51.7482C392.375 51.3263 391.967 51.1154 391.408 51.1154C390.854 51.1154 390.449 51.3243 390.195 51.7423C389.941 52.1603 389.811 52.8029 389.803 53.67V55.4044C389.803 56.3263 389.936 57.0079 390.201 57.4493C390.471 57.8868 390.877 58.1056 391.42 58.1056C391.955 58.1056 392.352 57.8986 392.609 57.4845C392.871 57.0704 393.008 56.4181 393.02 55.5275V53.7521ZM401 50.9513L397.467 58.8732H396.33L399.852 51.2325H395.234V50.3419H401V50.9513Z" fill="#53CC89"/>
<path d="M175.086 57.1239L162.065 22.2728" stroke="#53CC89"/>
<path d="M144.135 6.20703H144.95C145.462 6.19922 145.864 6.06445 146.157 5.80273C146.45 5.54102 146.596 5.1875 146.596 4.74219C146.596 3.74219 146.098 3.24219 145.102 3.24219C144.634 3.24219 144.259 3.37695 143.977 3.64648C143.7 3.91211 143.561 4.26562 143.561 4.70703H142.477C142.477 4.03125 142.723 3.4707 143.216 3.02539C143.712 2.57617 144.341 2.35156 145.102 2.35156C145.907 2.35156 146.538 2.56445 146.995 2.99023C147.452 3.41602 147.68 4.00781 147.68 4.76562C147.68 5.13672 147.559 5.49609 147.317 5.84375C147.079 6.19141 146.753 6.45117 146.339 6.62305C146.807 6.77148 147.169 7.01758 147.423 7.36133C147.68 7.70508 147.809 8.125 147.809 8.62109C147.809 9.38672 147.559 9.99414 147.059 10.4434C146.559 10.8926 145.909 11.1172 145.108 11.1172C144.307 11.1172 143.655 10.9004 143.151 10.4668C142.651 10.0332 142.401 9.46094 142.401 8.75H143.491C143.491 9.19922 143.637 9.55859 143.93 9.82812C144.223 10.0977 144.616 10.2324 145.108 10.2324C145.632 10.2324 146.032 10.0957 146.309 9.82227C146.587 9.54883 146.725 9.15625 146.725 8.64453C146.725 8.14844 146.573 7.76758 146.268 7.50195C145.964 7.23633 145.524 7.09961 144.95 7.0918H144.135V6.20703ZM154.805 3.07812L151.272 11H150.135L153.657 3.35938H149.04V2.46875H154.805V3.07812ZM159.598 11H158.509V3.77539L156.323 4.57812V3.59375L159.428 2.42773H159.598V11Z" fill="#53CC89"/>
<path d="M74.9719 153.708L39.7036 140.319" stroke="#53CC89"/>
<path d="M20.696 124.769L21.1296 120.516H25.5007V121.517H22.0495L21.7917 123.844C22.2097 123.598 22.6843 123.474 23.2155 123.474C23.9929 123.474 24.6101 123.732 25.0671 124.248C25.5241 124.76 25.7526 125.453 25.7526 126.328C25.7526 127.207 25.5144 127.9 25.0378 128.408C24.5651 128.912 23.903 129.164 23.0515 129.164C22.2976 129.164 21.6823 128.955 21.2058 128.537C20.7292 128.119 20.4577 127.541 20.3913 126.803H21.4167C21.4831 127.291 21.6569 127.66 21.9382 127.91C22.2194 128.156 22.5905 128.279 23.0515 128.279C23.5554 128.279 23.9499 128.107 24.2351 127.764C24.5241 127.42 24.6687 126.945 24.6687 126.34C24.6687 125.769 24.5124 125.312 24.1999 124.969C23.8913 124.621 23.4792 124.447 22.9636 124.447C22.4909 124.447 22.1198 124.551 21.8503 124.758L21.5632 124.992L20.696 124.769ZM32.2858 125.408C32.2858 126.678 32.069 127.621 31.6355 128.238C31.2019 128.855 30.5241 129.164 29.6023 129.164C28.6921 129.164 28.0183 128.863 27.5808 128.262C27.1433 127.656 26.9167 126.754 26.9011 125.555V124.107C26.9011 122.853 27.1179 121.922 27.5515 121.312C27.9851 120.703 28.6648 120.398 29.5905 120.398C30.5085 120.398 31.1843 120.693 31.6179 121.283C32.0515 121.869 32.2741 122.775 32.2858 124.002V125.408ZM31.2019 123.926C31.2019 123.008 31.073 122.34 30.8151 121.922C30.5573 121.5 30.1491 121.289 29.5905 121.289C29.0358 121.289 28.6315 121.498 28.3776 121.916C28.1237 122.334 27.9929 122.976 27.9851 123.844V125.578C27.9851 126.5 28.1179 127.182 28.3835 127.623C28.653 128.06 29.0593 128.279 29.6023 128.279C30.1374 128.279 30.5339 128.072 30.7917 127.658C31.0534 127.244 31.1901 126.592 31.2019 125.701V123.926ZM39.1823 121.125L35.6491 129.047H34.5124L38.0339 121.406H33.4167V120.516H39.1823V121.125Z" fill="#53CC89"/>
<path d="M122.282 340.228L97.5269 368.289" stroke="#53CC89"/>
<path d="M83.529 349.094L79.9958 357.016H78.8591L82.3806 349.375H77.7634V348.484H83.529V349.094ZM85.2575 352.738L85.6911 348.484H90.0622V349.486H86.611L86.3532 351.813C86.7712 351.567 87.2458 351.443 87.7771 351.443C88.5544 351.443 89.1716 351.701 89.6286 352.217C90.0857 352.729 90.3142 353.422 90.3142 354.297C90.3142 355.176 90.0759 355.869 89.5993 356.377C89.1267 356.881 88.4646 357.133 87.613 357.133C86.8591 357.133 86.2439 356.924 85.7673 356.506C85.2907 356.088 85.0192 355.51 84.9528 354.772H85.9782C86.0446 355.26 86.2185 355.629 86.4997 355.879C86.781 356.125 87.1521 356.248 87.613 356.248C88.1169 356.248 88.5114 356.076 88.7966 355.733C89.0857 355.389 89.2302 354.914 89.2302 354.309C89.2302 353.738 89.0739 353.281 88.7614 352.938C88.4528 352.59 88.0407 352.416 87.5251 352.416C87.0524 352.416 86.6814 352.52 86.4118 352.727L86.1247 352.961L85.2575 352.738ZM95.6521 353.266C95.4255 353.535 95.154 353.752 94.8376 353.916C94.5251 354.08 94.1814 354.162 93.8064 354.162C93.3142 354.162 92.8845 354.041 92.5173 353.799C92.154 353.557 91.8728 353.217 91.6735 352.779C91.4743 352.338 91.3747 351.852 91.3747 351.32C91.3747 350.75 91.4821 350.236 91.697 349.779C91.9157 349.322 92.2243 348.973 92.6228 348.731C93.0212 348.488 93.486 348.367 94.0173 348.367C94.861 348.367 95.5251 348.684 96.0095 349.317C96.4978 349.945 96.7419 350.805 96.7419 351.895V352.211C96.7419 353.871 96.4138 355.084 95.7575 355.85C95.1013 356.611 94.111 357.002 92.7868 357.022H92.5759V356.108H92.8044C93.6989 356.092 94.3864 355.859 94.8669 355.41C95.3474 354.957 95.6091 354.242 95.6521 353.266ZM93.9821 353.266C94.3454 353.266 94.6794 353.154 94.9841 352.932C95.2927 352.709 95.5173 352.434 95.6579 352.106V351.672C95.6579 350.961 95.5036 350.383 95.195 349.938C94.8864 349.492 94.4958 349.27 94.0232 349.27C93.5466 349.27 93.1638 349.453 92.8747 349.82C92.5857 350.184 92.4411 350.664 92.4411 351.262C92.4411 351.844 92.5798 352.324 92.8571 352.703C93.1384 353.078 93.5134 353.266 93.9821 353.266Z" fill="#53CC89"/>
<path d="M355.274 330.808L382.296 356.776" stroke="#53CC89"/>
<path d="M388.179 339.199C388.179 339.624 388.065 340.003 387.839 340.335C387.616 340.667 387.313 340.927 386.931 341.115C387.376 341.306 387.728 341.585 387.985 341.953C388.247 342.32 388.378 342.736 388.378 343.201C388.378 343.939 388.128 344.527 387.628 344.964C387.132 345.402 386.478 345.62 385.665 345.62C384.845 345.62 384.187 345.402 383.69 344.964C383.198 344.523 382.952 343.935 382.952 343.201C382.952 342.74 383.077 342.324 383.327 341.953C383.581 341.581 383.931 341.3 384.376 341.109C383.997 340.921 383.698 340.661 383.479 340.329C383.261 339.997 383.151 339.62 383.151 339.199C383.151 338.48 383.382 337.91 383.843 337.488C384.304 337.066 384.911 336.855 385.665 336.855C386.415 336.855 387.021 337.066 387.481 337.488C387.946 337.91 388.179 338.48 388.179 339.199ZM387.294 343.177C387.294 342.701 387.142 342.312 386.837 342.011C386.536 341.71 386.142 341.56 385.653 341.56C385.165 341.56 384.772 341.708 384.476 342.005C384.183 342.302 384.036 342.693 384.036 343.177C384.036 343.661 384.179 344.042 384.464 344.32C384.753 344.597 385.153 344.736 385.665 344.736C386.173 344.736 386.571 344.597 386.86 344.32C387.149 344.038 387.294 343.658 387.294 343.177ZM385.665 337.745C385.239 337.745 384.894 337.878 384.628 338.144C384.366 338.406 384.235 338.763 384.235 339.216C384.235 339.65 384.364 340.001 384.622 340.271C384.884 340.536 385.231 340.669 385.665 340.669C386.099 340.669 386.444 340.536 386.702 340.271C386.964 340.001 387.095 339.65 387.095 339.216C387.095 338.783 386.96 338.429 386.69 338.156C386.421 337.882 386.079 337.745 385.665 337.745ZM395.093 341.865C395.093 343.134 394.876 344.078 394.442 344.695C394.009 345.312 393.331 345.62 392.409 345.62C391.499 345.62 390.825 345.32 390.388 344.718C389.95 344.113 389.724 343.21 389.708 342.011V340.564C389.708 339.31 389.925 338.378 390.358 337.769C390.792 337.16 391.472 336.855 392.397 336.855C393.315 336.855 393.991 337.15 394.425 337.74C394.858 338.326 395.081 339.232 395.093 340.458V341.865ZM394.009 340.382C394.009 339.464 393.88 338.796 393.622 338.378C393.364 337.956 392.956 337.745 392.397 337.745C391.843 337.745 391.438 337.954 391.185 338.372C390.931 338.79 390.8 339.433 390.792 340.3V342.035C390.792 342.956 390.925 343.638 391.19 344.079C391.46 344.517 391.866 344.736 392.409 344.736C392.944 344.736 393.341 344.529 393.599 344.115C393.86 343.701 393.997 343.048 394.009 342.158V340.382ZM401.831 341.865C401.831 343.134 401.614 344.078 401.181 344.695C400.747 345.312 400.069 345.62 399.147 345.62C398.237 345.62 397.563 345.32 397.126 344.718C396.688 344.113 396.462 343.21 396.446 342.011V340.564C396.446 339.31 396.663 338.378 397.097 337.769C397.53 337.16 398.21 336.855 399.136 336.855C400.054 336.855 400.729 337.15 401.163 337.74C401.597 338.326 401.819 339.232 401.831 340.458V341.865ZM400.747 340.382C400.747 339.464 400.618 338.796 400.36 338.378C400.103 337.956 399.694 337.745 399.136 337.745C398.581 337.745 398.177 337.954 397.923 338.372C397.669 338.79 397.538 339.433 397.53 340.3V342.035C397.53 342.956 397.663 343.638 397.929 344.079C398.198 344.517 398.604 344.736 399.147 344.736C399.683 344.736 400.079 344.529 400.337 344.115C400.599 343.701 400.735 343.048 400.747 342.158V340.382Z" fill="#53CC89"/>
</svg>
