<svg width="267" height="239" viewBox="0 0 267 239" fill="none" xmlns="http://www.w3.org/2000/svg">
<path d="M64.968 216.152C65.672 216.152 66.272 216.168 66.768 216.2C67.28 216.232 67.744 216.288 68.16 216.368C68.592 216.432 69.032 216.52 69.48 216.632L69.264 218.24C68.784 218.192 68.336 218.152 67.92 218.12C67.52 218.088 67.088 218.064 66.624 218.048C66.16 218.032 65.608 218.024 64.968 218.024C63.896 218.024 63.048 218.232 62.424 218.648C61.8 219.064 61.352 219.76 61.08 220.736C60.824 221.712 60.696 223.04 60.696 224.72C60.696 226.4 60.824 227.728 61.08 228.704C61.352 229.68 61.8 230.376 62.424 230.792C63.048 231.208 63.896 231.416 64.968 231.416C65.992 231.416 66.848 231.4 67.536 231.368C68.24 231.32 68.928 231.248 69.6 231.152L69.816 232.736C69.128 232.928 68.416 233.064 67.68 233.144C66.96 233.24 66.056 233.288 64.968 233.288C63.384 233.288 62.112 233.016 61.152 232.472C60.208 231.912 59.52 231.008 59.088 229.76C58.672 228.512 58.464 226.832 58.464 224.72C58.464 222.608 58.672 220.928 59.088 219.68C59.52 218.432 60.208 217.536 61.152 216.992C62.112 216.432 63.384 216.152 64.968 216.152ZM74.1435 221.312L74.3595 223.16C75.2075 222.488 76.0475 221.968 76.8795 221.6C77.7275 221.216 78.5515 221.024 79.3515 221.024H79.8795L79.6395 222.944H78.9675C78.3115 222.944 77.6475 223.08 76.9755 223.352C76.3195 223.608 75.5275 223.968 74.5995 224.432V233H72.5595V221.312H74.1435ZM83.7763 216.344C84.1923 216.344 84.4003 216.552 84.4003 216.968V218.336C84.4003 218.752 84.1923 218.96 83.7763 218.96H82.8163C82.4003 218.96 82.1923 218.752 82.1923 218.336V216.968C82.1923 216.552 82.4003 216.344 82.8163 216.344H83.7763ZM84.3043 221.312V233H82.2883V221.312H84.3043ZM92.9454 221.024C94.7054 221.024 95.9774 221.344 96.7614 221.984C97.5614 222.624 97.9614 223.576 97.9614 224.84C97.9774 225.88 97.7614 226.696 97.3134 227.288C96.8654 227.864 96.1534 228.152 95.1774 228.152H89.7534C89.8174 229.08 89.9854 229.792 90.2574 230.288C90.5454 230.768 90.9454 231.104 91.4574 231.296C91.9694 231.472 92.6254 231.56 93.4254 231.56C94.0494 231.56 94.7294 231.536 95.4654 231.488C96.2174 231.424 96.8894 231.352 97.4814 231.272L97.6974 232.64C97.3294 232.784 96.8734 232.904 96.3294 233C95.8014 233.096 95.2494 233.168 94.6734 233.216C94.1134 233.264 93.6094 233.288 93.1614 233.288C91.8174 233.288 90.7374 233.088 89.9214 232.688C89.1054 232.272 88.5054 231.616 88.1214 230.72C87.7534 229.808 87.5694 228.608 87.5694 227.12C87.5694 225.584 87.7534 224.376 88.1214 223.496C88.5054 222.6 89.0894 221.968 89.8734 221.6C90.6734 221.216 91.6974 221.024 92.9454 221.024ZM93.0414 222.752C92.2254 222.752 91.5774 222.864 91.0974 223.088C90.6334 223.312 90.2894 223.704 90.0654 224.264C89.8574 224.808 89.7374 225.576 89.7054 226.568H94.6494C95.1774 226.568 95.5214 226.392 95.6814 226.04C95.8414 225.672 95.9214 225.272 95.9214 224.84C95.9054 224.088 95.6814 223.552 95.2494 223.232C94.8174 222.912 94.0814 222.752 93.0414 222.752ZM110.268 221.024C111.036 221.04 111.868 221.08 112.764 221.144C113.66 221.192 114.468 221.272 115.188 221.384L115.02 222.872C114.284 222.84 113.54 222.816 112.788 222.8C112.052 222.768 111.316 222.752 110.58 222.752C109.86 222.736 109.292 222.752 108.876 222.8C108.46 222.848 108.156 222.976 107.964 223.184C107.788 223.392 107.7 223.744 107.7 224.24C107.7 224.848 107.844 225.248 108.132 225.44C108.42 225.632 108.844 225.792 109.404 225.92L112.812 226.688C113.74 226.912 114.42 227.256 114.852 227.72C115.3 228.184 115.524 228.912 115.524 229.904C115.524 230.864 115.34 231.584 114.972 232.064C114.62 232.544 114.076 232.864 113.34 233.024C112.604 233.184 111.668 233.264 110.532 233.264C110.116 233.264 109.492 233.248 108.66 233.216C107.844 233.184 106.94 233.088 105.948 232.928L106.092 231.44C106.668 231.472 107.292 231.504 107.964 231.536C108.652 231.552 109.372 231.552 110.124 231.536C111.004 231.536 111.692 231.496 112.188 231.416C112.684 231.336 113.036 231.184 113.244 230.96C113.452 230.72 113.556 230.368 113.556 229.904C113.556 229.328 113.388 228.944 113.052 228.752C112.716 228.56 112.268 228.4 111.708 228.272L108.348 227.504C107.404 227.28 106.724 226.92 106.308 226.424C105.908 225.928 105.708 225.2 105.708 224.24C105.708 223.328 105.868 222.64 106.188 222.176C106.508 221.712 107.004 221.4 107.676 221.24C108.348 221.08 109.212 221.008 110.268 221.024ZM120.535 221.312V229.52C120.519 230.256 120.655 230.776 120.943 231.08C121.231 231.384 121.711 231.536 122.383 231.536C123.007 231.536 123.631 231.4 124.255 231.128C124.879 230.84 125.615 230.416 126.463 229.856V221.312H128.503V233H126.871L126.727 231.296C125.847 231.968 124.999 232.472 124.183 232.808C123.367 233.144 122.535 233.312 121.687 233.312C119.559 233.312 118.495 232.24 118.495 230.096V221.312H120.535ZM137.775 221.024C139.071 221.024 140.063 221.296 140.751 221.84C141.439 222.368 141.783 223.344 141.783 224.768V233H140.175L139.935 231.056C139.631 231.376 139.239 231.704 138.759 232.04C138.279 232.36 137.727 232.64 137.103 232.88C136.495 233.104 135.831 233.216 135.111 233.216C134.071 233.216 133.223 232.936 132.567 232.376C131.927 231.816 131.607 231.008 131.607 229.952V228.68C131.607 227.768 131.887 227.064 132.447 226.568C133.023 226.056 133.823 225.8 134.847 225.8H139.719V224.768C139.719 224.048 139.551 223.536 139.215 223.232C138.895 222.912 138.271 222.752 137.343 222.752C136.735 222.752 135.967 222.784 135.039 222.848C134.127 222.912 133.223 222.984 132.327 223.064L132.135 221.552C132.935 221.424 133.855 221.304 134.895 221.192C135.935 221.08 136.895 221.024 137.775 221.024ZM135.519 231.464C136.095 231.48 136.767 231.344 137.535 231.056C138.303 230.768 139.031 230.32 139.719 229.712V227.336L135.207 227.36C134.647 227.376 134.255 227.528 134.031 227.816C133.807 228.088 133.695 228.472 133.695 228.968V229.712C133.695 230.32 133.839 230.768 134.127 231.056C134.415 231.328 134.879 231.464 135.519 231.464ZM149.315 221.024C150.083 221.04 150.915 221.08 151.811 221.144C152.707 221.192 153.515 221.272 154.235 221.384L154.067 222.872C153.331 222.84 152.587 222.816 151.835 222.8C151.099 222.768 150.363 222.752 149.627 222.752C148.907 222.736 148.339 222.752 147.923 222.8C147.507 222.848 147.203 222.976 147.011 223.184C146.835 223.392 146.747 223.744 146.747 224.24C146.747 224.848 146.891 225.248 147.179 225.44C147.467 225.632 147.891 225.792 148.451 225.92L151.859 226.688C152.787 226.912 153.467 227.256 153.899 227.72C154.347 228.184 154.571 228.912 154.571 229.904C154.571 230.864 154.387 231.584 154.019 232.064C153.667 232.544 153.123 232.864 152.387 233.024C151.651 233.184 150.715 233.264 149.579 233.264C149.163 233.264 148.539 233.248 147.707 233.216C146.891 233.184 145.987 233.088 144.995 232.928L145.139 231.44C145.715 231.472 146.339 231.504 147.011 231.536C147.699 231.552 148.419 231.552 149.171 231.536C150.051 231.536 150.739 231.496 151.235 231.416C151.731 231.336 152.083 231.184 152.291 230.96C152.499 230.72 152.603 230.368 152.603 229.904C152.603 229.328 152.435 228.944 152.099 228.752C151.763 228.56 151.315 228.4 150.755 228.272L147.395 227.504C146.451 227.28 145.771 226.92 145.355 226.424C144.955 225.928 144.755 225.2 144.755 224.24C144.755 223.328 144.915 222.64 145.235 222.176C145.555 221.712 146.051 221.4 146.723 221.24C147.395 221.08 148.259 221.008 149.315 221.024ZM164.542 221.312L164.758 223.16C165.606 222.488 166.446 221.968 167.278 221.6C168.126 221.216 168.95 221.024 169.75 221.024H170.278L170.038 222.944H169.366C168.71 222.944 168.046 223.08 167.374 223.352C166.718 223.608 165.926 223.968 164.998 224.432V233H162.958V221.312H164.542ZM177.086 221.024C178.846 221.024 180.118 221.344 180.902 221.984C181.702 222.624 182.102 223.576 182.102 224.84C182.118 225.88 181.902 226.696 181.454 227.288C181.006 227.864 180.294 228.152 179.318 228.152H173.894C173.958 229.08 174.126 229.792 174.398 230.288C174.686 230.768 175.086 231.104 175.598 231.296C176.11 231.472 176.766 231.56 177.566 231.56C178.19 231.56 178.87 231.536 179.606 231.488C180.358 231.424 181.03 231.352 181.622 231.272L181.838 232.64C181.47 232.784 181.014 232.904 180.47 233C179.942 233.096 179.39 233.168 178.814 233.216C178.254 233.264 177.75 233.288 177.302 233.288C175.958 233.288 174.878 233.088 174.062 232.688C173.246 232.272 172.646 231.616 172.262 230.72C171.894 229.808 171.71 228.608 171.71 227.12C171.71 225.584 171.894 224.376 172.262 223.496C172.646 222.6 173.23 221.968 174.014 221.6C174.814 221.216 175.838 221.024 177.086 221.024ZM177.182 222.752C176.366 222.752 175.718 222.864 175.238 223.088C174.774 223.312 174.43 223.704 174.206 224.264C173.998 224.808 173.878 225.576 173.846 226.568H178.79C179.318 226.568 179.662 226.392 179.822 226.04C179.982 225.672 180.062 225.272 180.062 224.84C180.046 224.088 179.822 223.552 179.39 223.232C178.958 222.912 178.222 222.752 177.182 222.752ZM191.873 221.312V222.92H188.129V233H186.089V222.92H183.977V221.432L186.089 221.312V219.224C186.089 218.136 186.345 217.296 186.857 216.704C187.369 216.096 188.249 215.792 189.497 215.792C189.753 215.792 190.081 215.8 190.481 215.816C190.881 215.816 191.289 215.832 191.705 215.864C192.121 215.88 192.481 215.912 192.785 215.96L192.617 217.472H190.217C189.449 217.472 188.905 217.624 188.585 217.928C188.281 218.232 188.129 218.736 188.129 219.44V221.312H191.873ZM198.906 221.024C200.666 221.024 201.938 221.344 202.722 221.984C203.522 222.624 203.922 223.576 203.922 224.84C203.938 225.88 203.722 226.696 203.274 227.288C202.826 227.864 202.114 228.152 201.138 228.152H195.714C195.778 229.08 195.946 229.792 196.218 230.288C196.506 230.768 196.906 231.104 197.418 231.296C197.93 231.472 198.586 231.56 199.386 231.56C200.01 231.56 200.69 231.536 201.426 231.488C202.178 231.424 202.85 231.352 203.442 231.272L203.658 232.64C203.29 232.784 202.834 232.904 202.29 233C201.762 233.096 201.21 233.168 200.634 233.216C200.074 233.264 199.57 233.288 199.122 233.288C197.778 233.288 196.698 233.088 195.882 232.688C195.066 232.272 194.466 231.616 194.082 230.72C193.714 229.808 193.53 228.608 193.53 227.12C193.53 225.584 193.714 224.376 194.082 223.496C194.466 222.6 195.05 221.968 195.834 221.6C196.634 221.216 197.658 221.024 198.906 221.024ZM199.002 222.752C198.186 222.752 197.538 222.864 197.058 223.088C196.594 223.312 196.25 223.704 196.026 224.264C195.818 224.808 195.698 225.576 195.666 226.568H200.61C201.138 226.568 201.482 226.392 201.642 226.04C201.802 225.672 201.882 225.272 201.882 224.84C201.866 224.088 201.642 223.552 201.21 223.232C200.778 222.912 200.042 222.752 199.002 222.752ZM208.581 216.344C208.997 216.344 209.205 216.552 209.205 216.968V218.336C209.205 218.752 208.997 218.96 208.581 218.96H207.621C207.205 218.96 206.997 218.752 206.997 218.336V216.968C206.997 216.552 207.205 216.344 207.621 216.344H208.581ZM209.109 221.312V233H207.093V221.312H209.109ZM217.942 221.024C218.454 221.024 219.062 221.064 219.766 221.144C220.486 221.208 221.134 221.352 221.71 221.576L221.446 222.896C220.918 222.848 220.358 222.816 219.766 222.8C219.19 222.768 218.694 222.752 218.278 222.752C217.35 222.752 216.614 222.88 216.07 223.136C215.526 223.392 215.134 223.84 214.894 224.48C214.654 225.12 214.534 226.008 214.534 227.144C214.534 228.28 214.654 229.176 214.894 229.832C215.134 230.472 215.526 230.92 216.07 231.176C216.614 231.432 217.35 231.56 218.278 231.56C218.63 231.56 219.142 231.544 219.814 231.512C220.486 231.48 221.118 231.416 221.71 231.32L221.926 232.688C221.334 232.896 220.686 233.048 219.982 233.144C219.294 233.24 218.606 233.288 217.918 233.288C216.574 233.288 215.494 233.088 214.678 232.688C213.862 232.288 213.27 231.64 212.902 230.744C212.55 229.848 212.374 228.648 212.374 227.144C212.374 225.64 212.558 224.44 212.926 223.544C213.294 222.648 213.886 222.008 214.702 221.624C215.518 221.224 216.598 221.024 217.942 221.024ZM216.718 234.32C217.646 234.24 218.326 234.296 218.758 234.488C219.206 234.696 219.414 235.16 219.382 235.88C219.366 236.904 218.974 237.68 218.206 238.208C217.454 238.752 216.51 238.944 215.374 238.784L215.686 237.704C216.342 237.72 216.87 237.568 217.27 237.248C217.686 236.944 217.902 236.544 217.918 236.048C217.934 235.76 217.846 235.56 217.654 235.448C217.462 235.352 217.078 235.296 216.502 235.28L216.718 234.32ZM229.449 221.024C230.793 221.024 231.865 221.224 232.665 221.624C233.481 222.024 234.065 222.68 234.417 223.592C234.769 224.488 234.945 225.68 234.945 227.168C234.945 228.656 234.769 229.856 234.417 230.768C234.065 231.664 233.481 232.312 232.665 232.712C231.865 233.112 230.793 233.312 229.449 233.312C228.121 233.312 227.049 233.112 226.233 232.712C225.433 232.312 224.849 231.664 224.481 230.768C224.129 229.856 223.953 228.656 223.953 227.168C223.953 225.68 224.129 224.488 224.481 223.592C224.849 222.68 225.433 222.024 226.233 221.624C227.049 221.224 228.121 221.024 229.449 221.024ZM229.449 222.752C228.601 222.752 227.929 222.888 227.433 223.16C226.953 223.416 226.609 223.864 226.401 224.504C226.193 225.144 226.089 226.032 226.089 227.168C226.089 228.304 226.193 229.192 226.401 229.832C226.609 230.472 226.953 230.928 227.433 231.2C227.929 231.456 228.601 231.584 229.449 231.584C230.297 231.584 230.969 231.456 231.465 231.2C231.961 230.928 232.313 230.472 232.521 229.832C232.729 229.192 232.833 228.304 232.833 227.168C232.833 226.032 232.729 225.144 232.521 224.504C232.313 223.864 231.961 223.416 231.465 223.16C230.969 222.888 230.297 222.752 229.449 222.752ZM227.553 216.32C228.049 216.352 228.481 216.472 228.849 216.68C229.217 216.872 229.577 217.064 229.929 217.256C230.281 217.448 230.681 217.576 231.129 217.64C231.593 217.704 231.905 217.632 232.065 217.424C232.225 217.216 232.305 216.888 232.305 216.44H233.265C233.361 217.336 233.225 218.024 232.857 218.504C232.505 218.968 232.017 219.176 231.393 219.128C230.849 219.08 230.377 218.952 229.977 218.744C229.593 218.536 229.225 218.328 228.873 218.12C228.537 217.912 228.169 217.792 227.769 217.76C227.321 217.712 227.017 217.8 226.857 218.024C226.713 218.232 226.641 218.576 226.641 219.056H225.681C225.585 218.096 225.721 217.392 226.089 216.944C226.473 216.48 226.961 216.272 227.553 216.32ZM242.945 221.024C244.705 221.024 245.977 221.344 246.761 221.984C247.561 222.624 247.961 223.576 247.961 224.84C247.977 225.88 247.761 226.696 247.313 227.288C246.865 227.864 246.153 228.152 245.177 228.152H239.753C239.817 229.08 239.985 229.792 240.257 230.288C240.545 230.768 240.945 231.104 241.457 231.296C241.969 231.472 242.625 231.56 243.425 231.56C244.049 231.56 244.729 231.536 245.465 231.488C246.217 231.424 246.889 231.352 247.481 231.272L247.697 232.64C247.329 232.784 246.873 232.904 246.329 233C245.801 233.096 245.249 233.168 244.673 233.216C244.113 233.264 243.609 233.288 243.161 233.288C241.817 233.288 240.737 233.088 239.921 232.688C239.105 232.272 238.505 231.616 238.121 230.72C237.753 229.808 237.569 228.608 237.569 227.12C237.569 225.584 237.753 224.376 238.121 223.496C238.505 222.6 239.089 221.968 239.873 221.6C240.673 221.216 241.697 221.024 242.945 221.024ZM243.041 222.752C242.225 222.752 241.577 222.864 241.097 223.088C240.633 223.312 240.289 223.704 240.065 224.264C239.857 224.808 239.737 225.576 239.705 226.568H244.649C245.177 226.568 245.521 226.392 245.681 226.04C245.841 225.672 245.921 225.272 245.921 224.84C245.905 224.088 245.681 223.552 245.249 223.232C244.817 222.912 244.081 222.752 243.041 222.752ZM254.924 221.024C255.692 221.04 256.524 221.08 257.42 221.144C258.316 221.192 259.124 221.272 259.844 221.384L259.676 222.872C258.94 222.84 258.196 222.816 257.444 222.8C256.708 222.768 255.972 222.752 255.236 222.752C254.516 222.736 253.948 222.752 253.532 222.8C253.116 222.848 252.812 222.976 252.62 223.184C252.444 223.392 252.356 223.744 252.356 224.24C252.356 224.848 252.5 225.248 252.788 225.44C253.076 225.632 253.5 225.792 254.06 225.92L257.468 226.688C258.396 226.912 259.076 227.256 259.508 227.72C259.956 228.184 260.18 228.912 260.18 229.904C260.18 230.864 259.996 231.584 259.628 232.064C259.276 232.544 258.732 232.864 257.996 233.024C257.26 233.184 256.324 233.264 255.188 233.264C254.772 233.264 254.148 233.248 253.316 233.216C252.5 233.184 251.596 233.088 250.604 232.928L250.748 231.44C251.324 231.472 251.948 231.504 252.62 231.536C253.308 231.552 254.028 231.552 254.78 231.536C255.66 231.536 256.348 231.496 256.844 231.416C257.34 231.336 257.692 231.184 257.9 230.96C258.108 230.72 258.212 230.368 258.212 229.904C258.212 229.328 258.044 228.944 257.708 228.752C257.372 228.56 256.924 228.4 256.364 228.272L253.004 227.504C252.06 227.28 251.38 226.92 250.964 226.424C250.564 225.928 250.364 225.2 250.364 224.24C250.364 223.328 250.524 222.64 250.844 222.176C251.164 221.712 251.66 221.4 252.332 221.24C253.004 221.08 253.868 221.008 254.924 221.024ZM264.424 230.168C264.712 230.168 264.912 230.224 265.024 230.336C265.136 230.448 265.192 230.648 265.192 230.936V232.232C265.192 232.52 265.136 232.72 265.024 232.832C264.912 232.944 264.712 233 264.424 233H263.752C263.48 233 263.28 232.944 263.152 232.832C263.04 232.72 262.984 232.52 262.984 232.232V230.936C262.984 230.648 263.04 230.448 263.152 230.336C263.28 230.224 263.48 230.168 263.752 230.168H264.424Z" fill="black"/>
<path d="M108.652 46.9794C108.844 48.6283 108.958 50.3 108.99 51.9912L108.49 52.0008C108.497 52.3331 108.5 52.6662 108.5 53C108.5 53.3338 108.497 53.6669 108.49 53.9992L108.99 54.0088C108.958 55.7 108.844 57.3717 108.652 59.0206L108.156 58.9628C108.079 59.6237 107.989 60.2808 107.887 60.934L108.381 61.011C108.122 62.6783 107.782 64.3201 107.366 65.9325L106.882 65.8077C106.716 66.452 106.537 67.0916 106.347 67.7262L106.826 67.8699C106.342 69.4817 105.782 71.0618 105.149 72.6061L104.687 72.4165C104.435 73.0314 104.171 73.6406 103.896 74.2438L104.351 74.4511C103.655 75.9792 102.887 77.4694 102.05 78.9174L101.617 78.6673C101.285 79.2424 100.942 79.8107 100.589 80.3722L101.012 80.6386C100.119 82.0573 99.1585 83.4321 98.1359 84.7587L97.7399 84.4534C97.3346 84.9792 96.9194 85.4974 96.4945 86.0077L96.8788 86.3276C95.8074 87.6143 94.6754 88.8513 93.4868 90.0344L93.1341 89.68C92.6638 90.1482 92.1846 90.6078 91.6967 91.0587L92.036 91.4259C90.8077 92.561 89.525 93.6409 88.1922 94.6617L87.8882 94.2648C87.3615 94.6682 86.8268 95.0622 86.2845 95.4467L86.5737 95.8546C85.2108 96.8209 83.8001 97.7272 82.3456 98.5696L82.095 98.1369C81.521 98.4693 80.9402 98.7917 80.3527 99.1037L80.5872 99.5453C79.1137 100.328 77.5989 101.046 76.0469 101.697L75.8537 101.236C75.2426 101.492 74.6258 101.737 74.0033 101.971L74.1796 102.439C72.6205 103.027 71.0267 103.546 69.4021 103.994L69.2691 103.512C68.6304 103.689 67.9869 103.854 67.3388 104.007L67.4542 104.494C65.8355 104.878 64.1884 105.191 62.5167 105.431L62.4457 104.936C61.7906 105.03 61.1317 105.112 60.4692 105.183L60.5223 105.68C58.8722 105.856 57.2 105.961 55.5089 105.991L55.5001 105.491C55.1675 105.497 54.8341 105.5 54.5 105.5C54.1659 105.5 53.8325 105.497 53.4999 105.491L53.4911 105.991C51.8 105.961 50.1278 105.856 48.4777 105.68L48.5308 105.183C47.8683 105.112 47.2093 105.03 46.5543 104.936L46.4833 105.431C44.8116 105.191 43.1645 104.878 41.5458 104.494L41.6612 104.007C41.0131 103.854 40.3696 103.689 39.7309 103.512L39.5979 103.994C37.9733 103.546 36.3795 103.027 34.8204 102.439L34.9967 101.971C34.3742 101.737 33.7574 101.492 33.1463 101.236L32.9531 101.697C31.4011 101.046 29.8863 100.328 28.4128 99.5453L28.6473 99.1037C28.0598 98.7917 27.479 98.4693 26.905 98.1369L26.6544 98.5696C25.1999 97.7272 23.7892 96.8209 22.4263 95.8546L22.7155 95.4467C22.1732 95.0622 21.6385 94.6682 21.1118 94.2647L20.8078 94.6617C19.475 93.6409 18.1923 92.561 16.964 91.4259L17.3033 91.0587C16.8154 90.6078 16.3362 90.1482 15.8659 89.68L15.5132 90.0344C14.3246 88.8513 13.1926 87.6143 12.1212 86.3276L12.5055 86.0077C12.0806 85.4974 11.6654 84.9792 11.2601 84.4534L10.8641 84.7587C9.84155 83.4321 8.88146 82.0573 7.98809 80.6386L8.4112 80.3722C8.05768 79.8107 7.71472 79.2424 7.38259 78.6673L6.94962 78.9174C6.11327 77.4694 5.34483 75.9792 4.64851 74.4511L5.1035 74.2438C4.82863 73.6406 4.56512 73.0314 4.31322 72.4165L3.85054 72.6061C3.21787 71.0618 2.65773 69.4817 2.1742 67.8699L2.65311 67.7262C2.46273 67.0916 2.28435 66.452 2.11821 65.8077L1.63405 65.9325C1.21827 64.3201 0.878451 62.6783 0.61851 61.011L1.11254 60.934C1.01071 60.2808 0.921256 59.6237 0.844419 58.9628L0.347765 59.0206C0.156054 57.3717 0.0421392 55.7 0.00967549 54.0088L0.509583 53.9992C0.503204 53.6669 0.5 53.3338 0.5 53C0.5 52.6662 0.503204 52.3331 0.509584 52.0008L0.00967564 51.9912C0.0421396 50.3 0.156055 48.6283 0.347766 46.9794L0.84442 47.0372C0.921257 46.3763 1.01071 45.7192 1.11254 45.066L0.618512 44.989C0.878453 43.3217 1.21827 41.6799 1.63405 40.0674L2.11822 40.1923C2.28435 39.548 2.46274 38.9084 2.65311 38.2738L2.1742 38.1301C2.65773 36.5183 3.21787 34.9382 3.85054 33.3939L4.31322 33.5835C4.56512 32.9686 4.82863 32.3594 5.1035 31.7562L4.64851 31.5489C5.34483 30.0208 6.11327 28.5306 6.94962 27.0826L7.38259 27.3327C7.71473 26.7576 8.05769 26.1893 8.4112 25.6278L7.98809 25.3614C8.88146 23.9427 9.84155 22.5679 10.8641 21.2413L11.2601 21.5466C11.6654 21.0208 12.0806 20.5026 12.5055 19.9923L12.1212 19.6724C13.1926 18.3857 14.3246 17.1487 15.5132 15.9656L15.8659 16.32C16.3362 15.8518 16.8154 15.3922 17.3033 14.9413L16.964 14.5741C18.1923 13.439 19.475 12.3591 20.8078 11.3383L21.1118 11.7352C21.6385 11.3318 22.1732 10.9378 22.7155 10.5533L22.4263 10.1454C23.7892 9.17909 25.1999 8.27278 26.6544 7.43044L26.905 7.86312C27.479 7.5307 28.0598 7.20833 28.6473 6.89627L28.4128 6.4547C29.8863 5.67202 31.4011 4.95358 32.9531 4.30326L33.1463 4.76442C33.7574 4.50839 34.3742 4.26302 34.9967 4.02854L34.8204 3.56063C36.3795 2.97332 37.9733 2.45375 39.5979 2.00562L39.7309 2.48762C40.3696 2.31146 41.0131 2.14643 41.6612 1.99278L41.5458 1.50626C43.1645 1.12249 44.8116 0.809011 46.4833 0.569351L46.5543 1.06429C47.2094 0.970378 47.8683 0.8879 48.5308 0.817073L48.4777 0.319906C50.1278 0.143513 51.8 0.0387556 53.4911 0.00889973L53.4999 0.508822C53.8325 0.502949 54.1659 0.5 54.5 0.5C54.8341 0.5 55.1675 0.502949 55.5001 0.508822L55.5089 0.00889986C57.2 0.038756 58.8722 0.143514 60.5223 0.319906L60.4692 0.817074C61.1317 0.8879 61.7907 0.970378 62.4457 1.06429L62.5167 0.569351C64.1884 0.809011 65.8355 1.12249 67.4542 1.50626L67.3388 1.99278C67.9869 2.14643 68.6304 2.31146 69.2691 2.48762L69.4021 2.00562C71.0267 2.45375 72.6205 2.97333 74.1796 3.56063L74.0033 4.02854C74.6258 4.26302 75.2426 4.50839 75.8537 4.76442L76.0469 4.30327C77.5989 4.95358 79.1137 5.67202 80.5872 6.4547L80.3527 6.89627C80.9402 7.20833 81.521 7.5307 82.095 7.86312L82.3456 7.43044C83.8001 8.27278 85.2108 9.17909 86.5737 10.1454L86.2845 10.5533C86.8268 10.9378 87.3615 11.3318 87.8882 11.7352L88.1922 11.3383C89.525 12.3591 90.8077 13.439 92.036 14.5741L91.6967 14.9413C92.1846 15.3922 92.6638 15.8518 93.1341 16.32L93.4868 15.9656C94.6754 17.1487 95.8074 18.3857 96.8788 19.6724L96.4945 19.9923C96.9194 20.5026 97.3346 21.0208 97.7399 21.5466L98.1359 21.2413C99.1585 22.5679 100.119 23.9427 101.012 25.3614L100.589 25.6278C100.942 26.1893 101.285 26.7576 101.617 27.3327L102.05 27.0826C102.887 28.5306 103.655 30.0208 104.351 31.5489L103.896 31.7562C104.171 32.3594 104.435 32.9686 104.687 33.5835L105.149 33.3939C105.782 34.9382 106.342 36.5183 106.826 38.1301L106.347 38.2738C106.537 38.9084 106.716 39.548 106.882 40.1923L107.366 40.0675C107.782 41.6799 108.122 43.3217 108.381 44.989L107.887 45.066C107.989 45.7192 108.079 46.3763 108.156 47.0372L108.652 46.9794Z" stroke="black" stroke-dasharray="2 5"/>
<path d="M98.9043 49.9593C98.9434 50.5788 98.9707 51.2016 98.9858 51.8275L98.486 51.8396C98.4953 52.2252 98.5 52.612 98.5 53C98.5 53.388 98.4953 53.7748 98.486 54.1604L98.9858 54.1725C98.9477 55.7476 98.833 57.3029 98.6454 58.8348L98.1491 58.774C98.0739 59.3886 97.9868 59.9993 97.888 60.6059L98.3815 60.6862C98.2558 61.4589 98.1115 62.225 97.9489 62.984L97.46 62.8794C97.1347 64.399 96.7359 65.89 96.2677 67.3482L96.7438 67.501C96.5527 68.0961 96.3502 68.6858 96.1365 69.2698L95.6669 69.098C95.4012 69.8244 95.118 70.5418 94.8178 71.2498L95.2782 71.445C94.6667 72.8875 93.9856 74.2914 93.2394 75.6521L92.801 75.4117C92.5039 75.9534 92.1964 76.4882 91.8788 77.0157L92.3071 77.2736C91.9043 77.9427 91.4853 78.6002 91.0507 79.2458L90.6359 78.9665C89.7721 80.2496 88.846 81.4845 87.8621 82.6665L88.2464 82.9864C87.8472 83.4661 87.4385 83.9372 87.0207 84.3994L86.6498 84.0641C86.1323 84.6365 85.6007 85.1952 85.0555 85.7394L85.4088 86.0932C84.3041 87.1959 83.1444 88.2401 81.9342 89.2209L81.6194 88.8324C81.1403 89.2207 80.6532 89.599 80.1584 89.9669L80.4568 90.3681C79.8313 90.8332 79.1937 91.2819 78.5445 91.7136L78.2676 91.2973C76.9855 92.15 75.6578 92.9356 74.2893 93.6495L74.5205 94.0928C73.9682 94.3809 73.4092 94.6575 72.844 94.9222L72.6319 94.4694C71.9352 94.7957 71.2288 95.1037 70.5133 95.393L70.7006 95.8565C69.2615 96.4383 67.7859 96.9448 66.2783 97.3715L66.1422 96.8904C65.5506 97.0577 64.9542 97.2127 64.353 97.3549L64.4681 97.8415C63.7122 98.0203 62.949 98.1792 62.179 98.3176L62.0905 97.8255C60.5871 98.0959 59.0574 98.2873 57.5055 98.3955L57.5402 98.8943C56.921 98.9375 56.2983 98.9676 55.6724 98.9843L55.659 98.4845C55.2739 98.4948 54.8875 98.5 54.5 98.5C54.1125 98.5 53.7261 98.4948 53.341 98.4845L53.3276 98.9843C51.7529 98.9422 50.1985 98.8156 48.6686 98.6086L48.7357 98.1131C48.1229 98.0302 47.514 97.9342 46.9095 97.8255L46.821 98.3176C46.051 98.1792 45.2878 98.0203 44.5319 97.8415L44.647 97.3549C43.1389 96.9981 41.6602 96.5612 40.2155 96.0487L40.0483 96.5199C39.4597 96.3111 38.8766 96.0899 38.2994 95.8565L38.4867 95.393C37.7712 95.1037 37.0648 94.7957 36.3681 94.4694L36.156 94.9222C34.7412 94.2596 33.3658 93.5227 32.0346 92.7164L32.2937 92.2887C31.7661 91.9692 31.2456 91.6386 30.7324 91.2973L30.4555 91.7136C29.8063 91.2819 29.1687 90.8332 28.5432 90.3681L28.8416 89.9669C27.605 89.0475 26.4164 88.0633 25.2804 87.0191L24.942 87.3872C24.4832 86.9654 24.0328 86.534 23.5912 86.0932L23.9445 85.7394C23.3993 85.1952 22.8677 84.6365 22.3502 84.0641L21.9793 84.3994C20.9363 83.2455 19.95 82.036 19.0251 80.7758L19.4282 80.48C19.0638 79.9834 18.709 79.4788 18.3641 78.9665L17.9493 79.2458C17.5147 78.6003 17.0957 77.9427 16.6929 77.2736L17.1212 77.0157C16.329 75.7 15.5999 74.3393 14.9383 72.9383L14.4862 73.1518C14.2205 72.5892 13.9656 72.0201 13.7218 71.445L14.1822 71.2498C13.882 70.5418 13.5988 69.8244 13.3331 69.098L12.8635 69.2698C12.3313 67.8151 11.8683 66.3251 11.4788 64.8043L11.9632 64.6802C11.8106 64.0846 11.6695 63.4843 11.54 62.8794L11.0511 62.9841C10.8886 62.225 10.7442 61.4589 10.6185 60.6862L11.112 60.6059C10.8665 59.0977 10.6928 57.5641 10.5947 56.0092L10.0957 56.0407C10.0566 55.4212 10.0293 54.7984 10.0142 54.1725L10.514 54.1604C10.5047 53.7748 10.5 53.388 10.5 53C10.5 52.612 10.5047 52.2252 10.514 51.8396L10.0142 51.8275C10.0523 50.2524 10.167 48.6971 10.3546 47.1652L10.8509 47.226C10.9261 46.6114 11.0132 46.0007 11.112 45.3941L10.6185 45.3138C10.7442 44.5411 10.8885 43.775 11.0511 43.016L11.54 43.1206C11.8653 41.601 12.2641 40.11 12.7323 38.6518L12.2562 38.499C12.4473 37.9039 12.6498 37.3142 12.8635 36.7302L13.3331 36.902C13.5988 36.1757 13.882 35.4582 14.1822 34.7502L13.7218 34.555C14.3333 33.1125 15.0144 31.7086 15.7606 30.3479L16.199 30.5883C16.4961 30.0466 16.8036 29.5118 17.1212 28.9843L16.6929 28.7264C17.0957 28.0573 17.5147 27.3998 17.9493 26.7543L18.3641 27.0335C19.2279 25.7504 20.154 24.5155 21.1379 23.3335L20.7536 23.0136C21.1528 22.5339 21.5615 22.0628 21.9793 21.6006L22.3502 21.9359C22.8677 21.3635 23.3993 20.8048 23.9445 20.2606L23.5912 19.9068C24.6959 18.8041 25.8556 17.7599 27.0658 16.7791L27.3806 17.1676C27.8597 16.7793 28.3468 16.401 28.8416 16.0331L28.5432 15.6319C29.1687 15.1668 29.8063 14.7181 30.4555 14.2864L30.7324 14.7027C32.0145 13.85 33.3422 13.0644 34.7107 12.3505L34.4795 11.9072C35.0318 11.6191 35.5908 11.3425 36.156 11.0778L36.3681 11.5306C37.0648 11.2043 37.7712 10.8963 38.4867 10.607L38.2994 10.1435C39.7385 9.56171 41.2141 9.05518 42.7217 8.62854L42.8578 9.10965C43.4494 8.94225 44.0458 8.7873 44.647 8.64509L44.5319 8.15852C45.2878 7.97971 46.051 7.8208 46.821 7.68235L46.9095 8.17446C48.4129 7.90413 49.9426 7.71269 51.4945 7.60446L51.4598 7.10567C52.079 7.06248 52.7017 7.03239 53.3276 7.01565L53.341 7.51548C53.7261 7.50518 54.1125 7.5 54.5 7.5C54.8875 7.5 55.2739 7.50518 55.659 7.51548L55.6724 7.01565C57.2471 7.05775 58.8015 7.18441 60.3314 7.39141L60.2643 7.88689C60.8771 7.9698 61.486 8.06575 62.0905 8.17446L62.179 7.68235C62.949 7.8208 63.7122 7.97971 64.4681 8.15851L64.353 8.64509C65.8611 9.00186 67.3398 9.43878 68.7845 9.95131L68.9517 9.48008C69.5404 9.68891 70.1234 9.91014 70.7006 10.1435L70.5133 10.607C71.2288 10.8963 71.9352 11.2043 72.6319 11.5306L72.844 11.0778C74.2588 11.7404 75.6342 12.4773 76.9654 13.2836L76.7063 13.7113C77.2338 14.0308 77.7544 14.3614 78.2676 14.7027L78.5445 14.2864C79.1937 14.7181 79.8313 15.1668 80.4568 15.6319L80.1584 16.0331C81.395 16.9525 82.5836 17.9367 83.7196 18.9809L84.058 18.6128C84.5168 19.0346 84.9672 19.466 85.4088 19.9068L85.0555 20.2606C85.6007 20.8048 86.1323 21.3635 86.6498 21.9359L87.0207 21.6006C88.0638 22.7545 89.05 23.964 89.9749 25.2242L89.5718 25.52C89.9362 26.0166 90.291 26.5212 90.6359 27.0335L91.0507 26.7542C91.4853 27.3998 91.9043 28.0573 92.3071 28.7264L91.8788 28.9843C92.671 30.3 93.4001 31.6607 94.0617 33.0617L94.5138 32.8482C94.7795 33.4108 95.0344 33.9799 95.2782 34.555L94.8178 34.7502C95.118 35.4582 95.4012 36.1756 95.6669 36.902L96.1365 36.7302C96.6688 38.1849 97.1317 39.6749 97.5212 41.1957L97.0368 41.3198C97.1894 41.9154 97.3305 42.5157 97.46 43.1206L97.9489 43.0159C98.1115 43.775 98.2558 44.5411 98.3815 45.3138L97.888 45.3941C98.1335 46.9023 98.3072 48.4359 98.4053 49.9908L98.9043 49.9593Z" stroke="black" stroke-dasharray="2.5 2 5 2.5 2 5"/>
<path d="M60.4668 75H52V42.3633L41.8926 45.498V38.6133L59.5586 32.2852H60.4668V75Z" fill="#53CC89"/>
<path d="M220.324 72C216.014 72 211.777 73.5019 208.525 76.3855L152.71 125.817L151.471 126.919L151.133 128.486L147.245 146.008L145.498 153.357L153.764 151.805L173.485 148.35L175.248 148.05L176.488 146.949L232.123 97.3567C234.453 95.2791 236.039 92.6354 236.681 89.7584C237.323 86.8815 236.992 83.9 235.73 81.1897C234.469 78.4794 232.333 76.1615 229.591 74.5279C226.849 72.8944 223.625 72.0183 220.324 72.01V72ZM220.324 81.7121C221.648 81.7121 222.938 82.3129 224.201 83.4293C226.714 85.6621 226.714 88.0751 224.201 90.3129L169.614 138.804L159.922 140.526L161.866 131.915L216.453 83.4143C217.71 82.2979 219 81.6971 220.324 81.6971V81.7121ZM102 91.8748V192H214.69V125.977L203.421 135.99V181.987H113.269V101.887H165.039L176.307 91.8748H102Z" fill="black"/>
<path d="M64.968 216.152C65.672 216.152 66.272 216.168 66.768 216.2C67.28 216.232 67.744 216.288 68.16 216.368C68.592 216.432 69.032 216.52 69.48 216.632L69.264 218.24C68.784 218.192 68.336 218.152 67.92 218.12C67.52 218.088 67.088 218.064 66.624 218.048C66.16 218.032 65.608 218.024 64.968 218.024C63.896 218.024 63.048 218.232 62.424 218.648C61.8 219.064 61.352 219.76 61.08 220.736C60.824 221.712 60.696 223.04 60.696 224.72C60.696 226.4 60.824 227.728 61.08 228.704C61.352 229.68 61.8 230.376 62.424 230.792C63.048 231.208 63.896 231.416 64.968 231.416C65.992 231.416 66.848 231.4 67.536 231.368C68.24 231.32 68.928 231.248 69.6 231.152L69.816 232.736C69.128 232.928 68.416 233.064 67.68 233.144C66.96 233.24 66.056 233.288 64.968 233.288C63.384 233.288 62.112 233.016 61.152 232.472C60.208 231.912 59.52 231.008 59.088 229.76C58.672 228.512 58.464 226.832 58.464 224.72C58.464 222.608 58.672 220.928 59.088 219.68C59.52 218.432 60.208 217.536 61.152 216.992C62.112 216.432 63.384 216.152 64.968 216.152ZM74.1435 221.312L74.3595 223.16C75.2075 222.488 76.0475 221.968 76.8795 221.6C77.7275 221.216 78.5515 221.024 79.3515 221.024H79.8795L79.6395 222.944H78.9675C78.3115 222.944 77.6475 223.08 76.9755 223.352C76.3195 223.608 75.5275 223.968 74.5995 224.432V233H72.5595V221.312H74.1435ZM83.7763 216.344C84.1923 216.344 84.4003 216.552 84.4003 216.968V218.336C84.4003 218.752 84.1923 218.96 83.7763 218.96H82.8163C82.4003 218.96 82.1923 218.752 82.1923 218.336V216.968C82.1923 216.552 82.4003 216.344 82.8163 216.344H83.7763ZM84.3043 221.312V233H82.2883V221.312H84.3043ZM92.9454 221.024C94.7054 221.024 95.9774 221.344 96.7614 221.984C97.5614 222.624 97.9614 223.576 97.9614 224.84C97.9774 225.88 97.7614 226.696 97.3134 227.288C96.8654 227.864 96.1534 228.152 95.1774 228.152H89.7534C89.8174 229.08 89.9854 229.792 90.2574 230.288C90.5454 230.768 90.9454 231.104 91.4574 231.296C91.9694 231.472 92.6254 231.56 93.4254 231.56C94.0494 231.56 94.7294 231.536 95.4654 231.488C96.2174 231.424 96.8894 231.352 97.4814 231.272L97.6974 232.64C97.3294 232.784 96.8734 232.904 96.3294 233C95.8014 233.096 95.2494 233.168 94.6734 233.216C94.1134 233.264 93.6094 233.288 93.1614 233.288C91.8174 233.288 90.7374 233.088 89.9214 232.688C89.1054 232.272 88.5054 231.616 88.1214 230.72C87.7534 229.808 87.5694 228.608 87.5694 227.12C87.5694 225.584 87.7534 224.376 88.1214 223.496C88.5054 222.6 89.0894 221.968 89.8734 221.6C90.6734 221.216 91.6974 221.024 92.9454 221.024ZM93.0414 222.752C92.2254 222.752 91.5774 222.864 91.0974 223.088C90.6334 223.312 90.2894 223.704 90.0654 224.264C89.8574 224.808 89.7374 225.576 89.7054 226.568H94.6494C95.1774 226.568 95.5214 226.392 95.6814 226.04C95.8414 225.672 95.9214 225.272 95.9214 224.84C95.9054 224.088 95.6814 223.552 95.2494 223.232C94.8174 222.912 94.0814 222.752 93.0414 222.752ZM110.268 221.024C111.036 221.04 111.868 221.08 112.764 221.144C113.66 221.192 114.468 221.272 115.188 221.384L115.02 222.872C114.284 222.84 113.54 222.816 112.788 222.8C112.052 222.768 111.316 222.752 110.58 222.752C109.86 222.736 109.292 222.752 108.876 222.8C108.46 222.848 108.156 222.976 107.964 223.184C107.788 223.392 107.7 223.744 107.7 224.24C107.7 224.848 107.844 225.248 108.132 225.44C108.42 225.632 108.844 225.792 109.404 225.92L112.812 226.688C113.74 226.912 114.42 227.256 114.852 227.72C115.3 228.184 115.524 228.912 115.524 229.904C115.524 230.864 115.34 231.584 114.972 232.064C114.62 232.544 114.076 232.864 113.34 233.024C112.604 233.184 111.668 233.264 110.532 233.264C110.116 233.264 109.492 233.248 108.66 233.216C107.844 233.184 106.94 233.088 105.948 232.928L106.092 231.44C106.668 231.472 107.292 231.504 107.964 231.536C108.652 231.552 109.372 231.552 110.124 231.536C111.004 231.536 111.692 231.496 112.188 231.416C112.684 231.336 113.036 231.184 113.244 230.96C113.452 230.72 113.556 230.368 113.556 229.904C113.556 229.328 113.388 228.944 113.052 228.752C112.716 228.56 112.268 228.4 111.708 228.272L108.348 227.504C107.404 227.28 106.724 226.92 106.308 226.424C105.908 225.928 105.708 225.2 105.708 224.24C105.708 223.328 105.868 222.64 106.188 222.176C106.508 221.712 107.004 221.4 107.676 221.24C108.348 221.08 109.212 221.008 110.268 221.024ZM120.535 221.312V229.52C120.519 230.256 120.655 230.776 120.943 231.08C121.231 231.384 121.711 231.536 122.383 231.536C123.007 231.536 123.631 231.4 124.255 231.128C124.879 230.84 125.615 230.416 126.463 229.856V221.312H128.503V233H126.871L126.727 231.296C125.847 231.968 124.999 232.472 124.183 232.808C123.367 233.144 122.535 233.312 121.687 233.312C119.559 233.312 118.495 232.24 118.495 230.096V221.312H120.535ZM137.775 221.024C139.071 221.024 140.063 221.296 140.751 221.84C141.439 222.368 141.783 223.344 141.783 224.768V233H140.175L139.935 231.056C139.631 231.376 139.239 231.704 138.759 232.04C138.279 232.36 137.727 232.64 137.103 232.88C136.495 233.104 135.831 233.216 135.111 233.216C134.071 233.216 133.223 232.936 132.567 232.376C131.927 231.816 131.607 231.008 131.607 229.952V228.68C131.607 227.768 131.887 227.064 132.447 226.568C133.023 226.056 133.823 225.8 134.847 225.8H139.719V224.768C139.719 224.048 139.551 223.536 139.215 223.232C138.895 222.912 138.271 222.752 137.343 222.752C136.735 222.752 135.967 222.784 135.039 222.848C134.127 222.912 133.223 222.984 132.327 223.064L132.135 221.552C132.935 221.424 133.855 221.304 134.895 221.192C135.935 221.08 136.895 221.024 137.775 221.024ZM135.519 231.464C136.095 231.48 136.767 231.344 137.535 231.056C138.303 230.768 139.031 230.32 139.719 229.712V227.336L135.207 227.36C134.647 227.376 134.255 227.528 134.031 227.816C133.807 228.088 133.695 228.472 133.695 228.968V229.712C133.695 230.32 133.839 230.768 134.127 231.056C134.415 231.328 134.879 231.464 135.519 231.464ZM149.315 221.024C150.083 221.04 150.915 221.08 151.811 221.144C152.707 221.192 153.515 221.272 154.235 221.384L154.067 222.872C153.331 222.84 152.587 222.816 151.835 222.8C151.099 222.768 150.363 222.752 149.627 222.752C148.907 222.736 148.339 222.752 147.923 222.8C147.507 222.848 147.203 222.976 147.011 223.184C146.835 223.392 146.747 223.744 146.747 224.24C146.747 224.848 146.891 225.248 147.179 225.44C147.467 225.632 147.891 225.792 148.451 225.92L151.859 226.688C152.787 226.912 153.467 227.256 153.899 227.72C154.347 228.184 154.571 228.912 154.571 229.904C154.571 230.864 154.387 231.584 154.019 232.064C153.667 232.544 153.123 232.864 152.387 233.024C151.651 233.184 150.715 233.264 149.579 233.264C149.163 233.264 148.539 233.248 147.707 233.216C146.891 233.184 145.987 233.088 144.995 232.928L145.139 231.44C145.715 231.472 146.339 231.504 147.011 231.536C147.699 231.552 148.419 231.552 149.171 231.536C150.051 231.536 150.739 231.496 151.235 231.416C151.731 231.336 152.083 231.184 152.291 230.96C152.499 230.72 152.603 230.368 152.603 229.904C152.603 229.328 152.435 228.944 152.099 228.752C151.763 228.56 151.315 228.4 150.755 228.272L147.395 227.504C146.451 227.28 145.771 226.92 145.355 226.424C144.955 225.928 144.755 225.2 144.755 224.24C144.755 223.328 144.915 222.64 145.235 222.176C145.555 221.712 146.051 221.4 146.723 221.24C147.395 221.08 148.259 221.008 149.315 221.024ZM164.542 221.312L164.758 223.16C165.606 222.488 166.446 221.968 167.278 221.6C168.126 221.216 168.95 221.024 169.75 221.024H170.278L170.038 222.944H169.366C168.71 222.944 168.046 223.08 167.374 223.352C166.718 223.608 165.926 223.968 164.998 224.432V233H162.958V221.312H164.542ZM177.086 221.024C178.846 221.024 180.118 221.344 180.902 221.984C181.702 222.624 182.102 223.576 182.102 224.84C182.118 225.88 181.902 226.696 181.454 227.288C181.006 227.864 180.294 228.152 179.318 228.152H173.894C173.958 229.08 174.126 229.792 174.398 230.288C174.686 230.768 175.086 231.104 175.598 231.296C176.11 231.472 176.766 231.56 177.566 231.56C178.19 231.56 178.87 231.536 179.606 231.488C180.358 231.424 181.03 231.352 181.622 231.272L181.838 232.64C181.47 232.784 181.014 232.904 180.47 233C179.942 233.096 179.39 233.168 178.814 233.216C178.254 233.264 177.75 233.288 177.302 233.288C175.958 233.288 174.878 233.088 174.062 232.688C173.246 232.272 172.646 231.616 172.262 230.72C171.894 229.808 171.71 228.608 171.71 227.12C171.71 225.584 171.894 224.376 172.262 223.496C172.646 222.6 173.23 221.968 174.014 221.6C174.814 221.216 175.838 221.024 177.086 221.024ZM177.182 222.752C176.366 222.752 175.718 222.864 175.238 223.088C174.774 223.312 174.43 223.704 174.206 224.264C173.998 224.808 173.878 225.576 173.846 226.568H178.79C179.318 226.568 179.662 226.392 179.822 226.04C179.982 225.672 180.062 225.272 180.062 224.84C180.046 224.088 179.822 223.552 179.39 223.232C178.958 222.912 178.222 222.752 177.182 222.752ZM191.873 221.312V222.92H188.129V233H186.089V222.92H183.977V221.432L186.089 221.312V219.224C186.089 218.136 186.345 217.296 186.857 216.704C187.369 216.096 188.249 215.792 189.497 215.792C189.753 215.792 190.081 215.8 190.481 215.816C190.881 215.816 191.289 215.832 191.705 215.864C192.121 215.88 192.481 215.912 192.785 215.96L192.617 217.472H190.217C189.449 217.472 188.905 217.624 188.585 217.928C188.281 218.232 188.129 218.736 188.129 219.44V221.312H191.873ZM198.906 221.024C200.666 221.024 201.938 221.344 202.722 221.984C203.522 222.624 203.922 223.576 203.922 224.84C203.938 225.88 203.722 226.696 203.274 227.288C202.826 227.864 202.114 228.152 201.138 228.152H195.714C195.778 229.08 195.946 229.792 196.218 230.288C196.506 230.768 196.906 231.104 197.418 231.296C197.93 231.472 198.586 231.56 199.386 231.56C200.01 231.56 200.69 231.536 201.426 231.488C202.178 231.424 202.85 231.352 203.442 231.272L203.658 232.64C203.29 232.784 202.834 232.904 202.29 233C201.762 233.096 201.21 233.168 200.634 233.216C200.074 233.264 199.57 233.288 199.122 233.288C197.778 233.288 196.698 233.088 195.882 232.688C195.066 232.272 194.466 231.616 194.082 230.72C193.714 229.808 193.53 228.608 193.53 227.12C193.53 225.584 193.714 224.376 194.082 223.496C194.466 222.6 195.05 221.968 195.834 221.6C196.634 221.216 197.658 221.024 198.906 221.024ZM199.002 222.752C198.186 222.752 197.538 222.864 197.058 223.088C196.594 223.312 196.25 223.704 196.026 224.264C195.818 224.808 195.698 225.576 195.666 226.568H200.61C201.138 226.568 201.482 226.392 201.642 226.04C201.802 225.672 201.882 225.272 201.882 224.84C201.866 224.088 201.642 223.552 201.21 223.232C200.778 222.912 200.042 222.752 199.002 222.752ZM208.581 216.344C208.997 216.344 209.205 216.552 209.205 216.968V218.336C209.205 218.752 208.997 218.96 208.581 218.96H207.621C207.205 218.96 206.997 218.752 206.997 218.336V216.968C206.997 216.552 207.205 216.344 207.621 216.344H208.581ZM209.109 221.312V233H207.093V221.312H209.109ZM217.942 221.024C218.454 221.024 219.062 221.064 219.766 221.144C220.486 221.208 221.134 221.352 221.71 221.576L221.446 222.896C220.918 222.848 220.358 222.816 219.766 222.8C219.19 222.768 218.694 222.752 218.278 222.752C217.35 222.752 216.614 222.88 216.07 223.136C215.526 223.392 215.134 223.84 214.894 224.48C214.654 225.12 214.534 226.008 214.534 227.144C214.534 228.28 214.654 229.176 214.894 229.832C215.134 230.472 215.526 230.92 216.07 231.176C216.614 231.432 217.35 231.56 218.278 231.56C218.63 231.56 219.142 231.544 219.814 231.512C220.486 231.48 221.118 231.416 221.71 231.32L221.926 232.688C221.334 232.896 220.686 233.048 219.982 233.144C219.294 233.24 218.606 233.288 217.918 233.288C216.574 233.288 215.494 233.088 214.678 232.688C213.862 232.288 213.27 231.64 212.902 230.744C212.55 229.848 212.374 228.648 212.374 227.144C212.374 225.64 212.558 224.44 212.926 223.544C213.294 222.648 213.886 222.008 214.702 221.624C215.518 221.224 216.598 221.024 217.942 221.024ZM216.718 234.32C217.646 234.24 218.326 234.296 218.758 234.488C219.206 234.696 219.414 235.16 219.382 235.88C219.366 236.904 218.974 237.68 218.206 238.208C217.454 238.752 216.51 238.944 215.374 238.784L215.686 237.704C216.342 237.72 216.87 237.568 217.27 237.248C217.686 236.944 217.902 236.544 217.918 236.048C217.934 235.76 217.846 235.56 217.654 235.448C217.462 235.352 217.078 235.296 216.502 235.28L216.718 234.32ZM229.449 221.024C230.793 221.024 231.865 221.224 232.665 221.624C233.481 222.024 234.065 222.68 234.417 223.592C234.769 224.488 234.945 225.68 234.945 227.168C234.945 228.656 234.769 229.856 234.417 230.768C234.065 231.664 233.481 232.312 232.665 232.712C231.865 233.112 230.793 233.312 229.449 233.312C228.121 233.312 227.049 233.112 226.233 232.712C225.433 232.312 224.849 231.664 224.481 230.768C224.129 229.856 223.953 228.656 223.953 227.168C223.953 225.68 224.129 224.488 224.481 223.592C224.849 222.68 225.433 222.024 226.233 221.624C227.049 221.224 228.121 221.024 229.449 221.024ZM229.449 222.752C228.601 222.752 227.929 222.888 227.433 223.16C226.953 223.416 226.609 223.864 226.401 224.504C226.193 225.144 226.089 226.032 226.089 227.168C226.089 228.304 226.193 229.192 226.401 229.832C226.609 230.472 226.953 230.928 227.433 231.2C227.929 231.456 228.601 231.584 229.449 231.584C230.297 231.584 230.969 231.456 231.465 231.2C231.961 230.928 232.313 230.472 232.521 229.832C232.729 229.192 232.833 228.304 232.833 227.168C232.833 226.032 232.729 225.144 232.521 224.504C232.313 223.864 231.961 223.416 231.465 223.16C230.969 222.888 230.297 222.752 229.449 222.752ZM227.553 216.32C228.049 216.352 228.481 216.472 228.849 216.68C229.217 216.872 229.577 217.064 229.929 217.256C230.281 217.448 230.681 217.576 231.129 217.64C231.593 217.704 231.905 217.632 232.065 217.424C232.225 217.216 232.305 216.888 232.305 216.44H233.265C233.361 217.336 233.225 218.024 232.857 218.504C232.505 218.968 232.017 219.176 231.393 219.128C230.849 219.08 230.377 218.952 229.977 218.744C229.593 218.536 229.225 218.328 228.873 218.12C228.537 217.912 228.169 217.792 227.769 217.76C227.321 217.712 227.017 217.8 226.857 218.024C226.713 218.232 226.641 218.576 226.641 219.056H225.681C225.585 218.096 225.721 217.392 226.089 216.944C226.473 216.48 226.961 216.272 227.553 216.32ZM242.945 221.024C244.705 221.024 245.977 221.344 246.761 221.984C247.561 222.624 247.961 223.576 247.961 224.84C247.977 225.88 247.761 226.696 247.313 227.288C246.865 227.864 246.153 228.152 245.177 228.152H239.753C239.817 229.08 239.985 229.792 240.257 230.288C240.545 230.768 240.945 231.104 241.457 231.296C241.969 231.472 242.625 231.56 243.425 231.56C244.049 231.56 244.729 231.536 245.465 231.488C246.217 231.424 246.889 231.352 247.481 231.272L247.697 232.64C247.329 232.784 246.873 232.904 246.329 233C245.801 233.096 245.249 233.168 244.673 233.216C244.113 233.264 243.609 233.288 243.161 233.288C241.817 233.288 240.737 233.088 239.921 232.688C239.105 232.272 238.505 231.616 238.121 230.72C237.753 229.808 237.569 228.608 237.569 227.12C237.569 225.584 237.753 224.376 238.121 223.496C238.505 222.6 239.089 221.968 239.873 221.6C240.673 221.216 241.697 221.024 242.945 221.024ZM243.041 222.752C242.225 222.752 241.577 222.864 241.097 223.088C240.633 223.312 240.289 223.704 240.065 224.264C239.857 224.808 239.737 225.576 239.705 226.568H244.649C245.177 226.568 245.521 226.392 245.681 226.04C245.841 225.672 245.921 225.272 245.921 224.84C245.905 224.088 245.681 223.552 245.249 223.232C244.817 222.912 244.081 222.752 243.041 222.752ZM254.924 221.024C255.692 221.04 256.524 221.08 257.42 221.144C258.316 221.192 259.124 221.272 259.844 221.384L259.676 222.872C258.94 222.84 258.196 222.816 257.444 222.8C256.708 222.768 255.972 222.752 255.236 222.752C254.516 222.736 253.948 222.752 253.532 222.8C253.116 222.848 252.812 222.976 252.62 223.184C252.444 223.392 252.356 223.744 252.356 224.24C252.356 224.848 252.5 225.248 252.788 225.44C253.076 225.632 253.5 225.792 254.06 225.92L257.468 226.688C258.396 226.912 259.076 227.256 259.508 227.72C259.956 228.184 260.18 228.912 260.18 229.904C260.18 230.864 259.996 231.584 259.628 232.064C259.276 232.544 258.732 232.864 257.996 233.024C257.26 233.184 256.324 233.264 255.188 233.264C254.772 233.264 254.148 233.248 253.316 233.216C252.5 233.184 251.596 233.088 250.604 232.928L250.748 231.44C251.324 231.472 251.948 231.504 252.62 231.536C253.308 231.552 254.028 231.552 254.78 231.536C255.66 231.536 256.348 231.496 256.844 231.416C257.34 231.336 257.692 231.184 257.9 230.96C258.108 230.72 258.212 230.368 258.212 229.904C258.212 229.328 258.044 228.944 257.708 228.752C257.372 228.56 256.924 228.4 256.364 228.272L253.004 227.504C252.06 227.28 251.38 226.92 250.964 226.424C250.564 225.928 250.364 225.2 250.364 224.24C250.364 223.328 250.524 222.64 250.844 222.176C251.164 221.712 251.66 221.4 252.332 221.24C253.004 221.08 253.868 221.008 254.924 221.024ZM264.424 230.168C264.712 230.168 264.912 230.224 265.024 230.336C265.136 230.448 265.192 230.648 265.192 230.936V232.232C265.192 232.52 265.136 232.72 265.024 232.832C264.912 232.944 264.712 233 264.424 233H263.752C263.48 233 263.28 232.944 263.152 232.832C263.04 232.72 262.984 232.52 262.984 232.232V230.936C262.984 230.648 263.04 230.448 263.152 230.336C263.28 230.224 263.48 230.168 263.752 230.168H264.424Z" fill="black"/>
<path d="M108.652 46.9794C108.844 48.6283 108.958 50.3 108.99 51.9912L108.49 52.0008C108.497 52.3331 108.5 52.6662 108.5 53C108.5 53.3338 108.497 53.6669 108.49 53.9992L108.99 54.0088C108.958 55.7 108.844 57.3717 108.652 59.0206L108.156 58.9628C108.079 59.6237 107.989 60.2808 107.887 60.934L108.381 61.011C108.122 62.6783 107.782 64.3201 107.366 65.9325L106.882 65.8077C106.716 66.452 106.537 67.0916 106.347 67.7262L106.826 67.8699C106.342 69.4817 105.782 71.0618 105.149 72.6061L104.687 72.4165C104.435 73.0314 104.171 73.6406 103.896 74.2438L104.351 74.4511C103.655 75.9792 102.887 77.4694 102.05 78.9174L101.617 78.6673C101.285 79.2424 100.942 79.8107 100.589 80.3722L101.012 80.6386C100.119 82.0573 99.1585 83.4321 98.1359 84.7587L97.7399 84.4534C97.3346 84.9792 96.9194 85.4974 96.4945 86.0077L96.8788 86.3276C95.8074 87.6143 94.6754 88.8513 93.4868 90.0344L93.1341 89.68C92.6638 90.1482 92.1846 90.6078 91.6967 91.0587L92.036 91.4259C90.8077 92.561 89.525 93.6409 88.1922 94.6617L87.8882 94.2648C87.3615 94.6682 86.8268 95.0622 86.2845 95.4467L86.5737 95.8546C85.2108 96.8209 83.8001 97.7272 82.3456 98.5696L82.095 98.1369C81.521 98.4693 80.9402 98.7917 80.3527 99.1037L80.5872 99.5453C79.1137 100.328 77.5989 101.046 76.0469 101.697L75.8537 101.236C75.2426 101.492 74.6258 101.737 74.0033 101.971L74.1796 102.439C72.6205 103.027 71.0267 103.546 69.4021 103.994L69.2691 103.512C68.6304 103.689 67.9869 103.854 67.3388 104.007L67.4542 104.494C65.8355 104.878 64.1884 105.191 62.5167 105.431L62.4457 104.936C61.7906 105.03 61.1317 105.112 60.4692 105.183L60.5223 105.68C58.8722 105.856 57.2 105.961 55.5089 105.991L55.5001 105.491C55.1675 105.497 54.8341 105.5 54.5 105.5C54.1659 105.5 53.8325 105.497 53.4999 105.491L53.4911 105.991C51.8 105.961 50.1278 105.856 48.4777 105.68L48.5308 105.183C47.8683 105.112 47.2093 105.03 46.5543 104.936L46.4833 105.431C44.8116 105.191 43.1645 104.878 41.5458 104.494L41.6612 104.007C41.0131 103.854 40.3696 103.689 39.7309 103.512L39.5979 103.994C37.9733 103.546 36.3795 103.027 34.8204 102.439L34.9967 101.971C34.3742 101.737 33.7574 101.492 33.1463 101.236L32.9531 101.697C31.4011 101.046 29.8863 100.328 28.4128 99.5453L28.6473 99.1037C28.0598 98.7917 27.479 98.4693 26.905 98.1369L26.6544 98.5696C25.1999 97.7272 23.7892 96.8209 22.4263 95.8546L22.7155 95.4467C22.1732 95.0622 21.6385 94.6682 21.1118 94.2647L20.8078 94.6617C19.475 93.6409 18.1923 92.561 16.964 91.4259L17.3033 91.0587C16.8154 90.6078 16.3362 90.1482 15.8659 89.68L15.5132 90.0344C14.3246 88.8513 13.1926 87.6143 12.1212 86.3276L12.5055 86.0077C12.0806 85.4974 11.6654 84.9792 11.2601 84.4534L10.8641 84.7587C9.84155 83.4321 8.88146 82.0573 7.98809 80.6386L8.4112 80.3722C8.05768 79.8107 7.71472 79.2424 7.38259 78.6673L6.94962 78.9174C6.11327 77.4694 5.34483 75.9792 4.64851 74.4511L5.1035 74.2438C4.82863 73.6406 4.56512 73.0314 4.31322 72.4165L3.85054 72.6061C3.21787 71.0618 2.65773 69.4817 2.1742 67.8699L2.65311 67.7262C2.46273 67.0916 2.28435 66.452 2.11821 65.8077L1.63405 65.9325C1.21827 64.3201 0.878451 62.6783 0.61851 61.011L1.11254 60.934C1.01071 60.2808 0.921256 59.6237 0.844419 58.9628L0.347765 59.0206C0.156054 57.3717 0.0421392 55.7 0.00967549 54.0088L0.509583 53.9992C0.503204 53.6669 0.5 53.3338 0.5 53C0.5 52.6662 0.503204 52.3331 0.509584 52.0008L0.00967564 51.9912C0.0421396 50.3 0.156055 48.6283 0.347766 46.9794L0.84442 47.0372C0.921257 46.3763 1.01071 45.7192 1.11254 45.066L0.618512 44.989C0.878453 43.3217 1.21827 41.6799 1.63405 40.0674L2.11822 40.1923C2.28435 39.548 2.46274 38.9084 2.65311 38.2738L2.1742 38.1301C2.65773 36.5183 3.21787 34.9382 3.85054 33.3939L4.31322 33.5835C4.56512 32.9686 4.82863 32.3594 5.1035 31.7562L4.64851 31.5489C5.34483 30.0208 6.11327 28.5306 6.94962 27.0826L7.38259 27.3327C7.71473 26.7576 8.05769 26.1893 8.4112 25.6278L7.98809 25.3614C8.88146 23.9427 9.84155 22.5679 10.8641 21.2413L11.2601 21.5466C11.6654 21.0208 12.0806 20.5026 12.5055 19.9923L12.1212 19.6724C13.1926 18.3857 14.3246 17.1487 15.5132 15.9656L15.8659 16.32C16.3362 15.8518 16.8154 15.3922 17.3033 14.9413L16.964 14.5741C18.1923 13.439 19.475 12.3591 20.8078 11.3383L21.1118 11.7352C21.6385 11.3318 22.1732 10.9378 22.7155 10.5533L22.4263 10.1454C23.7892 9.17909 25.1999 8.27278 26.6544 7.43044L26.905 7.86312C27.479 7.5307 28.0598 7.20833 28.6473 6.89627L28.4128 6.4547C29.8863 5.67202 31.4011 4.95358 32.9531 4.30326L33.1463 4.76442C33.7574 4.50839 34.3742 4.26302 34.9967 4.02854L34.8204 3.56063C36.3795 2.97332 37.9733 2.45375 39.5979 2.00562L39.7309 2.48762C40.3696 2.31146 41.0131 2.14643 41.6612 1.99278L41.5458 1.50626C43.1645 1.12249 44.8116 0.809011 46.4833 0.569351L46.5543 1.06429C47.2094 0.970378 47.8683 0.8879 48.5308 0.817073L48.4777 0.319906C50.1278 0.143513 51.8 0.0387556 53.4911 0.00889973L53.4999 0.508822C53.8325 0.502949 54.1659 0.5 54.5 0.5C54.8341 0.5 55.1675 0.502949 55.5001 0.508822L55.5089 0.00889986C57.2 0.038756 58.8722 0.143514 60.5223 0.319906L60.4692 0.817074C61.1317 0.8879 61.7907 0.970378 62.4457 1.06429L62.5167 0.569351C64.1884 0.809011 65.8355 1.12249 67.4542 1.50626L67.3388 1.99278C67.9869 2.14643 68.6304 2.31146 69.2691 2.48762L69.4021 2.00562C71.0267 2.45375 72.6205 2.97333 74.1796 3.56063L74.0033 4.02854C74.6258 4.26302 75.2426 4.50839 75.8537 4.76442L76.0469 4.30327C77.5989 4.95358 79.1137 5.67202 80.5872 6.4547L80.3527 6.89627C80.9402 7.20833 81.521 7.5307 82.095 7.86312L82.3456 7.43044C83.8001 8.27278 85.2108 9.17909 86.5737 10.1454L86.2845 10.5533C86.8268 10.9378 87.3615 11.3318 87.8882 11.7352L88.1922 11.3383C89.525 12.3591 90.8077 13.439 92.036 14.5741L91.6967 14.9413C92.1846 15.3922 92.6638 15.8518 93.1341 16.32L93.4868 15.9656C94.6754 17.1487 95.8074 18.3857 96.8788 19.6724L96.4945 19.9923C96.9194 20.5026 97.3346 21.0208 97.7399 21.5466L98.1359 21.2413C99.1585 22.5679 100.119 23.9427 101.012 25.3614L100.589 25.6278C100.942 26.1893 101.285 26.7576 101.617 27.3327L102.05 27.0826C102.887 28.5306 103.655 30.0208 104.351 31.5489L103.896 31.7562C104.171 32.3594 104.435 32.9686 104.687 33.5835L105.149 33.3939C105.782 34.9382 106.342 36.5183 106.826 38.1301L106.347 38.2738C106.537 38.9084 106.716 39.548 106.882 40.1923L107.366 40.0675C107.782 41.6799 108.122 43.3217 108.381 44.989L107.887 45.066C107.989 45.7192 108.079 46.3763 108.156 47.0372L108.652 46.9794Z" stroke="black" stroke-dasharray="2 5"/>
<path d="M98.9043 49.9593C98.9434 50.5788 98.9707 51.2016 98.9858 51.8275L98.486 51.8396C98.4953 52.2252 98.5 52.612 98.5 53C98.5 53.388 98.4953 53.7748 98.486 54.1604L98.9858 54.1725C98.9477 55.7476 98.833 57.3029 98.6454 58.8348L98.1491 58.774C98.0739 59.3886 97.9868 59.9993 97.888 60.6059L98.3815 60.6862C98.2558 61.4589 98.1115 62.225 97.9489 62.984L97.46 62.8794C97.1347 64.399 96.7359 65.89 96.2677 67.3482L96.7438 67.501C96.5527 68.0961 96.3502 68.6858 96.1365 69.2698L95.6669 69.098C95.4012 69.8244 95.118 70.5418 94.8178 71.2498L95.2782 71.445C94.6667 72.8875 93.9856 74.2914 93.2394 75.6521L92.801 75.4117C92.5039 75.9534 92.1964 76.4882 91.8788 77.0157L92.3071 77.2736C91.9043 77.9427 91.4853 78.6002 91.0507 79.2458L90.6359 78.9665C89.7721 80.2496 88.846 81.4845 87.8621 82.6665L88.2464 82.9864C87.8472 83.4661 87.4385 83.9372 87.0207 84.3994L86.6498 84.0641C86.1323 84.6365 85.6007 85.1952 85.0555 85.7394L85.4088 86.0932C84.3041 87.1959 83.1444 88.2401 81.9342 89.2209L81.6194 88.8324C81.1403 89.2207 80.6532 89.599 80.1584 89.9669L80.4568 90.3681C79.8313 90.8332 79.1937 91.2819 78.5445 91.7136L78.2676 91.2973C76.9855 92.15 75.6578 92.9356 74.2893 93.6495L74.5205 94.0928C73.9682 94.3809 73.4092 94.6575 72.844 94.9222L72.6319 94.4694C71.9352 94.7957 71.2288 95.1037 70.5133 95.393L70.7006 95.8565C69.2615 96.4383 67.7859 96.9448 66.2783 97.3715L66.1422 96.8904C65.5506 97.0577 64.9542 97.2127 64.353 97.3549L64.4681 97.8415C63.7122 98.0203 62.949 98.1792 62.179 98.3176L62.0905 97.8255C60.5871 98.0959 59.0574 98.2873 57.5055 98.3955L57.5402 98.8943C56.921 98.9375 56.2983 98.9676 55.6724 98.9843L55.659 98.4845C55.2739 98.4948 54.8875 98.5 54.5 98.5C54.1125 98.5 53.7261 98.4948 53.341 98.4845L53.3276 98.9843C51.7529 98.9422 50.1985 98.8156 48.6686 98.6086L48.7357 98.1131C48.1229 98.0302 47.514 97.9342 46.9095 97.8255L46.821 98.3176C46.051 98.1792 45.2878 98.0203 44.5319 97.8415L44.647 97.3549C43.1389 96.9981 41.6602 96.5612 40.2155 96.0487L40.0483 96.5199C39.4597 96.3111 38.8766 96.0899 38.2994 95.8565L38.4867 95.393C37.7712 95.1037 37.0648 94.7957 36.3681 94.4694L36.156 94.9222C34.7412 94.2596 33.3658 93.5227 32.0346 92.7164L32.2937 92.2887C31.7661 91.9692 31.2456 91.6386 30.7324 91.2973L30.4555 91.7136C29.8063 91.2819 29.1687 90.8332 28.5432 90.3681L28.8416 89.9669C27.605 89.0475 26.4164 88.0633 25.2804 87.0191L24.942 87.3872C24.4832 86.9654 24.0328 86.534 23.5912 86.0932L23.9445 85.7394C23.3993 85.1952 22.8677 84.6365 22.3502 84.0641L21.9793 84.3994C20.9363 83.2455 19.95 82.036 19.0251 80.7758L19.4282 80.48C19.0638 79.9834 18.709 79.4788 18.3641 78.9665L17.9493 79.2458C17.5147 78.6003 17.0957 77.9427 16.6929 77.2736L17.1212 77.0157C16.329 75.7 15.5999 74.3393 14.9383 72.9383L14.4862 73.1518C14.2205 72.5892 13.9656 72.0201 13.7218 71.445L14.1822 71.2498C13.882 70.5418 13.5988 69.8244 13.3331 69.098L12.8635 69.2698C12.3313 67.8151 11.8683 66.3251 11.4788 64.8043L11.9632 64.6802C11.8106 64.0846 11.6695 63.4843 11.54 62.8794L11.0511 62.9841C10.8886 62.225 10.7442 61.4589 10.6185 60.6862L11.112 60.6059C10.8665 59.0977 10.6928 57.5641 10.5947 56.0092L10.0957 56.0407C10.0566 55.4212 10.0293 54.7984 10.0142 54.1725L10.514 54.1604C10.5047 53.7748 10.5 53.388 10.5 53C10.5 52.612 10.5047 52.2252 10.514 51.8396L10.0142 51.8275C10.0523 50.2524 10.167 48.6971 10.3546 47.1652L10.8509 47.226C10.9261 46.6114 11.0132 46.0007 11.112 45.3941L10.6185 45.3138C10.7442 44.5411 10.8885 43.775 11.0511 43.016L11.54 43.1206C11.8653 41.601 12.2641 40.11 12.7323 38.6518L12.2562 38.499C12.4473 37.9039 12.6498 37.3142 12.8635 36.7302L13.3331 36.902C13.5988 36.1757 13.882 35.4582 14.1822 34.7502L13.7218 34.555C14.3333 33.1125 15.0144 31.7086 15.7606 30.3479L16.199 30.5883C16.4961 30.0466 16.8036 29.5118 17.1212 28.9843L16.6929 28.7264C17.0957 28.0573 17.5147 27.3998 17.9493 26.7543L18.3641 27.0335C19.2279 25.7504 20.154 24.5155 21.1379 23.3335L20.7536 23.0136C21.1528 22.5339 21.5615 22.0628 21.9793 21.6006L22.3502 21.9359C22.8677 21.3635 23.3993 20.8048 23.9445 20.2606L23.5912 19.9068C24.6959 18.8041 25.8556 17.7599 27.0658 16.7791L27.3806 17.1676C27.8597 16.7793 28.3468 16.401 28.8416 16.0331L28.5432 15.6319C29.1687 15.1668 29.8063 14.7181 30.4555 14.2864L30.7324 14.7027C32.0145 13.85 33.3422 13.0644 34.7107 12.3505L34.4795 11.9072C35.0318 11.6191 35.5908 11.3425 36.156 11.0778L36.3681 11.5306C37.0648 11.2043 37.7712 10.8963 38.4867 10.607L38.2994 10.1435C39.7385 9.56171 41.2141 9.05518 42.7217 8.62854L42.8578 9.10965C43.4494 8.94225 44.0458 8.7873 44.647 8.64509L44.5319 8.15852C45.2878 7.97971 46.051 7.8208 46.821 7.68235L46.9095 8.17446C48.4129 7.90413 49.9426 7.71269 51.4945 7.60446L51.4598 7.10567C52.079 7.06248 52.7017 7.03239 53.3276 7.01565L53.341 7.51548C53.7261 7.50518 54.1125 7.5 54.5 7.5C54.8875 7.5 55.2739 7.50518 55.659 7.51548L55.6724 7.01565C57.2471 7.05775 58.8015 7.18441 60.3314 7.39141L60.2643 7.88689C60.8771 7.9698 61.486 8.06575 62.0905 8.17446L62.179 7.68235C62.949 7.8208 63.7122 7.97971 64.4681 8.15851L64.353 8.64509C65.8611 9.00186 67.3398 9.43878 68.7845 9.95131L68.9517 9.48008C69.5404 9.68891 70.1234 9.91014 70.7006 10.1435L70.5133 10.607C71.2288 10.8963 71.9352 11.2043 72.6319 11.5306L72.844 11.0778C74.2588 11.7404 75.6342 12.4773 76.9654 13.2836L76.7063 13.7113C77.2338 14.0308 77.7544 14.3614 78.2676 14.7027L78.5445 14.2864C79.1937 14.7181 79.8313 15.1668 80.4568 15.6319L80.1584 16.0331C81.395 16.9525 82.5836 17.9367 83.7196 18.9809L84.058 18.6128C84.5168 19.0346 84.9672 19.466 85.4088 19.9068L85.0555 20.2606C85.6007 20.8048 86.1323 21.3635 86.6498 21.9359L87.0207 21.6006C88.0638 22.7545 89.05 23.964 89.9749 25.2242L89.5718 25.52C89.9362 26.0166 90.291 26.5212 90.6359 27.0335L91.0507 26.7542C91.4853 27.3998 91.9043 28.0573 92.3071 28.7264L91.8788 28.9843C92.671 30.3 93.4001 31.6607 94.0617 33.0617L94.5138 32.8482C94.7795 33.4108 95.0344 33.9799 95.2782 34.555L94.8178 34.7502C95.118 35.4582 95.4012 36.1756 95.6669 36.902L96.1365 36.7302C96.6688 38.1849 97.1317 39.6749 97.5212 41.1957L97.0368 41.3198C97.1894 41.9154 97.3305 42.5157 97.46 43.1206L97.9489 43.0159C98.1115 43.775 98.2558 44.5411 98.3815 45.3138L97.888 45.3941C98.1335 46.9023 98.3072 48.4359 98.4053 49.9908L98.9043 49.9593Z" stroke="black" stroke-dasharray="2.5 2 5 2.5 2 5"/>
<path d="M60.4668 75H52V42.3633L41.8926 45.498V38.6133L59.5586 32.2852H60.4668V75Z" fill="#53CC89"/>
</svg>
