<svg width="282" height="240" viewBox="0 0 282 240" fill="none" xmlns="http://www.w3.org/2000/svg">
<path d="M62.8 189.224C64.08 189.224 65.112 189.368 65.896 189.656C66.68 189.928 67.248 190.408 67.6 191.096C67.968 191.784 68.152 192.752 68.152 194C68.152 195.344 67.912 196.36 67.432 197.048C66.968 197.72 66.192 198.128 65.104 198.272V198.392C65.52 198.504 65.92 198.752 66.304 199.136C66.688 199.52 66.968 200.064 67.144 200.768L68.752 206H66.496L65.032 200.816C64.824 200.192 64.544 199.752 64.192 199.496C63.84 199.224 63.384 199.088 62.824 199.088C62.056 199.088 61.368 199.088 60.76 199.088C60.168 199.072 59.64 199.064 59.176 199.064V206H57.088V189.44C57.696 189.376 58.264 189.328 58.792 189.296C59.32 189.264 59.896 189.248 60.52 189.248C61.16 189.232 61.92 189.224 62.8 189.224ZM62.752 191.048C62.048 191.048 61.392 191.056 60.784 191.072C60.176 191.072 59.64 191.072 59.176 191.072V197.264H62.752C63.568 197.248 64.208 197.152 64.672 196.976C65.152 196.8 65.496 196.488 65.704 196.04C65.912 195.576 66.016 194.936 66.016 194.12C66.016 193.304 65.912 192.68 65.704 192.248C65.496 191.8 65.152 191.488 64.672 191.312C64.208 191.136 63.568 191.048 62.752 191.048ZM76.3908 194.024C78.1508 194.024 79.4228 194.344 80.2068 194.984C81.0068 195.624 81.4068 196.576 81.4068 197.84C81.4228 198.88 81.2068 199.696 80.7588 200.288C80.3108 200.864 79.5988 201.152 78.6228 201.152H73.1988C73.2628 202.08 73.4308 202.792 73.7028 203.288C73.9908 203.768 74.3908 204.104 74.9028 204.296C75.4148 204.472 76.0708 204.56 76.8708 204.56C77.4948 204.56 78.1748 204.536 78.9108 204.488C79.6628 204.424 80.3348 204.352 80.9268 204.272L81.1428 205.64C80.7748 205.784 80.3188 205.904 79.7748 206C79.2468 206.096 78.6948 206.168 78.1188 206.216C77.5588 206.264 77.0548 206.288 76.6068 206.288C75.2628 206.288 74.1828 206.088 73.3668 205.688C72.5508 205.272 71.9508 204.616 71.5668 203.72C71.1988 202.808 71.0148 201.608 71.0148 200.12C71.0148 198.584 71.1988 197.376 71.5668 196.496C71.9508 195.6 72.5348 194.968 73.3188 194.6C74.1188 194.216 75.1428 194.024 76.3908 194.024ZM76.4868 195.752C75.6708 195.752 75.0228 195.864 74.5428 196.088C74.0788 196.312 73.7348 196.704 73.5108 197.264C73.3028 197.808 73.1828 198.576 73.1508 199.568H78.0948C78.6228 199.568 78.9668 199.392 79.1268 199.04C79.2868 198.672 79.3668 198.272 79.3668 197.84C79.3508 197.088 79.1268 196.552 78.6948 196.232C78.2628 195.912 77.5268 195.752 76.4868 195.752ZM89.4734 194.024C89.9854 194.024 90.5934 194.064 91.2974 194.144C92.0174 194.208 92.6654 194.352 93.2414 194.576L92.9774 195.896C92.4494 195.848 91.8894 195.816 91.2974 195.8C90.7214 195.768 90.2254 195.752 89.8094 195.752C88.8814 195.752 88.1454 195.88 87.6014 196.136C87.0574 196.392 86.6654 196.84 86.4254 197.48C86.1854 198.12 86.0654 199.008 86.0654 200.144C86.0654 201.28 86.1854 202.176 86.4254 202.832C86.6654 203.472 87.0574 203.92 87.6014 204.176C88.1454 204.432 88.8814 204.56 89.8094 204.56C90.1614 204.56 90.6734 204.544 91.3454 204.512C92.0174 204.48 92.6494 204.416 93.2414 204.32L93.4574 205.688C92.8654 205.896 92.2174 206.048 91.5134 206.144C90.8254 206.24 90.1374 206.288 89.4494 206.288C88.1054 206.288 87.0254 206.088 86.2094 205.688C85.3934 205.288 84.8014 204.64 84.4334 203.744C84.0814 202.848 83.9054 201.648 83.9054 200.144C83.9054 198.64 84.0894 197.44 84.4574 196.544C84.8254 195.648 85.4174 195.008 86.2334 194.624C87.0494 194.224 88.1294 194.024 89.4734 194.024ZM100.836 194.024C102.596 194.024 103.868 194.344 104.652 194.984C105.452 195.624 105.852 196.576 105.852 197.84C105.868 198.88 105.652 199.696 105.204 200.288C104.756 200.864 104.044 201.152 103.068 201.152H97.6441C97.7081 202.08 97.8761 202.792 98.1481 203.288C98.4361 203.768 98.8361 204.104 99.3481 204.296C99.8601 204.472 100.516 204.56 101.316 204.56C101.94 204.56 102.62 204.536 103.356 204.488C104.108 204.424 104.78 204.352 105.372 204.272L105.588 205.64C105.22 205.784 104.764 205.904 104.22 206C103.692 206.096 103.14 206.168 102.564 206.216C102.004 206.264 101.5 206.288 101.052 206.288C99.7081 206.288 98.6281 206.088 97.8121 205.688C96.9961 205.272 96.3961 204.616 96.0121 203.72C95.6441 202.808 95.4601 201.608 95.4601 200.12C95.4601 198.584 95.6441 197.376 96.0121 196.496C96.3961 195.6 96.9801 194.968 97.7641 194.6C98.5641 194.216 99.5881 194.024 100.836 194.024ZM100.932 195.752C100.116 195.752 99.4681 195.864 98.9881 196.088C98.5241 196.312 98.1801 196.704 97.9561 197.264C97.7481 197.808 97.6281 198.576 97.5961 199.568H102.54C103.068 199.568 103.412 199.392 103.572 199.04C103.732 198.672 103.812 198.272 103.812 197.84C103.796 197.088 103.572 196.552 103.14 196.232C102.708 195.912 101.972 195.752 100.932 195.752ZM115.215 194.024C116.655 194.024 117.719 194.496 118.407 195.44C119.095 196.368 119.439 197.928 119.439 200.12C119.439 201.448 119.287 202.576 118.983 203.504C118.679 204.416 118.151 205.112 117.399 205.592C116.647 206.056 115.599 206.288 114.255 206.288C113.439 206.288 112.535 206.216 111.543 206.072C110.551 205.928 109.663 205.72 108.879 205.448V189.2H110.919V193.568C110.919 194.064 110.903 194.52 110.871 194.936C110.855 195.352 110.799 195.76 110.703 196.16C112.095 194.736 113.599 194.024 115.215 194.024ZM114.495 195.8C113.887 195.8 113.303 195.96 112.743 196.28C112.199 196.584 111.583 197.008 110.895 197.552L110.919 204.176C111.479 204.32 112.039 204.424 112.599 204.488C113.159 204.552 113.695 204.576 114.207 204.56C115.343 204.544 116.143 204.216 116.607 203.576C117.071 202.92 117.311 201.768 117.327 200.12C117.327 199.048 117.247 198.2 117.087 197.576C116.927 196.936 116.639 196.48 116.223 196.208C115.823 195.936 115.247 195.8 114.495 195.8ZM128.134 194.024C129.43 194.024 130.422 194.296 131.11 194.84C131.798 195.368 132.142 196.344 132.142 197.768V206H130.534L130.294 204.056C129.99 204.376 129.598 204.704 129.118 205.04C128.638 205.36 128.086 205.64 127.462 205.88C126.854 206.104 126.19 206.216 125.47 206.216C124.43 206.216 123.582 205.936 122.926 205.376C122.286 204.816 121.966 204.008 121.966 202.952V201.68C121.966 200.768 122.246 200.064 122.806 199.568C123.382 199.056 124.182 198.8 125.206 198.8H130.078V197.768C130.078 197.048 129.91 196.536 129.574 196.232C129.254 195.912 128.63 195.752 127.702 195.752C127.094 195.752 126.326 195.784 125.398 195.848C124.486 195.912 123.582 195.984 122.686 196.064L122.494 194.552C123.294 194.424 124.214 194.304 125.254 194.192C126.294 194.08 127.254 194.024 128.134 194.024ZM125.878 204.464C126.454 204.48 127.126 204.344 127.894 204.056C128.662 203.768 129.39 203.32 130.078 202.712V200.336L125.566 200.36C125.006 200.376 124.614 200.528 124.39 200.816C124.166 201.088 124.054 201.472 124.054 201.968V202.712C124.054 203.32 124.198 203.768 124.486 204.056C124.774 204.328 125.238 204.464 125.878 204.464ZM145.018 194.024C146.474 194.024 147.858 194.376 149.17 195.08C149.138 194.712 149.114 194.344 149.098 193.976C149.082 193.608 149.074 193.216 149.074 192.8V189.2H151.114V206H149.53L149.338 204.32C148.698 204.864 147.986 205.328 147.202 205.712C146.434 206.096 145.602 206.288 144.706 206.288C143.234 206.288 142.178 205.768 141.538 204.728C140.914 203.688 140.602 202.152 140.602 200.12C140.602 198.6 140.762 197.4 141.082 196.52C141.402 195.624 141.89 194.984 142.546 194.6C143.202 194.216 144.026 194.024 145.018 194.024ZM142.69 200.096C142.69 201.248 142.778 202.144 142.954 202.784C143.146 203.424 143.442 203.872 143.842 204.128C144.242 204.384 144.754 204.512 145.378 204.512C146.034 204.512 146.618 204.384 147.13 204.128C147.642 203.872 148.29 203.464 149.074 202.904V196.448C148.386 196.256 147.77 196.104 147.226 195.992C146.682 195.864 146.106 195.8 145.498 195.8C144.826 195.8 144.282 195.92 143.866 196.16C143.466 196.384 143.17 196.808 142.978 197.432C142.786 198.056 142.69 198.944 142.69 200.096ZM156.472 189.344C156.888 189.344 157.096 189.552 157.096 189.968V191.336C157.096 191.752 156.888 191.96 156.472 191.96H155.512C155.096 191.96 154.888 191.752 154.888 191.336V189.968C154.888 189.552 155.096 189.344 155.512 189.344H156.472ZM157 194.312V206H154.984V194.312H157ZM165.833 194.024C166.345 194.024 166.953 194.064 167.657 194.144C168.377 194.208 169.025 194.352 169.601 194.576L169.337 195.896C168.809 195.848 168.249 195.816 167.657 195.8C167.081 195.768 166.585 195.752 166.169 195.752C165.241 195.752 164.505 195.88 163.961 196.136C163.417 196.392 163.025 196.84 162.785 197.48C162.545 198.12 162.425 199.008 162.425 200.144C162.425 201.28 162.545 202.176 162.785 202.832C163.025 203.472 163.417 203.92 163.961 204.176C164.505 204.432 165.241 204.56 166.169 204.56C166.521 204.56 167.033 204.544 167.705 204.512C168.377 204.48 169.009 204.416 169.601 204.32L169.817 205.688C169.225 205.896 168.577 206.048 167.873 206.144C167.185 206.24 166.497 206.288 165.809 206.288C164.465 206.288 163.385 206.088 162.569 205.688C161.753 205.288 161.161 204.64 160.793 203.744C160.441 202.848 160.265 201.648 160.265 200.144C160.265 198.64 160.449 197.44 160.817 196.544C161.185 195.648 161.777 195.008 162.593 194.624C163.409 194.224 164.489 194.024 165.833 194.024ZM178.103 194.024C179.399 194.024 180.391 194.296 181.079 194.84C181.767 195.368 182.111 196.344 182.111 197.768V206H180.503L180.263 204.056C179.959 204.376 179.567 204.704 179.087 205.04C178.607 205.36 178.055 205.64 177.431 205.88C176.823 206.104 176.159 206.216 175.439 206.216C174.399 206.216 173.551 205.936 172.895 205.376C172.255 204.816 171.935 204.008 171.935 202.952V201.68C171.935 200.768 172.215 200.064 172.775 199.568C173.351 199.056 174.151 198.8 175.175 198.8H180.047V197.768C180.047 197.048 179.879 196.536 179.543 196.232C179.223 195.912 178.599 195.752 177.671 195.752C177.063 195.752 176.295 195.784 175.367 195.848C174.455 195.912 173.551 195.984 172.655 196.064L172.463 194.552C173.263 194.424 174.183 194.304 175.223 194.192C176.263 194.08 177.223 194.024 178.103 194.024ZM175.847 204.464C176.423 204.48 177.095 204.344 177.863 204.056C178.631 203.768 179.359 203.32 180.047 202.712V200.336L175.535 200.36C174.975 200.376 174.583 200.528 174.359 200.816C174.135 201.088 174.023 201.472 174.023 201.968V202.712C174.023 203.32 174.167 203.768 174.455 204.056C174.743 204.328 175.207 204.464 175.847 204.464ZM189.643 194.024C190.411 194.04 191.243 194.08 192.139 194.144C193.035 194.192 193.843 194.272 194.563 194.384L194.395 195.872C193.659 195.84 192.915 195.816 192.163 195.8C191.427 195.768 190.691 195.752 189.955 195.752C189.235 195.736 188.667 195.752 188.251 195.8C187.835 195.848 187.531 195.976 187.339 196.184C187.163 196.392 187.075 196.744 187.075 197.24C187.075 197.848 187.219 198.248 187.507 198.44C187.795 198.632 188.219 198.792 188.779 198.92L192.187 199.688C193.115 199.912 193.795 200.256 194.227 200.72C194.675 201.184 194.899 201.912 194.899 202.904C194.899 203.864 194.715 204.584 194.347 205.064C193.995 205.544 193.451 205.864 192.715 206.024C191.979 206.184 191.043 206.264 189.907 206.264C189.491 206.264 188.867 206.248 188.035 206.216C187.219 206.184 186.315 206.088 185.323 205.928L185.467 204.44C186.043 204.472 186.667 204.504 187.339 204.536C188.027 204.552 188.747 204.552 189.499 204.536C190.379 204.536 191.067 204.496 191.563 204.416C192.059 204.336 192.411 204.184 192.619 203.96C192.827 203.72 192.931 203.368 192.931 202.904C192.931 202.328 192.763 201.944 192.427 201.752C192.091 201.56 191.643 201.4 191.083 201.272L187.723 200.504C186.779 200.28 186.099 199.92 185.683 199.424C185.283 198.928 185.083 198.2 185.083 197.24C185.083 196.328 185.243 195.64 185.563 195.176C185.883 194.712 186.379 194.4 187.051 194.24C187.723 194.08 188.587 194.008 189.643 194.024ZM204.966 194.312L205.134 196.184C205.774 195.512 206.526 194.984 207.39 194.6C208.27 194.216 209.134 194.024 209.982 194.024C211.406 194.024 212.43 194.552 213.054 195.608C213.678 196.648 213.99 198.184 213.99 200.216C213.99 201.72 213.83 202.92 213.51 203.816C213.19 204.696 212.702 205.328 212.046 205.712C211.406 206.096 210.582 206.288 209.574 206.288C208.822 206.288 208.086 206.192 207.366 206C206.646 205.808 205.942 205.504 205.254 205.088C205.286 205.488 205.302 205.872 205.302 206.24C205.318 206.624 205.326 207.024 205.326 207.44V210.824H203.286V194.312H204.966ZM209.31 195.8C208.67 195.8 208.038 195.952 207.414 196.256C206.806 196.544 206.11 196.984 205.326 197.576V203.816C206.062 204.008 206.71 204.176 207.27 204.32C207.846 204.448 208.446 204.512 209.07 204.512C209.758 204.512 210.302 204.392 210.702 204.152C211.118 203.912 211.422 203.48 211.614 202.856C211.806 202.232 211.902 201.352 211.902 200.216C211.902 198.552 211.702 197.4 211.302 196.76C210.902 196.12 210.238 195.8 209.31 195.8ZM222.728 194.024C224.024 194.024 225.016 194.296 225.704 194.84C226.392 195.368 226.736 196.344 226.736 197.768V206H225.128L224.888 204.056C224.584 204.376 224.192 204.704 223.712 205.04C223.232 205.36 222.68 205.64 222.056 205.88C221.448 206.104 220.784 206.216 220.064 206.216C219.024 206.216 218.176 205.936 217.52 205.376C216.88 204.816 216.56 204.008 216.56 202.952V201.68C216.56 200.768 216.84 200.064 217.4 199.568C217.976 199.056 218.776 198.8 219.8 198.8H224.672V197.768C224.672 197.048 224.504 196.536 224.168 196.232C223.848 195.912 223.224 195.752 222.296 195.752C221.688 195.752 220.92 195.784 219.992 195.848C219.08 195.912 218.176 195.984 217.28 196.064L217.088 194.552C217.888 194.424 218.808 194.304 219.848 194.192C220.888 194.08 221.848 194.024 222.728 194.024ZM220.472 204.464C221.048 204.48 221.72 204.344 222.488 204.056C223.256 203.768 223.984 203.32 224.672 202.712V200.336L220.16 200.36C219.6 200.376 219.208 200.528 218.984 200.816C218.76 201.088 218.648 201.472 218.648 201.968V202.712C218.648 203.32 218.792 203.768 219.08 204.056C219.368 204.328 219.832 204.464 220.472 204.464ZM231.964 194.312L232.18 196.16C233.028 195.488 233.868 194.968 234.7 194.6C235.548 194.216 236.372 194.024 237.172 194.024H237.7L237.46 195.944H236.788C236.132 195.944 235.468 196.08 234.796 196.352C234.14 196.608 233.348 196.968 232.42 197.432V206H230.38V194.312H231.964ZM245.533 194.024C246.829 194.024 247.821 194.296 248.509 194.84C249.197 195.368 249.541 196.344 249.541 197.768V206H247.933L247.693 204.056C247.389 204.376 246.997 204.704 246.517 205.04C246.037 205.36 245.485 205.64 244.861 205.88C244.253 206.104 243.589 206.216 242.869 206.216C241.829 206.216 240.981 205.936 240.325 205.376C239.685 204.816 239.365 204.008 239.365 202.952V201.68C239.365 200.768 239.645 200.064 240.205 199.568C240.781 199.056 241.581 198.8 242.605 198.8H247.477V197.768C247.477 197.048 247.309 196.536 246.973 196.232C246.653 195.912 246.029 195.752 245.101 195.752C244.493 195.752 243.725 195.784 242.797 195.848C241.885 195.912 240.981 195.984 240.085 196.064L239.893 194.552C240.693 194.424 241.613 194.304 242.653 194.192C243.693 194.08 244.653 194.024 245.533 194.024ZM243.277 204.464C243.853 204.48 244.525 204.344 245.293 204.056C246.061 203.768 246.789 203.32 247.477 202.712V200.336L242.965 200.36C242.405 200.376 242.013 200.528 241.789 200.816C241.565 201.088 241.453 201.472 241.453 201.968V202.712C241.453 203.32 241.597 203.768 241.885 204.056C242.173 204.328 242.637 204.464 243.277 204.464ZM58.552 223.312L58.672 225.16C59.488 224.456 60.28 223.928 61.048 223.576C61.832 223.208 62.632 223.024 63.448 223.024C65.08 223.024 66.064 223.72 66.4 225.112C68 223.72 69.568 223.024 71.104 223.024C72.112 223.024 72.88 223.296 73.408 223.84C73.952 224.384 74.224 225.184 74.224 226.24V235H72.208V226.816C72.192 226.096 72.048 225.576 71.776 225.256C71.504 224.92 71.04 224.752 70.384 224.752C69.776 224.752 69.2 224.896 68.656 225.184C68.128 225.472 67.424 225.928 66.544 226.552V235H64.576V226.816C64.576 226.064 64.424 225.536 64.12 225.232C63.816 224.912 63.36 224.752 62.752 224.752C62.16 224.752 61.592 224.896 61.048 225.184C60.52 225.456 59.808 225.912 58.912 226.552V235H56.872V223.312H58.552ZM82.6954 223.024C84.4554 223.024 85.7274 223.344 86.5114 223.984C87.3114 224.624 87.7114 225.576 87.7114 226.84C87.7274 227.88 87.5114 228.696 87.0634 229.288C86.6154 229.864 85.9034 230.152 84.9274 230.152H79.5034C79.5674 231.08 79.7354 231.792 80.0074 232.288C80.2954 232.768 80.6954 233.104 81.2074 233.296C81.7194 233.472 82.3754 233.56 83.1754 233.56C83.7994 233.56 84.4794 233.536 85.2154 233.488C85.9674 233.424 86.6394 233.352 87.2314 233.272L87.4474 234.64C87.0794 234.784 86.6234 234.904 86.0794 235C85.5514 235.096 84.9994 235.168 84.4234 235.216C83.8634 235.264 83.3594 235.288 82.9114 235.288C81.5674 235.288 80.4874 235.088 79.6714 234.688C78.8554 234.272 78.2554 233.616 77.8714 232.72C77.5034 231.808 77.3194 230.608 77.3194 229.12C77.3194 227.584 77.5034 226.376 77.8714 225.496C78.2554 224.6 78.8394 223.968 79.6234 223.6C80.4234 223.216 81.4474 223.024 82.6954 223.024ZM82.7914 224.752C81.9754 224.752 81.3274 224.864 80.8474 225.088C80.3834 225.312 80.0394 225.704 79.8154 226.264C79.6074 226.808 79.4874 227.576 79.4554 228.568H84.3994C84.9274 228.568 85.2714 228.392 85.4314 228.04C85.5914 227.672 85.6714 227.272 85.6714 226.84C85.6554 226.088 85.4314 225.552 84.9994 225.232C84.5674 224.912 83.8314 224.752 82.7914 224.752ZM92.8501 218.2L92.8261 231.784C92.8261 232.824 93.3621 233.344 94.4341 233.344H95.5621L95.8021 234.904C95.5781 235.016 95.2341 235.096 94.7701 235.144C94.3221 235.192 93.9541 235.216 93.6661 235.216C92.8021 235.216 92.1061 234.96 91.5781 234.448C91.0661 233.936 90.8101 233.2 90.8101 232.24V218.2H92.8501ZM105.015 223.024C107.127 223.024 108.183 224.096 108.183 226.24V235H106.119V226.816C106.119 226.032 105.991 225.496 105.735 225.208C105.495 224.904 105.071 224.752 104.463 224.752C103.775 224.752 103.079 224.912 102.375 225.232C101.687 225.536 100.879 225.984 99.9511 226.576V235H97.9111V218.2H99.9511L99.9751 222.832C99.9751 223.264 99.9591 223.672 99.9271 224.056C99.9111 224.44 99.8791 224.792 99.8311 225.112C100.711 224.472 101.575 223.968 102.423 223.6C103.287 223.216 104.151 223.024 105.015 223.024ZM116.8 223.024C118.144 223.024 119.216 223.224 120.016 223.624C120.832 224.024 121.416 224.68 121.768 225.592C122.12 226.488 122.296 227.68 122.296 229.168C122.296 230.656 122.12 231.856 121.768 232.768C121.416 233.664 120.832 234.312 120.016 234.712C119.216 235.112 118.144 235.312 116.8 235.312C115.472 235.312 114.4 235.112 113.584 234.712C112.784 234.312 112.2 233.664 111.832 232.768C111.48 231.856 111.304 230.656 111.304 229.168C111.304 227.68 111.48 226.488 111.832 225.592C112.2 224.68 112.784 224.024 113.584 223.624C114.4 223.224 115.472 223.024 116.8 223.024ZM116.8 224.752C115.952 224.752 115.28 224.888 114.784 225.16C114.304 225.416 113.96 225.864 113.752 226.504C113.544 227.144 113.44 228.032 113.44 229.168C113.44 230.304 113.544 231.192 113.752 231.832C113.96 232.472 114.304 232.928 114.784 233.2C115.28 233.456 115.952 233.584 116.8 233.584C117.648 233.584 118.32 233.456 118.816 233.2C119.312 232.928 119.664 232.472 119.872 231.832C120.08 231.192 120.184 230.304 120.184 229.168C120.184 228.032 120.08 227.144 119.872 226.504C119.664 225.864 119.312 225.416 118.816 225.16C118.32 224.888 117.648 224.752 116.8 224.752ZM127.081 223.312L127.297 225.16C128.145 224.488 128.985 223.968 129.817 223.6C130.665 223.216 131.489 223.024 132.289 223.024H132.817L132.577 224.944H131.905C131.249 224.944 130.585 225.08 129.913 225.352C129.257 225.608 128.465 225.968 127.537 226.432V235H125.497V223.312H127.081ZM140.65 223.024C141.946 223.024 142.938 223.296 143.626 223.84C144.314 224.368 144.658 225.344 144.658 226.768V235H143.05L142.81 233.056C142.506 233.376 142.114 233.704 141.634 234.04C141.154 234.36 140.602 234.64 139.978 234.88C139.37 235.104 138.706 235.216 137.986 235.216C136.946 235.216 136.098 234.936 135.442 234.376C134.802 233.816 134.482 233.008 134.482 231.952V230.68C134.482 229.768 134.762 229.064 135.322 228.568C135.898 228.056 136.698 227.8 137.722 227.8H142.594V226.768C142.594 226.048 142.426 225.536 142.09 225.232C141.77 224.912 141.146 224.752 140.218 224.752C139.61 224.752 138.842 224.784 137.914 224.848C137.002 224.912 136.098 224.984 135.202 225.064L135.01 223.552C135.81 223.424 136.73 223.304 137.77 223.192C138.81 223.08 139.77 223.024 140.65 223.024ZM138.394 233.464C138.97 233.48 139.642 233.344 140.41 233.056C141.178 232.768 141.906 232.32 142.594 231.712V229.336L138.082 229.36C137.522 229.376 137.13 229.528 136.906 229.816C136.682 230.088 136.57 230.472 136.57 230.968V231.712C136.57 232.32 136.714 232.768 137.002 233.056C137.29 233.328 137.754 233.464 138.394 233.464ZM149.886 223.312L150.102 225.16C150.95 224.488 151.79 223.968 152.622 223.6C153.47 223.216 154.294 223.024 155.094 223.024H155.622L155.382 224.944H154.71C154.054 224.944 153.39 225.08 152.718 225.352C152.062 225.608 151.27 225.968 150.342 226.432V235H148.302V223.312H149.886ZM166.651 223.024C167.419 223.04 168.251 223.08 169.147 223.144C170.043 223.192 170.851 223.272 171.571 223.384L171.403 224.872C170.667 224.84 169.923 224.816 169.171 224.8C168.435 224.768 167.699 224.752 166.963 224.752C166.243 224.736 165.675 224.752 165.259 224.8C164.843 224.848 164.539 224.976 164.347 225.184C164.171 225.392 164.083 225.744 164.083 226.24C164.083 226.848 164.227 227.248 164.515 227.44C164.803 227.632 165.227 227.792 165.787 227.92L169.195 228.688C170.123 228.912 170.803 229.256 171.235 229.72C171.683 230.184 171.907 230.912 171.907 231.904C171.907 232.864 171.723 233.584 171.355 234.064C171.003 234.544 170.459 234.864 169.723 235.024C168.987 235.184 168.051 235.264 166.915 235.264C166.499 235.264 165.875 235.248 165.043 235.216C164.227 235.184 163.323 235.088 162.331 234.928L162.475 233.44C163.051 233.472 163.675 233.504 164.347 233.536C165.035 233.552 165.755 233.552 166.507 233.536C167.387 233.536 168.075 233.496 168.571 233.416C169.067 233.336 169.419 233.184 169.627 232.96C169.835 232.72 169.939 232.368 169.939 231.904C169.939 231.328 169.771 230.944 169.435 230.752C169.099 230.56 168.651 230.4 168.091 230.272L164.731 229.504C163.787 229.28 163.107 228.92 162.691 228.424C162.291 227.928 162.091 227.2 162.091 226.24C162.091 225.328 162.251 224.64 162.571 224.176C162.891 223.712 163.387 223.4 164.059 223.24C164.731 223.08 165.595 223.008 166.651 223.024ZM179.75 223.024C181.51 223.024 182.782 223.344 183.566 223.984C184.366 224.624 184.766 225.576 184.766 226.84C184.782 227.88 184.566 228.696 184.118 229.288C183.67 229.864 182.958 230.152 181.982 230.152H176.558C176.622 231.08 176.79 231.792 177.062 232.288C177.35 232.768 177.75 233.104 178.262 233.296C178.774 233.472 179.43 233.56 180.23 233.56C180.854 233.56 181.534 233.536 182.27 233.488C183.022 233.424 183.694 233.352 184.286 233.272L184.502 234.64C184.134 234.784 183.678 234.904 183.134 235C182.606 235.096 182.054 235.168 181.478 235.216C180.918 235.264 180.414 235.288 179.966 235.288C178.622 235.288 177.542 235.088 176.726 234.688C175.91 234.272 175.31 233.616 174.926 232.72C174.558 231.808 174.374 230.608 174.374 229.12C174.374 227.584 174.558 226.376 174.926 225.496C175.31 224.6 175.894 223.968 176.678 223.6C177.478 223.216 178.502 223.024 179.75 223.024ZM179.846 224.752C179.03 224.752 178.382 224.864 177.902 225.088C177.438 225.312 177.094 225.704 176.87 226.264C176.662 226.808 176.542 227.576 176.51 228.568H181.454C181.982 228.568 182.326 228.392 182.486 228.04C182.646 227.672 182.726 227.272 182.726 226.84C182.71 226.088 182.486 225.552 182.054 225.232C181.622 224.912 180.886 224.752 179.846 224.752ZM189.809 223.312V231.52C189.793 232.256 189.929 232.776 190.217 233.08C190.505 233.384 190.985 233.536 191.657 233.536C192.281 233.536 192.905 233.4 193.529 233.128C194.153 232.84 194.889 232.416 195.737 231.856V223.312H197.777V235H196.145L196.001 233.296C195.121 233.968 194.273 234.472 193.457 234.808C192.641 235.144 191.809 235.312 190.961 235.312C188.833 235.312 187.769 234.24 187.769 232.096V223.312H189.809ZM210.76 223.024C212.216 223.024 213.6 223.376 214.912 224.08C214.88 223.712 214.856 223.344 214.84 222.976C214.824 222.608 214.816 222.216 214.816 221.8V218.2H216.856V235H215.272L215.08 233.32C214.44 233.864 213.728 234.328 212.944 234.712C212.176 235.096 211.344 235.288 210.448 235.288C208.976 235.288 207.92 234.768 207.28 233.728C206.656 232.688 206.344 231.152 206.344 229.12C206.344 227.6 206.504 226.4 206.824 225.52C207.144 224.624 207.632 223.984 208.288 223.6C208.944 223.216 209.768 223.024 210.76 223.024ZM208.432 229.096C208.432 230.248 208.52 231.144 208.696 231.784C208.888 232.424 209.184 232.872 209.584 233.128C209.984 233.384 210.496 233.512 211.12 233.512C211.776 233.512 212.36 233.384 212.872 233.128C213.384 232.872 214.032 232.464 214.816 231.904V225.448C214.128 225.256 213.512 225.104 212.968 224.992C212.424 224.864 211.848 224.8 211.24 224.8C210.568 224.8 210.024 224.92 209.608 225.16C209.208 225.384 208.912 225.808 208.72 226.432C208.528 227.056 208.432 227.944 208.432 229.096ZM222.214 218.344C222.63 218.344 222.838 218.552 222.838 218.968V220.336C222.838 220.752 222.63 220.96 222.214 220.96H221.254C220.838 220.96 220.63 220.752 220.63 220.336V218.968C220.63 218.552 220.838 218.344 221.254 218.344H222.214ZM222.742 223.312V235H220.726V223.312H222.742ZM232.103 223.024C233.399 223.024 234.391 223.296 235.079 223.84C235.767 224.368 236.111 225.344 236.111 226.768V235H234.503L234.263 233.056C233.959 233.376 233.567 233.704 233.087 234.04C232.607 234.36 232.055 234.64 231.431 234.88C230.823 235.104 230.159 235.216 229.439 235.216C228.399 235.216 227.551 234.936 226.895 234.376C226.255 233.816 225.935 233.008 225.935 231.952V230.68C225.935 229.768 226.215 229.064 226.775 228.568C227.351 228.056 228.151 227.8 229.175 227.8H234.047V226.768C234.047 226.048 233.879 225.536 233.543 225.232C233.223 224.912 232.599 224.752 231.671 224.752C231.063 224.752 230.295 224.784 229.367 224.848C228.455 224.912 227.551 224.984 226.655 225.064L226.463 223.552C227.263 223.424 228.183 223.304 229.223 223.192C230.263 223.08 231.223 223.024 232.103 223.024ZM229.847 233.464C230.423 233.48 231.095 233.344 231.863 233.056C232.631 232.768 233.359 232.32 234.047 231.712V229.336L229.535 229.36C228.975 229.376 228.583 229.528 228.359 229.816C228.135 230.088 228.023 230.472 228.023 230.968V231.712C228.023 232.32 228.167 232.768 228.455 233.056C228.743 233.328 229.207 233.464 229.847 233.464ZM240.955 232.168C241.243 232.168 241.443 232.224 241.555 232.336C241.667 232.448 241.723 232.648 241.723 232.936V234.232C241.723 234.52 241.667 234.72 241.555 234.832C241.443 234.944 241.243 235 240.955 235H240.283C240.011 235 239.811 234.944 239.683 234.832C239.571 234.72 239.515 234.52 239.515 234.232V232.936C239.515 232.648 239.571 232.448 239.683 232.336C239.811 232.224 240.011 232.168 240.283 232.168H240.955Z" fill="black"/>
<path d="M108.652 46.9794C108.844 48.6283 108.958 50.3 108.99 51.9912L108.49 52.0008C108.497 52.3331 108.5 52.6662 108.5 53C108.5 53.3338 108.497 53.6669 108.49 53.9992L108.99 54.0088C108.958 55.7 108.844 57.3717 108.652 59.0206L108.156 58.9628C108.079 59.6237 107.989 60.2808 107.887 60.934L108.381 61.011C108.122 62.6783 107.782 64.3201 107.366 65.9325L106.882 65.8077C106.716 66.452 106.537 67.0916 106.347 67.7262L106.826 67.8699C106.342 69.4817 105.782 71.0618 105.149 72.6061L104.687 72.4165C104.435 73.0314 104.171 73.6406 103.896 74.2438L104.351 74.4511C103.655 75.9792 102.887 77.4694 102.05 78.9174L101.617 78.6673C101.285 79.2424 100.942 79.8107 100.589 80.3722L101.012 80.6386C100.119 82.0573 99.1585 83.4321 98.1359 84.7587L97.7399 84.4534C97.3346 84.9792 96.9194 85.4974 96.4945 86.0077L96.8788 86.3276C95.8074 87.6143 94.6754 88.8513 93.4868 90.0344L93.1341 89.68C92.6638 90.1482 92.1846 90.6078 91.6967 91.0587L92.036 91.4259C90.8077 92.561 89.525 93.6409 88.1922 94.6617L87.8882 94.2648C87.3615 94.6682 86.8268 95.0622 86.2845 95.4467L86.5737 95.8546C85.2108 96.8209 83.8001 97.7272 82.3456 98.5696L82.095 98.1369C81.521 98.4693 80.9402 98.7917 80.3527 99.1037L80.5872 99.5453C79.1137 100.328 77.5989 101.046 76.0469 101.697L75.8537 101.236C75.2426 101.492 74.6258 101.737 74.0033 101.971L74.1796 102.439C72.6205 103.027 71.0267 103.546 69.4021 103.994L69.2691 103.512C68.6304 103.689 67.9869 103.854 67.3388 104.007L67.4542 104.494C65.8355 104.878 64.1884 105.191 62.5167 105.431L62.4457 104.936C61.7906 105.03 61.1317 105.112 60.4692 105.183L60.5223 105.68C58.8722 105.856 57.2 105.961 55.5089 105.991L55.5001 105.491C55.1675 105.497 54.8341 105.5 54.5 105.5C54.1659 105.5 53.8325 105.497 53.4999 105.491L53.4911 105.991C51.8 105.961 50.1278 105.856 48.4777 105.68L48.5308 105.183C47.8683 105.112 47.2093 105.03 46.5543 104.936L46.4833 105.431C44.8116 105.191 43.1645 104.878 41.5458 104.494L41.6612 104.007C41.0131 103.854 40.3696 103.689 39.7309 103.512L39.5979 103.994C37.9733 103.546 36.3795 103.027 34.8204 102.439L34.9967 101.971C34.3742 101.737 33.7574 101.492 33.1463 101.236L32.9531 101.697C31.4011 101.046 29.8863 100.328 28.4128 99.5453L28.6473 99.1037C28.0598 98.7917 27.479 98.4693 26.905 98.1369L26.6544 98.5696C25.1999 97.7272 23.7892 96.8209 22.4263 95.8546L22.7155 95.4467C22.1732 95.0622 21.6385 94.6682 21.1118 94.2647L20.8078 94.6617C19.475 93.6409 18.1923 92.561 16.964 91.4259L17.3033 91.0587C16.8154 90.6078 16.3362 90.1482 15.8659 89.68L15.5132 90.0344C14.3246 88.8513 13.1926 87.6143 12.1212 86.3276L12.5055 86.0077C12.0806 85.4974 11.6654 84.9792 11.2601 84.4534L10.8641 84.7587C9.84155 83.4321 8.88146 82.0573 7.98809 80.6386L8.4112 80.3722C8.05768 79.8107 7.71472 79.2424 7.38259 78.6673L6.94962 78.9174C6.11327 77.4694 5.34483 75.9792 4.64851 74.4511L5.1035 74.2438C4.82863 73.6406 4.56512 73.0314 4.31322 72.4165L3.85054 72.6061C3.21787 71.0618 2.65773 69.4817 2.1742 67.8699L2.65311 67.7262C2.46273 67.0916 2.28435 66.452 2.11821 65.8077L1.63405 65.9325C1.21827 64.3201 0.878451 62.6783 0.61851 61.011L1.11254 60.934C1.01071 60.2808 0.921256 59.6237 0.844419 58.9628L0.347765 59.0206C0.156054 57.3717 0.0421392 55.7 0.00967549 54.0088L0.509583 53.9992C0.503204 53.6669 0.5 53.3338 0.5 53C0.5 52.6662 0.503204 52.3331 0.509584 52.0008L0.00967564 51.9912C0.0421396 50.3 0.156055 48.6283 0.347766 46.9794L0.84442 47.0372C0.921257 46.3763 1.01071 45.7192 1.11254 45.066L0.618512 44.989C0.878453 43.3217 1.21827 41.6799 1.63405 40.0674L2.11822 40.1923C2.28435 39.548 2.46274 38.9084 2.65311 38.2738L2.1742 38.1301C2.65773 36.5183 3.21787 34.9382 3.85054 33.3939L4.31322 33.5835C4.56512 32.9686 4.82863 32.3594 5.1035 31.7562L4.64851 31.5489C5.34483 30.0208 6.11327 28.5306 6.94962 27.0826L7.38259 27.3327C7.71473 26.7576 8.05769 26.1893 8.4112 25.6278L7.98809 25.3614C8.88146 23.9427 9.84155 22.5679 10.8641 21.2413L11.2601 21.5466C11.6654 21.0208 12.0806 20.5026 12.5055 19.9923L12.1212 19.6724C13.1926 18.3857 14.3246 17.1487 15.5132 15.9656L15.8659 16.32C16.3362 15.8518 16.8154 15.3922 17.3033 14.9413L16.964 14.5741C18.1923 13.439 19.475 12.3591 20.8078 11.3383L21.1118 11.7352C21.6385 11.3318 22.1732 10.9378 22.7155 10.5533L22.4263 10.1454C23.7892 9.17909 25.1999 8.27278 26.6544 7.43044L26.905 7.86312C27.479 7.5307 28.0598 7.20833 28.6473 6.89627L28.4128 6.4547C29.8863 5.67202 31.4011 4.95358 32.9531 4.30326L33.1463 4.76442C33.7574 4.50839 34.3742 4.26302 34.9967 4.02854L34.8204 3.56063C36.3795 2.97332 37.9733 2.45375 39.5979 2.00562L39.7309 2.48762C40.3696 2.31146 41.0131 2.14643 41.6612 1.99278L41.5458 1.50626C43.1645 1.12249 44.8116 0.809011 46.4833 0.569351L46.5543 1.06429C47.2094 0.970378 47.8683 0.8879 48.5308 0.817073L48.4777 0.319906C50.1278 0.143513 51.8 0.0387556 53.4911 0.00889973L53.4999 0.508822C53.8325 0.502949 54.1659 0.5 54.5 0.5C54.8341 0.5 55.1675 0.502949 55.5001 0.508822L55.5089 0.00889986C57.2 0.038756 58.8722 0.143514 60.5223 0.319906L60.4692 0.817074C61.1317 0.8879 61.7907 0.970378 62.4457 1.06429L62.5167 0.569351C64.1884 0.809011 65.8355 1.12249 67.4542 1.50626L67.3388 1.99278C67.9869 2.14643 68.6304 2.31146 69.2691 2.48762L69.4021 2.00562C71.0267 2.45375 72.6205 2.97333 74.1796 3.56063L74.0033 4.02854C74.6258 4.26302 75.2426 4.50839 75.8537 4.76442L76.0469 4.30327C77.5989 4.95358 79.1137 5.67202 80.5872 6.4547L80.3527 6.89627C80.9402 7.20833 81.521 7.5307 82.095 7.86312L82.3456 7.43044C83.8001 8.27278 85.2108 9.17909 86.5737 10.1454L86.2845 10.5533C86.8268 10.9378 87.3615 11.3318 87.8882 11.7352L88.1922 11.3383C89.525 12.3591 90.8077 13.439 92.036 14.5741L91.6967 14.9413C92.1846 15.3922 92.6638 15.8518 93.1341 16.32L93.4868 15.9656C94.6754 17.1487 95.8074 18.3857 96.8788 19.6724L96.4945 19.9923C96.9194 20.5026 97.3346 21.0208 97.7399 21.5466L98.1359 21.2413C99.1585 22.5679 100.119 23.9427 101.012 25.3614L100.589 25.6278C100.942 26.1893 101.285 26.7576 101.617 27.3327L102.05 27.0826C102.887 28.5306 103.655 30.0208 104.351 31.5489L103.896 31.7562C104.171 32.3594 104.435 32.9686 104.687 33.5835L105.149 33.3939C105.782 34.9382 106.342 36.5183 106.826 38.1301L106.347 38.2738C106.537 38.9084 106.716 39.548 106.882 40.1923L107.366 40.0675C107.782 41.6799 108.122 43.3217 108.381 44.989L107.887 45.066C107.989 45.7192 108.079 46.3763 108.156 47.0372L108.652 46.9794Z" stroke="black" stroke-dasharray="2 5"/>
<path d="M98.9043 49.9593C98.9434 50.5788 98.9707 51.2016 98.9858 51.8275L98.486 51.8396C98.4953 52.2252 98.5 52.612 98.5 53C98.5 53.388 98.4953 53.7748 98.486 54.1604L98.9858 54.1725C98.9477 55.7476 98.833 57.3029 98.6454 58.8348L98.1491 58.774C98.0739 59.3886 97.9868 59.9993 97.888 60.6059L98.3815 60.6862C98.2558 61.4589 98.1115 62.225 97.9489 62.984L97.46 62.8794C97.1347 64.399 96.7359 65.89 96.2677 67.3482L96.7438 67.501C96.5527 68.0961 96.3502 68.6858 96.1365 69.2698L95.6669 69.098C95.4012 69.8244 95.118 70.5418 94.8178 71.2498L95.2782 71.445C94.6667 72.8875 93.9856 74.2914 93.2394 75.6521L92.801 75.4117C92.5039 75.9534 92.1964 76.4882 91.8788 77.0157L92.3071 77.2736C91.9043 77.9427 91.4853 78.6002 91.0507 79.2458L90.6359 78.9665C89.7721 80.2496 88.846 81.4845 87.8621 82.6665L88.2464 82.9864C87.8472 83.4661 87.4385 83.9372 87.0207 84.3994L86.6498 84.0641C86.1323 84.6365 85.6007 85.1952 85.0555 85.7394L85.4088 86.0932C84.3041 87.1959 83.1444 88.2401 81.9342 89.2209L81.6194 88.8324C81.1403 89.2207 80.6532 89.599 80.1584 89.9669L80.4568 90.3681C79.8313 90.8332 79.1937 91.2819 78.5445 91.7136L78.2676 91.2973C76.9855 92.15 75.6578 92.9356 74.2893 93.6495L74.5205 94.0928C73.9682 94.3809 73.4092 94.6575 72.844 94.9222L72.6319 94.4694C71.9352 94.7957 71.2288 95.1037 70.5133 95.393L70.7006 95.8565C69.2615 96.4383 67.7859 96.9448 66.2783 97.3715L66.1422 96.8904C65.5506 97.0577 64.9542 97.2127 64.353 97.3549L64.4681 97.8415C63.7122 98.0203 62.949 98.1792 62.179 98.3176L62.0905 97.8255C60.5871 98.0959 59.0574 98.2873 57.5055 98.3955L57.5402 98.8943C56.921 98.9375 56.2983 98.9676 55.6724 98.9843L55.659 98.4845C55.2739 98.4948 54.8875 98.5 54.5 98.5C54.1125 98.5 53.7261 98.4948 53.341 98.4845L53.3276 98.9843C51.7529 98.9422 50.1985 98.8156 48.6686 98.6086L48.7357 98.1131C48.1229 98.0302 47.514 97.9342 46.9095 97.8255L46.821 98.3176C46.051 98.1792 45.2878 98.0203 44.5319 97.8415L44.647 97.3549C43.1389 96.9981 41.6602 96.5612 40.2155 96.0487L40.0483 96.5199C39.4597 96.3111 38.8766 96.0899 38.2994 95.8565L38.4867 95.393C37.7712 95.1037 37.0648 94.7957 36.3681 94.4694L36.156 94.9222C34.7412 94.2596 33.3658 93.5227 32.0346 92.7164L32.2937 92.2887C31.7661 91.9692 31.2456 91.6386 30.7324 91.2973L30.4555 91.7136C29.8063 91.2819 29.1687 90.8332 28.5432 90.3681L28.8416 89.9669C27.605 89.0475 26.4164 88.0633 25.2804 87.0191L24.942 87.3872C24.4832 86.9654 24.0328 86.534 23.5912 86.0932L23.9445 85.7394C23.3993 85.1952 22.8677 84.6365 22.3502 84.0641L21.9793 84.3994C20.9363 83.2455 19.95 82.036 19.0251 80.7758L19.4282 80.48C19.0638 79.9834 18.709 79.4788 18.3641 78.9665L17.9493 79.2458C17.5147 78.6003 17.0957 77.9427 16.6929 77.2736L17.1212 77.0157C16.329 75.7 15.5999 74.3393 14.9383 72.9383L14.4862 73.1518C14.2205 72.5892 13.9656 72.0201 13.7218 71.445L14.1822 71.2498C13.882 70.5418 13.5988 69.8244 13.3331 69.098L12.8635 69.2698C12.3313 67.8151 11.8683 66.3251 11.4788 64.8043L11.9632 64.6802C11.8106 64.0846 11.6695 63.4843 11.54 62.8794L11.0511 62.9841C10.8886 62.225 10.7442 61.4589 10.6185 60.6862L11.112 60.6059C10.8665 59.0977 10.6928 57.5641 10.5947 56.0092L10.0957 56.0407C10.0566 55.4212 10.0293 54.7984 10.0142 54.1725L10.514 54.1604C10.5047 53.7748 10.5 53.388 10.5 53C10.5 52.612 10.5047 52.2252 10.514 51.8396L10.0142 51.8275C10.0523 50.2524 10.167 48.6971 10.3546 47.1652L10.8509 47.226C10.9261 46.6114 11.0132 46.0007 11.112 45.3941L10.6185 45.3138C10.7442 44.5411 10.8885 43.775 11.0511 43.016L11.54 43.1206C11.8653 41.601 12.2641 40.11 12.7323 38.6518L12.2562 38.499C12.4473 37.9039 12.6498 37.3142 12.8635 36.7302L13.3331 36.902C13.5988 36.1757 13.882 35.4582 14.1822 34.7502L13.7218 34.555C14.3333 33.1125 15.0144 31.7086 15.7606 30.3479L16.199 30.5883C16.4961 30.0466 16.8036 29.5118 17.1212 28.9843L16.6929 28.7264C17.0957 28.0573 17.5147 27.3998 17.9493 26.7543L18.3641 27.0335C19.2279 25.7504 20.154 24.5155 21.1379 23.3335L20.7536 23.0136C21.1528 22.5339 21.5615 22.0628 21.9793 21.6006L22.3502 21.9359C22.8677 21.3635 23.3993 20.8048 23.9445 20.2606L23.5912 19.9068C24.6959 18.8041 25.8556 17.7599 27.0658 16.7791L27.3806 17.1676C27.8597 16.7793 28.3468 16.401 28.8416 16.0331L28.5432 15.6319C29.1687 15.1668 29.8063 14.7181 30.4555 14.2864L30.7324 14.7027C32.0145 13.85 33.3422 13.0644 34.7107 12.3505L34.4795 11.9072C35.0318 11.6191 35.5908 11.3425 36.156 11.0778L36.3681 11.5306C37.0648 11.2043 37.7712 10.8963 38.4867 10.607L38.2994 10.1435C39.7385 9.56171 41.2141 9.05518 42.7217 8.62854L42.8578 9.10965C43.4494 8.94225 44.0458 8.7873 44.647 8.64509L44.5319 8.15852C45.2878 7.97971 46.051 7.8208 46.821 7.68235L46.9095 8.17446C48.4129 7.90413 49.9426 7.71269 51.4945 7.60446L51.4598 7.10567C52.079 7.06248 52.7017 7.03239 53.3276 7.01565L53.341 7.51548C53.7261 7.50518 54.1125 7.5 54.5 7.5C54.8875 7.5 55.2739 7.50518 55.659 7.51548L55.6724 7.01565C57.2471 7.05775 58.8015 7.18441 60.3314 7.39141L60.2643 7.88689C60.8771 7.9698 61.486 8.06575 62.0905 8.17446L62.179 7.68235C62.949 7.8208 63.7122 7.97971 64.4681 8.15851L64.353 8.64509C65.8611 9.00186 67.3398 9.43878 68.7845 9.95131L68.9517 9.48008C69.5404 9.68891 70.1234 9.91014 70.7006 10.1435L70.5133 10.607C71.2288 10.8963 71.9352 11.2043 72.6319 11.5306L72.844 11.0778C74.2588 11.7404 75.6342 12.4773 76.9654 13.2836L76.7063 13.7113C77.2338 14.0308 77.7544 14.3614 78.2676 14.7027L78.5445 14.2864C79.1937 14.7181 79.8313 15.1668 80.4568 15.6319L80.1584 16.0331C81.395 16.9525 82.5836 17.9367 83.7196 18.9809L84.058 18.6128C84.5168 19.0346 84.9672 19.466 85.4088 19.9068L85.0555 20.2606C85.6007 20.8048 86.1323 21.3635 86.6498 21.9359L87.0207 21.6006C88.0638 22.7545 89.05 23.964 89.9749 25.2242L89.5718 25.52C89.9362 26.0166 90.291 26.5212 90.6359 27.0335L91.0507 26.7542C91.4853 27.3998 91.9043 28.0573 92.3071 28.7264L91.8788 28.9843C92.671 30.3 93.4001 31.6607 94.0617 33.0617L94.5138 32.8482C94.7795 33.4108 95.0344 33.9799 95.2782 34.555L94.8178 34.7502C95.118 35.4582 95.4012 36.1756 95.6669 36.902L96.1365 36.7302C96.6688 38.1849 97.1317 39.6749 97.5212 41.1957L97.0368 41.3198C97.1894 41.9154 97.3305 42.5157 97.46 43.1206L97.9489 43.0159C98.1115 43.775 98.2558 44.5411 98.3815 45.3138L97.888 45.3941C98.1335 46.9023 98.3072 48.4359 98.4053 49.9908L98.9043 49.9593Z" stroke="black" stroke-dasharray="2.5 2 5 2.5 2 5"/>
<path d="M64.9492 58.9453H69.7832V65.7715H64.9492V75H56.4824V65.7715H38.9922L38.6113 60.4395L56.3945 32.3438H64.9492V58.9453ZM47.0488 58.9453H56.4824V43.8867L55.9258 44.8535L47.0488 58.9453Z" fill="#53CC89"/>
<path d="M204.146 151.75H196.5L174 179V151.75H143.854C140.514 151.75 137.203 149.728 133.922 145.683C130.641 141.638 129 137.557 129 133.441V88.3086C129 84.1927 130.641 80.1123 133.922 76.0674C137.203 72.0225 140.514 70 143.854 70H204.146C207.486 70 210.797 72.0225 214.078 76.0674C217.359 80.1123 219 84.1927 219 88.3086V133.441C219 137.557 217.359 141.638 214.078 145.683C210.797 149.728 207.486 151.75 204.146 151.75ZM196.5 90.4375H151.5C149.918 90.4375 148.585 91.1117 147.501 92.46C146.417 93.8083 145.875 95.4227 145.875 97.3032C145.875 99.1838 146.417 100.78 147.501 102.093C148.585 103.406 149.918 104.062 151.5 104.062H196.5C198.023 104.062 199.342 103.406 200.455 102.093C201.568 100.78 202.125 99.1838 202.125 97.3032C202.125 95.4227 201.568 93.8083 200.455 92.46C199.342 91.1117 198.023 90.4375 196.5 90.4375ZM196.5 117.688H151.5C149.918 117.688 148.585 118.362 147.501 119.71C146.417 121.058 145.875 122.673 145.875 124.553C145.875 126.434 146.417 128.03 147.501 129.343C148.585 130.656 149.918 131.312 151.5 131.312H196.5C198.023 131.312 199.342 130.656 200.455 129.343C201.568 128.03 202.125 126.434 202.125 124.553C202.125 122.673 201.568 121.058 200.455 119.71C199.342 118.362 198.023 117.688 196.5 117.688Z" fill="black"/>
<path d="M62.8 189.224C64.08 189.224 65.112 189.368 65.896 189.656C66.68 189.928 67.248 190.408 67.6 191.096C67.968 191.784 68.152 192.752 68.152 194C68.152 195.344 67.912 196.36 67.432 197.048C66.968 197.72 66.192 198.128 65.104 198.272V198.392C65.52 198.504 65.92 198.752 66.304 199.136C66.688 199.52 66.968 200.064 67.144 200.768L68.752 206H66.496L65.032 200.816C64.824 200.192 64.544 199.752 64.192 199.496C63.84 199.224 63.384 199.088 62.824 199.088C62.056 199.088 61.368 199.088 60.76 199.088C60.168 199.072 59.64 199.064 59.176 199.064V206H57.088V189.44C57.696 189.376 58.264 189.328 58.792 189.296C59.32 189.264 59.896 189.248 60.52 189.248C61.16 189.232 61.92 189.224 62.8 189.224ZM62.752 191.048C62.048 191.048 61.392 191.056 60.784 191.072C60.176 191.072 59.64 191.072 59.176 191.072V197.264H62.752C63.568 197.248 64.208 197.152 64.672 196.976C65.152 196.8 65.496 196.488 65.704 196.04C65.912 195.576 66.016 194.936 66.016 194.12C66.016 193.304 65.912 192.68 65.704 192.248C65.496 191.8 65.152 191.488 64.672 191.312C64.208 191.136 63.568 191.048 62.752 191.048ZM76.3908 194.024C78.1508 194.024 79.4228 194.344 80.2068 194.984C81.0068 195.624 81.4068 196.576 81.4068 197.84C81.4228 198.88 81.2068 199.696 80.7588 200.288C80.3108 200.864 79.5988 201.152 78.6228 201.152H73.1988C73.2628 202.08 73.4308 202.792 73.7028 203.288C73.9908 203.768 74.3908 204.104 74.9028 204.296C75.4148 204.472 76.0708 204.56 76.8708 204.56C77.4948 204.56 78.1748 204.536 78.9108 204.488C79.6628 204.424 80.3348 204.352 80.9268 204.272L81.1428 205.64C80.7748 205.784 80.3188 205.904 79.7748 206C79.2468 206.096 78.6948 206.168 78.1188 206.216C77.5588 206.264 77.0548 206.288 76.6068 206.288C75.2628 206.288 74.1828 206.088 73.3668 205.688C72.5508 205.272 71.9508 204.616 71.5668 203.72C71.1988 202.808 71.0148 201.608 71.0148 200.12C71.0148 198.584 71.1988 197.376 71.5668 196.496C71.9508 195.6 72.5348 194.968 73.3188 194.6C74.1188 194.216 75.1428 194.024 76.3908 194.024ZM76.4868 195.752C75.6708 195.752 75.0228 195.864 74.5428 196.088C74.0788 196.312 73.7348 196.704 73.5108 197.264C73.3028 197.808 73.1828 198.576 73.1508 199.568H78.0948C78.6228 199.568 78.9668 199.392 79.1268 199.04C79.2868 198.672 79.3668 198.272 79.3668 197.84C79.3508 197.088 79.1268 196.552 78.6948 196.232C78.2628 195.912 77.5268 195.752 76.4868 195.752ZM89.4734 194.024C89.9854 194.024 90.5934 194.064 91.2974 194.144C92.0174 194.208 92.6654 194.352 93.2414 194.576L92.9774 195.896C92.4494 195.848 91.8894 195.816 91.2974 195.8C90.7214 195.768 90.2254 195.752 89.8094 195.752C88.8814 195.752 88.1454 195.88 87.6014 196.136C87.0574 196.392 86.6654 196.84 86.4254 197.48C86.1854 198.12 86.0654 199.008 86.0654 200.144C86.0654 201.28 86.1854 202.176 86.4254 202.832C86.6654 203.472 87.0574 203.92 87.6014 204.176C88.1454 204.432 88.8814 204.56 89.8094 204.56C90.1614 204.56 90.6734 204.544 91.3454 204.512C92.0174 204.48 92.6494 204.416 93.2414 204.32L93.4574 205.688C92.8654 205.896 92.2174 206.048 91.5134 206.144C90.8254 206.24 90.1374 206.288 89.4494 206.288C88.1054 206.288 87.0254 206.088 86.2094 205.688C85.3934 205.288 84.8014 204.64 84.4334 203.744C84.0814 202.848 83.9054 201.648 83.9054 200.144C83.9054 198.64 84.0894 197.44 84.4574 196.544C84.8254 195.648 85.4174 195.008 86.2334 194.624C87.0494 194.224 88.1294 194.024 89.4734 194.024ZM100.836 194.024C102.596 194.024 103.868 194.344 104.652 194.984C105.452 195.624 105.852 196.576 105.852 197.84C105.868 198.88 105.652 199.696 105.204 200.288C104.756 200.864 104.044 201.152 103.068 201.152H97.6441C97.7081 202.08 97.8761 202.792 98.1481 203.288C98.4361 203.768 98.8361 204.104 99.3481 204.296C99.8601 204.472 100.516 204.56 101.316 204.56C101.94 204.56 102.62 204.536 103.356 204.488C104.108 204.424 104.78 204.352 105.372 204.272L105.588 205.64C105.22 205.784 104.764 205.904 104.22 206C103.692 206.096 103.14 206.168 102.564 206.216C102.004 206.264 101.5 206.288 101.052 206.288C99.7081 206.288 98.6281 206.088 97.8121 205.688C96.9961 205.272 96.3961 204.616 96.0121 203.72C95.6441 202.808 95.4601 201.608 95.4601 200.12C95.4601 198.584 95.6441 197.376 96.0121 196.496C96.3961 195.6 96.9801 194.968 97.7641 194.6C98.5641 194.216 99.5881 194.024 100.836 194.024ZM100.932 195.752C100.116 195.752 99.4681 195.864 98.9881 196.088C98.5241 196.312 98.1801 196.704 97.9561 197.264C97.7481 197.808 97.6281 198.576 97.5961 199.568H102.54C103.068 199.568 103.412 199.392 103.572 199.04C103.732 198.672 103.812 198.272 103.812 197.84C103.796 197.088 103.572 196.552 103.14 196.232C102.708 195.912 101.972 195.752 100.932 195.752ZM115.215 194.024C116.655 194.024 117.719 194.496 118.407 195.44C119.095 196.368 119.439 197.928 119.439 200.12C119.439 201.448 119.287 202.576 118.983 203.504C118.679 204.416 118.151 205.112 117.399 205.592C116.647 206.056 115.599 206.288 114.255 206.288C113.439 206.288 112.535 206.216 111.543 206.072C110.551 205.928 109.663 205.72 108.879 205.448V189.2H110.919V193.568C110.919 194.064 110.903 194.52 110.871 194.936C110.855 195.352 110.799 195.76 110.703 196.16C112.095 194.736 113.599 194.024 115.215 194.024ZM114.495 195.8C113.887 195.8 113.303 195.96 112.743 196.28C112.199 196.584 111.583 197.008 110.895 197.552L110.919 204.176C111.479 204.32 112.039 204.424 112.599 204.488C113.159 204.552 113.695 204.576 114.207 204.56C115.343 204.544 116.143 204.216 116.607 203.576C117.071 202.92 117.311 201.768 117.327 200.12C117.327 199.048 117.247 198.2 117.087 197.576C116.927 196.936 116.639 196.48 116.223 196.208C115.823 195.936 115.247 195.8 114.495 195.8ZM128.134 194.024C129.43 194.024 130.422 194.296 131.11 194.84C131.798 195.368 132.142 196.344 132.142 197.768V206H130.534L130.294 204.056C129.99 204.376 129.598 204.704 129.118 205.04C128.638 205.36 128.086 205.64 127.462 205.88C126.854 206.104 126.19 206.216 125.47 206.216C124.43 206.216 123.582 205.936 122.926 205.376C122.286 204.816 121.966 204.008 121.966 202.952V201.68C121.966 200.768 122.246 200.064 122.806 199.568C123.382 199.056 124.182 198.8 125.206 198.8H130.078V197.768C130.078 197.048 129.91 196.536 129.574 196.232C129.254 195.912 128.63 195.752 127.702 195.752C127.094 195.752 126.326 195.784 125.398 195.848C124.486 195.912 123.582 195.984 122.686 196.064L122.494 194.552C123.294 194.424 124.214 194.304 125.254 194.192C126.294 194.08 127.254 194.024 128.134 194.024ZM125.878 204.464C126.454 204.48 127.126 204.344 127.894 204.056C128.662 203.768 129.39 203.32 130.078 202.712V200.336L125.566 200.36C125.006 200.376 124.614 200.528 124.39 200.816C124.166 201.088 124.054 201.472 124.054 201.968V202.712C124.054 203.32 124.198 203.768 124.486 204.056C124.774 204.328 125.238 204.464 125.878 204.464ZM145.018 194.024C146.474 194.024 147.858 194.376 149.17 195.08C149.138 194.712 149.114 194.344 149.098 193.976C149.082 193.608 149.074 193.216 149.074 192.8V189.2H151.114V206H149.53L149.338 204.32C148.698 204.864 147.986 205.328 147.202 205.712C146.434 206.096 145.602 206.288 144.706 206.288C143.234 206.288 142.178 205.768 141.538 204.728C140.914 203.688 140.602 202.152 140.602 200.12C140.602 198.6 140.762 197.4 141.082 196.52C141.402 195.624 141.89 194.984 142.546 194.6C143.202 194.216 144.026 194.024 145.018 194.024ZM142.69 200.096C142.69 201.248 142.778 202.144 142.954 202.784C143.146 203.424 143.442 203.872 143.842 204.128C144.242 204.384 144.754 204.512 145.378 204.512C146.034 204.512 146.618 204.384 147.13 204.128C147.642 203.872 148.29 203.464 149.074 202.904V196.448C148.386 196.256 147.77 196.104 147.226 195.992C146.682 195.864 146.106 195.8 145.498 195.8C144.826 195.8 144.282 195.92 143.866 196.16C143.466 196.384 143.17 196.808 142.978 197.432C142.786 198.056 142.69 198.944 142.69 200.096ZM156.472 189.344C156.888 189.344 157.096 189.552 157.096 189.968V191.336C157.096 191.752 156.888 191.96 156.472 191.96H155.512C155.096 191.96 154.888 191.752 154.888 191.336V189.968C154.888 189.552 155.096 189.344 155.512 189.344H156.472ZM157 194.312V206H154.984V194.312H157ZM165.833 194.024C166.345 194.024 166.953 194.064 167.657 194.144C168.377 194.208 169.025 194.352 169.601 194.576L169.337 195.896C168.809 195.848 168.249 195.816 167.657 195.8C167.081 195.768 166.585 195.752 166.169 195.752C165.241 195.752 164.505 195.88 163.961 196.136C163.417 196.392 163.025 196.84 162.785 197.48C162.545 198.12 162.425 199.008 162.425 200.144C162.425 201.28 162.545 202.176 162.785 202.832C163.025 203.472 163.417 203.92 163.961 204.176C164.505 204.432 165.241 204.56 166.169 204.56C166.521 204.56 167.033 204.544 167.705 204.512C168.377 204.48 169.009 204.416 169.601 204.32L169.817 205.688C169.225 205.896 168.577 206.048 167.873 206.144C167.185 206.24 166.497 206.288 165.809 206.288C164.465 206.288 163.385 206.088 162.569 205.688C161.753 205.288 161.161 204.64 160.793 203.744C160.441 202.848 160.265 201.648 160.265 200.144C160.265 198.64 160.449 197.44 160.817 196.544C161.185 195.648 161.777 195.008 162.593 194.624C163.409 194.224 164.489 194.024 165.833 194.024ZM178.103 194.024C179.399 194.024 180.391 194.296 181.079 194.84C181.767 195.368 182.111 196.344 182.111 197.768V206H180.503L180.263 204.056C179.959 204.376 179.567 204.704 179.087 205.04C178.607 205.36 178.055 205.64 177.431 205.88C176.823 206.104 176.159 206.216 175.439 206.216C174.399 206.216 173.551 205.936 172.895 205.376C172.255 204.816 171.935 204.008 171.935 202.952V201.68C171.935 200.768 172.215 200.064 172.775 199.568C173.351 199.056 174.151 198.8 175.175 198.8H180.047V197.768C180.047 197.048 179.879 196.536 179.543 196.232C179.223 195.912 178.599 195.752 177.671 195.752C177.063 195.752 176.295 195.784 175.367 195.848C174.455 195.912 173.551 195.984 172.655 196.064L172.463 194.552C173.263 194.424 174.183 194.304 175.223 194.192C176.263 194.08 177.223 194.024 178.103 194.024ZM175.847 204.464C176.423 204.48 177.095 204.344 177.863 204.056C178.631 203.768 179.359 203.32 180.047 202.712V200.336L175.535 200.36C174.975 200.376 174.583 200.528 174.359 200.816C174.135 201.088 174.023 201.472 174.023 201.968V202.712C174.023 203.32 174.167 203.768 174.455 204.056C174.743 204.328 175.207 204.464 175.847 204.464ZM189.643 194.024C190.411 194.04 191.243 194.08 192.139 194.144C193.035 194.192 193.843 194.272 194.563 194.384L194.395 195.872C193.659 195.84 192.915 195.816 192.163 195.8C191.427 195.768 190.691 195.752 189.955 195.752C189.235 195.736 188.667 195.752 188.251 195.8C187.835 195.848 187.531 195.976 187.339 196.184C187.163 196.392 187.075 196.744 187.075 197.24C187.075 197.848 187.219 198.248 187.507 198.44C187.795 198.632 188.219 198.792 188.779 198.92L192.187 199.688C193.115 199.912 193.795 200.256 194.227 200.72C194.675 201.184 194.899 201.912 194.899 202.904C194.899 203.864 194.715 204.584 194.347 205.064C193.995 205.544 193.451 205.864 192.715 206.024C191.979 206.184 191.043 206.264 189.907 206.264C189.491 206.264 188.867 206.248 188.035 206.216C187.219 206.184 186.315 206.088 185.323 205.928L185.467 204.44C186.043 204.472 186.667 204.504 187.339 204.536C188.027 204.552 188.747 204.552 189.499 204.536C190.379 204.536 191.067 204.496 191.563 204.416C192.059 204.336 192.411 204.184 192.619 203.96C192.827 203.72 192.931 203.368 192.931 202.904C192.931 202.328 192.763 201.944 192.427 201.752C192.091 201.56 191.643 201.4 191.083 201.272L187.723 200.504C186.779 200.28 186.099 199.92 185.683 199.424C185.283 198.928 185.083 198.2 185.083 197.24C185.083 196.328 185.243 195.64 185.563 195.176C185.883 194.712 186.379 194.4 187.051 194.24C187.723 194.08 188.587 194.008 189.643 194.024ZM204.966 194.312L205.134 196.184C205.774 195.512 206.526 194.984 207.39 194.6C208.27 194.216 209.134 194.024 209.982 194.024C211.406 194.024 212.43 194.552 213.054 195.608C213.678 196.648 213.99 198.184 213.99 200.216C213.99 201.72 213.83 202.92 213.51 203.816C213.19 204.696 212.702 205.328 212.046 205.712C211.406 206.096 210.582 206.288 209.574 206.288C208.822 206.288 208.086 206.192 207.366 206C206.646 205.808 205.942 205.504 205.254 205.088C205.286 205.488 205.302 205.872 205.302 206.24C205.318 206.624 205.326 207.024 205.326 207.44V210.824H203.286V194.312H204.966ZM209.31 195.8C208.67 195.8 208.038 195.952 207.414 196.256C206.806 196.544 206.11 196.984 205.326 197.576V203.816C206.062 204.008 206.71 204.176 207.27 204.32C207.846 204.448 208.446 204.512 209.07 204.512C209.758 204.512 210.302 204.392 210.702 204.152C211.118 203.912 211.422 203.48 211.614 202.856C211.806 202.232 211.902 201.352 211.902 200.216C211.902 198.552 211.702 197.4 211.302 196.76C210.902 196.12 210.238 195.8 209.31 195.8ZM222.728 194.024C224.024 194.024 225.016 194.296 225.704 194.84C226.392 195.368 226.736 196.344 226.736 197.768V206H225.128L224.888 204.056C224.584 204.376 224.192 204.704 223.712 205.04C223.232 205.36 222.68 205.64 222.056 205.88C221.448 206.104 220.784 206.216 220.064 206.216C219.024 206.216 218.176 205.936 217.52 205.376C216.88 204.816 216.56 204.008 216.56 202.952V201.68C216.56 200.768 216.84 200.064 217.4 199.568C217.976 199.056 218.776 198.8 219.8 198.8H224.672V197.768C224.672 197.048 224.504 196.536 224.168 196.232C223.848 195.912 223.224 195.752 222.296 195.752C221.688 195.752 220.92 195.784 219.992 195.848C219.08 195.912 218.176 195.984 217.28 196.064L217.088 194.552C217.888 194.424 218.808 194.304 219.848 194.192C220.888 194.08 221.848 194.024 222.728 194.024ZM220.472 204.464C221.048 204.48 221.72 204.344 222.488 204.056C223.256 203.768 223.984 203.32 224.672 202.712V200.336L220.16 200.36C219.6 200.376 219.208 200.528 218.984 200.816C218.76 201.088 218.648 201.472 218.648 201.968V202.712C218.648 203.32 218.792 203.768 219.08 204.056C219.368 204.328 219.832 204.464 220.472 204.464ZM231.964 194.312L232.18 196.16C233.028 195.488 233.868 194.968 234.7 194.6C235.548 194.216 236.372 194.024 237.172 194.024H237.7L237.46 195.944H236.788C236.132 195.944 235.468 196.08 234.796 196.352C234.14 196.608 233.348 196.968 232.42 197.432V206H230.38V194.312H231.964ZM245.533 194.024C246.829 194.024 247.821 194.296 248.509 194.84C249.197 195.368 249.541 196.344 249.541 197.768V206H247.933L247.693 204.056C247.389 204.376 246.997 204.704 246.517 205.04C246.037 205.36 245.485 205.64 244.861 205.88C244.253 206.104 243.589 206.216 242.869 206.216C241.829 206.216 240.981 205.936 240.325 205.376C239.685 204.816 239.365 204.008 239.365 202.952V201.68C239.365 200.768 239.645 200.064 240.205 199.568C240.781 199.056 241.581 198.8 242.605 198.8H247.477V197.768C247.477 197.048 247.309 196.536 246.973 196.232C246.653 195.912 246.029 195.752 245.101 195.752C244.493 195.752 243.725 195.784 242.797 195.848C241.885 195.912 240.981 195.984 240.085 196.064L239.893 194.552C240.693 194.424 241.613 194.304 242.653 194.192C243.693 194.08 244.653 194.024 245.533 194.024ZM243.277 204.464C243.853 204.48 244.525 204.344 245.293 204.056C246.061 203.768 246.789 203.32 247.477 202.712V200.336L242.965 200.36C242.405 200.376 242.013 200.528 241.789 200.816C241.565 201.088 241.453 201.472 241.453 201.968V202.712C241.453 203.32 241.597 203.768 241.885 204.056C242.173 204.328 242.637 204.464 243.277 204.464ZM58.552 223.312L58.672 225.16C59.488 224.456 60.28 223.928 61.048 223.576C61.832 223.208 62.632 223.024 63.448 223.024C65.08 223.024 66.064 223.72 66.4 225.112C68 223.72 69.568 223.024 71.104 223.024C72.112 223.024 72.88 223.296 73.408 223.84C73.952 224.384 74.224 225.184 74.224 226.24V235H72.208V226.816C72.192 226.096 72.048 225.576 71.776 225.256C71.504 224.92 71.04 224.752 70.384 224.752C69.776 224.752 69.2 224.896 68.656 225.184C68.128 225.472 67.424 225.928 66.544 226.552V235H64.576V226.816C64.576 226.064 64.424 225.536 64.12 225.232C63.816 224.912 63.36 224.752 62.752 224.752C62.16 224.752 61.592 224.896 61.048 225.184C60.52 225.456 59.808 225.912 58.912 226.552V235H56.872V223.312H58.552ZM82.6954 223.024C84.4554 223.024 85.7274 223.344 86.5114 223.984C87.3114 224.624 87.7114 225.576 87.7114 226.84C87.7274 227.88 87.5114 228.696 87.0634 229.288C86.6154 229.864 85.9034 230.152 84.9274 230.152H79.5034C79.5674 231.08 79.7354 231.792 80.0074 232.288C80.2954 232.768 80.6954 233.104 81.2074 233.296C81.7194 233.472 82.3754 233.56 83.1754 233.56C83.7994 233.56 84.4794 233.536 85.2154 233.488C85.9674 233.424 86.6394 233.352 87.2314 233.272L87.4474 234.64C87.0794 234.784 86.6234 234.904 86.0794 235C85.5514 235.096 84.9994 235.168 84.4234 235.216C83.8634 235.264 83.3594 235.288 82.9114 235.288C81.5674 235.288 80.4874 235.088 79.6714 234.688C78.8554 234.272 78.2554 233.616 77.8714 232.72C77.5034 231.808 77.3194 230.608 77.3194 229.12C77.3194 227.584 77.5034 226.376 77.8714 225.496C78.2554 224.6 78.8394 223.968 79.6234 223.6C80.4234 223.216 81.4474 223.024 82.6954 223.024ZM82.7914 224.752C81.9754 224.752 81.3274 224.864 80.8474 225.088C80.3834 225.312 80.0394 225.704 79.8154 226.264C79.6074 226.808 79.4874 227.576 79.4554 228.568H84.3994C84.9274 228.568 85.2714 228.392 85.4314 228.04C85.5914 227.672 85.6714 227.272 85.6714 226.84C85.6554 226.088 85.4314 225.552 84.9994 225.232C84.5674 224.912 83.8314 224.752 82.7914 224.752ZM92.8501 218.2L92.8261 231.784C92.8261 232.824 93.3621 233.344 94.4341 233.344H95.5621L95.8021 234.904C95.5781 235.016 95.2341 235.096 94.7701 235.144C94.3221 235.192 93.9541 235.216 93.6661 235.216C92.8021 235.216 92.1061 234.96 91.5781 234.448C91.0661 233.936 90.8101 233.2 90.8101 232.24V218.2H92.8501ZM105.015 223.024C107.127 223.024 108.183 224.096 108.183 226.24V235H106.119V226.816C106.119 226.032 105.991 225.496 105.735 225.208C105.495 224.904 105.071 224.752 104.463 224.752C103.775 224.752 103.079 224.912 102.375 225.232C101.687 225.536 100.879 225.984 99.9511 226.576V235H97.9111V218.2H99.9511L99.9751 222.832C99.9751 223.264 99.9591 223.672 99.9271 224.056C99.9111 224.44 99.8791 224.792 99.8311 225.112C100.711 224.472 101.575 223.968 102.423 223.6C103.287 223.216 104.151 223.024 105.015 223.024ZM116.8 223.024C118.144 223.024 119.216 223.224 120.016 223.624C120.832 224.024 121.416 224.68 121.768 225.592C122.12 226.488 122.296 227.68 122.296 229.168C122.296 230.656 122.12 231.856 121.768 232.768C121.416 233.664 120.832 234.312 120.016 234.712C119.216 235.112 118.144 235.312 116.8 235.312C115.472 235.312 114.4 235.112 113.584 234.712C112.784 234.312 112.2 233.664 111.832 232.768C111.48 231.856 111.304 230.656 111.304 229.168C111.304 227.68 111.48 226.488 111.832 225.592C112.2 224.68 112.784 224.024 113.584 223.624C114.4 223.224 115.472 223.024 116.8 223.024ZM116.8 224.752C115.952 224.752 115.28 224.888 114.784 225.16C114.304 225.416 113.96 225.864 113.752 226.504C113.544 227.144 113.44 228.032 113.44 229.168C113.44 230.304 113.544 231.192 113.752 231.832C113.96 232.472 114.304 232.928 114.784 233.2C115.28 233.456 115.952 233.584 116.8 233.584C117.648 233.584 118.32 233.456 118.816 233.2C119.312 232.928 119.664 232.472 119.872 231.832C120.08 231.192 120.184 230.304 120.184 229.168C120.184 228.032 120.08 227.144 119.872 226.504C119.664 225.864 119.312 225.416 118.816 225.16C118.32 224.888 117.648 224.752 116.8 224.752ZM127.081 223.312L127.297 225.16C128.145 224.488 128.985 223.968 129.817 223.6C130.665 223.216 131.489 223.024 132.289 223.024H132.817L132.577 224.944H131.905C131.249 224.944 130.585 225.08 129.913 225.352C129.257 225.608 128.465 225.968 127.537 226.432V235H125.497V223.312H127.081ZM140.65 223.024C141.946 223.024 142.938 223.296 143.626 223.84C144.314 224.368 144.658 225.344 144.658 226.768V235H143.05L142.81 233.056C142.506 233.376 142.114 233.704 141.634 234.04C141.154 234.36 140.602 234.64 139.978 234.88C139.37 235.104 138.706 235.216 137.986 235.216C136.946 235.216 136.098 234.936 135.442 234.376C134.802 233.816 134.482 233.008 134.482 231.952V230.68C134.482 229.768 134.762 229.064 135.322 228.568C135.898 228.056 136.698 227.8 137.722 227.8H142.594V226.768C142.594 226.048 142.426 225.536 142.09 225.232C141.77 224.912 141.146 224.752 140.218 224.752C139.61 224.752 138.842 224.784 137.914 224.848C137.002 224.912 136.098 224.984 135.202 225.064L135.01 223.552C135.81 223.424 136.73 223.304 137.77 223.192C138.81 223.08 139.77 223.024 140.65 223.024ZM138.394 233.464C138.97 233.48 139.642 233.344 140.41 233.056C141.178 232.768 141.906 232.32 142.594 231.712V229.336L138.082 229.36C137.522 229.376 137.13 229.528 136.906 229.816C136.682 230.088 136.57 230.472 136.57 230.968V231.712C136.57 232.32 136.714 232.768 137.002 233.056C137.29 233.328 137.754 233.464 138.394 233.464ZM149.886 223.312L150.102 225.16C150.95 224.488 151.79 223.968 152.622 223.6C153.47 223.216 154.294 223.024 155.094 223.024H155.622L155.382 224.944H154.71C154.054 224.944 153.39 225.08 152.718 225.352C152.062 225.608 151.27 225.968 150.342 226.432V235H148.302V223.312H149.886ZM166.651 223.024C167.419 223.04 168.251 223.08 169.147 223.144C170.043 223.192 170.851 223.272 171.571 223.384L171.403 224.872C170.667 224.84 169.923 224.816 169.171 224.8C168.435 224.768 167.699 224.752 166.963 224.752C166.243 224.736 165.675 224.752 165.259 224.8C164.843 224.848 164.539 224.976 164.347 225.184C164.171 225.392 164.083 225.744 164.083 226.24C164.083 226.848 164.227 227.248 164.515 227.44C164.803 227.632 165.227 227.792 165.787 227.92L169.195 228.688C170.123 228.912 170.803 229.256 171.235 229.72C171.683 230.184 171.907 230.912 171.907 231.904C171.907 232.864 171.723 233.584 171.355 234.064C171.003 234.544 170.459 234.864 169.723 235.024C168.987 235.184 168.051 235.264 166.915 235.264C166.499 235.264 165.875 235.248 165.043 235.216C164.227 235.184 163.323 235.088 162.331 234.928L162.475 233.44C163.051 233.472 163.675 233.504 164.347 233.536C165.035 233.552 165.755 233.552 166.507 233.536C167.387 233.536 168.075 233.496 168.571 233.416C169.067 233.336 169.419 233.184 169.627 232.96C169.835 232.72 169.939 232.368 169.939 231.904C169.939 231.328 169.771 230.944 169.435 230.752C169.099 230.56 168.651 230.4 168.091 230.272L164.731 229.504C163.787 229.28 163.107 228.92 162.691 228.424C162.291 227.928 162.091 227.2 162.091 226.24C162.091 225.328 162.251 224.64 162.571 224.176C162.891 223.712 163.387 223.4 164.059 223.24C164.731 223.08 165.595 223.008 166.651 223.024ZM179.75 223.024C181.51 223.024 182.782 223.344 183.566 223.984C184.366 224.624 184.766 225.576 184.766 226.84C184.782 227.88 184.566 228.696 184.118 229.288C183.67 229.864 182.958 230.152 181.982 230.152H176.558C176.622 231.08 176.79 231.792 177.062 232.288C177.35 232.768 177.75 233.104 178.262 233.296C178.774 233.472 179.43 233.56 180.23 233.56C180.854 233.56 181.534 233.536 182.27 233.488C183.022 233.424 183.694 233.352 184.286 233.272L184.502 234.64C184.134 234.784 183.678 234.904 183.134 235C182.606 235.096 182.054 235.168 181.478 235.216C180.918 235.264 180.414 235.288 179.966 235.288C178.622 235.288 177.542 235.088 176.726 234.688C175.91 234.272 175.31 233.616 174.926 232.72C174.558 231.808 174.374 230.608 174.374 229.12C174.374 227.584 174.558 226.376 174.926 225.496C175.31 224.6 175.894 223.968 176.678 223.6C177.478 223.216 178.502 223.024 179.75 223.024ZM179.846 224.752C179.03 224.752 178.382 224.864 177.902 225.088C177.438 225.312 177.094 225.704 176.87 226.264C176.662 226.808 176.542 227.576 176.51 228.568H181.454C181.982 228.568 182.326 228.392 182.486 228.04C182.646 227.672 182.726 227.272 182.726 226.84C182.71 226.088 182.486 225.552 182.054 225.232C181.622 224.912 180.886 224.752 179.846 224.752ZM189.809 223.312V231.52C189.793 232.256 189.929 232.776 190.217 233.08C190.505 233.384 190.985 233.536 191.657 233.536C192.281 233.536 192.905 233.4 193.529 233.128C194.153 232.84 194.889 232.416 195.737 231.856V223.312H197.777V235H196.145L196.001 233.296C195.121 233.968 194.273 234.472 193.457 234.808C192.641 235.144 191.809 235.312 190.961 235.312C188.833 235.312 187.769 234.24 187.769 232.096V223.312H189.809ZM210.76 223.024C212.216 223.024 213.6 223.376 214.912 224.08C214.88 223.712 214.856 223.344 214.84 222.976C214.824 222.608 214.816 222.216 214.816 221.8V218.2H216.856V235H215.272L215.08 233.32C214.44 233.864 213.728 234.328 212.944 234.712C212.176 235.096 211.344 235.288 210.448 235.288C208.976 235.288 207.92 234.768 207.28 233.728C206.656 232.688 206.344 231.152 206.344 229.12C206.344 227.6 206.504 226.4 206.824 225.52C207.144 224.624 207.632 223.984 208.288 223.6C208.944 223.216 209.768 223.024 210.76 223.024ZM208.432 229.096C208.432 230.248 208.52 231.144 208.696 231.784C208.888 232.424 209.184 232.872 209.584 233.128C209.984 233.384 210.496 233.512 211.12 233.512C211.776 233.512 212.36 233.384 212.872 233.128C213.384 232.872 214.032 232.464 214.816 231.904V225.448C214.128 225.256 213.512 225.104 212.968 224.992C212.424 224.864 211.848 224.8 211.24 224.8C210.568 224.8 210.024 224.92 209.608 225.16C209.208 225.384 208.912 225.808 208.72 226.432C208.528 227.056 208.432 227.944 208.432 229.096ZM222.214 218.344C222.63 218.344 222.838 218.552 222.838 218.968V220.336C222.838 220.752 222.63 220.96 222.214 220.96H221.254C220.838 220.96 220.63 220.752 220.63 220.336V218.968C220.63 218.552 220.838 218.344 221.254 218.344H222.214ZM222.742 223.312V235H220.726V223.312H222.742ZM232.103 223.024C233.399 223.024 234.391 223.296 235.079 223.84C235.767 224.368 236.111 225.344 236.111 226.768V235H234.503L234.263 233.056C233.959 233.376 233.567 233.704 233.087 234.04C232.607 234.36 232.055 234.64 231.431 234.88C230.823 235.104 230.159 235.216 229.439 235.216C228.399 235.216 227.551 234.936 226.895 234.376C226.255 233.816 225.935 233.008 225.935 231.952V230.68C225.935 229.768 226.215 229.064 226.775 228.568C227.351 228.056 228.151 227.8 229.175 227.8H234.047V226.768C234.047 226.048 233.879 225.536 233.543 225.232C233.223 224.912 232.599 224.752 231.671 224.752C231.063 224.752 230.295 224.784 229.367 224.848C228.455 224.912 227.551 224.984 226.655 225.064L226.463 223.552C227.263 223.424 228.183 223.304 229.223 223.192C230.263 223.08 231.223 223.024 232.103 223.024ZM229.847 233.464C230.423 233.48 231.095 233.344 231.863 233.056C232.631 232.768 233.359 232.32 234.047 231.712V229.336L229.535 229.36C228.975 229.376 228.583 229.528 228.359 229.816C228.135 230.088 228.023 230.472 228.023 230.968V231.712C228.023 232.32 228.167 232.768 228.455 233.056C228.743 233.328 229.207 233.464 229.847 233.464ZM240.955 232.168C241.243 232.168 241.443 232.224 241.555 232.336C241.667 232.448 241.723 232.648 241.723 232.936V234.232C241.723 234.52 241.667 234.72 241.555 234.832C241.443 234.944 241.243 235 240.955 235H240.283C240.011 235 239.811 234.944 239.683 234.832C239.571 234.72 239.515 234.52 239.515 234.232V232.936C239.515 232.648 239.571 232.448 239.683 232.336C239.811 232.224 240.011 232.168 240.283 232.168H240.955Z" fill="black"/>
<path d="M108.652 46.9794C108.844 48.6283 108.958 50.3 108.99 51.9912L108.49 52.0008C108.497 52.3331 108.5 52.6662 108.5 53C108.5 53.3338 108.497 53.6669 108.49 53.9992L108.99 54.0088C108.958 55.7 108.844 57.3717 108.652 59.0206L108.156 58.9628C108.079 59.6237 107.989 60.2808 107.887 60.934L108.381 61.011C108.122 62.6783 107.782 64.3201 107.366 65.9325L106.882 65.8077C106.716 66.452 106.537 67.0916 106.347 67.7262L106.826 67.8699C106.342 69.4817 105.782 71.0618 105.149 72.6061L104.687 72.4165C104.435 73.0314 104.171 73.6406 103.896 74.2438L104.351 74.4511C103.655 75.9792 102.887 77.4694 102.05 78.9174L101.617 78.6673C101.285 79.2424 100.942 79.8107 100.589 80.3722L101.012 80.6386C100.119 82.0573 99.1585 83.4321 98.1359 84.7587L97.7399 84.4534C97.3346 84.9792 96.9194 85.4974 96.4945 86.0077L96.8788 86.3276C95.8074 87.6143 94.6754 88.8513 93.4868 90.0344L93.1341 89.68C92.6638 90.1482 92.1846 90.6078 91.6967 91.0587L92.036 91.4259C90.8077 92.561 89.525 93.6409 88.1922 94.6617L87.8882 94.2648C87.3615 94.6682 86.8268 95.0622 86.2845 95.4467L86.5737 95.8546C85.2108 96.8209 83.8001 97.7272 82.3456 98.5696L82.095 98.1369C81.521 98.4693 80.9402 98.7917 80.3527 99.1037L80.5872 99.5453C79.1137 100.328 77.5989 101.046 76.0469 101.697L75.8537 101.236C75.2426 101.492 74.6258 101.737 74.0033 101.971L74.1796 102.439C72.6205 103.027 71.0267 103.546 69.4021 103.994L69.2691 103.512C68.6304 103.689 67.9869 103.854 67.3388 104.007L67.4542 104.494C65.8355 104.878 64.1884 105.191 62.5167 105.431L62.4457 104.936C61.7906 105.03 61.1317 105.112 60.4692 105.183L60.5223 105.68C58.8722 105.856 57.2 105.961 55.5089 105.991L55.5001 105.491C55.1675 105.497 54.8341 105.5 54.5 105.5C54.1659 105.5 53.8325 105.497 53.4999 105.491L53.4911 105.991C51.8 105.961 50.1278 105.856 48.4777 105.68L48.5308 105.183C47.8683 105.112 47.2093 105.03 46.5543 104.936L46.4833 105.431C44.8116 105.191 43.1645 104.878 41.5458 104.494L41.6612 104.007C41.0131 103.854 40.3696 103.689 39.7309 103.512L39.5979 103.994C37.9733 103.546 36.3795 103.027 34.8204 102.439L34.9967 101.971C34.3742 101.737 33.7574 101.492 33.1463 101.236L32.9531 101.697C31.4011 101.046 29.8863 100.328 28.4128 99.5453L28.6473 99.1037C28.0598 98.7917 27.479 98.4693 26.905 98.1369L26.6544 98.5696C25.1999 97.7272 23.7892 96.8209 22.4263 95.8546L22.7155 95.4467C22.1732 95.0622 21.6385 94.6682 21.1118 94.2647L20.8078 94.6617C19.475 93.6409 18.1923 92.561 16.964 91.4259L17.3033 91.0587C16.8154 90.6078 16.3362 90.1482 15.8659 89.68L15.5132 90.0344C14.3246 88.8513 13.1926 87.6143 12.1212 86.3276L12.5055 86.0077C12.0806 85.4974 11.6654 84.9792 11.2601 84.4534L10.8641 84.7587C9.84155 83.4321 8.88146 82.0573 7.98809 80.6386L8.4112 80.3722C8.05768 79.8107 7.71472 79.2424 7.38259 78.6673L6.94962 78.9174C6.11327 77.4694 5.34483 75.9792 4.64851 74.4511L5.1035 74.2438C4.82863 73.6406 4.56512 73.0314 4.31322 72.4165L3.85054 72.6061C3.21787 71.0618 2.65773 69.4817 2.1742 67.8699L2.65311 67.7262C2.46273 67.0916 2.28435 66.452 2.11821 65.8077L1.63405 65.9325C1.21827 64.3201 0.878451 62.6783 0.61851 61.011L1.11254 60.934C1.01071 60.2808 0.921256 59.6237 0.844419 58.9628L0.347765 59.0206C0.156054 57.3717 0.0421392 55.7 0.00967549 54.0088L0.509583 53.9992C0.503204 53.6669 0.5 53.3338 0.5 53C0.5 52.6662 0.503204 52.3331 0.509584 52.0008L0.00967564 51.9912C0.0421396 50.3 0.156055 48.6283 0.347766 46.9794L0.84442 47.0372C0.921257 46.3763 1.01071 45.7192 1.11254 45.066L0.618512 44.989C0.878453 43.3217 1.21827 41.6799 1.63405 40.0674L2.11822 40.1923C2.28435 39.548 2.46274 38.9084 2.65311 38.2738L2.1742 38.1301C2.65773 36.5183 3.21787 34.9382 3.85054 33.3939L4.31322 33.5835C4.56512 32.9686 4.82863 32.3594 5.1035 31.7562L4.64851 31.5489C5.34483 30.0208 6.11327 28.5306 6.94962 27.0826L7.38259 27.3327C7.71473 26.7576 8.05769 26.1893 8.4112 25.6278L7.98809 25.3614C8.88146 23.9427 9.84155 22.5679 10.8641 21.2413L11.2601 21.5466C11.6654 21.0208 12.0806 20.5026 12.5055 19.9923L12.1212 19.6724C13.1926 18.3857 14.3246 17.1487 15.5132 15.9656L15.8659 16.32C16.3362 15.8518 16.8154 15.3922 17.3033 14.9413L16.964 14.5741C18.1923 13.439 19.475 12.3591 20.8078 11.3383L21.1118 11.7352C21.6385 11.3318 22.1732 10.9378 22.7155 10.5533L22.4263 10.1454C23.7892 9.17909 25.1999 8.27278 26.6544 7.43044L26.905 7.86312C27.479 7.5307 28.0598 7.20833 28.6473 6.89627L28.4128 6.4547C29.8863 5.67202 31.4011 4.95358 32.9531 4.30326L33.1463 4.76442C33.7574 4.50839 34.3742 4.26302 34.9967 4.02854L34.8204 3.56063C36.3795 2.97332 37.9733 2.45375 39.5979 2.00562L39.7309 2.48762C40.3696 2.31146 41.0131 2.14643 41.6612 1.99278L41.5458 1.50626C43.1645 1.12249 44.8116 0.809011 46.4833 0.569351L46.5543 1.06429C47.2094 0.970378 47.8683 0.8879 48.5308 0.817073L48.4777 0.319906C50.1278 0.143513 51.8 0.0387556 53.4911 0.00889973L53.4999 0.508822C53.8325 0.502949 54.1659 0.5 54.5 0.5C54.8341 0.5 55.1675 0.502949 55.5001 0.508822L55.5089 0.00889986C57.2 0.038756 58.8722 0.143514 60.5223 0.319906L60.4692 0.817074C61.1317 0.8879 61.7907 0.970378 62.4457 1.06429L62.5167 0.569351C64.1884 0.809011 65.8355 1.12249 67.4542 1.50626L67.3388 1.99278C67.9869 2.14643 68.6304 2.31146 69.2691 2.48762L69.4021 2.00562C71.0267 2.45375 72.6205 2.97333 74.1796 3.56063L74.0033 4.02854C74.6258 4.26302 75.2426 4.50839 75.8537 4.76442L76.0469 4.30327C77.5989 4.95358 79.1137 5.67202 80.5872 6.4547L80.3527 6.89627C80.9402 7.20833 81.521 7.5307 82.095 7.86312L82.3456 7.43044C83.8001 8.27278 85.2108 9.17909 86.5737 10.1454L86.2845 10.5533C86.8268 10.9378 87.3615 11.3318 87.8882 11.7352L88.1922 11.3383C89.525 12.3591 90.8077 13.439 92.036 14.5741L91.6967 14.9413C92.1846 15.3922 92.6638 15.8518 93.1341 16.32L93.4868 15.9656C94.6754 17.1487 95.8074 18.3857 96.8788 19.6724L96.4945 19.9923C96.9194 20.5026 97.3346 21.0208 97.7399 21.5466L98.1359 21.2413C99.1585 22.5679 100.119 23.9427 101.012 25.3614L100.589 25.6278C100.942 26.1893 101.285 26.7576 101.617 27.3327L102.05 27.0826C102.887 28.5306 103.655 30.0208 104.351 31.5489L103.896 31.7562C104.171 32.3594 104.435 32.9686 104.687 33.5835L105.149 33.3939C105.782 34.9382 106.342 36.5183 106.826 38.1301L106.347 38.2738C106.537 38.9084 106.716 39.548 106.882 40.1923L107.366 40.0675C107.782 41.6799 108.122 43.3217 108.381 44.989L107.887 45.066C107.989 45.7192 108.079 46.3763 108.156 47.0372L108.652 46.9794Z" stroke="black" stroke-dasharray="2 5"/>
<path d="M98.9043 49.9593C98.9434 50.5788 98.9707 51.2016 98.9858 51.8275L98.486 51.8396C98.4953 52.2252 98.5 52.612 98.5 53C98.5 53.388 98.4953 53.7748 98.486 54.1604L98.9858 54.1725C98.9477 55.7476 98.833 57.3029 98.6454 58.8348L98.1491 58.774C98.0739 59.3886 97.9868 59.9993 97.888 60.6059L98.3815 60.6862C98.2558 61.4589 98.1115 62.225 97.9489 62.984L97.46 62.8794C97.1347 64.399 96.7359 65.89 96.2677 67.3482L96.7438 67.501C96.5527 68.0961 96.3502 68.6858 96.1365 69.2698L95.6669 69.098C95.4012 69.8244 95.118 70.5418 94.8178 71.2498L95.2782 71.445C94.6667 72.8875 93.9856 74.2914 93.2394 75.6521L92.801 75.4117C92.5039 75.9534 92.1964 76.4882 91.8788 77.0157L92.3071 77.2736C91.9043 77.9427 91.4853 78.6002 91.0507 79.2458L90.6359 78.9665C89.7721 80.2496 88.846 81.4845 87.8621 82.6665L88.2464 82.9864C87.8472 83.4661 87.4385 83.9372 87.0207 84.3994L86.6498 84.0641C86.1323 84.6365 85.6007 85.1952 85.0555 85.7394L85.4088 86.0932C84.3041 87.1959 83.1444 88.2401 81.9342 89.2209L81.6194 88.8324C81.1403 89.2207 80.6532 89.599 80.1584 89.9669L80.4568 90.3681C79.8313 90.8332 79.1937 91.2819 78.5445 91.7136L78.2676 91.2973C76.9855 92.15 75.6578 92.9356 74.2893 93.6495L74.5205 94.0928C73.9682 94.3809 73.4092 94.6575 72.844 94.9222L72.6319 94.4694C71.9352 94.7957 71.2288 95.1037 70.5133 95.393L70.7006 95.8565C69.2615 96.4383 67.7859 96.9448 66.2783 97.3715L66.1422 96.8904C65.5506 97.0577 64.9542 97.2127 64.353 97.3549L64.4681 97.8415C63.7122 98.0203 62.949 98.1792 62.179 98.3176L62.0905 97.8255C60.5871 98.0959 59.0574 98.2873 57.5055 98.3955L57.5402 98.8943C56.921 98.9375 56.2983 98.9676 55.6724 98.9843L55.659 98.4845C55.2739 98.4948 54.8875 98.5 54.5 98.5C54.1125 98.5 53.7261 98.4948 53.341 98.4845L53.3276 98.9843C51.7529 98.9422 50.1985 98.8156 48.6686 98.6086L48.7357 98.1131C48.1229 98.0302 47.514 97.9342 46.9095 97.8255L46.821 98.3176C46.051 98.1792 45.2878 98.0203 44.5319 97.8415L44.647 97.3549C43.1389 96.9981 41.6602 96.5612 40.2155 96.0487L40.0483 96.5199C39.4597 96.3111 38.8766 96.0899 38.2994 95.8565L38.4867 95.393C37.7712 95.1037 37.0648 94.7957 36.3681 94.4694L36.156 94.9222C34.7412 94.2596 33.3658 93.5227 32.0346 92.7164L32.2937 92.2887C31.7661 91.9692 31.2456 91.6386 30.7324 91.2973L30.4555 91.7136C29.8063 91.2819 29.1687 90.8332 28.5432 90.3681L28.8416 89.9669C27.605 89.0475 26.4164 88.0633 25.2804 87.0191L24.942 87.3872C24.4832 86.9654 24.0328 86.534 23.5912 86.0932L23.9445 85.7394C23.3993 85.1952 22.8677 84.6365 22.3502 84.0641L21.9793 84.3994C20.9363 83.2455 19.95 82.036 19.0251 80.7758L19.4282 80.48C19.0638 79.9834 18.709 79.4788 18.3641 78.9665L17.9493 79.2458C17.5147 78.6003 17.0957 77.9427 16.6929 77.2736L17.1212 77.0157C16.329 75.7 15.5999 74.3393 14.9383 72.9383L14.4862 73.1518C14.2205 72.5892 13.9656 72.0201 13.7218 71.445L14.1822 71.2498C13.882 70.5418 13.5988 69.8244 13.3331 69.098L12.8635 69.2698C12.3313 67.8151 11.8683 66.3251 11.4788 64.8043L11.9632 64.6802C11.8106 64.0846 11.6695 63.4843 11.54 62.8794L11.0511 62.9841C10.8886 62.225 10.7442 61.4589 10.6185 60.6862L11.112 60.6059C10.8665 59.0977 10.6928 57.5641 10.5947 56.0092L10.0957 56.0407C10.0566 55.4212 10.0293 54.7984 10.0142 54.1725L10.514 54.1604C10.5047 53.7748 10.5 53.388 10.5 53C10.5 52.612 10.5047 52.2252 10.514 51.8396L10.0142 51.8275C10.0523 50.2524 10.167 48.6971 10.3546 47.1652L10.8509 47.226C10.9261 46.6114 11.0132 46.0007 11.112 45.3941L10.6185 45.3138C10.7442 44.5411 10.8885 43.775 11.0511 43.016L11.54 43.1206C11.8653 41.601 12.2641 40.11 12.7323 38.6518L12.2562 38.499C12.4473 37.9039 12.6498 37.3142 12.8635 36.7302L13.3331 36.902C13.5988 36.1757 13.882 35.4582 14.1822 34.7502L13.7218 34.555C14.3333 33.1125 15.0144 31.7086 15.7606 30.3479L16.199 30.5883C16.4961 30.0466 16.8036 29.5118 17.1212 28.9843L16.6929 28.7264C17.0957 28.0573 17.5147 27.3998 17.9493 26.7543L18.3641 27.0335C19.2279 25.7504 20.154 24.5155 21.1379 23.3335L20.7536 23.0136C21.1528 22.5339 21.5615 22.0628 21.9793 21.6006L22.3502 21.9359C22.8677 21.3635 23.3993 20.8048 23.9445 20.2606L23.5912 19.9068C24.6959 18.8041 25.8556 17.7599 27.0658 16.7791L27.3806 17.1676C27.8597 16.7793 28.3468 16.401 28.8416 16.0331L28.5432 15.6319C29.1687 15.1668 29.8063 14.7181 30.4555 14.2864L30.7324 14.7027C32.0145 13.85 33.3422 13.0644 34.7107 12.3505L34.4795 11.9072C35.0318 11.6191 35.5908 11.3425 36.156 11.0778L36.3681 11.5306C37.0648 11.2043 37.7712 10.8963 38.4867 10.607L38.2994 10.1435C39.7385 9.56171 41.2141 9.05518 42.7217 8.62854L42.8578 9.10965C43.4494 8.94225 44.0458 8.7873 44.647 8.64509L44.5319 8.15852C45.2878 7.97971 46.051 7.8208 46.821 7.68235L46.9095 8.17446C48.4129 7.90413 49.9426 7.71269 51.4945 7.60446L51.4598 7.10567C52.079 7.06248 52.7017 7.03239 53.3276 7.01565L53.341 7.51548C53.7261 7.50518 54.1125 7.5 54.5 7.5C54.8875 7.5 55.2739 7.50518 55.659 7.51548L55.6724 7.01565C57.2471 7.05775 58.8015 7.18441 60.3314 7.39141L60.2643 7.88689C60.8771 7.9698 61.486 8.06575 62.0905 8.17446L62.179 7.68235C62.949 7.8208 63.7122 7.97971 64.4681 8.15851L64.353 8.64509C65.8611 9.00186 67.3398 9.43878 68.7845 9.95131L68.9517 9.48008C69.5404 9.68891 70.1234 9.91014 70.7006 10.1435L70.5133 10.607C71.2288 10.8963 71.9352 11.2043 72.6319 11.5306L72.844 11.0778C74.2588 11.7404 75.6342 12.4773 76.9654 13.2836L76.7063 13.7113C77.2338 14.0308 77.7544 14.3614 78.2676 14.7027L78.5445 14.2864C79.1937 14.7181 79.8313 15.1668 80.4568 15.6319L80.1584 16.0331C81.395 16.9525 82.5836 17.9367 83.7196 18.9809L84.058 18.6128C84.5168 19.0346 84.9672 19.466 85.4088 19.9068L85.0555 20.2606C85.6007 20.8048 86.1323 21.3635 86.6498 21.9359L87.0207 21.6006C88.0638 22.7545 89.05 23.964 89.9749 25.2242L89.5718 25.52C89.9362 26.0166 90.291 26.5212 90.6359 27.0335L91.0507 26.7542C91.4853 27.3998 91.9043 28.0573 92.3071 28.7264L91.8788 28.9843C92.671 30.3 93.4001 31.6607 94.0617 33.0617L94.5138 32.8482C94.7795 33.4108 95.0344 33.9799 95.2782 34.555L94.8178 34.7502C95.118 35.4582 95.4012 36.1756 95.6669 36.902L96.1365 36.7302C96.6688 38.1849 97.1317 39.6749 97.5212 41.1957L97.0368 41.3198C97.1894 41.9154 97.3305 42.5157 97.46 43.1206L97.9489 43.0159C98.1115 43.775 98.2558 44.5411 98.3815 45.3138L97.888 45.3941C98.1335 46.9023 98.3072 48.4359 98.4053 49.9908L98.9043 49.9593Z" stroke="black" stroke-dasharray="2.5 2 5 2.5 2 5"/>
<path d="M64.9492 58.9453H69.7832V65.7715H64.9492V75H56.4824V65.7715H38.9922L38.6113 60.4395L56.3945 32.3438H64.9492V58.9453ZM47.0488 58.9453H56.4824V43.8867L55.9258 44.8535L47.0488 58.9453Z" fill="#53CC89"/>
</svg>
