<svg id="Filled" height="512" viewBox="0 0 512 512" width="512" xmlns="http://www.w3.org/2000/svg"><g><g><path d="m24 448h464a0 0 0 0 1 0 0v20a20 20 0 0 1 -20 20h-424a20 20 0 0 1 -20-20v-20a0 0 0 0 1 0 0z" fill="#d4d580"/><g><path d="m459.416 153.348-27.416-49.348h-8v-32h-64v32h-8l-27.416 49.348a100 100 0 0 0 -12.584 48.565v216.087a30 30 0 0 0 30 30h100a30 30 0 0 0 30-30v-216.087a100 100 0 0 0 -12.584-48.565z" fill="#f5f5f5"/><g fill="#4dccff"><path d="m312 232h160v104h-160z" transform="matrix(-1 0 0 -1 784 568)"/><rect height="48" rx="10" transform="matrix(-1 0 0 -1 784 96)" width="96" x="344" y="24"/></g></g><g><path d="m61.867 179.956a64.007 64.007 0 0 1 122.933-10.033 64 64 0 0 1 67.984 108.252 64 64 0 1 1 -107.1 65.512 64 64 0 0 1 -67.984-108.253 63.905 63.905 0 0 1 -15.833-55.478z" fill="#abbf71"/><path d="m64.8 288a56 56 0 0 0 38.4 95.988 56 56 0 0 0 -38.4-95.988z" fill="#fdbf67"/><path d="m128.8 288a56 56 0 0 0 38.4 95.988 56 56 0 0 0 -38.4-95.988z" fill="#f15a57"/><circle cx="216" cy="88" fill="#f15a57" r="32"/><path d="m208 328c0 30.928 28.654 64 64 64s64-33.072 64-64-28.654-88-64-88-64 57.072-64 88z" fill="#f5f5f5"/><circle cx="272" cy="336" fill="#fdbf67" r="32"/><path d="m100 368h184a60 60 0 0 1 60 60v20a0 0 0 0 1 0 0h-304a0 0 0 0 1 0 0v-20a60 60 0 0 1 60-60z" fill="#f29a49" transform="matrix(-1 0 0 -1 384 816)"/></g></g><g><path d="m216 128a40 40 0 0 0 16.544-76.416c2.771-11.132 15.822-19.584 31.456-19.584v-16c-23.186 0-42.584 13.771-47.038 32.012-.32-.012-.64-.012-.962-.012a40 40 0 0 0 0 80zm0-64a24 24 0 1 1 -24 24 24.028 24.028 0 0 1 24-24z"/><path d="m424 168h16v16h-16z"/><path d="m488 440h-15.032a37.8 37.8 0 0 0 7.032-22v-216.087a108.248 108.248 0 0 0 -13.591-52.449l-27.416-49.349a8 8 0 0 0 -6.993-4.115v-16.111a18.026 18.026 0 0 0 16-17.889v-28a18.021 18.021 0 0 0 -18-18h-14v16h14a2 2 0 0 1 2 2v28a2 2 0 0 1 -2 2h-76a2 2 0 0 1 -2-2v-28a2 2 0 0 1 2-2h46v-16h-46a18.021 18.021 0 0 0 -18 18v28a18.026 18.026 0 0 0 16 17.889v16.111a8 8 0 0 0 -6.993 4.115l-27.416 49.349a108.248 108.248 0 0 0 -13.591 52.449v42.881a59.127 59.127 0 0 0 -16.586-9.885 72.006 72.006 0 0 0 -98.616-75.77 72.033 72.033 0 0 0 -120.284-12.145 72.28 72.28 0 0 0 -15.8 45l16 .02a56 56 0 0 1 66.562-55 55.627 55.627 0 0 1 42.021 35.676 8 8 0 0 0 11.408 4.216 56.006 56.006 0 0 1 82.944 55.094c-18.545.16-36.873 12.963-51.646 36.094a140.2 140.2 0 0 0 -13.235 26.8l-19.825-24.094 15.348-69.068-15.619-3.47-12.634 56.854-61.379-74.593-12.359 10.169 40.576 49.308h-42.4v16h55.561l47.439 57.652a77.323 77.323 0 0 0 -1.476 14.348 68.339 68.339 0 0 0 8.514 32h-18.525a64.025 64.025 0 0 0 -61.074-80 8.029 8.029 0 0 0 -5.712 2.286 64.114 64.114 0 0 0 -12.748 17.614 63.591 63.591 0 0 0 -45.54-19.9 7.919 7.919 0 0 0 -5.712 2.286q-.243.239-.483.478.251-2.769.776-5.514a55.716 55.716 0 0 1 22.804-35.27 8 8 0 0 0 1.283-11.968 56.4 56.4 0 0 1 -13.104-24.012l-15.49 4a72.4 72.4 0 0 0 11.4 24.212 72.076 72.076 0 0 0 -21.953 70.253 64.334 64.334 0 0 0 4.116 55.535h-8.552a8 8 0 0 0 -8 8v20a67.882 67.882 0 0 0 24.229 52h-32.229a8 8 0 0 0 -8 8v20a28.032 28.032 0 0 0 28 28h100v-16h-100a12.013 12.013 0 0 1 -12-12v-12h448v12a12.013 12.013 0 0 1 -12 12h-308v16h308a28.032 28.032 0 0 0 28-28v-20a8 8 0 0 0 -8-8zm-120-360h48v16h-48zm-36.423 77.233 25.13-45.233h70.586l25.13 45.233a92.225 92.225 0 0 1 11.577 44.68v22.087h-48v16h48v88h-120c0-17.364-7.852-40.878-20-59.9q-1.958-3.066-4-5.888v-22.212h80v-16h-80v-22.087a92.225 92.225 0 0 1 11.577-44.68zm-115.577 170.767c0-29.382 27.672-80 56-80s56 50.618 56 80c0 10.719-4.118 22.168-11.414 32h-12.606a40 40 0 1 0 -63.96 0h-12.6c-7.297-9.832-11.42-21.3-11.42-32zm32 8a24 24 0 1 1 24 24 24.028 24.028 0 0 1 -24-24zm-115.934-39.834a48.213 48.213 0 0 1 43.934 47.828 47.683 47.683 0 0 1 -2.728 16.006h-7.354l-14.527-35.062-14.782 6.124 11.991 28.938h-16.374a47.591 47.591 0 0 1 -12.226-32.006 48.391 48.391 0 0 1 1.316-11.249l.5-.236c-.1-.2-.192-.4-.289-.6a47.518 47.518 0 0 1 10.539-19.743zm-76.066 31.828a47.594 47.594 0 0 1 12.069-31.831 47.626 47.626 0 0 1 36.624 22.337 65.041 65.041 0 0 0 -.693 9.49 63.579 63.579 0 0 0 8.54 32.01h-10.622l-14.527-35.062-14.782 6.124 11.991 28.938h-16.372a47.69 47.69 0 0 1 -12.228-32.006zm44 112.006a52.059 52.059 0 0 1 -52-52v-12h288v12a52.059 52.059 0 0 1 -52 52zm227.771 0a67.882 67.882 0 0 0 24.229-52v-20a8 8 0 0 0 -8-8h-8.51a73.548 73.548 0 0 0 6.363-16h122.147v74a22.025 22.025 0 0 1 -22 22z"/></g></g></svg>