<svg width="83" height="83" viewBox="0 0 83 83" fill="none" xmlns="http://www.w3.org/2000/svg">
<path fill-rule="evenodd" clip-rule="evenodd" d="M1.02641e-06 6.93428C1.02641e-06 5.0952 0.730574 3.33144 2.031 2.03101C3.33143 0.730582 5.09519 9.24436e-06 6.93427 9.24436e-06H76.0582C76.9696 -0.00147929 77.8723 0.17681 78.7147 0.52467C79.5571 0.87253 80.3226 1.38313 80.9674 2.02723C81.6122 2.67134 82.1237 3.4363 82.4725 4.27832C82.8212 5.12034 83.0005 6.02289 83 6.93428V76.0582C83.001 76.9698 82.8222 77.8726 82.474 78.715C82.1257 79.5574 81.6147 80.3229 80.9703 80.9677C80.3259 81.6124 79.5607 82.1238 78.7185 82.4725C77.8763 82.8213 76.9735 83.0005 76.0619 83H6.93427C6.02333 83 5.12132 82.8205 4.27977 82.4718C3.43822 82.1231 2.67362 81.612 2.02967 80.9677C1.38571 80.3234 0.875016 79.5585 0.526758 78.7168C0.1785 77.875 -0.000494588 76.9729 1.02641e-06 76.062V6.93428ZM32.8529 31.6456H44.0919V37.2896C45.7141 34.0451 49.8641 31.125 56.1004 31.125C68.0562 31.125 70.8895 37.5877 70.8895 49.4454V71.4102H58.7904V52.1466C58.7904 45.3935 57.1681 41.583 53.0483 41.583C47.3326 41.583 44.9558 45.6915 44.9558 52.1466V71.4102H32.8529V31.6456ZM12.1029 70.8933H24.2058V31.125H12.1029V70.8896V70.8933ZM25.9375 18.1544C25.9603 19.1906 25.7759 20.221 25.3951 21.1851C25.0143 22.1491 24.4448 23.0274 23.72 23.7683C22.9952 24.5093 22.1297 25.098 21.1743 25.4999C20.2188 25.9018 19.1928 26.1089 18.1562 26.1089C17.1197 26.1089 16.0937 25.9018 15.1382 25.4999C14.1828 25.098 13.3173 24.5093 12.5925 23.7683C11.8677 23.0274 11.2982 22.1491 10.9174 21.1851C10.5366 20.221 10.3522 19.1906 10.375 18.1544C10.4198 16.1203 11.2593 14.1847 12.7137 12.762C14.168 11.3392 16.1217 10.5426 18.1562 10.5426C20.1908 10.5426 22.1445 11.3392 23.5988 12.762C25.0532 14.1847 25.8927 16.1203 25.9375 18.1544Z" fill="#11BD5D"/>
</svg>
