<svg width="355" height="344" viewBox="0 0 355 344" fill="none" xmlns="http://www.w3.org/2000/svg">
<path fill-rule="evenodd" clip-rule="evenodd" d="M346.458 -99.4278C392.677 -89.6032 422.495 -49.5262 451.652 -14.3617C473.855 12.4153 479.389 45.6586 492.883 77.1637C507.773 111.926 538.298 142.217 534.709 179.547C530.747 220.762 507.576 260.377 472.835 285.727C437.55 311.474 391.088 315.993 346.458 316.913C300.912 317.851 256.098 311.375 215.998 291.019C171.123 268.238 124.632 240.243 106.826 195.265C88.7372 149.57 105.495 99.5167 121.874 53.2537C138.135 7.32318 158.292 -39.5157 199.982 -67.8584C241.609 -96.1582 296.374 -110.074 346.458 -99.4278Z" stroke="#4B784E" stroke-width="4"/>
<path fill-rule="evenodd" clip-rule="evenodd" d="M243.367 -50.331C291.377 -61.2873 349.394 -46.9585 383.539 -17.3086C416.565 11.3686 401.821 57.0389 411.435 95.6086C419.575 128.268 439.395 157.973 435.498 191.149C430.805 231.107 422.681 274.011 387.217 301.816C349.769 331.175 295.227 343.853 243.367 341.783C192.904 339.769 150.395 314.817 109.386 290.727C68.183 266.522 19.9769 242.948 6.94142 202.898C-5.90658 163.424 14.3599 120.501 43.0993 87.0678C67.5142 58.6655 117.983 58.1918 150.522 35.8678C187.302 10.6341 197.097 -39.7717 243.367 -50.331Z" stroke="#53CC89" stroke-width="4"/>
</svg>
