<svg width="83" height="83" viewBox="0 0 83 83" fill="none" xmlns="http://www.w3.org/2000/svg">
<path fill-rule="evenodd" clip-rule="evenodd" d="M24.3907 0.249C28.8161 0.0452727 30.2271 0 41.5 0C52.7729 0 54.1839 0.0490454 58.6055 0.249C63.0272 0.448954 66.0454 1.15445 68.6863 2.17686C71.4517 3.22191 73.9605 4.8555 76.0355 6.96823C78.1483 9.03945 79.7781 11.5445 80.8194 14.3137C81.8456 16.9546 82.5473 19.9728 82.751 24.3869C82.9547 28.8199 83 30.2309 83 41.5C83 52.7729 82.951 54.1839 82.751 58.6093C82.551 63.0234 81.8456 66.0416 80.8194 68.6825C79.7781 71.452 78.1456 73.9613 76.0355 76.0355C73.9605 78.1483 71.4517 79.7781 68.6863 80.8194C66.0454 81.8456 63.0272 82.5473 58.6131 82.751C54.1839 82.9547 52.7729 83 41.5 83C30.2271 83 28.8161 82.951 24.3907 82.751C19.9766 82.551 16.9584 81.8456 14.3175 80.8194C11.548 79.778 9.03878 78.1455 6.96445 76.0355C4.85316 73.9631 3.21932 71.455 2.17686 68.6863C1.15445 66.0454 0.452727 63.0272 0.249 58.6131C0.0452727 54.1801 0 52.7691 0 41.5C0 30.2271 0.0490454 28.8161 0.249 24.3945C0.448954 19.9728 1.15445 16.9546 2.17686 14.3137C3.22086 11.5449 4.85595 9.03686 6.96823 6.96445C9.03961 4.85362 11.5463 3.21981 14.3137 2.17686C16.9546 1.15445 19.9728 0.452727 24.3869 0.249H24.3907ZM58.2698 7.719C53.8934 7.51905 52.5805 7.47755 41.5 7.47755C30.4195 7.47755 29.1066 7.51905 24.7302 7.719C20.6821 7.90386 18.4864 8.57918 17.0225 9.14886C15.0871 9.90341 13.7025 10.7975 12.25 12.25C10.8732 13.5896 9.81354 15.2202 9.14886 17.0225C8.57918 18.4864 7.90386 20.6821 7.719 24.7302C7.51905 29.1066 7.47755 30.4195 7.47755 41.5C7.47755 52.5805 7.51905 53.8934 7.719 58.2698C7.90386 62.3179 8.57918 64.5136 9.14886 65.9775C9.81286 67.777 10.873 69.4106 12.25 70.75C13.5894 72.127 15.223 73.1871 17.0225 73.8511C18.4864 74.4208 20.6821 75.0961 24.7302 75.281C29.1066 75.481 30.4157 75.5225 41.5 75.5225C52.5843 75.5225 53.8934 75.481 58.2698 75.281C62.3179 75.0961 64.5136 74.4208 65.9775 73.8511C67.9129 73.0966 69.2975 72.2025 70.75 70.75C72.127 69.4106 73.1871 67.777 73.8511 65.9775C74.4208 64.5136 75.0961 62.3179 75.281 58.2698C75.481 53.8934 75.5225 52.5805 75.5225 41.5C75.5225 30.4195 75.481 29.1066 75.281 24.7302C75.0961 20.6821 74.4208 18.4864 73.8511 17.0225C73.0966 15.0871 72.2025 13.7025 70.75 12.25C69.4104 10.8733 67.7797 9.81366 65.9775 9.14886C64.5136 8.57918 62.3179 7.90386 58.2698 7.719ZM36.1993 54.2933C39.1596 55.5256 42.4559 55.6919 45.5252 54.7639C48.5945 53.8358 51.2464 51.8709 53.028 49.2048C54.8095 46.5387 55.6102 43.3368 55.2933 40.146C54.9763 36.9551 53.5614 33.9733 51.2902 31.7098C49.8424 30.2628 48.0918 29.1549 46.1643 28.4658C44.2369 27.7766 42.1807 27.5234 40.1437 27.7243C38.1067 27.9252 36.1395 28.5753 34.3839 29.6277C32.6283 30.6801 31.1278 32.1087 29.9906 33.8106C28.8533 35.5125 28.1075 37.4454 27.8069 39.4701C27.5064 41.4948 27.6584 43.561 28.2522 45.5199C28.846 47.4788 29.8667 49.2817 31.2409 50.7987C32.6151 52.3158 34.3085 53.5093 36.1993 54.2933ZM26.4166 26.4166C28.3974 24.4359 30.7489 22.8646 33.3369 21.7926C35.9249 20.7206 38.6988 20.1689 41.5 20.1689C44.3012 20.1689 47.0751 20.7206 49.6631 21.7926C52.2511 22.8646 54.6026 24.4359 56.5834 26.4166C58.5641 28.3974 60.1354 30.7489 61.2074 33.3369C62.2794 35.9249 62.8311 38.6988 62.8311 41.5C62.8311 44.3012 62.2794 47.0751 61.2074 49.6631C60.1354 52.2511 58.5641 54.6026 56.5834 56.5834C52.583 60.5837 47.1574 62.8311 41.5 62.8311C35.8426 62.8311 30.417 60.5837 26.4166 56.5834C22.4163 52.583 20.1689 47.1574 20.1689 41.5C20.1689 35.8426 22.4163 30.417 26.4166 26.4166ZM67.562 23.3456C68.0528 22.8826 68.4458 22.3258 68.7176 21.7082C68.9894 21.0906 69.1345 20.4247 69.1443 19.75C69.1542 19.0753 69.0285 18.4054 68.7749 17.7801C68.5212 17.1549 68.1446 16.5868 67.6675 16.1097C67.1903 15.6326 66.6223 15.256 65.997 15.0023C65.3718 14.7486 64.7019 14.623 64.0272 14.6328C63.3525 14.6427 62.6866 14.7878 62.069 15.0596C61.4514 15.3314 60.8946 15.7243 60.4315 16.2152C59.531 17.1698 59.038 18.4378 59.0571 19.75C59.0763 21.0622 59.606 22.3152 60.534 23.2432C61.462 24.1711 62.715 24.7009 64.0272 24.72C65.3394 24.7392 66.6074 24.2461 67.562 23.3456Z" fill="#11BD5D"/>
</svg>
