<svg width="270" height="226" viewBox="0 0 270 226" fill="none" xmlns="http://www.w3.org/2000/svg">
<path d="M29.968 203.152C30.672 203.152 31.272 203.168 31.768 203.2C32.28 203.232 32.744 203.288 33.16 203.368C33.592 203.432 34.032 203.52 34.48 203.632L34.264 205.24C33.784 205.192 33.336 205.152 32.92 205.12C32.52 205.088 32.088 205.064 31.624 205.048C31.16 205.032 30.608 205.024 29.968 205.024C28.896 205.024 28.048 205.232 27.424 205.648C26.8 206.064 26.352 206.76 26.08 207.736C25.824 208.712 25.696 210.04 25.696 211.72C25.696 213.4 25.824 214.728 26.08 215.704C26.352 216.68 26.8 217.376 27.424 217.792C28.048 218.208 28.896 218.416 29.968 218.416C30.992 218.416 31.848 218.4 32.536 218.368C33.24 218.32 33.928 218.248 34.6 218.152L34.816 219.736C34.128 219.928 33.416 220.064 32.68 220.144C31.96 220.24 31.056 220.288 29.968 220.288C28.384 220.288 27.112 220.016 26.152 219.472C25.208 218.912 24.52 218.008 24.088 216.76C23.672 215.512 23.464 213.832 23.464 211.72C23.464 209.608 23.672 207.928 24.088 206.68C24.52 205.432 25.208 204.536 26.152 203.992C27.112 203.432 28.384 203.152 29.968 203.152ZM42.5035 208.024C43.8475 208.024 44.9195 208.224 45.7195 208.624C46.5355 209.024 47.1195 209.68 47.4715 210.592C47.8235 211.488 47.9995 212.68 47.9995 214.168C47.9995 215.656 47.8235 216.856 47.4715 217.768C47.1195 218.664 46.5355 219.312 45.7195 219.712C44.9195 220.112 43.8475 220.312 42.5035 220.312C41.1755 220.312 40.1035 220.112 39.2875 219.712C38.4875 219.312 37.9035 218.664 37.5355 217.768C37.1835 216.856 37.0075 215.656 37.0075 214.168C37.0075 212.68 37.1835 211.488 37.5355 210.592C37.9035 209.68 38.4875 209.024 39.2875 208.624C40.1035 208.224 41.1755 208.024 42.5035 208.024ZM42.5035 209.752C41.6555 209.752 40.9835 209.888 40.4875 210.16C40.0075 210.416 39.6635 210.864 39.4555 211.504C39.2475 212.144 39.1435 213.032 39.1435 214.168C39.1435 215.304 39.2475 216.192 39.4555 216.832C39.6635 217.472 40.0075 217.928 40.4875 218.2C40.9835 218.456 41.6555 218.584 42.5035 218.584C43.3515 218.584 44.0235 218.456 44.5195 218.2C45.0155 217.928 45.3675 217.472 45.5755 216.832C45.7835 216.192 45.8875 215.304 45.8875 214.168C45.8875 213.032 45.7835 212.144 45.5755 211.504C45.3675 210.864 45.0155 210.416 44.5195 210.16C44.0235 209.888 43.3515 209.752 42.5035 209.752ZM52.9281 208.312L53.0721 210.16C53.9521 209.472 54.8241 208.944 55.6881 208.576C56.5681 208.208 57.4401 208.024 58.3041 208.024C60.4161 208.024 61.4721 209.096 61.4721 211.24V220H59.4321V211.816C59.4321 211.032 59.3041 210.496 59.0481 210.208C58.7921 209.904 58.3601 209.752 57.7521 209.752C57.0641 209.752 56.3681 209.92 55.6641 210.256C54.9761 210.576 54.1681 211.016 53.2401 211.576V220H51.2001V208.312H52.9281ZM71.7934 208.312V209.92H68.0734V216.784C68.0734 217.344 68.1934 217.744 68.4334 217.984C68.6734 218.224 69.0814 218.344 69.6574 218.344H71.4334L71.6734 219.904C71.2894 220.016 70.8254 220.096 70.2814 220.144C69.7374 220.192 69.3214 220.216 69.0334 220.216C68.0574 220.216 67.3134 219.944 66.8014 219.4C66.2894 218.856 66.0334 218.072 66.0334 217.048V209.92H63.9214V208.432L66.0334 208.312V204.856H68.0734V208.312H71.7934ZM75.8701 208.312L76.0861 210.16C76.9341 209.488 77.7741 208.968 78.6061 208.6C79.4541 208.216 80.2781 208.024 81.0781 208.024H81.6061L81.3661 209.944H80.6941C80.0381 209.944 79.3741 210.08 78.7021 210.352C78.0461 210.608 77.2541 210.968 76.3261 211.432V220H74.2861V208.312H75.8701ZM88.5582 208.024C89.9022 208.024 90.9742 208.224 91.7742 208.624C92.5902 209.024 93.1742 209.68 93.5262 210.592C93.8782 211.488 94.0542 212.68 94.0542 214.168C94.0542 215.656 93.8782 216.856 93.5262 217.768C93.1742 218.664 92.5902 219.312 91.7742 219.712C90.9742 220.112 89.9022 220.312 88.5582 220.312C87.2302 220.312 86.1582 220.112 85.3422 219.712C84.5422 219.312 83.9582 218.664 83.5902 217.768C83.2382 216.856 83.0622 215.656 83.0622 214.168C83.0622 212.68 83.2382 211.488 83.5902 210.592C83.9582 209.68 84.5422 209.024 85.3422 208.624C86.1582 208.224 87.2302 208.024 88.5582 208.024ZM88.5582 209.752C87.7102 209.752 87.0382 209.888 86.5422 210.16C86.0622 210.416 85.7182 210.864 85.5102 211.504C85.3022 212.144 85.1982 213.032 85.1982 214.168C85.1982 215.304 85.3022 216.192 85.5102 216.832C85.7182 217.472 86.0622 217.928 86.5422 218.2C87.0382 218.456 87.7102 218.584 88.5582 218.584C89.4062 218.584 90.0782 218.456 90.5742 218.2C91.0702 217.928 91.4222 217.472 91.6302 216.832C91.8382 216.192 91.9422 215.304 91.9422 214.168C91.9422 213.032 91.8382 212.144 91.6302 211.504C91.4222 210.864 91.0702 210.416 90.5742 210.16C90.0782 209.888 89.4062 209.752 88.5582 209.752ZM99.3188 203.2L99.2948 216.784C99.2948 217.824 99.8308 218.344 100.903 218.344H102.031L102.271 219.904C102.047 220.016 101.703 220.096 101.239 220.144C100.791 220.192 100.423 220.216 100.135 220.216C99.2708 220.216 98.5748 219.96 98.0468 219.448C97.5348 218.936 97.2788 218.2 97.2788 217.24V203.2H99.3188ZM109.18 208.024C110.94 208.024 112.212 208.344 112.996 208.984C113.796 209.624 114.196 210.576 114.196 211.84C114.212 212.88 113.996 213.696 113.548 214.288C113.1 214.864 112.388 215.152 111.412 215.152H105.988C106.052 216.08 106.22 216.792 106.492 217.288C106.78 217.768 107.18 218.104 107.692 218.296C108.204 218.472 108.86 218.56 109.66 218.56C110.284 218.56 110.964 218.536 111.7 218.488C112.452 218.424 113.124 218.352 113.716 218.272L113.932 219.64C113.564 219.784 113.108 219.904 112.564 220C112.036 220.096 111.484 220.168 110.908 220.216C110.348 220.264 109.844 220.288 109.396 220.288C108.052 220.288 106.972 220.088 106.156 219.688C105.34 219.272 104.74 218.616 104.356 217.72C103.988 216.808 103.804 215.608 103.804 214.12C103.804 212.584 103.988 211.376 104.356 210.496C104.74 209.6 105.324 208.968 106.108 208.6C106.908 208.216 107.932 208.024 109.18 208.024ZM109.276 209.752C108.46 209.752 107.812 209.864 107.332 210.088C106.868 210.312 106.524 210.704 106.3 211.264C106.092 211.808 105.972 212.576 105.94 213.568H110.884C111.412 213.568 111.756 213.392 111.916 213.04C112.076 212.672 112.156 212.272 112.156 211.84C112.14 211.088 111.916 210.552 111.484 210.232C111.052 209.912 110.316 209.752 109.276 209.752ZM126.502 208.024C127.27 208.04 128.102 208.08 128.998 208.144C129.894 208.192 130.702 208.272 131.422 208.384L131.254 209.872C130.518 209.84 129.774 209.816 129.022 209.8C128.286 209.768 127.55 209.752 126.814 209.752C126.094 209.736 125.526 209.752 125.11 209.8C124.694 209.848 124.39 209.976 124.198 210.184C124.022 210.392 123.934 210.744 123.934 211.24C123.934 211.848 124.078 212.248 124.366 212.44C124.654 212.632 125.078 212.792 125.638 212.92L129.046 213.688C129.974 213.912 130.654 214.256 131.086 214.72C131.534 215.184 131.758 215.912 131.758 216.904C131.758 217.864 131.574 218.584 131.206 219.064C130.854 219.544 130.31 219.864 129.574 220.024C128.838 220.184 127.902 220.264 126.766 220.264C126.35 220.264 125.726 220.248 124.894 220.216C124.078 220.184 123.174 220.088 122.182 219.928L122.326 218.44C122.902 218.472 123.526 218.504 124.198 218.536C124.886 218.552 125.606 218.552 126.358 218.536C127.238 218.536 127.926 218.496 128.422 218.416C128.918 218.336 129.27 218.184 129.478 217.96C129.686 217.72 129.79 217.368 129.79 216.904C129.79 216.328 129.622 215.944 129.286 215.752C128.95 215.56 128.502 215.4 127.942 215.272L124.582 214.504C123.638 214.28 122.958 213.92 122.542 213.424C122.142 212.928 121.942 212.2 121.942 211.24C121.942 210.328 122.102 209.64 122.422 209.176C122.742 208.712 123.238 208.4 123.91 208.24C124.582 208.08 125.446 208.008 126.502 208.024ZM136.77 208.312V216.52C136.754 217.256 136.89 217.776 137.178 218.08C137.466 218.384 137.946 218.536 138.618 218.536C139.242 218.536 139.866 218.4 140.49 218.128C141.114 217.84 141.85 217.416 142.698 216.856V208.312H144.738V220H143.106L142.962 218.296C142.082 218.968 141.234 219.472 140.418 219.808C139.602 220.144 138.77 220.312 137.922 220.312C135.794 220.312 134.73 219.24 134.73 217.096V208.312H136.77ZM154.009 208.024C155.305 208.024 156.297 208.296 156.985 208.84C157.673 209.368 158.017 210.344 158.017 211.768V220H156.409L156.169 218.056C155.865 218.376 155.473 218.704 154.993 219.04C154.513 219.36 153.961 219.64 153.337 219.88C152.729 220.104 152.065 220.216 151.345 220.216C150.305 220.216 149.457 219.936 148.801 219.376C148.161 218.816 147.841 218.008 147.841 216.952V215.68C147.841 214.768 148.121 214.064 148.681 213.568C149.257 213.056 150.057 212.8 151.081 212.8H155.953V211.768C155.953 211.048 155.785 210.536 155.449 210.232C155.129 209.912 154.505 209.752 153.577 209.752C152.969 209.752 152.201 209.784 151.273 209.848C150.361 209.912 149.457 209.984 148.561 210.064L148.369 208.552C149.169 208.424 150.089 208.304 151.129 208.192C152.169 208.08 153.129 208.024 154.009 208.024ZM151.753 218.464C152.329 218.48 153.001 218.344 153.769 218.056C154.537 217.768 155.265 217.32 155.953 216.712V214.336L151.441 214.36C150.881 214.376 150.489 214.528 150.265 214.816C150.041 215.088 149.929 215.472 149.929 215.968V216.712C149.929 217.32 150.073 217.768 150.361 218.056C150.649 218.328 151.113 218.464 151.753 218.464ZM171.805 208.024C173.565 208.024 174.837 208.344 175.621 208.984C176.421 209.624 176.821 210.576 176.821 211.84C176.837 212.88 176.621 213.696 176.173 214.288C175.725 214.864 175.013 215.152 174.037 215.152H168.613C168.677 216.08 168.845 216.792 169.117 217.288C169.405 217.768 169.805 218.104 170.317 218.296C170.829 218.472 171.485 218.56 172.285 218.56C172.909 218.56 173.589 218.536 174.325 218.488C175.077 218.424 175.749 218.352 176.341 218.272L176.557 219.64C176.189 219.784 175.733 219.904 175.189 220C174.661 220.096 174.109 220.168 173.533 220.216C172.973 220.264 172.469 220.288 172.021 220.288C170.677 220.288 169.597 220.088 168.781 219.688C167.965 219.272 167.365 218.616 166.981 217.72C166.613 216.808 166.429 215.608 166.429 214.12C166.429 212.584 166.613 211.376 166.981 210.496C167.365 209.6 167.949 208.968 168.733 208.6C169.533 208.216 170.557 208.024 171.805 208.024ZM171.901 209.752C171.085 209.752 170.437 209.864 169.957 210.088C169.493 210.312 169.149 210.704 168.925 211.264C168.717 211.808 168.597 212.576 168.565 213.568H173.509C174.037 213.568 174.381 213.392 174.541 213.04C174.701 212.672 174.781 212.272 174.781 211.84C174.765 211.088 174.541 210.552 174.109 210.232C173.677 209.912 172.941 209.752 171.901 209.752ZM190.217 208.312L185.945 219.496C185.817 219.832 185.577 220 185.225 220H183.377C183.025 220 182.785 219.832 182.657 219.496L178.385 208.312H180.569L183.449 216.496C183.577 216.832 183.697 217.176 183.809 217.528C183.921 217.88 184.033 218.216 184.145 218.536H184.457C184.585 218.2 184.705 217.864 184.817 217.528C184.945 217.176 185.065 216.832 185.177 216.496L188.057 208.312H190.217ZM197.355 208.024C198.699 208.024 199.771 208.224 200.571 208.624C201.387 209.024 201.971 209.68 202.323 210.592C202.675 211.488 202.851 212.68 202.851 214.168C202.851 215.656 202.675 216.856 202.323 217.768C201.971 218.664 201.387 219.312 200.571 219.712C199.771 220.112 198.699 220.312 197.355 220.312C196.027 220.312 194.955 220.112 194.139 219.712C193.339 219.312 192.755 218.664 192.387 217.768C192.035 216.856 191.859 215.656 191.859 214.168C191.859 212.68 192.035 211.488 192.387 210.592C192.755 209.68 193.339 209.024 194.139 208.624C194.955 208.224 196.027 208.024 197.355 208.024ZM197.355 209.752C196.507 209.752 195.835 209.888 195.339 210.16C194.859 210.416 194.515 210.864 194.307 211.504C194.099 212.144 193.995 213.032 193.995 214.168C193.995 215.304 194.099 216.192 194.307 216.832C194.515 217.472 194.859 217.928 195.339 218.2C195.835 218.456 196.507 218.584 197.355 218.584C198.203 218.584 198.875 218.456 199.371 218.2C199.867 217.928 200.219 217.472 200.427 216.832C200.635 216.192 200.739 215.304 200.739 214.168C200.739 213.032 200.635 212.144 200.427 211.504C200.219 210.864 199.867 210.416 199.371 210.16C198.875 209.888 198.203 209.752 197.355 209.752ZM208.116 203.2L208.092 216.784C208.092 217.824 208.628 218.344 209.7 218.344H210.828L211.068 219.904C210.844 220.016 210.5 220.096 210.036 220.144C209.588 220.192 209.22 220.216 208.932 220.216C208.068 220.216 207.372 219.96 206.844 219.448C206.332 218.936 206.076 218.2 206.076 217.24V203.2H208.116ZM215.145 208.312V216.52C215.129 217.256 215.265 217.776 215.553 218.08C215.841 218.384 216.321 218.536 216.993 218.536C217.617 218.536 218.241 218.4 218.865 218.128C219.489 217.84 220.225 217.416 221.073 216.856V208.312H223.113V220H221.481L221.337 218.296C220.457 218.968 219.609 219.472 218.793 219.808C217.977 220.144 217.145 220.312 216.297 220.312C214.169 220.312 213.105 219.24 213.105 217.096V208.312H215.145ZM231.856 208.024C232.368 208.024 232.976 208.064 233.68 208.144C234.4 208.208 235.048 208.352 235.624 208.576L235.36 209.896C234.832 209.848 234.272 209.816 233.68 209.8C233.104 209.768 232.608 209.752 232.192 209.752C231.264 209.752 230.528 209.88 229.984 210.136C229.44 210.392 229.048 210.84 228.808 211.48C228.568 212.12 228.448 213.008 228.448 214.144C228.448 215.28 228.568 216.176 228.808 216.832C229.048 217.472 229.44 217.92 229.984 218.176C230.528 218.432 231.264 218.56 232.192 218.56C232.544 218.56 233.056 218.544 233.728 218.512C234.4 218.48 235.032 218.416 235.624 218.32L235.84 219.688C235.248 219.896 234.6 220.048 233.896 220.144C233.208 220.24 232.52 220.288 231.832 220.288C230.488 220.288 229.408 220.088 228.592 219.688C227.776 219.288 227.184 218.64 226.816 217.744C226.464 216.848 226.288 215.648 226.288 214.144C226.288 212.64 226.472 211.44 226.84 210.544C227.208 209.648 227.8 209.008 228.616 208.624C229.432 208.224 230.512 208.024 231.856 208.024ZM230.632 221.32C231.56 221.24 232.24 221.296 232.672 221.488C233.12 221.696 233.328 222.16 233.296 222.88C233.28 223.904 232.888 224.68 232.12 225.208C231.368 225.752 230.424 225.944 229.288 225.784L229.6 224.704C230.256 224.72 230.784 224.568 231.184 224.248C231.6 223.944 231.816 223.544 231.832 223.048C231.848 222.76 231.76 222.56 231.568 222.448C231.376 222.352 230.992 222.296 230.416 222.28L230.632 221.32ZM244.126 208.024C245.422 208.024 246.414 208.296 247.102 208.84C247.79 209.368 248.134 210.344 248.134 211.768V220H246.526L246.286 218.056C245.982 218.376 245.59 218.704 245.11 219.04C244.63 219.36 244.078 219.64 243.454 219.88C242.846 220.104 242.182 220.216 241.462 220.216C240.422 220.216 239.574 219.936 238.918 219.376C238.278 218.816 237.958 218.008 237.958 216.952V215.68C237.958 214.768 238.238 214.064 238.798 213.568C239.374 213.056 240.174 212.8 241.198 212.8H246.07V211.768C246.07 211.048 245.902 210.536 245.566 210.232C245.246 209.912 244.622 209.752 243.694 209.752C243.086 209.752 242.318 209.784 241.39 209.848C240.478 209.912 239.574 209.984 238.678 210.064L238.486 208.552C239.286 208.424 240.206 208.304 241.246 208.192C242.286 208.08 243.246 208.024 244.126 208.024ZM241.87 218.464C242.446 218.48 243.118 218.344 243.886 218.056C244.654 217.768 245.382 217.32 246.07 216.712V214.336L241.558 214.36C240.998 214.376 240.606 214.528 240.382 214.816C240.158 215.088 240.046 215.472 240.046 215.968V216.712C240.046 217.32 240.19 217.768 240.478 218.056C240.766 218.328 241.23 218.464 241.87 218.464ZM241.366 203.224C241.862 203.256 242.294 203.376 242.662 203.584C243.03 203.776 243.39 203.968 243.742 204.16C244.094 204.352 244.494 204.48 244.942 204.544C245.406 204.608 245.718 204.536 245.878 204.328C246.038 204.12 246.118 203.792 246.118 203.344H247.078C247.174 204.24 247.038 204.928 246.67 205.408C246.318 205.872 245.83 206.08 245.206 206.032C244.662 205.984 244.19 205.856 243.79 205.648C243.406 205.44 243.038 205.232 242.686 205.024C242.35 204.816 241.982 204.696 241.582 204.664C241.134 204.616 240.83 204.704 240.67 204.928C240.526 205.136 240.454 205.48 240.454 205.96H239.494C239.398 205 239.534 204.296 239.902 203.848C240.286 203.384 240.774 203.176 241.366 203.224ZM256.722 208.024C258.066 208.024 259.138 208.224 259.938 208.624C260.754 209.024 261.338 209.68 261.69 210.592C262.042 211.488 262.218 212.68 262.218 214.168C262.218 215.656 262.042 216.856 261.69 217.768C261.338 218.664 260.754 219.312 259.938 219.712C259.138 220.112 258.066 220.312 256.722 220.312C255.394 220.312 254.322 220.112 253.506 219.712C252.706 219.312 252.122 218.664 251.754 217.768C251.402 216.856 251.226 215.656 251.226 214.168C251.226 212.68 251.402 211.488 251.754 210.592C252.122 209.68 252.706 209.024 253.506 208.624C254.322 208.224 255.394 208.024 256.722 208.024ZM256.722 209.752C255.874 209.752 255.202 209.888 254.706 210.16C254.226 210.416 253.882 210.864 253.674 211.504C253.466 212.144 253.362 213.032 253.362 214.168C253.362 215.304 253.466 216.192 253.674 216.832C253.882 217.472 254.226 217.928 254.706 218.2C255.202 218.456 255.874 218.584 256.722 218.584C257.57 218.584 258.242 218.456 258.738 218.2C259.234 217.928 259.586 217.472 259.794 216.832C260.002 216.192 260.106 215.304 260.106 214.168C260.106 213.032 260.002 212.144 259.794 211.504C259.586 210.864 259.234 210.416 258.738 210.16C258.242 209.888 257.57 209.752 256.722 209.752ZM266.619 217.168C266.907 217.168 267.107 217.224 267.219 217.336C267.331 217.448 267.387 217.648 267.387 217.936V219.232C267.387 219.52 267.331 219.72 267.219 219.832C267.107 219.944 266.907 220 266.619 220H265.947C265.675 220 265.475 219.944 265.347 219.832C265.235 219.72 265.179 219.52 265.179 219.232V217.936C265.179 217.648 265.235 217.448 265.347 217.336C265.475 217.224 265.675 217.168 265.947 217.168H266.619Z" fill="black"/>
<path d="M108.652 46.9794C108.844 48.6283 108.958 50.3 108.99 51.9912L108.49 52.0008C108.497 52.3331 108.5 52.6662 108.5 53C108.5 53.3338 108.497 53.6669 108.49 53.9992L108.99 54.0088C108.958 55.7 108.844 57.3717 108.652 59.0206L108.156 58.9628C108.079 59.6237 107.989 60.2808 107.887 60.934L108.381 61.011C108.122 62.6783 107.782 64.3201 107.366 65.9325L106.882 65.8077C106.716 66.452 106.537 67.0916 106.347 67.7262L106.826 67.8699C106.342 69.4817 105.782 71.0618 105.149 72.6061L104.687 72.4165C104.435 73.0314 104.171 73.6406 103.896 74.2438L104.351 74.4511C103.655 75.9792 102.887 77.4694 102.05 78.9174L101.617 78.6673C101.285 79.2424 100.942 79.8107 100.589 80.3722L101.012 80.6386C100.119 82.0573 99.1585 83.4321 98.1359 84.7587L97.7399 84.4534C97.3346 84.9792 96.9194 85.4974 96.4945 86.0077L96.8788 86.3276C95.8074 87.6143 94.6754 88.8513 93.4868 90.0344L93.1341 89.68C92.6638 90.1482 92.1846 90.6078 91.6967 91.0587L92.036 91.4259C90.8077 92.561 89.525 93.6409 88.1922 94.6617L87.8882 94.2648C87.3615 94.6682 86.8268 95.0622 86.2845 95.4467L86.5737 95.8546C85.2108 96.8209 83.8001 97.7272 82.3456 98.5696L82.095 98.1369C81.521 98.4693 80.9402 98.7917 80.3527 99.1037L80.5872 99.5453C79.1137 100.328 77.5989 101.046 76.0469 101.697L75.8537 101.236C75.2426 101.492 74.6258 101.737 74.0033 101.971L74.1796 102.439C72.6205 103.027 71.0267 103.546 69.4021 103.994L69.2691 103.512C68.6304 103.689 67.9869 103.854 67.3388 104.007L67.4542 104.494C65.8355 104.878 64.1884 105.191 62.5167 105.431L62.4457 104.936C61.7906 105.03 61.1317 105.112 60.4692 105.183L60.5223 105.68C58.8722 105.856 57.2 105.961 55.5089 105.991L55.5001 105.491C55.1675 105.497 54.8341 105.5 54.5 105.5C54.1659 105.5 53.8325 105.497 53.4999 105.491L53.4911 105.991C51.8 105.961 50.1278 105.856 48.4777 105.68L48.5308 105.183C47.8683 105.112 47.2093 105.03 46.5543 104.936L46.4833 105.431C44.8116 105.191 43.1645 104.878 41.5458 104.494L41.6612 104.007C41.0131 103.854 40.3696 103.689 39.7309 103.512L39.5979 103.994C37.9733 103.546 36.3795 103.027 34.8204 102.439L34.9967 101.971C34.3742 101.737 33.7574 101.492 33.1463 101.236L32.9531 101.697C31.4011 101.046 29.8863 100.328 28.4128 99.5453L28.6473 99.1037C28.0598 98.7917 27.479 98.4693 26.905 98.1369L26.6544 98.5696C25.1999 97.7272 23.7892 96.8209 22.4263 95.8546L22.7155 95.4467C22.1732 95.0622 21.6385 94.6682 21.1118 94.2647L20.8078 94.6617C19.475 93.6409 18.1923 92.561 16.964 91.4259L17.3033 91.0587C16.8154 90.6078 16.3362 90.1482 15.8659 89.68L15.5132 90.0344C14.3246 88.8513 13.1926 87.6143 12.1212 86.3276L12.5055 86.0077C12.0806 85.4974 11.6654 84.9792 11.2601 84.4534L10.8641 84.7587C9.84155 83.4321 8.88146 82.0573 7.98809 80.6386L8.4112 80.3722C8.05768 79.8107 7.71472 79.2424 7.38259 78.6673L6.94962 78.9174C6.11327 77.4694 5.34483 75.9792 4.64851 74.4511L5.1035 74.2438C4.82863 73.6406 4.56512 73.0314 4.31322 72.4165L3.85054 72.6061C3.21787 71.0618 2.65773 69.4817 2.1742 67.8699L2.65311 67.7262C2.46273 67.0916 2.28435 66.452 2.11821 65.8077L1.63405 65.9325C1.21827 64.3201 0.878451 62.6783 0.61851 61.011L1.11254 60.934C1.01071 60.2808 0.921256 59.6237 0.844419 58.9628L0.347765 59.0206C0.156054 57.3717 0.0421392 55.7 0.00967549 54.0088L0.509583 53.9992C0.503204 53.6669 0.5 53.3338 0.5 53C0.5 52.6662 0.503204 52.3331 0.509584 52.0008L0.00967564 51.9912C0.0421396 50.3 0.156055 48.6283 0.347766 46.9794L0.84442 47.0372C0.921257 46.3763 1.01071 45.7192 1.11254 45.066L0.618512 44.989C0.878453 43.3217 1.21827 41.6799 1.63405 40.0674L2.11822 40.1923C2.28435 39.548 2.46274 38.9084 2.65311 38.2738L2.1742 38.1301C2.65773 36.5183 3.21787 34.9382 3.85054 33.3939L4.31322 33.5835C4.56512 32.9686 4.82863 32.3594 5.1035 31.7562L4.64851 31.5489C5.34483 30.0208 6.11327 28.5306 6.94962 27.0826L7.38259 27.3327C7.71473 26.7576 8.05769 26.1893 8.4112 25.6278L7.98809 25.3614C8.88146 23.9427 9.84155 22.5679 10.8641 21.2413L11.2601 21.5466C11.6654 21.0208 12.0806 20.5026 12.5055 19.9923L12.1212 19.6724C13.1926 18.3857 14.3246 17.1487 15.5132 15.9656L15.8659 16.32C16.3362 15.8518 16.8154 15.3922 17.3033 14.9413L16.964 14.5741C18.1923 13.439 19.475 12.3591 20.8078 11.3383L21.1118 11.7352C21.6385 11.3318 22.1732 10.9378 22.7155 10.5533L22.4263 10.1454C23.7892 9.17909 25.1999 8.27278 26.6544 7.43044L26.905 7.86312C27.479 7.5307 28.0598 7.20833 28.6473 6.89627L28.4128 6.4547C29.8863 5.67202 31.4011 4.95358 32.9531 4.30326L33.1463 4.76442C33.7574 4.50839 34.3742 4.26302 34.9967 4.02854L34.8204 3.56063C36.3795 2.97332 37.9733 2.45375 39.5979 2.00562L39.7309 2.48762C40.3696 2.31146 41.0131 2.14643 41.6612 1.99278L41.5458 1.50626C43.1645 1.12249 44.8116 0.809011 46.4833 0.569351L46.5543 1.06429C47.2094 0.970378 47.8683 0.8879 48.5308 0.817073L48.4777 0.319906C50.1278 0.143513 51.8 0.0387556 53.4911 0.00889973L53.4999 0.508822C53.8325 0.502949 54.1659 0.5 54.5 0.5C54.8341 0.5 55.1675 0.502949 55.5001 0.508822L55.5089 0.00889986C57.2 0.038756 58.8722 0.143514 60.5223 0.319906L60.4692 0.817074C61.1317 0.8879 61.7907 0.970378 62.4457 1.06429L62.5167 0.569351C64.1884 0.809011 65.8355 1.12249 67.4542 1.50626L67.3388 1.99278C67.9869 2.14643 68.6304 2.31146 69.2691 2.48762L69.4021 2.00562C71.0267 2.45375 72.6205 2.97333 74.1796 3.56063L74.0033 4.02854C74.6258 4.26302 75.2426 4.50839 75.8537 4.76442L76.0469 4.30327C77.5989 4.95358 79.1137 5.67202 80.5872 6.4547L80.3527 6.89627C80.9402 7.20833 81.521 7.5307 82.095 7.86312L82.3456 7.43044C83.8001 8.27278 85.2108 9.17909 86.5737 10.1454L86.2845 10.5533C86.8268 10.9378 87.3615 11.3318 87.8882 11.7352L88.1922 11.3383C89.525 12.3591 90.8077 13.439 92.036 14.5741L91.6967 14.9413C92.1846 15.3922 92.6638 15.8518 93.1341 16.32L93.4868 15.9656C94.6754 17.1487 95.8074 18.3857 96.8788 19.6724L96.4945 19.9923C96.9194 20.5026 97.3346 21.0208 97.7399 21.5466L98.1359 21.2413C99.1585 22.5679 100.119 23.9427 101.012 25.3614L100.589 25.6278C100.942 26.1893 101.285 26.7576 101.617 27.3327L102.05 27.0826C102.887 28.5306 103.655 30.0208 104.351 31.5489L103.896 31.7562C104.171 32.3594 104.435 32.9686 104.687 33.5835L105.149 33.3939C105.782 34.9382 106.342 36.5183 106.826 38.1301L106.347 38.2738C106.537 38.9084 106.716 39.548 106.882 40.1923L107.366 40.0675C107.782 41.6799 108.122 43.3217 108.381 44.989L107.887 45.066C107.989 45.7192 108.079 46.3763 108.156 47.0372L108.652 46.9794Z" stroke="black" stroke-dasharray="2 5"/>
<path d="M98.9043 49.9593C98.9434 50.5788 98.9707 51.2016 98.9858 51.8275L98.486 51.8396C98.4953 52.2252 98.5 52.612 98.5 53C98.5 53.388 98.4953 53.7748 98.486 54.1604L98.9858 54.1725C98.9477 55.7476 98.833 57.3029 98.6454 58.8348L98.1491 58.774C98.0739 59.3886 97.9868 59.9993 97.888 60.6059L98.3815 60.6862C98.2558 61.4589 98.1115 62.225 97.9489 62.984L97.46 62.8794C97.1347 64.399 96.7359 65.89 96.2677 67.3482L96.7438 67.501C96.5527 68.0961 96.3502 68.6858 96.1365 69.2698L95.6669 69.098C95.4012 69.8244 95.118 70.5418 94.8178 71.2498L95.2782 71.445C94.6667 72.8875 93.9856 74.2914 93.2394 75.6521L92.801 75.4117C92.5039 75.9534 92.1964 76.4882 91.8788 77.0157L92.3071 77.2736C91.9043 77.9427 91.4853 78.6002 91.0507 79.2458L90.6359 78.9665C89.7721 80.2496 88.846 81.4845 87.8621 82.6665L88.2464 82.9864C87.8472 83.4661 87.4385 83.9372 87.0207 84.3994L86.6498 84.0641C86.1323 84.6365 85.6007 85.1952 85.0555 85.7394L85.4088 86.0932C84.3041 87.1959 83.1444 88.2401 81.9342 89.2209L81.6194 88.8324C81.1403 89.2207 80.6532 89.599 80.1584 89.9669L80.4568 90.3681C79.8313 90.8332 79.1937 91.2819 78.5445 91.7136L78.2676 91.2973C76.9855 92.15 75.6578 92.9356 74.2893 93.6495L74.5205 94.0928C73.9682 94.3809 73.4092 94.6575 72.844 94.9222L72.6319 94.4694C71.9352 94.7957 71.2288 95.1037 70.5133 95.393L70.7006 95.8565C69.2615 96.4383 67.7859 96.9448 66.2783 97.3715L66.1422 96.8904C65.5506 97.0577 64.9542 97.2127 64.353 97.3549L64.4681 97.8415C63.7122 98.0203 62.949 98.1792 62.179 98.3176L62.0905 97.8255C60.5871 98.0959 59.0574 98.2873 57.5055 98.3955L57.5402 98.8943C56.921 98.9375 56.2983 98.9676 55.6724 98.9843L55.659 98.4845C55.2739 98.4948 54.8875 98.5 54.5 98.5C54.1125 98.5 53.7261 98.4948 53.341 98.4845L53.3276 98.9843C51.7529 98.9422 50.1985 98.8156 48.6686 98.6086L48.7357 98.1131C48.1229 98.0302 47.514 97.9342 46.9095 97.8255L46.821 98.3176C46.051 98.1792 45.2878 98.0203 44.5319 97.8415L44.647 97.3549C43.1389 96.9981 41.6602 96.5612 40.2155 96.0487L40.0483 96.5199C39.4597 96.3111 38.8766 96.0899 38.2994 95.8565L38.4867 95.393C37.7712 95.1037 37.0648 94.7957 36.3681 94.4694L36.156 94.9222C34.7412 94.2596 33.3658 93.5227 32.0346 92.7164L32.2937 92.2887C31.7661 91.9692 31.2456 91.6386 30.7324 91.2973L30.4555 91.7136C29.8063 91.2819 29.1687 90.8332 28.5432 90.3681L28.8416 89.9669C27.605 89.0475 26.4164 88.0633 25.2804 87.0191L24.942 87.3872C24.4832 86.9654 24.0328 86.534 23.5912 86.0932L23.9445 85.7394C23.3993 85.1952 22.8677 84.6365 22.3502 84.0641L21.9793 84.3994C20.9363 83.2455 19.95 82.036 19.0251 80.7758L19.4282 80.48C19.0638 79.9834 18.709 79.4788 18.3641 78.9665L17.9493 79.2458C17.5147 78.6003 17.0957 77.9427 16.6929 77.2736L17.1212 77.0157C16.329 75.7 15.5999 74.3393 14.9383 72.9383L14.4862 73.1518C14.2205 72.5892 13.9656 72.0201 13.7218 71.445L14.1822 71.2498C13.882 70.5418 13.5988 69.8244 13.3331 69.098L12.8635 69.2698C12.3313 67.8151 11.8683 66.3251 11.4788 64.8043L11.9632 64.6802C11.8106 64.0846 11.6695 63.4843 11.54 62.8794L11.0511 62.9841C10.8886 62.225 10.7442 61.4589 10.6185 60.6862L11.112 60.6059C10.8665 59.0977 10.6928 57.5641 10.5947 56.0092L10.0957 56.0407C10.0566 55.4212 10.0293 54.7984 10.0142 54.1725L10.514 54.1604C10.5047 53.7748 10.5 53.388 10.5 53C10.5 52.612 10.5047 52.2252 10.514 51.8396L10.0142 51.8275C10.0523 50.2524 10.167 48.6971 10.3546 47.1652L10.8509 47.226C10.9261 46.6114 11.0132 46.0007 11.112 45.3941L10.6185 45.3138C10.7442 44.5411 10.8885 43.775 11.0511 43.016L11.54 43.1206C11.8653 41.601 12.2641 40.11 12.7323 38.6518L12.2562 38.499C12.4473 37.9039 12.6498 37.3142 12.8635 36.7302L13.3331 36.902C13.5988 36.1757 13.882 35.4582 14.1822 34.7502L13.7218 34.555C14.3333 33.1125 15.0144 31.7086 15.7606 30.3479L16.199 30.5883C16.4961 30.0466 16.8036 29.5118 17.1212 28.9843L16.6929 28.7264C17.0957 28.0573 17.5147 27.3998 17.9493 26.7543L18.3641 27.0335C19.2279 25.7504 20.154 24.5155 21.1379 23.3335L20.7536 23.0136C21.1528 22.5339 21.5615 22.0628 21.9793 21.6006L22.3502 21.9359C22.8677 21.3635 23.3993 20.8048 23.9445 20.2606L23.5912 19.9068C24.6959 18.8041 25.8556 17.7599 27.0658 16.7791L27.3806 17.1676C27.8597 16.7793 28.3468 16.401 28.8416 16.0331L28.5432 15.6319C29.1687 15.1668 29.8063 14.7181 30.4555 14.2864L30.7324 14.7027C32.0145 13.85 33.3422 13.0644 34.7107 12.3505L34.4795 11.9072C35.0318 11.6191 35.5908 11.3425 36.156 11.0778L36.3681 11.5306C37.0648 11.2043 37.7712 10.8963 38.4867 10.607L38.2994 10.1435C39.7385 9.56171 41.2141 9.05518 42.7217 8.62854L42.8578 9.10965C43.4494 8.94225 44.0458 8.7873 44.647 8.64509L44.5319 8.15852C45.2878 7.97971 46.051 7.8208 46.821 7.68235L46.9095 8.17446C48.4129 7.90413 49.9426 7.71269 51.4945 7.60446L51.4598 7.10567C52.079 7.06248 52.7017 7.03239 53.3276 7.01565L53.341 7.51548C53.7261 7.50518 54.1125 7.5 54.5 7.5C54.8875 7.5 55.2739 7.50518 55.659 7.51548L55.6724 7.01565C57.2471 7.05775 58.8015 7.18441 60.3314 7.39141L60.2643 7.88689C60.8771 7.9698 61.486 8.06575 62.0905 8.17446L62.179 7.68235C62.949 7.8208 63.7122 7.97971 64.4681 8.15851L64.353 8.64509C65.8611 9.00186 67.3398 9.43878 68.7845 9.95131L68.9517 9.48008C69.5404 9.68891 70.1234 9.91014 70.7006 10.1435L70.5133 10.607C71.2288 10.8963 71.9352 11.2043 72.6319 11.5306L72.844 11.0778C74.2588 11.7404 75.6342 12.4773 76.9654 13.2836L76.7063 13.7113C77.2338 14.0308 77.7544 14.3614 78.2676 14.7027L78.5445 14.2864C79.1937 14.7181 79.8313 15.1668 80.4568 15.6319L80.1584 16.0331C81.395 16.9525 82.5836 17.9367 83.7196 18.9809L84.058 18.6128C84.5168 19.0346 84.9672 19.466 85.4088 19.9068L85.0555 20.2606C85.6007 20.8048 86.1323 21.3635 86.6498 21.9359L87.0207 21.6006C88.0638 22.7545 89.05 23.964 89.9749 25.2242L89.5718 25.52C89.9362 26.0166 90.291 26.5212 90.6359 27.0335L91.0507 26.7542C91.4853 27.3998 91.9043 28.0573 92.3071 28.7264L91.8788 28.9843C92.671 30.3 93.4001 31.6607 94.0617 33.0617L94.5138 32.8482C94.7795 33.4108 95.0344 33.9799 95.2782 34.555L94.8178 34.7502C95.118 35.4582 95.4012 36.1756 95.6669 36.902L96.1365 36.7302C96.6688 38.1849 97.1317 39.6749 97.5212 41.1957L97.0368 41.3198C97.1894 41.9154 97.3305 42.5157 97.46 43.1206L97.9489 43.0159C98.1115 43.775 98.2558 44.5411 98.3815 45.3138L97.888 45.3941C98.1335 46.9023 98.3072 48.4359 98.4053 49.9908L98.9043 49.9593Z" stroke="black" stroke-dasharray="2.5 2 5 2.5 2 5"/>
<path d="M48.5137 49.9219H53.0254C55.1738 49.9219 56.7656 49.3848 57.8008 48.3105C58.8359 47.2363 59.3535 45.8105 59.3535 44.0332C59.3535 42.3145 58.8359 40.9766 57.8008 40.0195C56.7852 39.0625 55.3789 38.584 53.582 38.584C51.9609 38.584 50.6035 39.0332 49.5098 39.9316C48.416 40.8105 47.8691 41.9629 47.8691 43.3887H39.4023C39.4023 41.1621 39.998 39.1699 41.1895 37.4121C42.4004 35.6348 44.0801 34.248 46.2285 33.252C48.3965 32.2559 50.7793 31.7578 53.377 31.7578C57.8887 31.7578 61.4238 32.8418 63.9824 35.0098C66.541 37.1582 67.8203 40.127 67.8203 43.916C67.8203 45.8691 67.2246 47.666 66.0332 49.3066C64.8418 50.9473 63.2793 52.207 61.3457 53.0859C63.748 53.9453 65.5352 55.2344 66.707 56.9531C67.8984 58.6719 68.4941 60.7031 68.4941 63.0469C68.4941 66.8359 67.1074 69.873 64.334 72.1582C61.5801 74.4434 57.9277 75.5859 53.377 75.5859C49.1191 75.5859 45.6328 74.4629 42.918 72.2168C40.2227 69.9707 38.875 67.002 38.875 63.3105H47.3418C47.3418 64.9121 47.9375 66.2207 49.1289 67.2363C50.3398 68.252 51.8242 68.7598 53.582 68.7598C55.5938 68.7598 57.166 68.2324 58.2988 67.1777C59.4512 66.1035 60.0273 64.6875 60.0273 62.9297C60.0273 58.6719 57.6836 56.543 52.9961 56.543H48.5137V49.9219Z" fill="#53CC89"/>
<path d="M209.88 83H115.12C112.841 83 111 84.716 111 86.84V175.16C111 177.284 112.841 179 115.12 179H209.88C212.159 179 214 177.284 214 175.16V86.84C214 84.716 212.159 83 209.88 83ZM204.73 170.36H120.27V91.64H204.73V170.36ZM140.355 151.52V160.76C140.355 161.288 140.818 161.72 141.385 161.72H147.565C148.132 161.72 148.595 161.288 148.595 160.76V151.52C147.295 151.916 145.917 152.12 144.475 152.12C143.033 152.12 141.655 151.904 140.355 151.52ZM148.595 127.76V101.24C148.595 100.712 148.132 100.28 147.565 100.28H141.385C140.818 100.28 140.355 100.712 140.355 101.24V127.76C141.655 127.364 143.033 127.16 144.475 127.16C145.917 127.16 147.295 127.376 148.595 127.76ZM140.355 151.52C141.655 151.916 143.033 152.12 144.475 152.12C145.917 152.12 147.295 151.904 148.595 151.52C153.977 149.9 157.865 145.196 157.865 139.64C157.865 134.084 153.977 129.38 148.595 127.76C147.295 127.364 145.917 127.16 144.475 127.16C143.033 127.16 141.655 127.376 140.355 127.76C134.973 129.38 131.085 134.084 131.085 139.64C131.085 145.196 134.973 149.9 140.355 151.52ZM140.368 137.636C140.406 137.564 140.458 137.492 140.497 137.42V137.408L140.651 137.192C140.664 137.168 140.677 137.156 140.69 137.132C140.728 137.072 140.78 137.024 140.819 136.964C140.831 136.952 140.844 136.928 140.857 136.916C140.921 136.844 140.973 136.784 141.037 136.724L141.076 136.688L141.23 136.544L141.282 136.496C141.346 136.436 141.411 136.388 141.488 136.328C141.565 136.268 141.63 136.22 141.707 136.172C141.733 136.16 141.745 136.148 141.771 136.136C141.836 136.1 141.887 136.052 141.951 136.016C141.964 136.004 141.99 135.992 142.003 135.98C142.08 135.932 142.158 135.896 142.248 135.848C142.26 135.836 142.286 135.836 142.299 135.824C142.364 135.788 142.428 135.764 142.505 135.728L142.582 135.692C142.672 135.656 142.75 135.62 142.84 135.596C142.93 135.56 143.02 135.536 143.11 135.512C143.136 135.5 143.162 135.5 143.188 135.488C143.265 135.464 143.329 135.452 143.406 135.44C143.432 135.44 143.445 135.428 143.471 135.428C143.561 135.404 143.664 135.392 143.754 135.38C143.78 135.38 143.793 135.38 143.818 135.368C143.896 135.356 143.973 135.356 144.05 135.344H144.127C144.23 135.344 144.32 135.332 144.424 135.332C144.527 135.332 144.617 135.332 144.72 135.344H144.797C144.874 135.344 144.951 135.356 145.029 135.368C145.054 135.368 145.067 135.368 145.093 135.38C145.183 135.392 145.286 135.404 145.376 135.428C145.402 135.428 145.415 135.44 145.441 135.44C145.518 135.452 145.595 135.476 145.66 135.488C145.685 135.5 145.711 135.5 145.737 135.512C145.827 135.536 145.917 135.56 146.007 135.596C146.097 135.62 146.174 135.656 146.265 135.692L146.342 135.728C146.406 135.752 146.484 135.788 146.548 135.824C146.561 135.836 146.586 135.836 146.599 135.848C146.677 135.884 146.767 135.932 146.844 135.98C146.857 135.992 146.883 136.004 146.895 136.016C146.96 136.052 147.024 136.088 147.076 136.136C147.102 136.148 147.114 136.16 147.14 136.172C147.217 136.22 147.295 136.28 147.359 136.328C147.423 136.376 147.501 136.436 147.565 136.496L147.616 136.544L147.771 136.688L147.81 136.724C147.874 136.784 147.938 136.856 147.99 136.916C148.003 136.928 148.016 136.952 148.028 136.964C148.08 137.012 148.119 137.072 148.157 137.132C148.17 137.156 148.183 137.168 148.196 137.192L148.35 137.408C148.35 137.408 148.35 137.42 148.363 137.42C148.793 138.091 149.019 138.858 149.02 139.64C149.02 140.36 148.827 141.044 148.492 141.644C148.453 141.716 148.402 141.788 148.363 141.86C148.363 141.86 148.363 141.872 148.35 141.872L148.196 142.088C148.183 142.112 148.17 142.124 148.157 142.148C148.119 142.208 148.067 142.256 148.028 142.316C148.016 142.328 148.003 142.352 147.99 142.364C147.925 142.436 147.874 142.496 147.81 142.556L147.771 142.592L147.616 142.736L147.565 142.784C147.501 142.844 147.436 142.892 147.359 142.952C147.282 143.012 147.217 143.06 147.14 143.108C147.114 143.12 147.102 143.132 147.076 143.144C147.011 143.18 146.96 143.228 146.895 143.264C146.883 143.276 146.857 143.288 146.844 143.3C146.767 143.348 146.689 143.384 146.599 143.432C146.586 143.444 146.561 143.444 146.548 143.456C146.484 143.492 146.419 143.516 146.342 143.552L146.265 143.588C146.174 143.624 146.097 143.66 146.007 143.684C145.917 143.72 145.827 143.744 145.737 143.768C145.711 143.78 145.685 143.78 145.66 143.792C145.582 143.816 145.518 143.828 145.441 143.84C145.415 143.84 145.402 143.852 145.376 143.852C145.286 143.876 145.183 143.888 145.093 143.9C145.067 143.9 145.054 143.9 145.029 143.912C144.951 143.924 144.874 143.924 144.797 143.936H144.72C144.617 143.936 144.527 143.948 144.424 143.948C144.32 143.948 144.23 143.948 144.127 143.936H144.05C143.973 143.936 143.896 143.924 143.818 143.912C143.793 143.912 143.78 143.912 143.754 143.9C143.664 143.888 143.561 143.876 143.471 143.852C143.445 143.852 143.432 143.84 143.406 143.84C143.329 143.828 143.252 143.804 143.188 143.792C143.162 143.78 143.136 143.78 143.11 143.768C143.02 143.744 142.93 143.72 142.84 143.684C142.75 143.66 142.672 143.624 142.582 143.588L142.505 143.552C142.441 143.528 142.364 143.492 142.299 143.456C142.286 143.444 142.26 143.444 142.248 143.432C142.17 143.396 142.08 143.348 142.003 143.3C141.99 143.288 141.964 143.276 141.951 143.264C141.887 143.228 141.823 143.192 141.771 143.144C141.745 143.132 141.733 143.12 141.707 143.108C141.63 143.06 141.552 143 141.488 142.952C141.424 142.904 141.346 142.844 141.282 142.784L141.23 142.736L141.076 142.592L141.037 142.556C140.973 142.496 140.909 142.424 140.857 142.364C140.844 142.352 140.831 142.328 140.819 142.316C140.767 142.268 140.728 142.208 140.69 142.148C140.677 142.124 140.664 142.112 140.651 142.088L140.497 141.872V141.86C140.445 141.788 140.406 141.716 140.368 141.644C140.033 141.044 139.84 140.36 139.84 139.64C139.84 138.92 140.033 138.236 140.368 137.636ZM176.405 134.24V160.76C176.405 161.288 176.868 161.72 177.435 161.72H183.615C184.181 161.72 184.645 161.288 184.645 160.76V134.24C183.345 134.636 181.967 134.84 180.525 134.84C179.083 134.84 177.705 134.624 176.405 134.24ZM184.645 110.48V101.24C184.645 100.712 184.181 100.28 183.615 100.28H177.435C176.868 100.28 176.405 100.712 176.405 101.24V110.48C177.705 110.084 179.083 109.88 180.525 109.88C181.967 109.88 183.345 110.096 184.645 110.48ZM176.405 134.24C177.705 134.636 179.083 134.84 180.525 134.84C181.967 134.84 183.345 134.624 184.645 134.24C190.027 132.62 193.915 127.916 193.915 122.36C193.915 116.804 190.027 112.1 184.645 110.48C183.345 110.084 181.967 109.88 180.525 109.88C179.083 109.88 177.705 110.096 176.405 110.48C171.023 112.1 167.135 116.804 167.135 122.36C167.135 127.916 171.023 132.62 176.405 134.24ZM176.418 120.356C176.456 120.284 176.508 120.212 176.547 120.14V120.128L176.701 119.912C176.714 119.888 176.727 119.876 176.74 119.852C176.778 119.792 176.83 119.744 176.868 119.684C176.881 119.672 176.894 119.648 176.907 119.636C176.972 119.564 177.023 119.504 177.087 119.444L177.126 119.408L177.28 119.264L177.332 119.216C177.396 119.156 177.461 119.108 177.538 119.048C177.615 118.988 177.68 118.94 177.757 118.892C177.783 118.88 177.796 118.868 177.821 118.856C177.886 118.82 177.937 118.772 178.002 118.736C178.014 118.724 178.04 118.712 178.053 118.7C178.13 118.652 178.207 118.616 178.298 118.568C178.311 118.556 178.336 118.556 178.349 118.544C178.413 118.508 178.478 118.484 178.555 118.448L178.632 118.412C178.722 118.376 178.8 118.34 178.89 118.316C178.98 118.28 179.07 118.256 179.16 118.232C179.186 118.22 179.212 118.22 179.237 118.208C179.315 118.184 179.379 118.172 179.456 118.16C179.482 118.16 179.495 118.148 179.521 118.148C179.611 118.124 179.714 118.112 179.804 118.1C179.83 118.1 179.843 118.1 179.868 118.088C179.946 118.076 180.023 118.076 180.1 118.064H180.177C180.28 118.064 180.37 118.052 180.473 118.052C180.576 118.052 180.667 118.052 180.77 118.064H180.847C180.924 118.064 181.001 118.076 181.079 118.088C181.104 118.088 181.117 118.088 181.143 118.1C181.233 118.112 181.336 118.124 181.426 118.148C181.452 118.148 181.465 118.16 181.491 118.16C181.568 118.172 181.645 118.196 181.71 118.208C181.735 118.22 181.761 118.22 181.787 118.232C181.877 118.256 181.967 118.28 182.057 118.316C182.147 118.34 182.225 118.376 182.315 118.412L182.392 118.448C182.456 118.472 182.533 118.508 182.598 118.544C182.611 118.556 182.636 118.556 182.649 118.568C182.727 118.604 182.817 118.652 182.894 118.7C182.907 118.712 182.933 118.724 182.945 118.736C183.01 118.772 183.074 118.808 183.126 118.856C183.151 118.868 183.164 118.88 183.19 118.892C183.267 118.94 183.345 119 183.409 119.048C183.473 119.096 183.551 119.156 183.615 119.216L183.667 119.264L183.821 119.408L183.86 119.444C183.924 119.504 183.988 119.576 184.04 119.636C184.053 119.648 184.066 119.672 184.078 119.684C184.13 119.732 184.169 119.792 184.207 119.852C184.22 119.876 184.233 119.888 184.246 119.912L184.4 120.128V120.14C184.83 120.811 185.057 121.578 185.057 122.36C185.057 123.08 184.864 123.764 184.529 124.364C184.49 124.436 184.439 124.508 184.4 124.58V124.592L184.246 124.808C184.233 124.832 184.22 124.844 184.207 124.868C184.169 124.928 184.117 124.976 184.078 125.036C184.066 125.048 184.053 125.072 184.04 125.084C183.975 125.156 183.924 125.216 183.86 125.276L183.821 125.312L183.667 125.456L183.615 125.504C183.551 125.564 183.486 125.612 183.409 125.672C183.332 125.732 183.267 125.78 183.19 125.828C183.164 125.84 183.151 125.852 183.126 125.864C183.061 125.9 183.01 125.948 182.945 125.984C182.933 125.996 182.907 126.008 182.894 126.02C182.817 126.068 182.739 126.104 182.649 126.152C182.636 126.164 182.611 126.164 182.598 126.176C182.533 126.212 182.469 126.236 182.392 126.272L182.315 126.308C182.225 126.344 182.147 126.38 182.057 126.404C181.967 126.44 181.877 126.464 181.787 126.488C181.761 126.5 181.735 126.5 181.71 126.512C181.632 126.536 181.568 126.548 181.491 126.56C181.465 126.56 181.452 126.572 181.426 126.572C181.336 126.596 181.233 126.608 181.143 126.62C181.117 126.62 181.104 126.62 181.079 126.632C181.001 126.644 180.924 126.644 180.847 126.656H180.77C180.667 126.656 180.576 126.668 180.473 126.668C180.37 126.668 180.28 126.668 180.177 126.656H180.1C180.023 126.656 179.946 126.644 179.868 126.632C179.843 126.632 179.83 126.632 179.804 126.62C179.714 126.608 179.611 126.596 179.521 126.572C179.495 126.572 179.482 126.56 179.456 126.56C179.379 126.548 179.302 126.524 179.237 126.512C179.212 126.5 179.186 126.5 179.16 126.488C179.07 126.464 178.98 126.44 178.89 126.404C178.8 126.38 178.722 126.344 178.632 126.308L178.555 126.272C178.491 126.248 178.413 126.212 178.349 126.176C178.336 126.164 178.311 126.164 178.298 126.152C178.22 126.116 178.13 126.068 178.053 126.02C178.04 126.008 178.014 125.996 178.002 125.984C177.937 125.948 177.873 125.912 177.821 125.864C177.796 125.852 177.783 125.84 177.757 125.828C177.68 125.78 177.602 125.72 177.538 125.672C177.474 125.624 177.396 125.564 177.332 125.504L177.28 125.456L177.126 125.312L177.087 125.276C177.023 125.216 176.959 125.144 176.907 125.084C176.894 125.072 176.881 125.048 176.868 125.036C176.817 124.988 176.778 124.928 176.74 124.868C176.727 124.844 176.714 124.832 176.701 124.808L176.547 124.592V124.58C176.495 124.508 176.456 124.436 176.418 124.364C176.083 123.764 175.89 123.08 175.89 122.36C175.89 121.64 176.083 120.956 176.418 120.356Z" fill="black"/>
<path d="M29.968 203.152C30.672 203.152 31.272 203.168 31.768 203.2C32.28 203.232 32.744 203.288 33.16 203.368C33.592 203.432 34.032 203.52 34.48 203.632L34.264 205.24C33.784 205.192 33.336 205.152 32.92 205.12C32.52 205.088 32.088 205.064 31.624 205.048C31.16 205.032 30.608 205.024 29.968 205.024C28.896 205.024 28.048 205.232 27.424 205.648C26.8 206.064 26.352 206.76 26.08 207.736C25.824 208.712 25.696 210.04 25.696 211.72C25.696 213.4 25.824 214.728 26.08 215.704C26.352 216.68 26.8 217.376 27.424 217.792C28.048 218.208 28.896 218.416 29.968 218.416C30.992 218.416 31.848 218.4 32.536 218.368C33.24 218.32 33.928 218.248 34.6 218.152L34.816 219.736C34.128 219.928 33.416 220.064 32.68 220.144C31.96 220.24 31.056 220.288 29.968 220.288C28.384 220.288 27.112 220.016 26.152 219.472C25.208 218.912 24.52 218.008 24.088 216.76C23.672 215.512 23.464 213.832 23.464 211.72C23.464 209.608 23.672 207.928 24.088 206.68C24.52 205.432 25.208 204.536 26.152 203.992C27.112 203.432 28.384 203.152 29.968 203.152ZM42.5035 208.024C43.8475 208.024 44.9195 208.224 45.7195 208.624C46.5355 209.024 47.1195 209.68 47.4715 210.592C47.8235 211.488 47.9995 212.68 47.9995 214.168C47.9995 215.656 47.8235 216.856 47.4715 217.768C47.1195 218.664 46.5355 219.312 45.7195 219.712C44.9195 220.112 43.8475 220.312 42.5035 220.312C41.1755 220.312 40.1035 220.112 39.2875 219.712C38.4875 219.312 37.9035 218.664 37.5355 217.768C37.1835 216.856 37.0075 215.656 37.0075 214.168C37.0075 212.68 37.1835 211.488 37.5355 210.592C37.9035 209.68 38.4875 209.024 39.2875 208.624C40.1035 208.224 41.1755 208.024 42.5035 208.024ZM42.5035 209.752C41.6555 209.752 40.9835 209.888 40.4875 210.16C40.0075 210.416 39.6635 210.864 39.4555 211.504C39.2475 212.144 39.1435 213.032 39.1435 214.168C39.1435 215.304 39.2475 216.192 39.4555 216.832C39.6635 217.472 40.0075 217.928 40.4875 218.2C40.9835 218.456 41.6555 218.584 42.5035 218.584C43.3515 218.584 44.0235 218.456 44.5195 218.2C45.0155 217.928 45.3675 217.472 45.5755 216.832C45.7835 216.192 45.8875 215.304 45.8875 214.168C45.8875 213.032 45.7835 212.144 45.5755 211.504C45.3675 210.864 45.0155 210.416 44.5195 210.16C44.0235 209.888 43.3515 209.752 42.5035 209.752ZM52.9281 208.312L53.0721 210.16C53.9521 209.472 54.8241 208.944 55.6881 208.576C56.5681 208.208 57.4401 208.024 58.3041 208.024C60.4161 208.024 61.4721 209.096 61.4721 211.24V220H59.4321V211.816C59.4321 211.032 59.3041 210.496 59.0481 210.208C58.7921 209.904 58.3601 209.752 57.7521 209.752C57.0641 209.752 56.3681 209.92 55.6641 210.256C54.9761 210.576 54.1681 211.016 53.2401 211.576V220H51.2001V208.312H52.9281ZM71.7934 208.312V209.92H68.0734V216.784C68.0734 217.344 68.1934 217.744 68.4334 217.984C68.6734 218.224 69.0814 218.344 69.6574 218.344H71.4334L71.6734 219.904C71.2894 220.016 70.8254 220.096 70.2814 220.144C69.7374 220.192 69.3214 220.216 69.0334 220.216C68.0574 220.216 67.3134 219.944 66.8014 219.4C66.2894 218.856 66.0334 218.072 66.0334 217.048V209.92H63.9214V208.432L66.0334 208.312V204.856H68.0734V208.312H71.7934ZM75.8701 208.312L76.0861 210.16C76.9341 209.488 77.7741 208.968 78.6061 208.6C79.4541 208.216 80.2781 208.024 81.0781 208.024H81.6061L81.3661 209.944H80.6941C80.0381 209.944 79.3741 210.08 78.7021 210.352C78.0461 210.608 77.2541 210.968 76.3261 211.432V220H74.2861V208.312H75.8701ZM88.5582 208.024C89.9022 208.024 90.9742 208.224 91.7742 208.624C92.5902 209.024 93.1742 209.68 93.5262 210.592C93.8782 211.488 94.0542 212.68 94.0542 214.168C94.0542 215.656 93.8782 216.856 93.5262 217.768C93.1742 218.664 92.5902 219.312 91.7742 219.712C90.9742 220.112 89.9022 220.312 88.5582 220.312C87.2302 220.312 86.1582 220.112 85.3422 219.712C84.5422 219.312 83.9582 218.664 83.5902 217.768C83.2382 216.856 83.0622 215.656 83.0622 214.168C83.0622 212.68 83.2382 211.488 83.5902 210.592C83.9582 209.68 84.5422 209.024 85.3422 208.624C86.1582 208.224 87.2302 208.024 88.5582 208.024ZM88.5582 209.752C87.7102 209.752 87.0382 209.888 86.5422 210.16C86.0622 210.416 85.7182 210.864 85.5102 211.504C85.3022 212.144 85.1982 213.032 85.1982 214.168C85.1982 215.304 85.3022 216.192 85.5102 216.832C85.7182 217.472 86.0622 217.928 86.5422 218.2C87.0382 218.456 87.7102 218.584 88.5582 218.584C89.4062 218.584 90.0782 218.456 90.5742 218.2C91.0702 217.928 91.4222 217.472 91.6302 216.832C91.8382 216.192 91.9422 215.304 91.9422 214.168C91.9422 213.032 91.8382 212.144 91.6302 211.504C91.4222 210.864 91.0702 210.416 90.5742 210.16C90.0782 209.888 89.4062 209.752 88.5582 209.752ZM99.3188 203.2L99.2948 216.784C99.2948 217.824 99.8308 218.344 100.903 218.344H102.031L102.271 219.904C102.047 220.016 101.703 220.096 101.239 220.144C100.791 220.192 100.423 220.216 100.135 220.216C99.2708 220.216 98.5748 219.96 98.0468 219.448C97.5348 218.936 97.2788 218.2 97.2788 217.24V203.2H99.3188ZM109.18 208.024C110.94 208.024 112.212 208.344 112.996 208.984C113.796 209.624 114.196 210.576 114.196 211.84C114.212 212.88 113.996 213.696 113.548 214.288C113.1 214.864 112.388 215.152 111.412 215.152H105.988C106.052 216.08 106.22 216.792 106.492 217.288C106.78 217.768 107.18 218.104 107.692 218.296C108.204 218.472 108.86 218.56 109.66 218.56C110.284 218.56 110.964 218.536 111.7 218.488C112.452 218.424 113.124 218.352 113.716 218.272L113.932 219.64C113.564 219.784 113.108 219.904 112.564 220C112.036 220.096 111.484 220.168 110.908 220.216C110.348 220.264 109.844 220.288 109.396 220.288C108.052 220.288 106.972 220.088 106.156 219.688C105.34 219.272 104.74 218.616 104.356 217.72C103.988 216.808 103.804 215.608 103.804 214.12C103.804 212.584 103.988 211.376 104.356 210.496C104.74 209.6 105.324 208.968 106.108 208.6C106.908 208.216 107.932 208.024 109.18 208.024ZM109.276 209.752C108.46 209.752 107.812 209.864 107.332 210.088C106.868 210.312 106.524 210.704 106.3 211.264C106.092 211.808 105.972 212.576 105.94 213.568H110.884C111.412 213.568 111.756 213.392 111.916 213.04C112.076 212.672 112.156 212.272 112.156 211.84C112.14 211.088 111.916 210.552 111.484 210.232C111.052 209.912 110.316 209.752 109.276 209.752ZM126.502 208.024C127.27 208.04 128.102 208.08 128.998 208.144C129.894 208.192 130.702 208.272 131.422 208.384L131.254 209.872C130.518 209.84 129.774 209.816 129.022 209.8C128.286 209.768 127.55 209.752 126.814 209.752C126.094 209.736 125.526 209.752 125.11 209.8C124.694 209.848 124.39 209.976 124.198 210.184C124.022 210.392 123.934 210.744 123.934 211.24C123.934 211.848 124.078 212.248 124.366 212.44C124.654 212.632 125.078 212.792 125.638 212.92L129.046 213.688C129.974 213.912 130.654 214.256 131.086 214.72C131.534 215.184 131.758 215.912 131.758 216.904C131.758 217.864 131.574 218.584 131.206 219.064C130.854 219.544 130.31 219.864 129.574 220.024C128.838 220.184 127.902 220.264 126.766 220.264C126.35 220.264 125.726 220.248 124.894 220.216C124.078 220.184 123.174 220.088 122.182 219.928L122.326 218.44C122.902 218.472 123.526 218.504 124.198 218.536C124.886 218.552 125.606 218.552 126.358 218.536C127.238 218.536 127.926 218.496 128.422 218.416C128.918 218.336 129.27 218.184 129.478 217.96C129.686 217.72 129.79 217.368 129.79 216.904C129.79 216.328 129.622 215.944 129.286 215.752C128.95 215.56 128.502 215.4 127.942 215.272L124.582 214.504C123.638 214.28 122.958 213.92 122.542 213.424C122.142 212.928 121.942 212.2 121.942 211.24C121.942 210.328 122.102 209.64 122.422 209.176C122.742 208.712 123.238 208.4 123.91 208.24C124.582 208.08 125.446 208.008 126.502 208.024ZM136.77 208.312V216.52C136.754 217.256 136.89 217.776 137.178 218.08C137.466 218.384 137.946 218.536 138.618 218.536C139.242 218.536 139.866 218.4 140.49 218.128C141.114 217.84 141.85 217.416 142.698 216.856V208.312H144.738V220H143.106L142.962 218.296C142.082 218.968 141.234 219.472 140.418 219.808C139.602 220.144 138.77 220.312 137.922 220.312C135.794 220.312 134.73 219.24 134.73 217.096V208.312H136.77ZM154.009 208.024C155.305 208.024 156.297 208.296 156.985 208.84C157.673 209.368 158.017 210.344 158.017 211.768V220H156.409L156.169 218.056C155.865 218.376 155.473 218.704 154.993 219.04C154.513 219.36 153.961 219.64 153.337 219.88C152.729 220.104 152.065 220.216 151.345 220.216C150.305 220.216 149.457 219.936 148.801 219.376C148.161 218.816 147.841 218.008 147.841 216.952V215.68C147.841 214.768 148.121 214.064 148.681 213.568C149.257 213.056 150.057 212.8 151.081 212.8H155.953V211.768C155.953 211.048 155.785 210.536 155.449 210.232C155.129 209.912 154.505 209.752 153.577 209.752C152.969 209.752 152.201 209.784 151.273 209.848C150.361 209.912 149.457 209.984 148.561 210.064L148.369 208.552C149.169 208.424 150.089 208.304 151.129 208.192C152.169 208.08 153.129 208.024 154.009 208.024ZM151.753 218.464C152.329 218.48 153.001 218.344 153.769 218.056C154.537 217.768 155.265 217.32 155.953 216.712V214.336L151.441 214.36C150.881 214.376 150.489 214.528 150.265 214.816C150.041 215.088 149.929 215.472 149.929 215.968V216.712C149.929 217.32 150.073 217.768 150.361 218.056C150.649 218.328 151.113 218.464 151.753 218.464ZM171.805 208.024C173.565 208.024 174.837 208.344 175.621 208.984C176.421 209.624 176.821 210.576 176.821 211.84C176.837 212.88 176.621 213.696 176.173 214.288C175.725 214.864 175.013 215.152 174.037 215.152H168.613C168.677 216.08 168.845 216.792 169.117 217.288C169.405 217.768 169.805 218.104 170.317 218.296C170.829 218.472 171.485 218.56 172.285 218.56C172.909 218.56 173.589 218.536 174.325 218.488C175.077 218.424 175.749 218.352 176.341 218.272L176.557 219.64C176.189 219.784 175.733 219.904 175.189 220C174.661 220.096 174.109 220.168 173.533 220.216C172.973 220.264 172.469 220.288 172.021 220.288C170.677 220.288 169.597 220.088 168.781 219.688C167.965 219.272 167.365 218.616 166.981 217.72C166.613 216.808 166.429 215.608 166.429 214.12C166.429 212.584 166.613 211.376 166.981 210.496C167.365 209.6 167.949 208.968 168.733 208.6C169.533 208.216 170.557 208.024 171.805 208.024ZM171.901 209.752C171.085 209.752 170.437 209.864 169.957 210.088C169.493 210.312 169.149 210.704 168.925 211.264C168.717 211.808 168.597 212.576 168.565 213.568H173.509C174.037 213.568 174.381 213.392 174.541 213.04C174.701 212.672 174.781 212.272 174.781 211.84C174.765 211.088 174.541 210.552 174.109 210.232C173.677 209.912 172.941 209.752 171.901 209.752ZM190.217 208.312L185.945 219.496C185.817 219.832 185.577 220 185.225 220H183.377C183.025 220 182.785 219.832 182.657 219.496L178.385 208.312H180.569L183.449 216.496C183.577 216.832 183.697 217.176 183.809 217.528C183.921 217.88 184.033 218.216 184.145 218.536H184.457C184.585 218.2 184.705 217.864 184.817 217.528C184.945 217.176 185.065 216.832 185.177 216.496L188.057 208.312H190.217ZM197.355 208.024C198.699 208.024 199.771 208.224 200.571 208.624C201.387 209.024 201.971 209.68 202.323 210.592C202.675 211.488 202.851 212.68 202.851 214.168C202.851 215.656 202.675 216.856 202.323 217.768C201.971 218.664 201.387 219.312 200.571 219.712C199.771 220.112 198.699 220.312 197.355 220.312C196.027 220.312 194.955 220.112 194.139 219.712C193.339 219.312 192.755 218.664 192.387 217.768C192.035 216.856 191.859 215.656 191.859 214.168C191.859 212.68 192.035 211.488 192.387 210.592C192.755 209.68 193.339 209.024 194.139 208.624C194.955 208.224 196.027 208.024 197.355 208.024ZM197.355 209.752C196.507 209.752 195.835 209.888 195.339 210.16C194.859 210.416 194.515 210.864 194.307 211.504C194.099 212.144 193.995 213.032 193.995 214.168C193.995 215.304 194.099 216.192 194.307 216.832C194.515 217.472 194.859 217.928 195.339 218.2C195.835 218.456 196.507 218.584 197.355 218.584C198.203 218.584 198.875 218.456 199.371 218.2C199.867 217.928 200.219 217.472 200.427 216.832C200.635 216.192 200.739 215.304 200.739 214.168C200.739 213.032 200.635 212.144 200.427 211.504C200.219 210.864 199.867 210.416 199.371 210.16C198.875 209.888 198.203 209.752 197.355 209.752ZM208.116 203.2L208.092 216.784C208.092 217.824 208.628 218.344 209.7 218.344H210.828L211.068 219.904C210.844 220.016 210.5 220.096 210.036 220.144C209.588 220.192 209.22 220.216 208.932 220.216C208.068 220.216 207.372 219.96 206.844 219.448C206.332 218.936 206.076 218.2 206.076 217.24V203.2H208.116ZM215.145 208.312V216.52C215.129 217.256 215.265 217.776 215.553 218.08C215.841 218.384 216.321 218.536 216.993 218.536C217.617 218.536 218.241 218.4 218.865 218.128C219.489 217.84 220.225 217.416 221.073 216.856V208.312H223.113V220H221.481L221.337 218.296C220.457 218.968 219.609 219.472 218.793 219.808C217.977 220.144 217.145 220.312 216.297 220.312C214.169 220.312 213.105 219.24 213.105 217.096V208.312H215.145ZM231.856 208.024C232.368 208.024 232.976 208.064 233.68 208.144C234.4 208.208 235.048 208.352 235.624 208.576L235.36 209.896C234.832 209.848 234.272 209.816 233.68 209.8C233.104 209.768 232.608 209.752 232.192 209.752C231.264 209.752 230.528 209.88 229.984 210.136C229.44 210.392 229.048 210.84 228.808 211.48C228.568 212.12 228.448 213.008 228.448 214.144C228.448 215.28 228.568 216.176 228.808 216.832C229.048 217.472 229.44 217.92 229.984 218.176C230.528 218.432 231.264 218.56 232.192 218.56C232.544 218.56 233.056 218.544 233.728 218.512C234.4 218.48 235.032 218.416 235.624 218.32L235.84 219.688C235.248 219.896 234.6 220.048 233.896 220.144C233.208 220.24 232.52 220.288 231.832 220.288C230.488 220.288 229.408 220.088 228.592 219.688C227.776 219.288 227.184 218.64 226.816 217.744C226.464 216.848 226.288 215.648 226.288 214.144C226.288 212.64 226.472 211.44 226.84 210.544C227.208 209.648 227.8 209.008 228.616 208.624C229.432 208.224 230.512 208.024 231.856 208.024ZM230.632 221.32C231.56 221.24 232.24 221.296 232.672 221.488C233.12 221.696 233.328 222.16 233.296 222.88C233.28 223.904 232.888 224.68 232.12 225.208C231.368 225.752 230.424 225.944 229.288 225.784L229.6 224.704C230.256 224.72 230.784 224.568 231.184 224.248C231.6 223.944 231.816 223.544 231.832 223.048C231.848 222.76 231.76 222.56 231.568 222.448C231.376 222.352 230.992 222.296 230.416 222.28L230.632 221.32ZM244.126 208.024C245.422 208.024 246.414 208.296 247.102 208.84C247.79 209.368 248.134 210.344 248.134 211.768V220H246.526L246.286 218.056C245.982 218.376 245.59 218.704 245.11 219.04C244.63 219.36 244.078 219.64 243.454 219.88C242.846 220.104 242.182 220.216 241.462 220.216C240.422 220.216 239.574 219.936 238.918 219.376C238.278 218.816 237.958 218.008 237.958 216.952V215.68C237.958 214.768 238.238 214.064 238.798 213.568C239.374 213.056 240.174 212.8 241.198 212.8H246.07V211.768C246.07 211.048 245.902 210.536 245.566 210.232C245.246 209.912 244.622 209.752 243.694 209.752C243.086 209.752 242.318 209.784 241.39 209.848C240.478 209.912 239.574 209.984 238.678 210.064L238.486 208.552C239.286 208.424 240.206 208.304 241.246 208.192C242.286 208.08 243.246 208.024 244.126 208.024ZM241.87 218.464C242.446 218.48 243.118 218.344 243.886 218.056C244.654 217.768 245.382 217.32 246.07 216.712V214.336L241.558 214.36C240.998 214.376 240.606 214.528 240.382 214.816C240.158 215.088 240.046 215.472 240.046 215.968V216.712C240.046 217.32 240.19 217.768 240.478 218.056C240.766 218.328 241.23 218.464 241.87 218.464ZM241.366 203.224C241.862 203.256 242.294 203.376 242.662 203.584C243.03 203.776 243.39 203.968 243.742 204.16C244.094 204.352 244.494 204.48 244.942 204.544C245.406 204.608 245.718 204.536 245.878 204.328C246.038 204.12 246.118 203.792 246.118 203.344H247.078C247.174 204.24 247.038 204.928 246.67 205.408C246.318 205.872 245.83 206.08 245.206 206.032C244.662 205.984 244.19 205.856 243.79 205.648C243.406 205.44 243.038 205.232 242.686 205.024C242.35 204.816 241.982 204.696 241.582 204.664C241.134 204.616 240.83 204.704 240.67 204.928C240.526 205.136 240.454 205.48 240.454 205.96H239.494C239.398 205 239.534 204.296 239.902 203.848C240.286 203.384 240.774 203.176 241.366 203.224ZM256.722 208.024C258.066 208.024 259.138 208.224 259.938 208.624C260.754 209.024 261.338 209.68 261.69 210.592C262.042 211.488 262.218 212.68 262.218 214.168C262.218 215.656 262.042 216.856 261.69 217.768C261.338 218.664 260.754 219.312 259.938 219.712C259.138 220.112 258.066 220.312 256.722 220.312C255.394 220.312 254.322 220.112 253.506 219.712C252.706 219.312 252.122 218.664 251.754 217.768C251.402 216.856 251.226 215.656 251.226 214.168C251.226 212.68 251.402 211.488 251.754 210.592C252.122 209.68 252.706 209.024 253.506 208.624C254.322 208.224 255.394 208.024 256.722 208.024ZM256.722 209.752C255.874 209.752 255.202 209.888 254.706 210.16C254.226 210.416 253.882 210.864 253.674 211.504C253.466 212.144 253.362 213.032 253.362 214.168C253.362 215.304 253.466 216.192 253.674 216.832C253.882 217.472 254.226 217.928 254.706 218.2C255.202 218.456 255.874 218.584 256.722 218.584C257.57 218.584 258.242 218.456 258.738 218.2C259.234 217.928 259.586 217.472 259.794 216.832C260.002 216.192 260.106 215.304 260.106 214.168C260.106 213.032 260.002 212.144 259.794 211.504C259.586 210.864 259.234 210.416 258.738 210.16C258.242 209.888 257.57 209.752 256.722 209.752ZM266.619 217.168C266.907 217.168 267.107 217.224 267.219 217.336C267.331 217.448 267.387 217.648 267.387 217.936V219.232C267.387 219.52 267.331 219.72 267.219 219.832C267.107 219.944 266.907 220 266.619 220H265.947C265.675 220 265.475 219.944 265.347 219.832C265.235 219.72 265.179 219.52 265.179 219.232V217.936C265.179 217.648 265.235 217.448 265.347 217.336C265.475 217.224 265.675 217.168 265.947 217.168H266.619Z" fill="black"/>
<path d="M108.652 46.9794C108.844 48.6283 108.958 50.3 108.99 51.9912L108.49 52.0008C108.497 52.3331 108.5 52.6662 108.5 53C108.5 53.3338 108.497 53.6669 108.49 53.9992L108.99 54.0088C108.958 55.7 108.844 57.3717 108.652 59.0206L108.156 58.9628C108.079 59.6237 107.989 60.2808 107.887 60.934L108.381 61.011C108.122 62.6783 107.782 64.3201 107.366 65.9325L106.882 65.8077C106.716 66.452 106.537 67.0916 106.347 67.7262L106.826 67.8699C106.342 69.4817 105.782 71.0618 105.149 72.6061L104.687 72.4165C104.435 73.0314 104.171 73.6406 103.896 74.2438L104.351 74.4511C103.655 75.9792 102.887 77.4694 102.05 78.9174L101.617 78.6673C101.285 79.2424 100.942 79.8107 100.589 80.3722L101.012 80.6386C100.119 82.0573 99.1585 83.4321 98.1359 84.7587L97.7399 84.4534C97.3346 84.9792 96.9194 85.4974 96.4945 86.0077L96.8788 86.3276C95.8074 87.6143 94.6754 88.8513 93.4868 90.0344L93.1341 89.68C92.6638 90.1482 92.1846 90.6078 91.6967 91.0587L92.036 91.4259C90.8077 92.561 89.525 93.6409 88.1922 94.6617L87.8882 94.2648C87.3615 94.6682 86.8268 95.0622 86.2845 95.4467L86.5737 95.8546C85.2108 96.8209 83.8001 97.7272 82.3456 98.5696L82.095 98.1369C81.521 98.4693 80.9402 98.7917 80.3527 99.1037L80.5872 99.5453C79.1137 100.328 77.5989 101.046 76.0469 101.697L75.8537 101.236C75.2426 101.492 74.6258 101.737 74.0033 101.971L74.1796 102.439C72.6205 103.027 71.0267 103.546 69.4021 103.994L69.2691 103.512C68.6304 103.689 67.9869 103.854 67.3388 104.007L67.4542 104.494C65.8355 104.878 64.1884 105.191 62.5167 105.431L62.4457 104.936C61.7906 105.03 61.1317 105.112 60.4692 105.183L60.5223 105.68C58.8722 105.856 57.2 105.961 55.5089 105.991L55.5001 105.491C55.1675 105.497 54.8341 105.5 54.5 105.5C54.1659 105.5 53.8325 105.497 53.4999 105.491L53.4911 105.991C51.8 105.961 50.1278 105.856 48.4777 105.68L48.5308 105.183C47.8683 105.112 47.2093 105.03 46.5543 104.936L46.4833 105.431C44.8116 105.191 43.1645 104.878 41.5458 104.494L41.6612 104.007C41.0131 103.854 40.3696 103.689 39.7309 103.512L39.5979 103.994C37.9733 103.546 36.3795 103.027 34.8204 102.439L34.9967 101.971C34.3742 101.737 33.7574 101.492 33.1463 101.236L32.9531 101.697C31.4011 101.046 29.8863 100.328 28.4128 99.5453L28.6473 99.1037C28.0598 98.7917 27.479 98.4693 26.905 98.1369L26.6544 98.5696C25.1999 97.7272 23.7892 96.8209 22.4263 95.8546L22.7155 95.4467C22.1732 95.0622 21.6385 94.6682 21.1118 94.2647L20.8078 94.6617C19.475 93.6409 18.1923 92.561 16.964 91.4259L17.3033 91.0587C16.8154 90.6078 16.3362 90.1482 15.8659 89.68L15.5132 90.0344C14.3246 88.8513 13.1926 87.6143 12.1212 86.3276L12.5055 86.0077C12.0806 85.4974 11.6654 84.9792 11.2601 84.4534L10.8641 84.7587C9.84155 83.4321 8.88146 82.0573 7.98809 80.6386L8.4112 80.3722C8.05768 79.8107 7.71472 79.2424 7.38259 78.6673L6.94962 78.9174C6.11327 77.4694 5.34483 75.9792 4.64851 74.4511L5.1035 74.2438C4.82863 73.6406 4.56512 73.0314 4.31322 72.4165L3.85054 72.6061C3.21787 71.0618 2.65773 69.4817 2.1742 67.8699L2.65311 67.7262C2.46273 67.0916 2.28435 66.452 2.11821 65.8077L1.63405 65.9325C1.21827 64.3201 0.878451 62.6783 0.61851 61.011L1.11254 60.934C1.01071 60.2808 0.921256 59.6237 0.844419 58.9628L0.347765 59.0206C0.156054 57.3717 0.0421392 55.7 0.00967549 54.0088L0.509583 53.9992C0.503204 53.6669 0.5 53.3338 0.5 53C0.5 52.6662 0.503204 52.3331 0.509584 52.0008L0.00967564 51.9912C0.0421396 50.3 0.156055 48.6283 0.347766 46.9794L0.84442 47.0372C0.921257 46.3763 1.01071 45.7192 1.11254 45.066L0.618512 44.989C0.878453 43.3217 1.21827 41.6799 1.63405 40.0674L2.11822 40.1923C2.28435 39.548 2.46274 38.9084 2.65311 38.2738L2.1742 38.1301C2.65773 36.5183 3.21787 34.9382 3.85054 33.3939L4.31322 33.5835C4.56512 32.9686 4.82863 32.3594 5.1035 31.7562L4.64851 31.5489C5.34483 30.0208 6.11327 28.5306 6.94962 27.0826L7.38259 27.3327C7.71473 26.7576 8.05769 26.1893 8.4112 25.6278L7.98809 25.3614C8.88146 23.9427 9.84155 22.5679 10.8641 21.2413L11.2601 21.5466C11.6654 21.0208 12.0806 20.5026 12.5055 19.9923L12.1212 19.6724C13.1926 18.3857 14.3246 17.1487 15.5132 15.9656L15.8659 16.32C16.3362 15.8518 16.8154 15.3922 17.3033 14.9413L16.964 14.5741C18.1923 13.439 19.475 12.3591 20.8078 11.3383L21.1118 11.7352C21.6385 11.3318 22.1732 10.9378 22.7155 10.5533L22.4263 10.1454C23.7892 9.17909 25.1999 8.27278 26.6544 7.43044L26.905 7.86312C27.479 7.5307 28.0598 7.20833 28.6473 6.89627L28.4128 6.4547C29.8863 5.67202 31.4011 4.95358 32.9531 4.30326L33.1463 4.76442C33.7574 4.50839 34.3742 4.26302 34.9967 4.02854L34.8204 3.56063C36.3795 2.97332 37.9733 2.45375 39.5979 2.00562L39.7309 2.48762C40.3696 2.31146 41.0131 2.14643 41.6612 1.99278L41.5458 1.50626C43.1645 1.12249 44.8116 0.809011 46.4833 0.569351L46.5543 1.06429C47.2094 0.970378 47.8683 0.8879 48.5308 0.817073L48.4777 0.319906C50.1278 0.143513 51.8 0.0387556 53.4911 0.00889973L53.4999 0.508822C53.8325 0.502949 54.1659 0.5 54.5 0.5C54.8341 0.5 55.1675 0.502949 55.5001 0.508822L55.5089 0.00889986C57.2 0.038756 58.8722 0.143514 60.5223 0.319906L60.4692 0.817074C61.1317 0.8879 61.7907 0.970378 62.4457 1.06429L62.5167 0.569351C64.1884 0.809011 65.8355 1.12249 67.4542 1.50626L67.3388 1.99278C67.9869 2.14643 68.6304 2.31146 69.2691 2.48762L69.4021 2.00562C71.0267 2.45375 72.6205 2.97333 74.1796 3.56063L74.0033 4.02854C74.6258 4.26302 75.2426 4.50839 75.8537 4.76442L76.0469 4.30327C77.5989 4.95358 79.1137 5.67202 80.5872 6.4547L80.3527 6.89627C80.9402 7.20833 81.521 7.5307 82.095 7.86312L82.3456 7.43044C83.8001 8.27278 85.2108 9.17909 86.5737 10.1454L86.2845 10.5533C86.8268 10.9378 87.3615 11.3318 87.8882 11.7352L88.1922 11.3383C89.525 12.3591 90.8077 13.439 92.036 14.5741L91.6967 14.9413C92.1846 15.3922 92.6638 15.8518 93.1341 16.32L93.4868 15.9656C94.6754 17.1487 95.8074 18.3857 96.8788 19.6724L96.4945 19.9923C96.9194 20.5026 97.3346 21.0208 97.7399 21.5466L98.1359 21.2413C99.1585 22.5679 100.119 23.9427 101.012 25.3614L100.589 25.6278C100.942 26.1893 101.285 26.7576 101.617 27.3327L102.05 27.0826C102.887 28.5306 103.655 30.0208 104.351 31.5489L103.896 31.7562C104.171 32.3594 104.435 32.9686 104.687 33.5835L105.149 33.3939C105.782 34.9382 106.342 36.5183 106.826 38.1301L106.347 38.2738C106.537 38.9084 106.716 39.548 106.882 40.1923L107.366 40.0675C107.782 41.6799 108.122 43.3217 108.381 44.989L107.887 45.066C107.989 45.7192 108.079 46.3763 108.156 47.0372L108.652 46.9794Z" stroke="black" stroke-dasharray="2 5"/>
<path d="M98.9043 49.9593C98.9434 50.5788 98.9707 51.2016 98.9858 51.8275L98.486 51.8396C98.4953 52.2252 98.5 52.612 98.5 53C98.5 53.388 98.4953 53.7748 98.486 54.1604L98.9858 54.1725C98.9477 55.7476 98.833 57.3029 98.6454 58.8348L98.1491 58.774C98.0739 59.3886 97.9868 59.9993 97.888 60.6059L98.3815 60.6862C98.2558 61.4589 98.1115 62.225 97.9489 62.984L97.46 62.8794C97.1347 64.399 96.7359 65.89 96.2677 67.3482L96.7438 67.501C96.5527 68.0961 96.3502 68.6858 96.1365 69.2698L95.6669 69.098C95.4012 69.8244 95.118 70.5418 94.8178 71.2498L95.2782 71.445C94.6667 72.8875 93.9856 74.2914 93.2394 75.6521L92.801 75.4117C92.5039 75.9534 92.1964 76.4882 91.8788 77.0157L92.3071 77.2736C91.9043 77.9427 91.4853 78.6002 91.0507 79.2458L90.6359 78.9665C89.7721 80.2496 88.846 81.4845 87.8621 82.6665L88.2464 82.9864C87.8472 83.4661 87.4385 83.9372 87.0207 84.3994L86.6498 84.0641C86.1323 84.6365 85.6007 85.1952 85.0555 85.7394L85.4088 86.0932C84.3041 87.1959 83.1444 88.2401 81.9342 89.2209L81.6194 88.8324C81.1403 89.2207 80.6532 89.599 80.1584 89.9669L80.4568 90.3681C79.8313 90.8332 79.1937 91.2819 78.5445 91.7136L78.2676 91.2973C76.9855 92.15 75.6578 92.9356 74.2893 93.6495L74.5205 94.0928C73.9682 94.3809 73.4092 94.6575 72.844 94.9222L72.6319 94.4694C71.9352 94.7957 71.2288 95.1037 70.5133 95.393L70.7006 95.8565C69.2615 96.4383 67.7859 96.9448 66.2783 97.3715L66.1422 96.8904C65.5506 97.0577 64.9542 97.2127 64.353 97.3549L64.4681 97.8415C63.7122 98.0203 62.949 98.1792 62.179 98.3176L62.0905 97.8255C60.5871 98.0959 59.0574 98.2873 57.5055 98.3955L57.5402 98.8943C56.921 98.9375 56.2983 98.9676 55.6724 98.9843L55.659 98.4845C55.2739 98.4948 54.8875 98.5 54.5 98.5C54.1125 98.5 53.7261 98.4948 53.341 98.4845L53.3276 98.9843C51.7529 98.9422 50.1985 98.8156 48.6686 98.6086L48.7357 98.1131C48.1229 98.0302 47.514 97.9342 46.9095 97.8255L46.821 98.3176C46.051 98.1792 45.2878 98.0203 44.5319 97.8415L44.647 97.3549C43.1389 96.9981 41.6602 96.5612 40.2155 96.0487L40.0483 96.5199C39.4597 96.3111 38.8766 96.0899 38.2994 95.8565L38.4867 95.393C37.7712 95.1037 37.0648 94.7957 36.3681 94.4694L36.156 94.9222C34.7412 94.2596 33.3658 93.5227 32.0346 92.7164L32.2937 92.2887C31.7661 91.9692 31.2456 91.6386 30.7324 91.2973L30.4555 91.7136C29.8063 91.2819 29.1687 90.8332 28.5432 90.3681L28.8416 89.9669C27.605 89.0475 26.4164 88.0633 25.2804 87.0191L24.942 87.3872C24.4832 86.9654 24.0328 86.534 23.5912 86.0932L23.9445 85.7394C23.3993 85.1952 22.8677 84.6365 22.3502 84.0641L21.9793 84.3994C20.9363 83.2455 19.95 82.036 19.0251 80.7758L19.4282 80.48C19.0638 79.9834 18.709 79.4788 18.3641 78.9665L17.9493 79.2458C17.5147 78.6003 17.0957 77.9427 16.6929 77.2736L17.1212 77.0157C16.329 75.7 15.5999 74.3393 14.9383 72.9383L14.4862 73.1518C14.2205 72.5892 13.9656 72.0201 13.7218 71.445L14.1822 71.2498C13.882 70.5418 13.5988 69.8244 13.3331 69.098L12.8635 69.2698C12.3313 67.8151 11.8683 66.3251 11.4788 64.8043L11.9632 64.6802C11.8106 64.0846 11.6695 63.4843 11.54 62.8794L11.0511 62.9841C10.8886 62.225 10.7442 61.4589 10.6185 60.6862L11.112 60.6059C10.8665 59.0977 10.6928 57.5641 10.5947 56.0092L10.0957 56.0407C10.0566 55.4212 10.0293 54.7984 10.0142 54.1725L10.514 54.1604C10.5047 53.7748 10.5 53.388 10.5 53C10.5 52.612 10.5047 52.2252 10.514 51.8396L10.0142 51.8275C10.0523 50.2524 10.167 48.6971 10.3546 47.1652L10.8509 47.226C10.9261 46.6114 11.0132 46.0007 11.112 45.3941L10.6185 45.3138C10.7442 44.5411 10.8885 43.775 11.0511 43.016L11.54 43.1206C11.8653 41.601 12.2641 40.11 12.7323 38.6518L12.2562 38.499C12.4473 37.9039 12.6498 37.3142 12.8635 36.7302L13.3331 36.902C13.5988 36.1757 13.882 35.4582 14.1822 34.7502L13.7218 34.555C14.3333 33.1125 15.0144 31.7086 15.7606 30.3479L16.199 30.5883C16.4961 30.0466 16.8036 29.5118 17.1212 28.9843L16.6929 28.7264C17.0957 28.0573 17.5147 27.3998 17.9493 26.7543L18.3641 27.0335C19.2279 25.7504 20.154 24.5155 21.1379 23.3335L20.7536 23.0136C21.1528 22.5339 21.5615 22.0628 21.9793 21.6006L22.3502 21.9359C22.8677 21.3635 23.3993 20.8048 23.9445 20.2606L23.5912 19.9068C24.6959 18.8041 25.8556 17.7599 27.0658 16.7791L27.3806 17.1676C27.8597 16.7793 28.3468 16.401 28.8416 16.0331L28.5432 15.6319C29.1687 15.1668 29.8063 14.7181 30.4555 14.2864L30.7324 14.7027C32.0145 13.85 33.3422 13.0644 34.7107 12.3505L34.4795 11.9072C35.0318 11.6191 35.5908 11.3425 36.156 11.0778L36.3681 11.5306C37.0648 11.2043 37.7712 10.8963 38.4867 10.607L38.2994 10.1435C39.7385 9.56171 41.2141 9.05518 42.7217 8.62854L42.8578 9.10965C43.4494 8.94225 44.0458 8.7873 44.647 8.64509L44.5319 8.15852C45.2878 7.97971 46.051 7.8208 46.821 7.68235L46.9095 8.17446C48.4129 7.90413 49.9426 7.71269 51.4945 7.60446L51.4598 7.10567C52.079 7.06248 52.7017 7.03239 53.3276 7.01565L53.341 7.51548C53.7261 7.50518 54.1125 7.5 54.5 7.5C54.8875 7.5 55.2739 7.50518 55.659 7.51548L55.6724 7.01565C57.2471 7.05775 58.8015 7.18441 60.3314 7.39141L60.2643 7.88689C60.8771 7.9698 61.486 8.06575 62.0905 8.17446L62.179 7.68235C62.949 7.8208 63.7122 7.97971 64.4681 8.15851L64.353 8.64509C65.8611 9.00186 67.3398 9.43878 68.7845 9.95131L68.9517 9.48008C69.5404 9.68891 70.1234 9.91014 70.7006 10.1435L70.5133 10.607C71.2288 10.8963 71.9352 11.2043 72.6319 11.5306L72.844 11.0778C74.2588 11.7404 75.6342 12.4773 76.9654 13.2836L76.7063 13.7113C77.2338 14.0308 77.7544 14.3614 78.2676 14.7027L78.5445 14.2864C79.1937 14.7181 79.8313 15.1668 80.4568 15.6319L80.1584 16.0331C81.395 16.9525 82.5836 17.9367 83.7196 18.9809L84.058 18.6128C84.5168 19.0346 84.9672 19.466 85.4088 19.9068L85.0555 20.2606C85.6007 20.8048 86.1323 21.3635 86.6498 21.9359L87.0207 21.6006C88.0638 22.7545 89.05 23.964 89.9749 25.2242L89.5718 25.52C89.9362 26.0166 90.291 26.5212 90.6359 27.0335L91.0507 26.7542C91.4853 27.3998 91.9043 28.0573 92.3071 28.7264L91.8788 28.9843C92.671 30.3 93.4001 31.6607 94.0617 33.0617L94.5138 32.8482C94.7795 33.4108 95.0344 33.9799 95.2782 34.555L94.8178 34.7502C95.118 35.4582 95.4012 36.1756 95.6669 36.902L96.1365 36.7302C96.6688 38.1849 97.1317 39.6749 97.5212 41.1957L97.0368 41.3198C97.1894 41.9154 97.3305 42.5157 97.46 43.1206L97.9489 43.0159C98.1115 43.775 98.2558 44.5411 98.3815 45.3138L97.888 45.3941C98.1335 46.9023 98.3072 48.4359 98.4053 49.9908L98.9043 49.9593Z" stroke="black" stroke-dasharray="2.5 2 5 2.5 2 5"/>
<path d="M48.5137 49.9219H53.0254C55.1738 49.9219 56.7656 49.3848 57.8008 48.3105C58.8359 47.2363 59.3535 45.8105 59.3535 44.0332C59.3535 42.3145 58.8359 40.9766 57.8008 40.0195C56.7852 39.0625 55.3789 38.584 53.582 38.584C51.9609 38.584 50.6035 39.0332 49.5098 39.9316C48.416 40.8105 47.8691 41.9629 47.8691 43.3887H39.4023C39.4023 41.1621 39.998 39.1699 41.1895 37.4121C42.4004 35.6348 44.0801 34.248 46.2285 33.252C48.3965 32.2559 50.7793 31.7578 53.377 31.7578C57.8887 31.7578 61.4238 32.8418 63.9824 35.0098C66.541 37.1582 67.8203 40.127 67.8203 43.916C67.8203 45.8691 67.2246 47.666 66.0332 49.3066C64.8418 50.9473 63.2793 52.207 61.3457 53.0859C63.748 53.9453 65.5352 55.2344 66.707 56.9531C67.8984 58.6719 68.4941 60.7031 68.4941 63.0469C68.4941 66.8359 67.1074 69.873 64.334 72.1582C61.5801 74.4434 57.9277 75.5859 53.377 75.5859C49.1191 75.5859 45.6328 74.4629 42.918 72.2168C40.2227 69.9707 38.875 67.002 38.875 63.3105H47.3418C47.3418 64.9121 47.9375 66.2207 49.1289 67.2363C50.3398 68.252 51.8242 68.7598 53.582 68.7598C55.5938 68.7598 57.166 68.2324 58.2988 67.1777C59.4512 66.1035 60.0273 64.6875 60.0273 62.9297C60.0273 58.6719 57.6836 56.543 52.9961 56.543H48.5137V49.9219Z" fill="#53CC89"/>
</svg>
