<svg width="312" height="238" viewBox="0 0 312 238" fill="none" xmlns="http://www.w3.org/2000/svg">
<path d="M8.568 216.44C9 216.44 9.264 216.632 9.36 217.016L14.688 233H12.504L10.872 227.816H4.056L2.424 233H0.24L5.568 217.016C5.664 216.632 5.928 216.44 6.36 216.44H8.568ZM6.72 219.416L4.632 225.992H10.296L8.208 219.416C8.144 219.192 8.072 218.968 7.992 218.744C7.928 218.504 7.864 218.28 7.8 218.072H7.128C7.064 218.28 7 218.504 6.936 218.744C6.872 218.968 6.8 219.192 6.72 219.416ZM21.7937 221.024C22.3057 221.024 22.9137 221.064 23.6177 221.144C24.3377 221.208 24.9857 221.352 25.5617 221.576L25.2977 222.896C24.7697 222.848 24.2097 222.816 23.6177 222.8C23.0417 222.768 22.5457 222.752 22.1297 222.752C21.2017 222.752 20.4657 222.88 19.9217 223.136C19.3777 223.392 18.9857 223.84 18.7457 224.48C18.5057 225.12 18.3857 226.008 18.3857 227.144C18.3857 228.28 18.5057 229.176 18.7457 229.832C18.9857 230.472 19.3777 230.92 19.9217 231.176C20.4657 231.432 21.2017 231.56 22.1297 231.56C22.4817 231.56 22.9937 231.544 23.6657 231.512C24.3377 231.48 24.9697 231.416 25.5617 231.32L25.7777 232.688C25.1857 232.896 24.5377 233.048 23.8337 233.144C23.1457 233.24 22.4577 233.288 21.7697 233.288C20.4257 233.288 19.3457 233.088 18.5297 232.688C17.7137 232.288 17.1217 231.64 16.7537 230.744C16.4017 229.848 16.2257 228.648 16.2257 227.144C16.2257 225.64 16.4097 224.44 16.7777 223.544C17.1457 222.648 17.7377 222.008 18.5537 221.624C19.3697 221.224 20.4497 221.024 21.7937 221.024ZM33.1564 221.024C34.9164 221.024 36.1884 221.344 36.9724 221.984C37.7724 222.624 38.1724 223.576 38.1724 224.84C38.1884 225.88 37.9724 226.696 37.5244 227.288C37.0764 227.864 36.3644 228.152 35.3884 228.152H29.9644C30.0284 229.08 30.1964 229.792 30.4684 230.288C30.7564 230.768 31.1564 231.104 31.6684 231.296C32.1804 231.472 32.8364 231.56 33.6364 231.56C34.2604 231.56 34.9404 231.536 35.6764 231.488C36.4284 231.424 37.1004 231.352 37.6924 231.272L37.9084 232.64C37.5404 232.784 37.0844 232.904 36.5404 233C36.0124 233.096 35.4604 233.168 34.8844 233.216C34.3244 233.264 33.8204 233.288 33.3724 233.288C32.0284 233.288 30.9484 233.088 30.1324 232.688C29.3164 232.272 28.7164 231.616 28.3324 230.72C27.9644 229.808 27.7804 228.608 27.7804 227.12C27.7804 225.584 27.9644 224.376 28.3324 223.496C28.7164 222.6 29.3004 221.968 30.0844 221.6C30.8844 221.216 31.9084 221.024 33.1564 221.024ZM33.2524 222.752C32.4364 222.752 31.7884 222.864 31.3084 223.088C30.8444 223.312 30.5004 223.704 30.2764 224.264C30.0684 224.808 29.9484 225.576 29.9164 226.568H34.8604C35.3884 226.568 35.7324 226.392 35.8924 226.04C36.0524 225.672 36.1324 225.272 36.1324 224.84C36.1164 224.088 35.8924 223.552 35.4604 223.232C35.0284 222.912 34.2924 222.752 33.2524 222.752ZM45.135 221.024C45.903 221.04 46.735 221.08 47.631 221.144C48.527 221.192 49.335 221.272 50.055 221.384L49.887 222.872C49.151 222.84 48.407 222.816 47.655 222.8C46.919 222.768 46.183 222.752 45.447 222.752C44.727 222.736 44.159 222.752 43.743 222.8C43.327 222.848 43.023 222.976 42.831 223.184C42.655 223.392 42.567 223.744 42.567 224.24C42.567 224.848 42.711 225.248 42.999 225.44C43.287 225.632 43.711 225.792 44.271 225.92L47.679 226.688C48.607 226.912 49.287 227.256 49.719 227.72C50.167 228.184 50.391 228.912 50.391 229.904C50.391 230.864 50.207 231.584 49.839 232.064C49.487 232.544 48.943 232.864 48.207 233.024C47.471 233.184 46.535 233.264 45.399 233.264C44.983 233.264 44.359 233.248 43.527 233.216C42.711 233.184 41.807 233.088 40.815 232.928L40.959 231.44C41.535 231.472 42.159 231.504 42.831 231.536C43.519 231.552 44.239 231.552 44.991 231.536C45.871 231.536 46.559 231.496 47.055 231.416C47.551 231.336 47.903 231.184 48.111 230.96C48.319 230.72 48.423 230.368 48.423 229.904C48.423 229.328 48.255 228.944 47.919 228.752C47.583 228.56 47.135 228.4 46.575 228.272L43.215 227.504C42.271 227.28 41.591 226.92 41.175 226.424C40.775 225.928 40.575 225.2 40.575 224.24C40.575 223.328 40.735 222.64 41.055 222.176C41.375 221.712 41.871 221.4 42.543 221.24C43.215 221.08 44.079 221.008 45.135 221.024ZM57.3225 221.024C58.0905 221.04 58.9225 221.08 59.8185 221.144C60.7145 221.192 61.5225 221.272 62.2425 221.384L62.0745 222.872C61.3385 222.84 60.5945 222.816 59.8425 222.8C59.1065 222.768 58.3705 222.752 57.6345 222.752C56.9145 222.736 56.3465 222.752 55.9305 222.8C55.5145 222.848 55.2105 222.976 55.0185 223.184C54.8425 223.392 54.7545 223.744 54.7545 224.24C54.7545 224.848 54.8985 225.248 55.1865 225.44C55.4745 225.632 55.8985 225.792 56.4585 225.92L59.8665 226.688C60.7945 226.912 61.4745 227.256 61.9065 227.72C62.3545 228.184 62.5785 228.912 62.5785 229.904C62.5785 230.864 62.3945 231.584 62.0265 232.064C61.6745 232.544 61.1305 232.864 60.3945 233.024C59.6585 233.184 58.7225 233.264 57.5865 233.264C57.1705 233.264 56.5465 233.248 55.7145 233.216C54.8985 233.184 53.9945 233.088 53.0025 232.928L53.1465 231.44C53.7225 231.472 54.3465 231.504 55.0185 231.536C55.7065 231.552 56.4265 231.552 57.1785 231.536C58.0585 231.536 58.7465 231.496 59.2425 231.416C59.7385 231.336 60.0905 231.184 60.2985 230.96C60.5065 230.72 60.6105 230.368 60.6105 229.904C60.6105 229.328 60.4425 228.944 60.1065 228.752C59.7705 228.56 59.3225 228.4 58.7625 228.272L55.4025 227.504C54.4585 227.28 53.7785 226.92 53.3625 226.424C52.9625 225.928 52.7625 225.2 52.7625 224.24C52.7625 223.328 52.9225 222.64 53.2425 222.176C53.5625 221.712 54.0585 221.4 54.7305 221.24C55.4025 221.08 56.2665 221.008 57.3225 221.024ZM70.566 221.024C71.91 221.024 72.982 221.224 73.782 221.624C74.598 222.024 75.182 222.68 75.534 223.592C75.886 224.488 76.062 225.68 76.062 227.168C76.062 228.656 75.886 229.856 75.534 230.768C75.182 231.664 74.598 232.312 73.782 232.712C72.982 233.112 71.91 233.312 70.566 233.312C69.238 233.312 68.166 233.112 67.35 232.712C66.55 232.312 65.966 231.664 65.598 230.768C65.246 229.856 65.07 228.656 65.07 227.168C65.07 225.68 65.246 224.488 65.598 223.592C65.966 222.68 66.55 222.024 67.35 221.624C68.166 221.224 69.238 221.024 70.566 221.024ZM70.566 222.752C69.718 222.752 69.046 222.888 68.55 223.16C68.07 223.416 67.726 223.864 67.518 224.504C67.31 225.144 67.206 226.032 67.206 227.168C67.206 228.304 67.31 229.192 67.518 229.832C67.726 230.472 68.07 230.928 68.55 231.2C69.046 231.456 69.718 231.584 70.566 231.584C71.414 231.584 72.086 231.456 72.582 231.2C73.078 230.928 73.43 230.472 73.638 229.832C73.846 229.192 73.95 228.304 73.95 227.168C73.95 226.032 73.846 225.144 73.638 224.504C73.43 223.864 73.078 223.416 72.582 223.16C72.086 222.888 71.414 222.752 70.566 222.752ZM90.1264 221.024C91.4224 221.024 92.4144 221.296 93.1024 221.84C93.7904 222.368 94.1344 223.344 94.1344 224.768V233H92.5264L92.2864 231.056C91.9824 231.376 91.5904 231.704 91.1104 232.04C90.6304 232.36 90.0784 232.64 89.4544 232.88C88.8464 233.104 88.1824 233.216 87.4624 233.216C86.4224 233.216 85.5744 232.936 84.9184 232.376C84.2784 231.816 83.9584 231.008 83.9584 229.952V228.68C83.9584 227.768 84.2384 227.064 84.7984 226.568C85.3744 226.056 86.1744 225.8 87.1984 225.8H92.0704V224.768C92.0704 224.048 91.9024 223.536 91.5664 223.232C91.2464 222.912 90.6224 222.752 89.6944 222.752C89.0864 222.752 88.3184 222.784 87.3904 222.848C86.4784 222.912 85.5744 222.984 84.6784 223.064L84.4864 221.552C85.2864 221.424 86.2064 221.304 87.2464 221.192C88.2864 221.08 89.2464 221.024 90.1264 221.024ZM87.8704 231.464C88.4464 231.48 89.1184 231.344 89.8864 231.056C90.6544 230.768 91.3824 230.32 92.0704 229.712V227.336L87.5584 227.36C86.9984 227.376 86.6064 227.528 86.3824 227.816C86.1584 228.088 86.0464 228.472 86.0464 228.968V229.712C86.0464 230.32 86.1904 230.768 86.4784 231.056C86.7664 231.328 87.2304 231.464 87.8704 231.464ZM102.722 221.024C104.066 221.024 105.138 221.224 105.938 221.624C106.754 222.024 107.338 222.68 107.69 223.592C108.042 224.488 108.218 225.68 108.218 227.168C108.218 228.656 108.042 229.856 107.69 230.768C107.338 231.664 106.754 232.312 105.938 232.712C105.138 233.112 104.066 233.312 102.722 233.312C101.394 233.312 100.322 233.112 99.5063 232.712C98.7063 232.312 98.1223 231.664 97.7543 230.768C97.4023 229.856 97.2263 228.656 97.2263 227.168C97.2263 225.68 97.4023 224.488 97.7543 223.592C98.1223 222.68 98.7063 222.024 99.5063 221.624C100.322 221.224 101.394 221.024 102.722 221.024ZM102.722 222.752C101.874 222.752 101.202 222.888 100.706 223.16C100.226 223.416 99.8823 223.864 99.6743 224.504C99.4663 225.144 99.3623 226.032 99.3623 227.168C99.3623 228.304 99.4663 229.192 99.6743 229.832C99.8823 230.472 100.226 230.928 100.706 231.2C101.202 231.456 101.874 231.584 102.722 231.584C103.57 231.584 104.242 231.456 104.738 231.2C105.234 230.928 105.586 230.472 105.794 229.832C106.002 229.192 106.106 228.304 106.106 227.168C106.106 226.032 106.002 225.144 105.794 224.504C105.586 223.864 105.234 223.416 104.738 223.16C104.242 222.888 103.57 222.752 102.722 222.752ZM121.755 221.024C122.267 221.024 122.875 221.064 123.579 221.144C124.299 221.208 124.947 221.352 125.523 221.576L125.259 222.896C124.731 222.848 124.171 222.816 123.579 222.8C123.003 222.768 122.507 222.752 122.091 222.752C121.163 222.752 120.427 222.88 119.883 223.136C119.339 223.392 118.947 223.84 118.707 224.48C118.467 225.12 118.347 226.008 118.347 227.144C118.347 228.28 118.467 229.176 118.707 229.832C118.947 230.472 119.339 230.92 119.883 231.176C120.427 231.432 121.163 231.56 122.091 231.56C122.443 231.56 122.955 231.544 123.627 231.512C124.299 231.48 124.931 231.416 125.523 231.32L125.739 232.688C125.147 232.896 124.499 233.048 123.795 233.144C123.107 233.24 122.419 233.288 121.731 233.288C120.387 233.288 119.307 233.088 118.491 232.688C117.675 232.288 117.083 231.64 116.715 230.744C116.363 229.848 116.187 228.648 116.187 227.144C116.187 225.64 116.371 224.44 116.739 223.544C117.107 222.648 117.699 222.008 118.515 221.624C119.331 221.224 120.411 221.024 121.755 221.024ZM133.261 221.024C134.605 221.024 135.677 221.224 136.477 221.624C137.293 222.024 137.877 222.68 138.229 223.592C138.581 224.488 138.757 225.68 138.757 227.168C138.757 228.656 138.581 229.856 138.229 230.768C137.877 231.664 137.293 232.312 136.477 232.712C135.677 233.112 134.605 233.312 133.261 233.312C131.933 233.312 130.861 233.112 130.045 232.712C129.245 232.312 128.661 231.664 128.293 230.768C127.941 229.856 127.765 228.656 127.765 227.168C127.765 225.68 127.941 224.488 128.293 223.592C128.661 222.68 129.245 222.024 130.045 221.624C130.861 221.224 131.933 221.024 133.261 221.024ZM133.261 222.752C132.413 222.752 131.741 222.888 131.245 223.16C130.765 223.416 130.421 223.864 130.213 224.504C130.005 225.144 129.901 226.032 129.901 227.168C129.901 228.304 130.005 229.192 130.213 229.832C130.421 230.472 130.765 230.928 131.245 231.2C131.741 231.456 132.413 231.584 133.261 231.584C134.109 231.584 134.781 231.456 135.277 231.2C135.773 230.928 136.125 230.472 136.333 229.832C136.541 229.192 136.645 228.304 136.645 227.168C136.645 226.032 136.541 225.144 136.333 224.504C136.125 223.864 135.773 223.416 135.277 223.16C134.781 222.888 134.109 222.752 133.261 222.752ZM143.686 221.312L143.83 223.16C144.71 222.472 145.582 221.944 146.446 221.576C147.326 221.208 148.198 221.024 149.062 221.024C151.174 221.024 152.23 222.096 152.23 224.24V233H150.19V224.816C150.19 224.032 150.062 223.496 149.806 223.208C149.55 222.904 149.118 222.752 148.51 222.752C147.822 222.752 147.126 222.92 146.422 223.256C145.734 223.576 144.926 224.016 143.998 224.576V233H141.958V221.312H143.686ZM159.791 221.024C160.559 221.04 161.391 221.08 162.287 221.144C163.183 221.192 163.991 221.272 164.711 221.384L164.543 222.872C163.807 222.84 163.063 222.816 162.311 222.8C161.575 222.768 160.839 222.752 160.103 222.752C159.383 222.736 158.815 222.752 158.399 222.8C157.983 222.848 157.679 222.976 157.487 223.184C157.311 223.392 157.223 223.744 157.223 224.24C157.223 224.848 157.367 225.248 157.655 225.44C157.943 225.632 158.367 225.792 158.927 225.92L162.335 226.688C163.263 226.912 163.943 227.256 164.375 227.72C164.823 228.184 165.047 228.912 165.047 229.904C165.047 230.864 164.863 231.584 164.495 232.064C164.143 232.544 163.599 232.864 162.863 233.024C162.127 233.184 161.191 233.264 160.055 233.264C159.639 233.264 159.015 233.248 158.183 233.216C157.367 233.184 156.463 233.088 155.471 232.928L155.615 231.44C156.191 231.472 156.815 231.504 157.487 231.536C158.175 231.552 158.895 231.552 159.647 231.536C160.527 231.536 161.215 231.496 161.711 231.416C162.207 231.336 162.559 231.184 162.767 230.96C162.975 230.72 163.079 230.368 163.079 229.904C163.079 229.328 162.911 228.944 162.575 228.752C162.239 228.56 161.791 228.4 161.231 228.272L157.871 227.504C156.927 227.28 156.247 226.92 155.831 226.424C155.431 225.928 155.231 225.2 155.231 224.24C155.231 223.328 155.391 222.64 155.711 222.176C156.031 221.712 156.527 221.4 157.199 221.24C157.871 221.08 158.735 221.008 159.791 221.024ZM170.059 221.312V229.52C170.043 230.256 170.179 230.776 170.467 231.08C170.755 231.384 171.235 231.536 171.907 231.536C172.531 231.536 173.155 231.4 173.779 231.128C174.403 230.84 175.139 230.416 175.987 229.856V221.312H178.027V233H176.395L176.251 231.296C175.371 231.968 174.523 232.472 173.707 232.808C172.891 233.144 172.059 233.312 171.211 233.312C169.083 233.312 168.019 232.24 168.019 230.096V221.312H170.059ZM183.458 221.312L183.578 223.16C184.394 222.456 185.186 221.928 185.954 221.576C186.738 221.208 187.538 221.024 188.354 221.024C189.986 221.024 190.97 221.72 191.306 223.112C192.906 221.72 194.474 221.024 196.01 221.024C197.018 221.024 197.786 221.296 198.314 221.84C198.858 222.384 199.13 223.184 199.13 224.24V233H197.114V224.816C197.098 224.096 196.954 223.576 196.682 223.256C196.41 222.92 195.946 222.752 195.29 222.752C194.682 222.752 194.106 222.896 193.562 223.184C193.034 223.472 192.33 223.928 191.45 224.552V233H189.482V224.816C189.482 224.064 189.33 223.536 189.026 223.232C188.722 222.912 188.266 222.752 187.658 222.752C187.066 222.752 186.498 222.896 185.954 223.184C185.426 223.456 184.714 223.912 183.818 224.552V233H181.778V221.312H183.458ZM207.746 221.024C209.09 221.024 210.162 221.224 210.962 221.624C211.778 222.024 212.362 222.68 212.714 223.592C213.066 224.488 213.242 225.68 213.242 227.168C213.242 228.656 213.066 229.856 212.714 230.768C212.362 231.664 211.778 232.312 210.962 232.712C210.162 233.112 209.09 233.312 207.746 233.312C206.418 233.312 205.346 233.112 204.53 232.712C203.73 232.312 203.146 231.664 202.778 230.768C202.426 229.856 202.25 228.656 202.25 227.168C202.25 225.68 202.426 224.488 202.778 223.592C203.146 222.68 203.73 222.024 204.53 221.624C205.346 221.224 206.418 221.024 207.746 221.024ZM207.746 222.752C206.898 222.752 206.226 222.888 205.73 223.16C205.25 223.416 204.906 223.864 204.698 224.504C204.49 225.144 204.386 226.032 204.386 227.168C204.386 228.304 204.49 229.192 204.698 229.832C204.906 230.472 205.25 230.928 205.73 231.2C206.226 231.456 206.898 231.584 207.746 231.584C208.594 231.584 209.266 231.456 209.762 231.2C210.258 230.928 210.61 230.472 210.818 229.832C211.026 229.192 211.13 228.304 211.13 227.168C211.13 226.032 211.026 225.144 210.818 224.504C210.61 223.864 210.258 223.416 209.762 223.16C209.266 222.888 208.594 222.752 207.746 222.752ZM226.778 221.024C227.29 221.024 227.898 221.064 228.602 221.144C229.322 221.208 229.97 221.352 230.546 221.576L230.282 222.896C229.754 222.848 229.194 222.816 228.602 222.8C228.026 222.768 227.53 222.752 227.114 222.752C226.186 222.752 225.45 222.88 224.906 223.136C224.362 223.392 223.97 223.84 223.73 224.48C223.49 225.12 223.37 226.008 223.37 227.144C223.37 228.28 223.49 229.176 223.73 229.832C223.97 230.472 224.362 230.92 224.906 231.176C225.45 231.432 226.186 231.56 227.114 231.56C227.466 231.56 227.978 231.544 228.65 231.512C229.322 231.48 229.954 231.416 230.546 231.32L230.762 232.688C230.17 232.896 229.522 233.048 228.818 233.144C228.13 233.24 227.442 233.288 226.754 233.288C225.41 233.288 224.33 233.088 223.514 232.688C222.698 232.288 222.106 231.64 221.738 230.744C221.386 229.848 221.21 228.648 221.21 227.144C221.21 225.64 221.394 224.44 221.762 223.544C222.13 222.648 222.722 222.008 223.538 221.624C224.354 221.224 225.434 221.024 226.778 221.024ZM239.048 221.024C240.344 221.024 241.336 221.296 242.024 221.84C242.712 222.368 243.056 223.344 243.056 224.768V233H241.448L241.208 231.056C240.904 231.376 240.512 231.704 240.032 232.04C239.552 232.36 239 232.64 238.376 232.88C237.768 233.104 237.104 233.216 236.384 233.216C235.344 233.216 234.496 232.936 233.84 232.376C233.2 231.816 232.88 231.008 232.88 229.952V228.68C232.88 227.768 233.16 227.064 233.72 226.568C234.296 226.056 235.096 225.8 236.12 225.8H240.992V224.768C240.992 224.048 240.824 223.536 240.488 223.232C240.168 222.912 239.544 222.752 238.616 222.752C238.008 222.752 237.24 222.784 236.312 222.848C235.4 222.912 234.496 222.984 233.6 223.064L233.408 221.552C234.208 221.424 235.128 221.304 236.168 221.192C237.208 221.08 238.168 221.024 239.048 221.024ZM236.792 231.464C237.368 231.48 238.04 231.344 238.808 231.056C239.576 230.768 240.304 230.32 240.992 229.712V227.336L236.48 227.36C235.92 227.376 235.528 227.528 235.304 227.816C235.08 228.088 234.968 228.472 234.968 228.968V229.712C234.968 230.32 235.112 230.768 235.4 231.056C235.688 231.328 236.152 231.464 236.792 231.464ZM248.764 216.2L248.74 229.784C248.74 230.824 249.276 231.344 250.348 231.344H251.476L251.716 232.904C251.492 233.016 251.148 233.096 250.684 233.144C250.236 233.192 249.868 233.216 249.58 233.216C248.716 233.216 248.02 232.96 247.492 232.448C246.98 231.936 246.724 231.2 246.724 230.24V216.2H248.764ZM258.769 221.024C260.113 221.024 261.185 221.224 261.985 221.624C262.801 222.024 263.385 222.68 263.737 223.592C264.089 224.488 264.265 225.68 264.265 227.168C264.265 228.656 264.089 229.856 263.737 230.768C263.385 231.664 262.801 232.312 261.985 232.712C261.185 233.112 260.113 233.312 258.769 233.312C257.441 233.312 256.369 233.112 255.553 232.712C254.753 232.312 254.169 231.664 253.801 230.768C253.449 229.856 253.273 228.656 253.273 227.168C253.273 225.68 253.449 224.488 253.801 223.592C254.169 222.68 254.753 222.024 255.553 221.624C256.369 221.224 257.441 221.024 258.769 221.024ZM258.769 222.752C257.921 222.752 257.249 222.888 256.753 223.16C256.273 223.416 255.929 223.864 255.721 224.504C255.513 225.144 255.409 226.032 255.409 227.168C255.409 228.304 255.513 229.192 255.721 229.832C255.929 230.472 256.273 230.928 256.753 231.2C257.249 231.456 257.921 231.584 258.769 231.584C259.617 231.584 260.289 231.456 260.785 231.2C261.281 230.928 261.633 230.472 261.841 229.832C262.049 229.192 262.153 228.304 262.153 227.168C262.153 226.032 262.049 225.144 261.841 224.504C261.633 223.864 261.281 223.416 260.785 223.16C260.289 222.888 259.617 222.752 258.769 222.752ZM261.217 215.312L262.393 216.896L257.785 219.776L257.089 218.84L261.217 215.312ZM269.05 221.312L269.266 223.16C270.114 222.488 270.954 221.968 271.786 221.6C272.634 221.216 273.458 221.024 274.258 221.024H274.786L274.546 222.944H273.874C273.218 222.944 272.554 223.08 271.882 223.352C271.226 223.608 270.434 223.968 269.506 224.432V233H267.466V221.312H269.05ZM278.683 216.344C279.099 216.344 279.307 216.552 279.307 216.968V218.336C279.307 218.752 279.099 218.96 278.683 218.96H277.723C277.307 218.96 277.099 218.752 277.099 218.336V216.968C277.099 216.552 277.307 216.344 277.723 216.344H278.683ZM279.211 221.312V233H277.195V221.312H279.211ZM288.044 221.024C288.556 221.024 289.164 221.064 289.868 221.144C290.588 221.208 291.236 221.352 291.812 221.576L291.548 222.896C291.02 222.848 290.46 222.816 289.868 222.8C289.292 222.768 288.796 222.752 288.38 222.752C287.452 222.752 286.716 222.88 286.172 223.136C285.628 223.392 285.236 223.84 284.996 224.48C284.756 225.12 284.636 226.008 284.636 227.144C284.636 228.28 284.756 229.176 284.996 229.832C285.236 230.472 285.628 230.92 286.172 231.176C286.716 231.432 287.452 231.56 288.38 231.56C288.732 231.56 289.244 231.544 289.916 231.512C290.588 231.48 291.22 231.416 291.812 231.32L292.028 232.688C291.436 232.896 290.788 233.048 290.084 233.144C289.396 233.24 288.708 233.288 288.02 233.288C286.676 233.288 285.596 233.088 284.78 232.688C283.964 232.288 283.372 231.64 283.004 230.744C282.652 229.848 282.476 228.648 282.476 227.144C282.476 225.64 282.66 224.44 283.028 223.544C283.396 222.648 283.988 222.008 284.804 221.624C285.62 221.224 286.7 221.024 288.044 221.024ZM299.55 221.024C300.894 221.024 301.966 221.224 302.766 221.624C303.582 222.024 304.166 222.68 304.518 223.592C304.87 224.488 305.046 225.68 305.046 227.168C305.046 228.656 304.87 229.856 304.518 230.768C304.166 231.664 303.582 232.312 302.766 232.712C301.966 233.112 300.894 233.312 299.55 233.312C298.222 233.312 297.15 233.112 296.334 232.712C295.534 232.312 294.95 231.664 294.582 230.768C294.23 229.856 294.054 228.656 294.054 227.168C294.054 225.68 294.23 224.488 294.582 223.592C294.95 222.68 295.534 222.024 296.334 221.624C297.15 221.224 298.222 221.024 299.55 221.024ZM299.55 222.752C298.702 222.752 298.03 222.888 297.534 223.16C297.054 223.416 296.71 223.864 296.502 224.504C296.294 225.144 296.19 226.032 296.19 227.168C296.19 228.304 296.294 229.192 296.502 229.832C296.71 230.472 297.054 230.928 297.534 231.2C298.03 231.456 298.702 231.584 299.55 231.584C300.398 231.584 301.07 231.456 301.566 231.2C302.062 230.928 302.414 230.472 302.622 229.832C302.83 229.192 302.934 228.304 302.934 227.168C302.934 226.032 302.83 225.144 302.622 224.504C302.414 223.864 302.062 223.416 301.566 223.16C301.07 222.888 300.398 222.752 299.55 222.752ZM309.447 230.168C309.735 230.168 309.935 230.224 310.047 230.336C310.159 230.448 310.215 230.648 310.215 230.936V232.232C310.215 232.52 310.159 232.72 310.047 232.832C309.935 232.944 309.735 233 309.447 233H308.775C308.503 233 308.303 232.944 308.175 232.832C308.063 232.72 308.007 232.52 308.007 232.232V230.936C308.007 230.648 308.063 230.448 308.175 230.336C308.303 230.224 308.503 230.168 308.775 230.168H309.447Z" fill="black"/>
<path d="M108.652 46.9794C108.844 48.6283 108.958 50.3 108.99 51.9912L108.49 52.0008C108.497 52.3331 108.5 52.6662 108.5 53C108.5 53.3338 108.497 53.6669 108.49 53.9992L108.99 54.0088C108.958 55.7 108.844 57.3717 108.652 59.0206L108.156 58.9628C108.079 59.6237 107.989 60.2808 107.887 60.934L108.381 61.011C108.122 62.6783 107.782 64.3201 107.366 65.9325L106.882 65.8077C106.716 66.452 106.537 67.0916 106.347 67.7262L106.826 67.8699C106.342 69.4817 105.782 71.0618 105.149 72.6061L104.687 72.4165C104.435 73.0314 104.171 73.6406 103.896 74.2438L104.351 74.4511C103.655 75.9792 102.887 77.4694 102.05 78.9174L101.617 78.6673C101.285 79.2424 100.942 79.8107 100.589 80.3722L101.012 80.6386C100.119 82.0573 99.1585 83.4321 98.1359 84.7587L97.7399 84.4534C97.3346 84.9792 96.9194 85.4974 96.4945 86.0077L96.8788 86.3276C95.8074 87.6143 94.6754 88.8513 93.4868 90.0344L93.1341 89.68C92.6638 90.1482 92.1846 90.6078 91.6967 91.0587L92.036 91.4259C90.8077 92.561 89.525 93.6409 88.1922 94.6617L87.8882 94.2648C87.3615 94.6682 86.8268 95.0622 86.2845 95.4467L86.5737 95.8546C85.2108 96.8209 83.8001 97.7272 82.3456 98.5696L82.095 98.1369C81.521 98.4693 80.9402 98.7917 80.3527 99.1037L80.5872 99.5453C79.1137 100.328 77.5989 101.046 76.0469 101.697L75.8537 101.236C75.2426 101.492 74.6258 101.737 74.0033 101.971L74.1796 102.439C72.6205 103.027 71.0267 103.546 69.4021 103.994L69.2691 103.512C68.6304 103.689 67.9869 103.854 67.3388 104.007L67.4542 104.494C65.8355 104.878 64.1884 105.191 62.5167 105.431L62.4457 104.936C61.7906 105.03 61.1317 105.112 60.4692 105.183L60.5223 105.68C58.8722 105.856 57.2 105.961 55.5089 105.991L55.5001 105.491C55.1675 105.497 54.8341 105.5 54.5 105.5C54.1659 105.5 53.8325 105.497 53.4999 105.491L53.4911 105.991C51.8 105.961 50.1278 105.856 48.4777 105.68L48.5308 105.183C47.8683 105.112 47.2093 105.03 46.5543 104.936L46.4833 105.431C44.8116 105.191 43.1645 104.878 41.5458 104.494L41.6612 104.007C41.0131 103.854 40.3696 103.689 39.7309 103.512L39.5979 103.994C37.9733 103.546 36.3795 103.027 34.8204 102.439L34.9967 101.971C34.3742 101.737 33.7574 101.492 33.1463 101.236L32.9531 101.697C31.4011 101.046 29.8863 100.328 28.4128 99.5453L28.6473 99.1037C28.0598 98.7917 27.479 98.4693 26.905 98.1369L26.6544 98.5696C25.1999 97.7272 23.7892 96.8209 22.4263 95.8546L22.7155 95.4467C22.1732 95.0622 21.6385 94.6682 21.1118 94.2647L20.8078 94.6617C19.475 93.6409 18.1923 92.561 16.964 91.4259L17.3033 91.0587C16.8154 90.6078 16.3362 90.1482 15.8659 89.68L15.5132 90.0344C14.3246 88.8513 13.1926 87.6143 12.1212 86.3276L12.5055 86.0077C12.0806 85.4974 11.6654 84.9792 11.2601 84.4534L10.8641 84.7587C9.84155 83.4321 8.88146 82.0573 7.98809 80.6386L8.4112 80.3722C8.05768 79.8107 7.71472 79.2424 7.38259 78.6673L6.94962 78.9174C6.11327 77.4694 5.34483 75.9792 4.64851 74.4511L5.1035 74.2438C4.82863 73.6406 4.56512 73.0314 4.31322 72.4165L3.85054 72.6061C3.21787 71.0618 2.65773 69.4817 2.1742 67.8699L2.65311 67.7262C2.46273 67.0916 2.28435 66.452 2.11821 65.8077L1.63405 65.9325C1.21827 64.3201 0.878451 62.6783 0.61851 61.011L1.11254 60.934C1.01071 60.2808 0.921256 59.6237 0.844419 58.9628L0.347765 59.0206C0.156054 57.3717 0.0421392 55.7 0.00967549 54.0088L0.509583 53.9992C0.503204 53.6669 0.5 53.3338 0.5 53C0.5 52.6662 0.503204 52.3331 0.509584 52.0008L0.00967564 51.9912C0.0421396 50.3 0.156055 48.6283 0.347766 46.9794L0.84442 47.0372C0.921257 46.3763 1.01071 45.7192 1.11254 45.066L0.618512 44.989C0.878453 43.3217 1.21827 41.6799 1.63405 40.0674L2.11822 40.1923C2.28435 39.548 2.46274 38.9084 2.65311 38.2738L2.1742 38.1301C2.65773 36.5183 3.21787 34.9382 3.85054 33.3939L4.31322 33.5835C4.56512 32.9686 4.82863 32.3594 5.1035 31.7562L4.64851 31.5489C5.34483 30.0208 6.11327 28.5306 6.94962 27.0826L7.38259 27.3327C7.71473 26.7576 8.05769 26.1893 8.4112 25.6278L7.98809 25.3614C8.88146 23.9427 9.84155 22.5679 10.8641 21.2413L11.2601 21.5466C11.6654 21.0208 12.0806 20.5026 12.5055 19.9923L12.1212 19.6724C13.1926 18.3857 14.3246 17.1487 15.5132 15.9656L15.8659 16.32C16.3362 15.8518 16.8154 15.3922 17.3033 14.9413L16.964 14.5741C18.1923 13.439 19.475 12.3591 20.8078 11.3383L21.1118 11.7352C21.6385 11.3318 22.1732 10.9378 22.7155 10.5533L22.4263 10.1454C23.7892 9.17909 25.1999 8.27278 26.6544 7.43044L26.905 7.86312C27.479 7.5307 28.0598 7.20833 28.6473 6.89627L28.4128 6.4547C29.8863 5.67202 31.4011 4.95358 32.9531 4.30326L33.1463 4.76442C33.7574 4.50839 34.3742 4.26302 34.9967 4.02854L34.8204 3.56063C36.3795 2.97332 37.9733 2.45375 39.5979 2.00562L39.7309 2.48762C40.3696 2.31146 41.0131 2.14643 41.6612 1.99278L41.5458 1.50626C43.1645 1.12249 44.8116 0.809011 46.4833 0.569351L46.5543 1.06429C47.2094 0.970378 47.8683 0.8879 48.5308 0.817073L48.4777 0.319906C50.1278 0.143513 51.8 0.0387556 53.4911 0.00889973L53.4999 0.508822C53.8325 0.502949 54.1659 0.5 54.5 0.5C54.8341 0.5 55.1675 0.502949 55.5001 0.508822L55.5089 0.00889986C57.2 0.038756 58.8722 0.143514 60.5223 0.319906L60.4692 0.817074C61.1317 0.8879 61.7907 0.970378 62.4457 1.06429L62.5167 0.569351C64.1884 0.809011 65.8355 1.12249 67.4542 1.50626L67.3388 1.99278C67.9869 2.14643 68.6304 2.31146 69.2691 2.48762L69.4021 2.00562C71.0267 2.45375 72.6205 2.97333 74.1796 3.56063L74.0033 4.02854C74.6258 4.26302 75.2426 4.50839 75.8537 4.76442L76.0469 4.30327C77.5989 4.95358 79.1137 5.67202 80.5872 6.4547L80.3527 6.89627C80.9402 7.20833 81.521 7.5307 82.095 7.86312L82.3456 7.43044C83.8001 8.27278 85.2108 9.17909 86.5737 10.1454L86.2845 10.5533C86.8268 10.9378 87.3615 11.3318 87.8882 11.7352L88.1922 11.3383C89.525 12.3591 90.8077 13.439 92.036 14.5741L91.6967 14.9413C92.1846 15.3922 92.6638 15.8518 93.1341 16.32L93.4868 15.9656C94.6754 17.1487 95.8074 18.3857 96.8788 19.6724L96.4945 19.9923C96.9194 20.5026 97.3346 21.0208 97.7399 21.5466L98.1359 21.2413C99.1585 22.5679 100.119 23.9427 101.012 25.3614L100.589 25.6278C100.942 26.1893 101.285 26.7576 101.617 27.3327L102.05 27.0826C102.887 28.5306 103.655 30.0208 104.351 31.5489L103.896 31.7562C104.171 32.3594 104.435 32.9686 104.687 33.5835L105.149 33.3939C105.782 34.9382 106.342 36.5183 106.826 38.1301L106.347 38.2738C106.537 38.9084 106.716 39.548 106.882 40.1923L107.366 40.0675C107.782 41.6799 108.122 43.3217 108.381 44.989L107.887 45.066C107.989 45.7192 108.079 46.3763 108.156 47.0372L108.652 46.9794Z" stroke="black" stroke-dasharray="2 5"/>
<path d="M98.9043 49.9593C98.9434 50.5788 98.9707 51.2016 98.9858 51.8275L98.486 51.8396C98.4953 52.2252 98.5 52.612 98.5 53C98.5 53.388 98.4953 53.7748 98.486 54.1604L98.9858 54.1725C98.9477 55.7476 98.833 57.3029 98.6454 58.8348L98.1491 58.774C98.0739 59.3886 97.9868 59.9993 97.888 60.6059L98.3815 60.6862C98.2558 61.4589 98.1115 62.225 97.9489 62.984L97.46 62.8794C97.1347 64.399 96.7359 65.89 96.2677 67.3482L96.7438 67.501C96.5527 68.0961 96.3502 68.6858 96.1365 69.2698L95.6669 69.098C95.4012 69.8244 95.118 70.5418 94.8178 71.2498L95.2782 71.445C94.6667 72.8875 93.9856 74.2914 93.2394 75.6521L92.801 75.4117C92.5039 75.9534 92.1964 76.4882 91.8788 77.0157L92.3071 77.2736C91.9043 77.9427 91.4853 78.6002 91.0507 79.2458L90.6359 78.9665C89.7721 80.2496 88.846 81.4845 87.8621 82.6665L88.2464 82.9864C87.8472 83.4661 87.4385 83.9372 87.0207 84.3994L86.6498 84.0641C86.1323 84.6365 85.6007 85.1952 85.0555 85.7394L85.4088 86.0932C84.3041 87.1959 83.1444 88.2401 81.9342 89.2209L81.6194 88.8324C81.1403 89.2207 80.6532 89.599 80.1584 89.9669L80.4568 90.3681C79.8313 90.8332 79.1937 91.2819 78.5445 91.7136L78.2676 91.2973C76.9855 92.15 75.6578 92.9356 74.2893 93.6495L74.5205 94.0928C73.9682 94.3809 73.4092 94.6575 72.844 94.9222L72.6319 94.4694C71.9352 94.7957 71.2288 95.1037 70.5133 95.393L70.7006 95.8565C69.2615 96.4383 67.7859 96.9448 66.2783 97.3715L66.1422 96.8904C65.5506 97.0577 64.9542 97.2127 64.353 97.3549L64.4681 97.8415C63.7122 98.0203 62.949 98.1792 62.179 98.3176L62.0905 97.8255C60.5871 98.0959 59.0574 98.2873 57.5055 98.3955L57.5402 98.8943C56.921 98.9375 56.2983 98.9676 55.6724 98.9843L55.659 98.4845C55.2739 98.4948 54.8875 98.5 54.5 98.5C54.1125 98.5 53.7261 98.4948 53.341 98.4845L53.3276 98.9843C51.7529 98.9422 50.1985 98.8156 48.6686 98.6086L48.7357 98.1131C48.1229 98.0302 47.514 97.9342 46.9095 97.8255L46.821 98.3176C46.051 98.1792 45.2878 98.0203 44.5319 97.8415L44.647 97.3549C43.1389 96.9981 41.6602 96.5612 40.2155 96.0487L40.0483 96.5199C39.4597 96.3111 38.8766 96.0899 38.2994 95.8565L38.4867 95.393C37.7712 95.1037 37.0648 94.7957 36.3681 94.4694L36.156 94.9222C34.7412 94.2596 33.3658 93.5227 32.0346 92.7164L32.2937 92.2887C31.7661 91.9692 31.2456 91.6386 30.7324 91.2973L30.4555 91.7136C29.8063 91.2819 29.1687 90.8332 28.5432 90.3681L28.8416 89.9669C27.605 89.0475 26.4164 88.0633 25.2804 87.0191L24.942 87.3872C24.4832 86.9654 24.0328 86.534 23.5912 86.0932L23.9445 85.7394C23.3993 85.1952 22.8677 84.6365 22.3502 84.0641L21.9793 84.3994C20.9363 83.2455 19.95 82.036 19.0251 80.7758L19.4282 80.48C19.0638 79.9834 18.709 79.4788 18.3641 78.9665L17.9493 79.2458C17.5147 78.6003 17.0957 77.9427 16.6929 77.2736L17.1212 77.0157C16.329 75.7 15.5999 74.3393 14.9383 72.9383L14.4862 73.1518C14.2205 72.5892 13.9656 72.0201 13.7218 71.445L14.1822 71.2498C13.882 70.5418 13.5988 69.8244 13.3331 69.098L12.8635 69.2698C12.3313 67.8151 11.8683 66.3251 11.4788 64.8043L11.9632 64.6802C11.8106 64.0846 11.6695 63.4843 11.54 62.8794L11.0511 62.9841C10.8886 62.225 10.7442 61.4589 10.6185 60.6862L11.112 60.6059C10.8665 59.0977 10.6928 57.5641 10.5947 56.0092L10.0957 56.0407C10.0566 55.4212 10.0293 54.7984 10.0142 54.1725L10.514 54.1604C10.5047 53.7748 10.5 53.388 10.5 53C10.5 52.612 10.5047 52.2252 10.514 51.8396L10.0142 51.8275C10.0523 50.2524 10.167 48.6971 10.3546 47.1652L10.8509 47.226C10.9261 46.6114 11.0132 46.0007 11.112 45.3941L10.6185 45.3138C10.7442 44.5411 10.8885 43.775 11.0511 43.016L11.54 43.1206C11.8653 41.601 12.2641 40.11 12.7323 38.6518L12.2562 38.499C12.4473 37.9039 12.6498 37.3142 12.8635 36.7302L13.3331 36.902C13.5988 36.1757 13.882 35.4582 14.1822 34.7502L13.7218 34.555C14.3333 33.1125 15.0144 31.7086 15.7606 30.3479L16.199 30.5883C16.4961 30.0466 16.8036 29.5118 17.1212 28.9843L16.6929 28.7264C17.0957 28.0573 17.5147 27.3998 17.9493 26.7543L18.3641 27.0335C19.2279 25.7504 20.154 24.5155 21.1379 23.3335L20.7536 23.0136C21.1528 22.5339 21.5615 22.0628 21.9793 21.6006L22.3502 21.9359C22.8677 21.3635 23.3993 20.8048 23.9445 20.2606L23.5912 19.9068C24.6959 18.8041 25.8556 17.7599 27.0658 16.7791L27.3806 17.1676C27.8597 16.7793 28.3468 16.401 28.8416 16.0331L28.5432 15.6319C29.1687 15.1668 29.8063 14.7181 30.4555 14.2864L30.7324 14.7027C32.0145 13.85 33.3422 13.0644 34.7107 12.3505L34.4795 11.9072C35.0318 11.6191 35.5908 11.3425 36.156 11.0778L36.3681 11.5306C37.0648 11.2043 37.7712 10.8963 38.4867 10.607L38.2994 10.1435C39.7385 9.56171 41.2141 9.05518 42.7217 8.62854L42.8578 9.10965C43.4494 8.94225 44.0458 8.7873 44.647 8.64509L44.5319 8.15852C45.2878 7.97971 46.051 7.8208 46.821 7.68235L46.9095 8.17446C48.4129 7.90413 49.9426 7.71269 51.4945 7.60446L51.4598 7.10567C52.079 7.06248 52.7017 7.03239 53.3276 7.01565L53.341 7.51548C53.7261 7.50518 54.1125 7.5 54.5 7.5C54.8875 7.5 55.2739 7.50518 55.659 7.51548L55.6724 7.01565C57.2471 7.05775 58.8015 7.18441 60.3314 7.39141L60.2643 7.88689C60.8771 7.9698 61.486 8.06575 62.0905 8.17446L62.179 7.68235C62.949 7.8208 63.7122 7.97971 64.4681 8.15851L64.353 8.64509C65.8611 9.00186 67.3398 9.43878 68.7845 9.95131L68.9517 9.48008C69.5404 9.68891 70.1234 9.91014 70.7006 10.1435L70.5133 10.607C71.2288 10.8963 71.9352 11.2043 72.6319 11.5306L72.844 11.0778C74.2588 11.7404 75.6342 12.4773 76.9654 13.2836L76.7063 13.7113C77.2338 14.0308 77.7544 14.3614 78.2676 14.7027L78.5445 14.2864C79.1937 14.7181 79.8313 15.1668 80.4568 15.6319L80.1584 16.0331C81.395 16.9525 82.5836 17.9367 83.7196 18.9809L84.058 18.6128C84.5168 19.0346 84.9672 19.466 85.4088 19.9068L85.0555 20.2606C85.6007 20.8048 86.1323 21.3635 86.6498 21.9359L87.0207 21.6006C88.0638 22.7545 89.05 23.964 89.9749 25.2242L89.5718 25.52C89.9362 26.0166 90.291 26.5212 90.6359 27.0335L91.0507 26.7542C91.4853 27.3998 91.9043 28.0573 92.3071 28.7264L91.8788 28.9843C92.671 30.3 93.4001 31.6607 94.0617 33.0617L94.5138 32.8482C94.7795 33.4108 95.0344 33.9799 95.2782 34.555L94.8178 34.7502C95.118 35.4582 95.4012 36.1756 95.6669 36.902L96.1365 36.7302C96.6688 38.1849 97.1317 39.6749 97.5212 41.1957L97.0368 41.3198C97.1894 41.9154 97.3305 42.5157 97.46 43.1206L97.9489 43.0159C98.1115 43.775 98.2558 44.5411 98.3815 45.3138L97.888 45.3941C98.1335 46.9023 98.3072 48.4359 98.4053 49.9908L98.9043 49.9593Z" stroke="black" stroke-dasharray="2.5 2 5 2.5 2 5"/>
<path d="M69.1387 75H39.9004V69.1992L53.6992 54.4922C55.5938 52.4219 56.9902 50.6152 57.8887 49.0723C58.8066 47.5293 59.2656 46.0645 59.2656 44.6777C59.2656 42.7832 58.7871 41.2988 57.8301 40.2246C56.873 39.1309 55.5059 38.584 53.7285 38.584C51.8145 38.584 50.3008 39.248 49.1875 40.5762C48.0938 41.8848 47.5469 43.6133 47.5469 45.7617H39.0508C39.0508 43.1641 39.666 40.791 40.8965 38.6426C42.1465 36.4941 43.9043 34.8145 46.1699 33.6035C48.4355 32.373 51.0039 31.7578 53.875 31.7578C58.2695 31.7578 61.6777 32.8125 64.0996 34.9219C66.541 37.0312 67.7617 40.0098 67.7617 43.8574C67.7617 45.9668 67.2148 48.1152 66.1211 50.3027C65.0273 52.4902 63.1523 55.0391 60.4961 57.9492L50.7988 68.1738H69.1387V75Z" fill="#53CC89"/>
<path d="M179.004 197C140.954 197 110 168.96 110 134.5C110 100.04 140.954 72 179.004 72C217.05 72 248 100.04 248 134.5C248 168.96 217.05 197 179.004 197ZM179.004 77.4138C144.249 77.4138 115.977 103.021 115.977 134.5C115.977 165.979 144.253 191.586 179.004 191.586C213.755 191.586 242.023 165.976 242.023 134.5C242.023 103.024 213.755 77.4138 179.004 77.4138Z" fill="black"/>
<path d="M218 162.444L206.43 155.892V159.769H149.201V157.316L167.398 144.366L180.528 154.723L201.561 130.846L205.208 133.432L208.91 118.018L191.475 123.702L195.732 126.722L179.563 145.087L167.636 135.68L149.201 148.806V109.461H153.491L146.241 99L139 109.461H143.281V165.123H206.43V169L218 162.444Z" fill="black"/>
<path d="M8.568 216.44C9 216.44 9.264 216.632 9.36 217.016L14.688 233H12.504L10.872 227.816H4.056L2.424 233H0.24L5.568 217.016C5.664 216.632 5.928 216.44 6.36 216.44H8.568ZM6.72 219.416L4.632 225.992H10.296L8.208 219.416C8.144 219.192 8.072 218.968 7.992 218.744C7.928 218.504 7.864 218.28 7.8 218.072H7.128C7.064 218.28 7 218.504 6.936 218.744C6.872 218.968 6.8 219.192 6.72 219.416ZM21.7937 221.024C22.3057 221.024 22.9137 221.064 23.6177 221.144C24.3377 221.208 24.9857 221.352 25.5617 221.576L25.2977 222.896C24.7697 222.848 24.2097 222.816 23.6177 222.8C23.0417 222.768 22.5457 222.752 22.1297 222.752C21.2017 222.752 20.4657 222.88 19.9217 223.136C19.3777 223.392 18.9857 223.84 18.7457 224.48C18.5057 225.12 18.3857 226.008 18.3857 227.144C18.3857 228.28 18.5057 229.176 18.7457 229.832C18.9857 230.472 19.3777 230.92 19.9217 231.176C20.4657 231.432 21.2017 231.56 22.1297 231.56C22.4817 231.56 22.9937 231.544 23.6657 231.512C24.3377 231.48 24.9697 231.416 25.5617 231.32L25.7777 232.688C25.1857 232.896 24.5377 233.048 23.8337 233.144C23.1457 233.24 22.4577 233.288 21.7697 233.288C20.4257 233.288 19.3457 233.088 18.5297 232.688C17.7137 232.288 17.1217 231.64 16.7537 230.744C16.4017 229.848 16.2257 228.648 16.2257 227.144C16.2257 225.64 16.4097 224.44 16.7777 223.544C17.1457 222.648 17.7377 222.008 18.5537 221.624C19.3697 221.224 20.4497 221.024 21.7937 221.024ZM33.1564 221.024C34.9164 221.024 36.1884 221.344 36.9724 221.984C37.7724 222.624 38.1724 223.576 38.1724 224.84C38.1884 225.88 37.9724 226.696 37.5244 227.288C37.0764 227.864 36.3644 228.152 35.3884 228.152H29.9644C30.0284 229.08 30.1964 229.792 30.4684 230.288C30.7564 230.768 31.1564 231.104 31.6684 231.296C32.1804 231.472 32.8364 231.56 33.6364 231.56C34.2604 231.56 34.9404 231.536 35.6764 231.488C36.4284 231.424 37.1004 231.352 37.6924 231.272L37.9084 232.64C37.5404 232.784 37.0844 232.904 36.5404 233C36.0124 233.096 35.4604 233.168 34.8844 233.216C34.3244 233.264 33.8204 233.288 33.3724 233.288C32.0284 233.288 30.9484 233.088 30.1324 232.688C29.3164 232.272 28.7164 231.616 28.3324 230.72C27.9644 229.808 27.7804 228.608 27.7804 227.12C27.7804 225.584 27.9644 224.376 28.3324 223.496C28.7164 222.6 29.3004 221.968 30.0844 221.6C30.8844 221.216 31.9084 221.024 33.1564 221.024ZM33.2524 222.752C32.4364 222.752 31.7884 222.864 31.3084 223.088C30.8444 223.312 30.5004 223.704 30.2764 224.264C30.0684 224.808 29.9484 225.576 29.9164 226.568H34.8604C35.3884 226.568 35.7324 226.392 35.8924 226.04C36.0524 225.672 36.1324 225.272 36.1324 224.84C36.1164 224.088 35.8924 223.552 35.4604 223.232C35.0284 222.912 34.2924 222.752 33.2524 222.752ZM45.135 221.024C45.903 221.04 46.735 221.08 47.631 221.144C48.527 221.192 49.335 221.272 50.055 221.384L49.887 222.872C49.151 222.84 48.407 222.816 47.655 222.8C46.919 222.768 46.183 222.752 45.447 222.752C44.727 222.736 44.159 222.752 43.743 222.8C43.327 222.848 43.023 222.976 42.831 223.184C42.655 223.392 42.567 223.744 42.567 224.24C42.567 224.848 42.711 225.248 42.999 225.44C43.287 225.632 43.711 225.792 44.271 225.92L47.679 226.688C48.607 226.912 49.287 227.256 49.719 227.72C50.167 228.184 50.391 228.912 50.391 229.904C50.391 230.864 50.207 231.584 49.839 232.064C49.487 232.544 48.943 232.864 48.207 233.024C47.471 233.184 46.535 233.264 45.399 233.264C44.983 233.264 44.359 233.248 43.527 233.216C42.711 233.184 41.807 233.088 40.815 232.928L40.959 231.44C41.535 231.472 42.159 231.504 42.831 231.536C43.519 231.552 44.239 231.552 44.991 231.536C45.871 231.536 46.559 231.496 47.055 231.416C47.551 231.336 47.903 231.184 48.111 230.96C48.319 230.72 48.423 230.368 48.423 229.904C48.423 229.328 48.255 228.944 47.919 228.752C47.583 228.56 47.135 228.4 46.575 228.272L43.215 227.504C42.271 227.28 41.591 226.92 41.175 226.424C40.775 225.928 40.575 225.2 40.575 224.24C40.575 223.328 40.735 222.64 41.055 222.176C41.375 221.712 41.871 221.4 42.543 221.24C43.215 221.08 44.079 221.008 45.135 221.024ZM57.3225 221.024C58.0905 221.04 58.9225 221.08 59.8185 221.144C60.7145 221.192 61.5225 221.272 62.2425 221.384L62.0745 222.872C61.3385 222.84 60.5945 222.816 59.8425 222.8C59.1065 222.768 58.3705 222.752 57.6345 222.752C56.9145 222.736 56.3465 222.752 55.9305 222.8C55.5145 222.848 55.2105 222.976 55.0185 223.184C54.8425 223.392 54.7545 223.744 54.7545 224.24C54.7545 224.848 54.8985 225.248 55.1865 225.44C55.4745 225.632 55.8985 225.792 56.4585 225.92L59.8665 226.688C60.7945 226.912 61.4745 227.256 61.9065 227.72C62.3545 228.184 62.5785 228.912 62.5785 229.904C62.5785 230.864 62.3945 231.584 62.0265 232.064C61.6745 232.544 61.1305 232.864 60.3945 233.024C59.6585 233.184 58.7225 233.264 57.5865 233.264C57.1705 233.264 56.5465 233.248 55.7145 233.216C54.8985 233.184 53.9945 233.088 53.0025 232.928L53.1465 231.44C53.7225 231.472 54.3465 231.504 55.0185 231.536C55.7065 231.552 56.4265 231.552 57.1785 231.536C58.0585 231.536 58.7465 231.496 59.2425 231.416C59.7385 231.336 60.0905 231.184 60.2985 230.96C60.5065 230.72 60.6105 230.368 60.6105 229.904C60.6105 229.328 60.4425 228.944 60.1065 228.752C59.7705 228.56 59.3225 228.4 58.7625 228.272L55.4025 227.504C54.4585 227.28 53.7785 226.92 53.3625 226.424C52.9625 225.928 52.7625 225.2 52.7625 224.24C52.7625 223.328 52.9225 222.64 53.2425 222.176C53.5625 221.712 54.0585 221.4 54.7305 221.24C55.4025 221.08 56.2665 221.008 57.3225 221.024ZM70.566 221.024C71.91 221.024 72.982 221.224 73.782 221.624C74.598 222.024 75.182 222.68 75.534 223.592C75.886 224.488 76.062 225.68 76.062 227.168C76.062 228.656 75.886 229.856 75.534 230.768C75.182 231.664 74.598 232.312 73.782 232.712C72.982 233.112 71.91 233.312 70.566 233.312C69.238 233.312 68.166 233.112 67.35 232.712C66.55 232.312 65.966 231.664 65.598 230.768C65.246 229.856 65.07 228.656 65.07 227.168C65.07 225.68 65.246 224.488 65.598 223.592C65.966 222.68 66.55 222.024 67.35 221.624C68.166 221.224 69.238 221.024 70.566 221.024ZM70.566 222.752C69.718 222.752 69.046 222.888 68.55 223.16C68.07 223.416 67.726 223.864 67.518 224.504C67.31 225.144 67.206 226.032 67.206 227.168C67.206 228.304 67.31 229.192 67.518 229.832C67.726 230.472 68.07 230.928 68.55 231.2C69.046 231.456 69.718 231.584 70.566 231.584C71.414 231.584 72.086 231.456 72.582 231.2C73.078 230.928 73.43 230.472 73.638 229.832C73.846 229.192 73.95 228.304 73.95 227.168C73.95 226.032 73.846 225.144 73.638 224.504C73.43 223.864 73.078 223.416 72.582 223.16C72.086 222.888 71.414 222.752 70.566 222.752ZM90.1264 221.024C91.4224 221.024 92.4144 221.296 93.1024 221.84C93.7904 222.368 94.1344 223.344 94.1344 224.768V233H92.5264L92.2864 231.056C91.9824 231.376 91.5904 231.704 91.1104 232.04C90.6304 232.36 90.0784 232.64 89.4544 232.88C88.8464 233.104 88.1824 233.216 87.4624 233.216C86.4224 233.216 85.5744 232.936 84.9184 232.376C84.2784 231.816 83.9584 231.008 83.9584 229.952V228.68C83.9584 227.768 84.2384 227.064 84.7984 226.568C85.3744 226.056 86.1744 225.8 87.1984 225.8H92.0704V224.768C92.0704 224.048 91.9024 223.536 91.5664 223.232C91.2464 222.912 90.6224 222.752 89.6944 222.752C89.0864 222.752 88.3184 222.784 87.3904 222.848C86.4784 222.912 85.5744 222.984 84.6784 223.064L84.4864 221.552C85.2864 221.424 86.2064 221.304 87.2464 221.192C88.2864 221.08 89.2464 221.024 90.1264 221.024ZM87.8704 231.464C88.4464 231.48 89.1184 231.344 89.8864 231.056C90.6544 230.768 91.3824 230.32 92.0704 229.712V227.336L87.5584 227.36C86.9984 227.376 86.6064 227.528 86.3824 227.816C86.1584 228.088 86.0464 228.472 86.0464 228.968V229.712C86.0464 230.32 86.1904 230.768 86.4784 231.056C86.7664 231.328 87.2304 231.464 87.8704 231.464ZM102.722 221.024C104.066 221.024 105.138 221.224 105.938 221.624C106.754 222.024 107.338 222.68 107.69 223.592C108.042 224.488 108.218 225.68 108.218 227.168C108.218 228.656 108.042 229.856 107.69 230.768C107.338 231.664 106.754 232.312 105.938 232.712C105.138 233.112 104.066 233.312 102.722 233.312C101.394 233.312 100.322 233.112 99.5063 232.712C98.7063 232.312 98.1223 231.664 97.7543 230.768C97.4023 229.856 97.2263 228.656 97.2263 227.168C97.2263 225.68 97.4023 224.488 97.7543 223.592C98.1223 222.68 98.7063 222.024 99.5063 221.624C100.322 221.224 101.394 221.024 102.722 221.024ZM102.722 222.752C101.874 222.752 101.202 222.888 100.706 223.16C100.226 223.416 99.8823 223.864 99.6743 224.504C99.4663 225.144 99.3623 226.032 99.3623 227.168C99.3623 228.304 99.4663 229.192 99.6743 229.832C99.8823 230.472 100.226 230.928 100.706 231.2C101.202 231.456 101.874 231.584 102.722 231.584C103.57 231.584 104.242 231.456 104.738 231.2C105.234 230.928 105.586 230.472 105.794 229.832C106.002 229.192 106.106 228.304 106.106 227.168C106.106 226.032 106.002 225.144 105.794 224.504C105.586 223.864 105.234 223.416 104.738 223.16C104.242 222.888 103.57 222.752 102.722 222.752ZM121.755 221.024C122.267 221.024 122.875 221.064 123.579 221.144C124.299 221.208 124.947 221.352 125.523 221.576L125.259 222.896C124.731 222.848 124.171 222.816 123.579 222.8C123.003 222.768 122.507 222.752 122.091 222.752C121.163 222.752 120.427 222.88 119.883 223.136C119.339 223.392 118.947 223.84 118.707 224.48C118.467 225.12 118.347 226.008 118.347 227.144C118.347 228.28 118.467 229.176 118.707 229.832C118.947 230.472 119.339 230.92 119.883 231.176C120.427 231.432 121.163 231.56 122.091 231.56C122.443 231.56 122.955 231.544 123.627 231.512C124.299 231.48 124.931 231.416 125.523 231.32L125.739 232.688C125.147 232.896 124.499 233.048 123.795 233.144C123.107 233.24 122.419 233.288 121.731 233.288C120.387 233.288 119.307 233.088 118.491 232.688C117.675 232.288 117.083 231.64 116.715 230.744C116.363 229.848 116.187 228.648 116.187 227.144C116.187 225.64 116.371 224.44 116.739 223.544C117.107 222.648 117.699 222.008 118.515 221.624C119.331 221.224 120.411 221.024 121.755 221.024ZM133.261 221.024C134.605 221.024 135.677 221.224 136.477 221.624C137.293 222.024 137.877 222.68 138.229 223.592C138.581 224.488 138.757 225.68 138.757 227.168C138.757 228.656 138.581 229.856 138.229 230.768C137.877 231.664 137.293 232.312 136.477 232.712C135.677 233.112 134.605 233.312 133.261 233.312C131.933 233.312 130.861 233.112 130.045 232.712C129.245 232.312 128.661 231.664 128.293 230.768C127.941 229.856 127.765 228.656 127.765 227.168C127.765 225.68 127.941 224.488 128.293 223.592C128.661 222.68 129.245 222.024 130.045 221.624C130.861 221.224 131.933 221.024 133.261 221.024ZM133.261 222.752C132.413 222.752 131.741 222.888 131.245 223.16C130.765 223.416 130.421 223.864 130.213 224.504C130.005 225.144 129.901 226.032 129.901 227.168C129.901 228.304 130.005 229.192 130.213 229.832C130.421 230.472 130.765 230.928 131.245 231.2C131.741 231.456 132.413 231.584 133.261 231.584C134.109 231.584 134.781 231.456 135.277 231.2C135.773 230.928 136.125 230.472 136.333 229.832C136.541 229.192 136.645 228.304 136.645 227.168C136.645 226.032 136.541 225.144 136.333 224.504C136.125 223.864 135.773 223.416 135.277 223.16C134.781 222.888 134.109 222.752 133.261 222.752ZM143.686 221.312L143.83 223.16C144.71 222.472 145.582 221.944 146.446 221.576C147.326 221.208 148.198 221.024 149.062 221.024C151.174 221.024 152.23 222.096 152.23 224.24V233H150.19V224.816C150.19 224.032 150.062 223.496 149.806 223.208C149.55 222.904 149.118 222.752 148.51 222.752C147.822 222.752 147.126 222.92 146.422 223.256C145.734 223.576 144.926 224.016 143.998 224.576V233H141.958V221.312H143.686ZM159.791 221.024C160.559 221.04 161.391 221.08 162.287 221.144C163.183 221.192 163.991 221.272 164.711 221.384L164.543 222.872C163.807 222.84 163.063 222.816 162.311 222.8C161.575 222.768 160.839 222.752 160.103 222.752C159.383 222.736 158.815 222.752 158.399 222.8C157.983 222.848 157.679 222.976 157.487 223.184C157.311 223.392 157.223 223.744 157.223 224.24C157.223 224.848 157.367 225.248 157.655 225.44C157.943 225.632 158.367 225.792 158.927 225.92L162.335 226.688C163.263 226.912 163.943 227.256 164.375 227.72C164.823 228.184 165.047 228.912 165.047 229.904C165.047 230.864 164.863 231.584 164.495 232.064C164.143 232.544 163.599 232.864 162.863 233.024C162.127 233.184 161.191 233.264 160.055 233.264C159.639 233.264 159.015 233.248 158.183 233.216C157.367 233.184 156.463 233.088 155.471 232.928L155.615 231.44C156.191 231.472 156.815 231.504 157.487 231.536C158.175 231.552 158.895 231.552 159.647 231.536C160.527 231.536 161.215 231.496 161.711 231.416C162.207 231.336 162.559 231.184 162.767 230.96C162.975 230.72 163.079 230.368 163.079 229.904C163.079 229.328 162.911 228.944 162.575 228.752C162.239 228.56 161.791 228.4 161.231 228.272L157.871 227.504C156.927 227.28 156.247 226.92 155.831 226.424C155.431 225.928 155.231 225.2 155.231 224.24C155.231 223.328 155.391 222.64 155.711 222.176C156.031 221.712 156.527 221.4 157.199 221.24C157.871 221.08 158.735 221.008 159.791 221.024ZM170.059 221.312V229.52C170.043 230.256 170.179 230.776 170.467 231.08C170.755 231.384 171.235 231.536 171.907 231.536C172.531 231.536 173.155 231.4 173.779 231.128C174.403 230.84 175.139 230.416 175.987 229.856V221.312H178.027V233H176.395L176.251 231.296C175.371 231.968 174.523 232.472 173.707 232.808C172.891 233.144 172.059 233.312 171.211 233.312C169.083 233.312 168.019 232.24 168.019 230.096V221.312H170.059ZM183.458 221.312L183.578 223.16C184.394 222.456 185.186 221.928 185.954 221.576C186.738 221.208 187.538 221.024 188.354 221.024C189.986 221.024 190.97 221.72 191.306 223.112C192.906 221.72 194.474 221.024 196.01 221.024C197.018 221.024 197.786 221.296 198.314 221.84C198.858 222.384 199.13 223.184 199.13 224.24V233H197.114V224.816C197.098 224.096 196.954 223.576 196.682 223.256C196.41 222.92 195.946 222.752 195.29 222.752C194.682 222.752 194.106 222.896 193.562 223.184C193.034 223.472 192.33 223.928 191.45 224.552V233H189.482V224.816C189.482 224.064 189.33 223.536 189.026 223.232C188.722 222.912 188.266 222.752 187.658 222.752C187.066 222.752 186.498 222.896 185.954 223.184C185.426 223.456 184.714 223.912 183.818 224.552V233H181.778V221.312H183.458ZM207.746 221.024C209.09 221.024 210.162 221.224 210.962 221.624C211.778 222.024 212.362 222.68 212.714 223.592C213.066 224.488 213.242 225.68 213.242 227.168C213.242 228.656 213.066 229.856 212.714 230.768C212.362 231.664 211.778 232.312 210.962 232.712C210.162 233.112 209.09 233.312 207.746 233.312C206.418 233.312 205.346 233.112 204.53 232.712C203.73 232.312 203.146 231.664 202.778 230.768C202.426 229.856 202.25 228.656 202.25 227.168C202.25 225.68 202.426 224.488 202.778 223.592C203.146 222.68 203.73 222.024 204.53 221.624C205.346 221.224 206.418 221.024 207.746 221.024ZM207.746 222.752C206.898 222.752 206.226 222.888 205.73 223.16C205.25 223.416 204.906 223.864 204.698 224.504C204.49 225.144 204.386 226.032 204.386 227.168C204.386 228.304 204.49 229.192 204.698 229.832C204.906 230.472 205.25 230.928 205.73 231.2C206.226 231.456 206.898 231.584 207.746 231.584C208.594 231.584 209.266 231.456 209.762 231.2C210.258 230.928 210.61 230.472 210.818 229.832C211.026 229.192 211.13 228.304 211.13 227.168C211.13 226.032 211.026 225.144 210.818 224.504C210.61 223.864 210.258 223.416 209.762 223.16C209.266 222.888 208.594 222.752 207.746 222.752ZM226.778 221.024C227.29 221.024 227.898 221.064 228.602 221.144C229.322 221.208 229.97 221.352 230.546 221.576L230.282 222.896C229.754 222.848 229.194 222.816 228.602 222.8C228.026 222.768 227.53 222.752 227.114 222.752C226.186 222.752 225.45 222.88 224.906 223.136C224.362 223.392 223.97 223.84 223.73 224.48C223.49 225.12 223.37 226.008 223.37 227.144C223.37 228.28 223.49 229.176 223.73 229.832C223.97 230.472 224.362 230.92 224.906 231.176C225.45 231.432 226.186 231.56 227.114 231.56C227.466 231.56 227.978 231.544 228.65 231.512C229.322 231.48 229.954 231.416 230.546 231.32L230.762 232.688C230.17 232.896 229.522 233.048 228.818 233.144C228.13 233.24 227.442 233.288 226.754 233.288C225.41 233.288 224.33 233.088 223.514 232.688C222.698 232.288 222.106 231.64 221.738 230.744C221.386 229.848 221.21 228.648 221.21 227.144C221.21 225.64 221.394 224.44 221.762 223.544C222.13 222.648 222.722 222.008 223.538 221.624C224.354 221.224 225.434 221.024 226.778 221.024ZM239.048 221.024C240.344 221.024 241.336 221.296 242.024 221.84C242.712 222.368 243.056 223.344 243.056 224.768V233H241.448L241.208 231.056C240.904 231.376 240.512 231.704 240.032 232.04C239.552 232.36 239 232.64 238.376 232.88C237.768 233.104 237.104 233.216 236.384 233.216C235.344 233.216 234.496 232.936 233.84 232.376C233.2 231.816 232.88 231.008 232.88 229.952V228.68C232.88 227.768 233.16 227.064 233.72 226.568C234.296 226.056 235.096 225.8 236.12 225.8H240.992V224.768C240.992 224.048 240.824 223.536 240.488 223.232C240.168 222.912 239.544 222.752 238.616 222.752C238.008 222.752 237.24 222.784 236.312 222.848C235.4 222.912 234.496 222.984 233.6 223.064L233.408 221.552C234.208 221.424 235.128 221.304 236.168 221.192C237.208 221.08 238.168 221.024 239.048 221.024ZM236.792 231.464C237.368 231.48 238.04 231.344 238.808 231.056C239.576 230.768 240.304 230.32 240.992 229.712V227.336L236.48 227.36C235.92 227.376 235.528 227.528 235.304 227.816C235.08 228.088 234.968 228.472 234.968 228.968V229.712C234.968 230.32 235.112 230.768 235.4 231.056C235.688 231.328 236.152 231.464 236.792 231.464ZM248.764 216.2L248.74 229.784C248.74 230.824 249.276 231.344 250.348 231.344H251.476L251.716 232.904C251.492 233.016 251.148 233.096 250.684 233.144C250.236 233.192 249.868 233.216 249.58 233.216C248.716 233.216 248.02 232.96 247.492 232.448C246.98 231.936 246.724 231.2 246.724 230.24V216.2H248.764ZM258.769 221.024C260.113 221.024 261.185 221.224 261.985 221.624C262.801 222.024 263.385 222.68 263.737 223.592C264.089 224.488 264.265 225.68 264.265 227.168C264.265 228.656 264.089 229.856 263.737 230.768C263.385 231.664 262.801 232.312 261.985 232.712C261.185 233.112 260.113 233.312 258.769 233.312C257.441 233.312 256.369 233.112 255.553 232.712C254.753 232.312 254.169 231.664 253.801 230.768C253.449 229.856 253.273 228.656 253.273 227.168C253.273 225.68 253.449 224.488 253.801 223.592C254.169 222.68 254.753 222.024 255.553 221.624C256.369 221.224 257.441 221.024 258.769 221.024ZM258.769 222.752C257.921 222.752 257.249 222.888 256.753 223.16C256.273 223.416 255.929 223.864 255.721 224.504C255.513 225.144 255.409 226.032 255.409 227.168C255.409 228.304 255.513 229.192 255.721 229.832C255.929 230.472 256.273 230.928 256.753 231.2C257.249 231.456 257.921 231.584 258.769 231.584C259.617 231.584 260.289 231.456 260.785 231.2C261.281 230.928 261.633 230.472 261.841 229.832C262.049 229.192 262.153 228.304 262.153 227.168C262.153 226.032 262.049 225.144 261.841 224.504C261.633 223.864 261.281 223.416 260.785 223.16C260.289 222.888 259.617 222.752 258.769 222.752ZM261.217 215.312L262.393 216.896L257.785 219.776L257.089 218.84L261.217 215.312ZM269.05 221.312L269.266 223.16C270.114 222.488 270.954 221.968 271.786 221.6C272.634 221.216 273.458 221.024 274.258 221.024H274.786L274.546 222.944H273.874C273.218 222.944 272.554 223.08 271.882 223.352C271.226 223.608 270.434 223.968 269.506 224.432V233H267.466V221.312H269.05ZM278.683 216.344C279.099 216.344 279.307 216.552 279.307 216.968V218.336C279.307 218.752 279.099 218.96 278.683 218.96H277.723C277.307 218.96 277.099 218.752 277.099 218.336V216.968C277.099 216.552 277.307 216.344 277.723 216.344H278.683ZM279.211 221.312V233H277.195V221.312H279.211ZM288.044 221.024C288.556 221.024 289.164 221.064 289.868 221.144C290.588 221.208 291.236 221.352 291.812 221.576L291.548 222.896C291.02 222.848 290.46 222.816 289.868 222.8C289.292 222.768 288.796 222.752 288.38 222.752C287.452 222.752 286.716 222.88 286.172 223.136C285.628 223.392 285.236 223.84 284.996 224.48C284.756 225.12 284.636 226.008 284.636 227.144C284.636 228.28 284.756 229.176 284.996 229.832C285.236 230.472 285.628 230.92 286.172 231.176C286.716 231.432 287.452 231.56 288.38 231.56C288.732 231.56 289.244 231.544 289.916 231.512C290.588 231.48 291.22 231.416 291.812 231.32L292.028 232.688C291.436 232.896 290.788 233.048 290.084 233.144C289.396 233.24 288.708 233.288 288.02 233.288C286.676 233.288 285.596 233.088 284.78 232.688C283.964 232.288 283.372 231.64 283.004 230.744C282.652 229.848 282.476 228.648 282.476 227.144C282.476 225.64 282.66 224.44 283.028 223.544C283.396 222.648 283.988 222.008 284.804 221.624C285.62 221.224 286.7 221.024 288.044 221.024ZM299.55 221.024C300.894 221.024 301.966 221.224 302.766 221.624C303.582 222.024 304.166 222.68 304.518 223.592C304.87 224.488 305.046 225.68 305.046 227.168C305.046 228.656 304.87 229.856 304.518 230.768C304.166 231.664 303.582 232.312 302.766 232.712C301.966 233.112 300.894 233.312 299.55 233.312C298.222 233.312 297.15 233.112 296.334 232.712C295.534 232.312 294.95 231.664 294.582 230.768C294.23 229.856 294.054 228.656 294.054 227.168C294.054 225.68 294.23 224.488 294.582 223.592C294.95 222.68 295.534 222.024 296.334 221.624C297.15 221.224 298.222 221.024 299.55 221.024ZM299.55 222.752C298.702 222.752 298.03 222.888 297.534 223.16C297.054 223.416 296.71 223.864 296.502 224.504C296.294 225.144 296.19 226.032 296.19 227.168C296.19 228.304 296.294 229.192 296.502 229.832C296.71 230.472 297.054 230.928 297.534 231.2C298.03 231.456 298.702 231.584 299.55 231.584C300.398 231.584 301.07 231.456 301.566 231.2C302.062 230.928 302.414 230.472 302.622 229.832C302.83 229.192 302.934 228.304 302.934 227.168C302.934 226.032 302.83 225.144 302.622 224.504C302.414 223.864 302.062 223.416 301.566 223.16C301.07 222.888 300.398 222.752 299.55 222.752ZM309.447 230.168C309.735 230.168 309.935 230.224 310.047 230.336C310.159 230.448 310.215 230.648 310.215 230.936V232.232C310.215 232.52 310.159 232.72 310.047 232.832C309.935 232.944 309.735 233 309.447 233H308.775C308.503 233 308.303 232.944 308.175 232.832C308.063 232.72 308.007 232.52 308.007 232.232V230.936C308.007 230.648 308.063 230.448 308.175 230.336C308.303 230.224 308.503 230.168 308.775 230.168H309.447Z" fill="black"/>
<path d="M108.652 46.9794C108.844 48.6283 108.958 50.3 108.99 51.9912L108.49 52.0008C108.497 52.3331 108.5 52.6662 108.5 53C108.5 53.3338 108.497 53.6669 108.49 53.9992L108.99 54.0088C108.958 55.7 108.844 57.3717 108.652 59.0206L108.156 58.9628C108.079 59.6237 107.989 60.2808 107.887 60.934L108.381 61.011C108.122 62.6783 107.782 64.3201 107.366 65.9325L106.882 65.8077C106.716 66.452 106.537 67.0916 106.347 67.7262L106.826 67.8699C106.342 69.4817 105.782 71.0618 105.149 72.6061L104.687 72.4165C104.435 73.0314 104.171 73.6406 103.896 74.2438L104.351 74.4511C103.655 75.9792 102.887 77.4694 102.05 78.9174L101.617 78.6673C101.285 79.2424 100.942 79.8107 100.589 80.3722L101.012 80.6386C100.119 82.0573 99.1585 83.4321 98.1359 84.7587L97.7399 84.4534C97.3346 84.9792 96.9194 85.4974 96.4945 86.0077L96.8788 86.3276C95.8074 87.6143 94.6754 88.8513 93.4868 90.0344L93.1341 89.68C92.6638 90.1482 92.1846 90.6078 91.6967 91.0587L92.036 91.4259C90.8077 92.561 89.525 93.6409 88.1922 94.6617L87.8882 94.2648C87.3615 94.6682 86.8268 95.0622 86.2845 95.4467L86.5737 95.8546C85.2108 96.8209 83.8001 97.7272 82.3456 98.5696L82.095 98.1369C81.521 98.4693 80.9402 98.7917 80.3527 99.1037L80.5872 99.5453C79.1137 100.328 77.5989 101.046 76.0469 101.697L75.8537 101.236C75.2426 101.492 74.6258 101.737 74.0033 101.971L74.1796 102.439C72.6205 103.027 71.0267 103.546 69.4021 103.994L69.2691 103.512C68.6304 103.689 67.9869 103.854 67.3388 104.007L67.4542 104.494C65.8355 104.878 64.1884 105.191 62.5167 105.431L62.4457 104.936C61.7906 105.03 61.1317 105.112 60.4692 105.183L60.5223 105.68C58.8722 105.856 57.2 105.961 55.5089 105.991L55.5001 105.491C55.1675 105.497 54.8341 105.5 54.5 105.5C54.1659 105.5 53.8325 105.497 53.4999 105.491L53.4911 105.991C51.8 105.961 50.1278 105.856 48.4777 105.68L48.5308 105.183C47.8683 105.112 47.2093 105.03 46.5543 104.936L46.4833 105.431C44.8116 105.191 43.1645 104.878 41.5458 104.494L41.6612 104.007C41.0131 103.854 40.3696 103.689 39.7309 103.512L39.5979 103.994C37.9733 103.546 36.3795 103.027 34.8204 102.439L34.9967 101.971C34.3742 101.737 33.7574 101.492 33.1463 101.236L32.9531 101.697C31.4011 101.046 29.8863 100.328 28.4128 99.5453L28.6473 99.1037C28.0598 98.7917 27.479 98.4693 26.905 98.1369L26.6544 98.5696C25.1999 97.7272 23.7892 96.8209 22.4263 95.8546L22.7155 95.4467C22.1732 95.0622 21.6385 94.6682 21.1118 94.2647L20.8078 94.6617C19.475 93.6409 18.1923 92.561 16.964 91.4259L17.3033 91.0587C16.8154 90.6078 16.3362 90.1482 15.8659 89.68L15.5132 90.0344C14.3246 88.8513 13.1926 87.6143 12.1212 86.3276L12.5055 86.0077C12.0806 85.4974 11.6654 84.9792 11.2601 84.4534L10.8641 84.7587C9.84155 83.4321 8.88146 82.0573 7.98809 80.6386L8.4112 80.3722C8.05768 79.8107 7.71472 79.2424 7.38259 78.6673L6.94962 78.9174C6.11327 77.4694 5.34483 75.9792 4.64851 74.4511L5.1035 74.2438C4.82863 73.6406 4.56512 73.0314 4.31322 72.4165L3.85054 72.6061C3.21787 71.0618 2.65773 69.4817 2.1742 67.8699L2.65311 67.7262C2.46273 67.0916 2.28435 66.452 2.11821 65.8077L1.63405 65.9325C1.21827 64.3201 0.878451 62.6783 0.61851 61.011L1.11254 60.934C1.01071 60.2808 0.921256 59.6237 0.844419 58.9628L0.347765 59.0206C0.156054 57.3717 0.0421392 55.7 0.00967549 54.0088L0.509583 53.9992C0.503204 53.6669 0.5 53.3338 0.5 53C0.5 52.6662 0.503204 52.3331 0.509584 52.0008L0.00967564 51.9912C0.0421396 50.3 0.156055 48.6283 0.347766 46.9794L0.84442 47.0372C0.921257 46.3763 1.01071 45.7192 1.11254 45.066L0.618512 44.989C0.878453 43.3217 1.21827 41.6799 1.63405 40.0674L2.11822 40.1923C2.28435 39.548 2.46274 38.9084 2.65311 38.2738L2.1742 38.1301C2.65773 36.5183 3.21787 34.9382 3.85054 33.3939L4.31322 33.5835C4.56512 32.9686 4.82863 32.3594 5.1035 31.7562L4.64851 31.5489C5.34483 30.0208 6.11327 28.5306 6.94962 27.0826L7.38259 27.3327C7.71473 26.7576 8.05769 26.1893 8.4112 25.6278L7.98809 25.3614C8.88146 23.9427 9.84155 22.5679 10.8641 21.2413L11.2601 21.5466C11.6654 21.0208 12.0806 20.5026 12.5055 19.9923L12.1212 19.6724C13.1926 18.3857 14.3246 17.1487 15.5132 15.9656L15.8659 16.32C16.3362 15.8518 16.8154 15.3922 17.3033 14.9413L16.964 14.5741C18.1923 13.439 19.475 12.3591 20.8078 11.3383L21.1118 11.7352C21.6385 11.3318 22.1732 10.9378 22.7155 10.5533L22.4263 10.1454C23.7892 9.17909 25.1999 8.27278 26.6544 7.43044L26.905 7.86312C27.479 7.5307 28.0598 7.20833 28.6473 6.89627L28.4128 6.4547C29.8863 5.67202 31.4011 4.95358 32.9531 4.30326L33.1463 4.76442C33.7574 4.50839 34.3742 4.26302 34.9967 4.02854L34.8204 3.56063C36.3795 2.97332 37.9733 2.45375 39.5979 2.00562L39.7309 2.48762C40.3696 2.31146 41.0131 2.14643 41.6612 1.99278L41.5458 1.50626C43.1645 1.12249 44.8116 0.809011 46.4833 0.569351L46.5543 1.06429C47.2094 0.970378 47.8683 0.8879 48.5308 0.817073L48.4777 0.319906C50.1278 0.143513 51.8 0.0387556 53.4911 0.00889973L53.4999 0.508822C53.8325 0.502949 54.1659 0.5 54.5 0.5C54.8341 0.5 55.1675 0.502949 55.5001 0.508822L55.5089 0.00889986C57.2 0.038756 58.8722 0.143514 60.5223 0.319906L60.4692 0.817074C61.1317 0.8879 61.7907 0.970378 62.4457 1.06429L62.5167 0.569351C64.1884 0.809011 65.8355 1.12249 67.4542 1.50626L67.3388 1.99278C67.9869 2.14643 68.6304 2.31146 69.2691 2.48762L69.4021 2.00562C71.0267 2.45375 72.6205 2.97333 74.1796 3.56063L74.0033 4.02854C74.6258 4.26302 75.2426 4.50839 75.8537 4.76442L76.0469 4.30327C77.5989 4.95358 79.1137 5.67202 80.5872 6.4547L80.3527 6.89627C80.9402 7.20833 81.521 7.5307 82.095 7.86312L82.3456 7.43044C83.8001 8.27278 85.2108 9.17909 86.5737 10.1454L86.2845 10.5533C86.8268 10.9378 87.3615 11.3318 87.8882 11.7352L88.1922 11.3383C89.525 12.3591 90.8077 13.439 92.036 14.5741L91.6967 14.9413C92.1846 15.3922 92.6638 15.8518 93.1341 16.32L93.4868 15.9656C94.6754 17.1487 95.8074 18.3857 96.8788 19.6724L96.4945 19.9923C96.9194 20.5026 97.3346 21.0208 97.7399 21.5466L98.1359 21.2413C99.1585 22.5679 100.119 23.9427 101.012 25.3614L100.589 25.6278C100.942 26.1893 101.285 26.7576 101.617 27.3327L102.05 27.0826C102.887 28.5306 103.655 30.0208 104.351 31.5489L103.896 31.7562C104.171 32.3594 104.435 32.9686 104.687 33.5835L105.149 33.3939C105.782 34.9382 106.342 36.5183 106.826 38.1301L106.347 38.2738C106.537 38.9084 106.716 39.548 106.882 40.1923L107.366 40.0675C107.782 41.6799 108.122 43.3217 108.381 44.989L107.887 45.066C107.989 45.7192 108.079 46.3763 108.156 47.0372L108.652 46.9794Z" stroke="black" stroke-dasharray="2 5"/>
<path d="M98.9043 49.9593C98.9434 50.5788 98.9707 51.2016 98.9858 51.8275L98.486 51.8396C98.4953 52.2252 98.5 52.612 98.5 53C98.5 53.388 98.4953 53.7748 98.486 54.1604L98.9858 54.1725C98.9477 55.7476 98.833 57.3029 98.6454 58.8348L98.1491 58.774C98.0739 59.3886 97.9868 59.9993 97.888 60.6059L98.3815 60.6862C98.2558 61.4589 98.1115 62.225 97.9489 62.984L97.46 62.8794C97.1347 64.399 96.7359 65.89 96.2677 67.3482L96.7438 67.501C96.5527 68.0961 96.3502 68.6858 96.1365 69.2698L95.6669 69.098C95.4012 69.8244 95.118 70.5418 94.8178 71.2498L95.2782 71.445C94.6667 72.8875 93.9856 74.2914 93.2394 75.6521L92.801 75.4117C92.5039 75.9534 92.1964 76.4882 91.8788 77.0157L92.3071 77.2736C91.9043 77.9427 91.4853 78.6002 91.0507 79.2458L90.6359 78.9665C89.7721 80.2496 88.846 81.4845 87.8621 82.6665L88.2464 82.9864C87.8472 83.4661 87.4385 83.9372 87.0207 84.3994L86.6498 84.0641C86.1323 84.6365 85.6007 85.1952 85.0555 85.7394L85.4088 86.0932C84.3041 87.1959 83.1444 88.2401 81.9342 89.2209L81.6194 88.8324C81.1403 89.2207 80.6532 89.599 80.1584 89.9669L80.4568 90.3681C79.8313 90.8332 79.1937 91.2819 78.5445 91.7136L78.2676 91.2973C76.9855 92.15 75.6578 92.9356 74.2893 93.6495L74.5205 94.0928C73.9682 94.3809 73.4092 94.6575 72.844 94.9222L72.6319 94.4694C71.9352 94.7957 71.2288 95.1037 70.5133 95.393L70.7006 95.8565C69.2615 96.4383 67.7859 96.9448 66.2783 97.3715L66.1422 96.8904C65.5506 97.0577 64.9542 97.2127 64.353 97.3549L64.4681 97.8415C63.7122 98.0203 62.949 98.1792 62.179 98.3176L62.0905 97.8255C60.5871 98.0959 59.0574 98.2873 57.5055 98.3955L57.5402 98.8943C56.921 98.9375 56.2983 98.9676 55.6724 98.9843L55.659 98.4845C55.2739 98.4948 54.8875 98.5 54.5 98.5C54.1125 98.5 53.7261 98.4948 53.341 98.4845L53.3276 98.9843C51.7529 98.9422 50.1985 98.8156 48.6686 98.6086L48.7357 98.1131C48.1229 98.0302 47.514 97.9342 46.9095 97.8255L46.821 98.3176C46.051 98.1792 45.2878 98.0203 44.5319 97.8415L44.647 97.3549C43.1389 96.9981 41.6602 96.5612 40.2155 96.0487L40.0483 96.5199C39.4597 96.3111 38.8766 96.0899 38.2994 95.8565L38.4867 95.393C37.7712 95.1037 37.0648 94.7957 36.3681 94.4694L36.156 94.9222C34.7412 94.2596 33.3658 93.5227 32.0346 92.7164L32.2937 92.2887C31.7661 91.9692 31.2456 91.6386 30.7324 91.2973L30.4555 91.7136C29.8063 91.2819 29.1687 90.8332 28.5432 90.3681L28.8416 89.9669C27.605 89.0475 26.4164 88.0633 25.2804 87.0191L24.942 87.3872C24.4832 86.9654 24.0328 86.534 23.5912 86.0932L23.9445 85.7394C23.3993 85.1952 22.8677 84.6365 22.3502 84.0641L21.9793 84.3994C20.9363 83.2455 19.95 82.036 19.0251 80.7758L19.4282 80.48C19.0638 79.9834 18.709 79.4788 18.3641 78.9665L17.9493 79.2458C17.5147 78.6003 17.0957 77.9427 16.6929 77.2736L17.1212 77.0157C16.329 75.7 15.5999 74.3393 14.9383 72.9383L14.4862 73.1518C14.2205 72.5892 13.9656 72.0201 13.7218 71.445L14.1822 71.2498C13.882 70.5418 13.5988 69.8244 13.3331 69.098L12.8635 69.2698C12.3313 67.8151 11.8683 66.3251 11.4788 64.8043L11.9632 64.6802C11.8106 64.0846 11.6695 63.4843 11.54 62.8794L11.0511 62.9841C10.8886 62.225 10.7442 61.4589 10.6185 60.6862L11.112 60.6059C10.8665 59.0977 10.6928 57.5641 10.5947 56.0092L10.0957 56.0407C10.0566 55.4212 10.0293 54.7984 10.0142 54.1725L10.514 54.1604C10.5047 53.7748 10.5 53.388 10.5 53C10.5 52.612 10.5047 52.2252 10.514 51.8396L10.0142 51.8275C10.0523 50.2524 10.167 48.6971 10.3546 47.1652L10.8509 47.226C10.9261 46.6114 11.0132 46.0007 11.112 45.3941L10.6185 45.3138C10.7442 44.5411 10.8885 43.775 11.0511 43.016L11.54 43.1206C11.8653 41.601 12.2641 40.11 12.7323 38.6518L12.2562 38.499C12.4473 37.9039 12.6498 37.3142 12.8635 36.7302L13.3331 36.902C13.5988 36.1757 13.882 35.4582 14.1822 34.7502L13.7218 34.555C14.3333 33.1125 15.0144 31.7086 15.7606 30.3479L16.199 30.5883C16.4961 30.0466 16.8036 29.5118 17.1212 28.9843L16.6929 28.7264C17.0957 28.0573 17.5147 27.3998 17.9493 26.7543L18.3641 27.0335C19.2279 25.7504 20.154 24.5155 21.1379 23.3335L20.7536 23.0136C21.1528 22.5339 21.5615 22.0628 21.9793 21.6006L22.3502 21.9359C22.8677 21.3635 23.3993 20.8048 23.9445 20.2606L23.5912 19.9068C24.6959 18.8041 25.8556 17.7599 27.0658 16.7791L27.3806 17.1676C27.8597 16.7793 28.3468 16.401 28.8416 16.0331L28.5432 15.6319C29.1687 15.1668 29.8063 14.7181 30.4555 14.2864L30.7324 14.7027C32.0145 13.85 33.3422 13.0644 34.7107 12.3505L34.4795 11.9072C35.0318 11.6191 35.5908 11.3425 36.156 11.0778L36.3681 11.5306C37.0648 11.2043 37.7712 10.8963 38.4867 10.607L38.2994 10.1435C39.7385 9.56171 41.2141 9.05518 42.7217 8.62854L42.8578 9.10965C43.4494 8.94225 44.0458 8.7873 44.647 8.64509L44.5319 8.15852C45.2878 7.97971 46.051 7.8208 46.821 7.68235L46.9095 8.17446C48.4129 7.90413 49.9426 7.71269 51.4945 7.60446L51.4598 7.10567C52.079 7.06248 52.7017 7.03239 53.3276 7.01565L53.341 7.51548C53.7261 7.50518 54.1125 7.5 54.5 7.5C54.8875 7.5 55.2739 7.50518 55.659 7.51548L55.6724 7.01565C57.2471 7.05775 58.8015 7.18441 60.3314 7.39141L60.2643 7.88689C60.8771 7.9698 61.486 8.06575 62.0905 8.17446L62.179 7.68235C62.949 7.8208 63.7122 7.97971 64.4681 8.15851L64.353 8.64509C65.8611 9.00186 67.3398 9.43878 68.7845 9.95131L68.9517 9.48008C69.5404 9.68891 70.1234 9.91014 70.7006 10.1435L70.5133 10.607C71.2288 10.8963 71.9352 11.2043 72.6319 11.5306L72.844 11.0778C74.2588 11.7404 75.6342 12.4773 76.9654 13.2836L76.7063 13.7113C77.2338 14.0308 77.7544 14.3614 78.2676 14.7027L78.5445 14.2864C79.1937 14.7181 79.8313 15.1668 80.4568 15.6319L80.1584 16.0331C81.395 16.9525 82.5836 17.9367 83.7196 18.9809L84.058 18.6128C84.5168 19.0346 84.9672 19.466 85.4088 19.9068L85.0555 20.2606C85.6007 20.8048 86.1323 21.3635 86.6498 21.9359L87.0207 21.6006C88.0638 22.7545 89.05 23.964 89.9749 25.2242L89.5718 25.52C89.9362 26.0166 90.291 26.5212 90.6359 27.0335L91.0507 26.7542C91.4853 27.3998 91.9043 28.0573 92.3071 28.7264L91.8788 28.9843C92.671 30.3 93.4001 31.6607 94.0617 33.0617L94.5138 32.8482C94.7795 33.4108 95.0344 33.9799 95.2782 34.555L94.8178 34.7502C95.118 35.4582 95.4012 36.1756 95.6669 36.902L96.1365 36.7302C96.6688 38.1849 97.1317 39.6749 97.5212 41.1957L97.0368 41.3198C97.1894 41.9154 97.3305 42.5157 97.46 43.1206L97.9489 43.0159C98.1115 43.775 98.2558 44.5411 98.3815 45.3138L97.888 45.3941C98.1335 46.9023 98.3072 48.4359 98.4053 49.9908L98.9043 49.9593Z" stroke="black" stroke-dasharray="2.5 2 5 2.5 2 5"/>
<path d="M69.1387 75H39.9004V69.1992L53.6992 54.4922C55.5938 52.4219 56.9902 50.6152 57.8887 49.0723C58.8066 47.5293 59.2656 46.0645 59.2656 44.6777C59.2656 42.7832 58.7871 41.2988 57.8301 40.2246C56.873 39.1309 55.5059 38.584 53.7285 38.584C51.8145 38.584 50.3008 39.248 49.1875 40.5762C48.0938 41.8848 47.5469 43.6133 47.5469 45.7617H39.0508C39.0508 43.1641 39.666 40.791 40.8965 38.6426C42.1465 36.4941 43.9043 34.8145 46.1699 33.6035C48.4355 32.373 51.0039 31.7578 53.875 31.7578C58.2695 31.7578 61.6777 32.8125 64.0996 34.9219C66.541 37.0312 67.7617 40.0098 67.7617 43.8574C67.7617 45.9668 67.2148 48.1152 66.1211 50.3027C65.0273 52.4902 63.1523 55.0391 60.4961 57.9492L50.7988 68.1738H69.1387V75Z" fill="#53CC89"/>
</svg>
