<svg height="512" viewBox="0 0 64 64" width="512" xmlns="http://www.w3.org/2000/svg"><g id="Fill_Outline" data-name="Fill Outline"><g id="Color"><g><circle cx="32" cy="32" fill="#84d2f4" r="19"/><path d="m38 44a18.971 18.971 0 0 1 -16.981-27.488 18.989 18.989 0 1 0 27.962 23.976 18.894 18.894 0 0 1 -10.981 3.512z" fill="#57b7eb"/><circle cx="32" cy="32" fill="#57b7eb" r="14"/><path d="m36.745 42.956a18.02 18.02 0 0 1 -3.835-.7l-1.088-1.088a.987.987 0 0 0 -.165-1.168l-.994-.994a1.007 1.007 0 0 1 .165-.249 1 1 0 0 0 0-1.414l-1.414-1.414a.972.972 0 0 0 -.528-.258.991.991 0 0 0 -.058-1.328l-1.414-1.414a.966.966 0 0 0 -.523-.257 4.855 4.855 0 0 0 2.935-3.139l.681-2.269a4.863 4.863 0 0 0 -3.121-6.009 13.706 13.706 0 0 1 7.141.508 1.982 1.982 0 0 0 0 3.472 2.485 2.485 0 0 0 1.036 1.8 2.933 2.933 0 0 0 -.06.462 3 3 0 0 0 3 3 2.978 2.978 0 0 0 .03.3 1.962 1.962 0 0 0 -.53.371 2 2 0 1 0 -2.831 2.832l-1.415 1.414 2.829 2.829 1.414-1.415a2 2 0 0 0 2.828-2.828 1.962 1.962 0 0 0 .371-.53 2.711 2.711 0 0 0 2.559-1.014 14.029 14.029 0 0 1 .242 2.544 13.875 13.875 0 0 1 -1.462 6.2 13.881 13.881 0 1 0 -1.553 1.534 17.754 17.754 0 0 1 -4.24.222zm-16.408-17.151a5.038 5.038 0 0 0 -.254.551c-.029-.386-.063-.771-.067-1.162a14.216 14.216 0 0 1 1.271-1.131zm5.663 7.124-2.58 2.58a18 18 0 0 1 -2.111-3.8 4.794 4.794 0 0 0 3.3 1.3h.557a4.915 4.915 0 0 0 .844-.077z" fill="#4891d3"/><g><path d="m57 50a2.9 2.9 0 0 1 -2.893-3l.893-25h4l.893 25a2.9 2.9 0 0 1 -2.893 3z" fill="#57b7eb"/><path d="m59 47a2.9 2.9 0 0 1 -2.893-3l.61-17.074a4 4 0 0 0 2.407-1.448l-.124-3.478h-4l-.893 25a2.895 2.895 0 1 0 5.786 0l-.006-.156a2.862 2.862 0 0 1 -.887.156z" fill="#4891d3"/><rect fill="#84d2f4" height="12" rx="4" width="8" x="53" y="13"/><path d="m59 22a4 4 0 0 1 -4-4v-4a4.061 4.061 0 0 1 .047-.471 3.983 3.983 0 0 0 -2.047 3.471v4a3.99 3.99 0 0 0 7.953.471 3.959 3.959 0 0 1 -1.953.529z" fill="#57b7eb"/></g><g><path d="m9 22h-4l-.893 25a2.895 2.895 0 1 0 5.786 0z" fill="#57b7eb"/><path d="m9 47a2.9 2.9 0 0 1 -2.893-3l.61-17.074a4 4 0 0 0 2.407-1.446l-.124-3.48h-4l-.893 25a2.895 2.895 0 1 0 5.786 0l-.006-.156a2.862 2.862 0 0 1 -.887.156z" fill="#4891d3"/><path d="m3 17h8a0 0 0 0 1 0 0v4a4 4 0 0 1 -4 4 4 4 0 0 1 -4-4v-4a0 0 0 0 1 0 0z" fill="#84d2f4"/><path d="m9 22a4 4 0 0 1 -4-4v-1h-2v4a3.99 3.99 0 0 0 7.953.471 3.959 3.959 0 0 1 -1.953.529z" fill="#57b7eb"/></g><g><path d="m27 31.929-7.071 7.071a1 1 0 0 0 0 1.414l1.414 1.414a1 1 0 0 0 1.414 0 1 1 0 0 1 1.415 0l2.828 2.829a1 1 0 0 0 1.414 0l4.243-4.243a1 1 0 0 0 0-1.414l-2.829-2.828a1 1 0 0 1 0-1.415 1 1 0 0 0 0-1.414l-1.414-1.414a1 1 0 0 0 -1.414 0z" fill="#f9e109"/><path d="m32.657 39-2.829-2.828a1 1 0 0 1 0-1.415 1 1 0 0 0 0-1.414l-.292-.293-5.364 5.364a2.993 2.993 0 0 1 -3.921.264l-.322.322a1 1 0 0 0 0 1.414l1.414 1.414a1 1 0 0 0 1.414 0 1 1 0 0 1 1.415 0l2.828 2.829a1 1 0 0 0 1.414 0l4.243-4.243a1 1 0 0 0 0-1.414z" fill="#fcbc04"/><path d="m45.5 29.5a2.97 2.97 0 0 0 -.4-1.47 3 3 0 0 0 -1.6-5.53 2.991 2.991 0 0 0 -5.617-1.44 1.995 1.995 0 1 0 -2.359 3.175 2.485 2.485 0 0 0 1.036 1.8 2.933 2.933 0 0 0 -.06.462 3 3 0 0 0 3 3 3 3 0 0 0 6 0z" fill="#a1d51c"/><path d="m44.5 29.5a3 3 0 0 1 -3-3 3 3 0 0 1 -3-3 2.933 2.933 0 0 1 .06-.462 2.485 2.485 0 0 1 -1.036-1.8 2.025 2.025 0 0 1 -.733-.706 1.989 1.989 0 0 0 -1.267 3.706 2.485 2.485 0 0 0 1.036 1.8 2.933 2.933 0 0 0 -.06.462 3 3 0 0 0 3 3 3 3 0 0 0 6 0c0-.061-.009-.12-.013-.18a2.963 2.963 0 0 1 -.987.18z" fill="#7ab92d"/><path d="m29 34.929-7.071 7.071a1 1 0 0 0 0 1.414l1.414 1.414a1 1 0 0 0 1.414 0 1 1 0 0 1 1.415 0l2.828 2.829a1 1 0 0 0 1.414 0l4.243-4.243a1 1 0 0 0 0-1.414l-2.829-2.828a1 1 0 0 1 0-1.415 1 1 0 0 0 0-1.414l-1.414-1.414a1 1 0 0 0 -1.414 0z" fill="#f9e109"/><path d="m41.828 33a2 2 0 1 0 -2.828-2.828 2 2 0 1 0 -2.828 2.828l-1.415 1.414 2.829 2.829 1.414-1.415a2 2 0 0 0 2.828-2.828z" fill="#c4f236"/><path d="m41.828 33.828a2 2 0 0 1 -2.828 0 2 2 0 0 1 -2.828 0l-.415-.414-1 1 2.829 2.829 1.414-1.415a2 2 0 0 0 3.138-2.414 1.981 1.981 0 0 1 -.31.414z" fill="#a1d51c"/><path d="m33.864 41.207-.621.621a5 5 0 0 1 -7.071 0 1 1 0 0 0 -1.415 0 1 1 0 0 1 -1.414 0l-.621-.621-.793.793a1 1 0 0 0 0 1.414l1.414 1.414a1 1 0 0 0 1.414 0 1 1 0 0 1 1.415 0l2.828 2.829a1 1 0 0 0 1.414 0l4.243-4.243a1 1 0 0 0 0-1.414z" fill="#fcbc04"/><path d="m27.45 20.038a4.865 4.865 0 0 1 4.057 6.226l-.681 2.269a4.864 4.864 0 0 1 -4.66 3.467h-.557a4.866 4.866 0 0 1 -4.272-7.195l1.238-2.269a4.865 4.865 0 0 1 4.875-2.498z" fill="#f9e109"/><path d="m27.166 28h-.557a4.862 4.862 0 0 1 -4.8-4.058l-.471.863a4.866 4.866 0 0 0 4.271 7.195h.557a4.864 4.864 0 0 0 4.66-3.467l.681-2.269a4.852 4.852 0 0 0 .2-1.428 4.853 4.853 0 0 1 -4.541 3.164z" fill="#fcbc04"/><circle cx="26" cy="28" fill="#f89c8d" r="2"/><path d="m27.166 28h-.557a4.821 4.821 0 0 1 -2.484-.675 2 2 0 1 0 3.875.675c0-.025-.006-.048-.007-.073a4.919 4.919 0 0 1 -.827.073z" fill="#f8664f"/></g></g></g><g id="Outline_copy" data-name="Outline copy"><g fill="#39519d"><path d="m46.141 19.282a1 1 0 0 0 -.149 1.406 17.8 17.8 0 0 1 4.008 11.312 18.021 18.021 0 0 1 -18 18 17.8 17.8 0 0 1 -11.312-4.008 1 1 0 0 0 -1.258 1.555 19.992 19.992 0 0 0 28.117-28.117 1 1 0 0 0 -1.406-.148z"/><path d="m14 32a18.021 18.021 0 0 1 18-18 17.792 17.792 0 0 1 11.312 4.008 1 1 0 1 0 1.258-1.555 19.992 19.992 0 0 0 -28.117 28.117 1 1 0 0 0 1.555-1.258 17.792 17.792 0 0 1 -4.008-11.312z"/><path d="m57 26a5.006 5.006 0 0 0 5-5v-4a5 5 0 0 0 -10 0v4a4.973 4.973 0 0 0 1.9 3.889l-.788 22.077a3.895 3.895 0 1 0 7.784 0l-.659-18.326a.988.988 0 0 0 -1.035-.964 1 1 0 0 0 -.963 1.035l.655 18.327a1.877 1.877 0 0 1 -.531 1.383 1.938 1.938 0 0 1 -2.726 0 1.877 1.877 0 0 1 -.531-1.383l.756-21.181a4.967 4.967 0 0 0 1.138.143zm-3-9a3 3 0 0 1 6 0v4a3 3 0 0 1 -6 0z"/><path d="m9.2 27.676a1 1 0 0 0 -.964 1.035l.655 18.327a1.88 1.88 0 0 1 -.531 1.383 1.938 1.938 0 0 1 -2.726 0 1.88 1.88 0 0 1 -.531-1.383l.757-21.18a4.958 4.958 0 0 0 6.14-4.858v-10a1 1 0 0 0 -2 0v5h-2v-5a1 1 0 0 0 -2 0v5h-2v-5a1 1 0 0 0 -2 0v10a4.972 4.972 0 0 0 1.9 3.888l-.793 22.078a3.9 3.9 0 1 0 7.786 0l-.655-18.326a.988.988 0 0 0 -1.038-.964zm.8-6.676a3 3 0 0 1 -6 0v-3h6z"/><path d="m26.172 40.586a1 1 0 1 0 1.414 0 1 1 0 0 0 -1.414 0z"/><path d="m29.707 42.707a1 1 0 1 0 0-1.414 1 1 0 0 0 0 1.414z"/><path d="m29 28a3 3 0 1 0 -3 3 3 3 0 0 0 3-3zm-3 1a1 1 0 1 1 1-1 1 1 0 0 1 -1 1z"/><path d="m39.293 24.707a1 1 0 1 0 0-1.414 1 1 0 0 0 0 1.414z"/><path d="m37.293 40.293a1 1 0 1 0 1.414 0 1 1 0 0 0 -1.414 0z"/><path d="m43.707 26.707a1 1 0 1 0 -1.414 0 1 1 0 0 0 1.414 0z"/><path d="m19.222 41.121 1.414 1.415s.012.007.016.011a1.985 1.985 0 0 0 .57 1.574l1.415 1.415a2 2 0 0 0 2.827 0l2.829 2.828a2 2 0 0 0 2.828 0l1.387-1.387a15.1 15.1 0 0 0 13.506-9.619 1 1 0 1 0 -1.868-.715 13.1 13.1 0 0 1 -9.339 8.036l.557-.557a2 2 0 0 0 0-2.829l-2.828-2.829a2.005 2.005 0 0 0 0-2.828l-1.415-1.414a.173.173 0 0 0 -.021-.017 1.968 1.968 0 0 0 -.564-1.569l-.824-.823a5.848 5.848 0 0 0 2.072-2.993l.681-2.269a5.857 5.857 0 0 0 -3.544-7.167 12.633 12.633 0 0 1 6.894.2 2.986 2.986 0 0 0 -1.206 5.232 3.483 3.483 0 0 0 .892 1.624v.058a3.964 3.964 0 0 0 .8 2.378 2.969 2.969 0 0 0 -.837.586 3.007 3.007 0 0 0 -.586 3.415l-.828.828a1 1 0 0 0 1.414 1.414l1.414-1.414a1 1 0 0 0 0-1.414 1 1 0 1 1 1.414-1.414 1 1 0 0 0 1.414 0 1.024 1.024 0 0 1 1.414 0 1 1 0 0 1 0 1.415 1 1 0 0 0 0 1.414 1 1 0 0 1 0 1.415 1.023 1.023 0 0 1 -1.414 0 1 1 0 0 0 -1.414 0l-1.414 1.414a1 1 0 1 0 1.414 1.414l.827-.827a3.065 3.065 0 0 0 3.415-.587 3 3 0 0 0 .709-3.111 4 4 0 0 0 3.257-3.924 3.827 3.827 0 0 0 -.182-1.169 3.994 3.994 0 0 0 -1.918-6.731 4.007 4.007 0 0 0 -3.9-3.1 3.935 3.935 0 0 0 -1.443.285 14.984 14.984 0 0 0 -21.664 16.615 1 1 0 0 0 .973.772.949.949 0 0 0 .229-.027 1 1 0 0 0 .745-1.2 12.833 12.833 0 0 1 .429-7.31 5.864 5.864 0 0 0 .8 2.492 5.8 5.8 0 0 0 4.044 2.778l-5.388 5.387a2 2 0 0 0 -.003 2.829zm23.278-18.621a1 1 0 0 0 1 1 1.995 1.995 0 0 1 1.064 3.685 1 1 0 0 0 -.334 1.339 1.941 1.941 0 0 1 -.84 2.742 2.977 2.977 0 0 0 -.855-1.8 3.069 3.069 0 0 0 -2.566-.832.974.974 0 0 0 -.469-.134 2 2 0 0 1 -2-2 1.064 1.064 0 0 1 .025-.172l.023-.132a1 1 0 0 0 -.41-.974 1.5 1.5 0 0 1 -.619-1.082 1 1 0 0 0 -.5-.776.984.984 0 0 1 -.519-.864 1 1 0 0 1 1.691-.718 1 1 0 0 0 1.569-.239 1.99 1.99 0 0 1 3.74.957zm-11.378 14.55a2 2 0 0 0 0 2.828l2.828 2.829-4.243 4.243-2.828-2.828a2 2 0 0 0 -2.829 0l-1.4-1.405c.015-.019.027-.042.041-.062l7.015-7.015zm-8.837-7.943a3.833 3.833 0 0 1 -.07-3.823l1.238-2.269a3.866 3.866 0 0 1 7.1 2.962l-.681 2.269a3.841 3.841 0 0 1 -3.706 2.754h-.557a3.832 3.832 0 0 1 -3.324-1.893zm5.223 3.722c.106-.024.212-.047.316-.077l1.076 1.062a2 2 0 0 0 -.6.407l-6.571 6.571-1.086-1.086z"/></g></g></g></svg>