<svg width="491" height="29" viewBox="0 0 491 29" fill="none" xmlns="http://www.w3.org/2000/svg">
<line y1="14.5" x2="220" y2="14.5" stroke="black" stroke-width="3"/>
<line x1="270" y1="14.5" x2="490" y2="14.5" stroke="black" stroke-width="3"/>
<g filter="url(#filter0_d)">
<path d="M232.602 13.543C232.602 12.3008 232.844 11.1836 233.328 10.1914C233.82 9.19922 234.5 8.43359 235.367 7.89453C236.242 7.35547 237.238 7.08594 238.355 7.08594C240.082 7.08594 241.477 7.68359 242.539 8.87891C243.609 10.0742 244.145 11.6641 244.145 13.6484V13.8008C244.145 15.0352 243.906 16.1445 243.43 17.1289C242.961 18.1055 242.285 18.8672 241.402 19.4141C240.527 19.9609 239.52 20.2344 238.379 20.2344C236.66 20.2344 235.266 19.6367 234.195 18.4414C233.133 17.2461 232.602 15.6641 232.602 13.6953V13.543ZM234.781 13.8008C234.781 15.207 235.105 16.3359 235.754 17.1875C236.41 18.0391 237.285 18.4648 238.379 18.4648C239.48 18.4648 240.355 18.0352 241.004 17.1758C241.652 16.3086 241.977 15.0977 241.977 13.543C241.977 12.1523 241.645 11.0273 240.98 10.168C240.324 9.30078 239.449 8.86719 238.355 8.86719C237.285 8.86719 236.422 9.29297 235.766 10.1445C235.109 10.9961 234.781 12.2148 234.781 13.8008ZM254.691 18.7461C253.848 19.7383 252.609 20.2344 250.977 20.2344C249.625 20.2344 248.594 19.8438 247.883 19.0625C247.18 18.2734 246.824 17.1094 246.816 15.5703V7.32031H248.984V15.5117C248.984 17.4336 249.766 18.3945 251.328 18.3945C252.984 18.3945 254.086 17.7773 254.633 16.543V7.32031H256.801V20H254.738L254.691 18.7461Z" fill="black"/>
</g>
<defs>
<filter id="filter0_d" x="228.602" y="7.08594" width="32.1992" height="21.1484" filterUnits="userSpaceOnUse" color-interpolation-filters="sRGB">
<feFlood flood-opacity="0" result="BackgroundImageFix"/>
<feColorMatrix in="SourceAlpha" type="matrix" values="0 0 0 0 0 0 0 0 0 0 0 0 0 0 0 0 0 0 127 0"/>
<feOffset dy="4"/>
<feGaussianBlur stdDeviation="2"/>
<feColorMatrix type="matrix" values="0 0 0 0 0 0 0 0 0 0 0 0 0 0 0 0 0 0 0.25 0"/>
<feBlend mode="normal" in2="BackgroundImageFix" result="effect1_dropShadow"/>
<feBlend mode="normal" in="SourceGraphic" in2="effect1_dropShadow" result="shape"/>
</filter>
</defs>
</svg>
