<svg width="84" height="69" viewBox="0 0 84 69" fill="none" xmlns="http://www.w3.org/2000/svg">
<path d="M84 8.10004C80.9109 9.46884 77.5925 10.3937 74.1039 10.8117C77.7035 8.65789 80.3965 5.26798 81.6804 1.27453C78.2986 3.2833 74.5973 4.69726 70.7374 5.45493C68.1418 2.68353 64.7038 0.846602 60.9573 0.229339C57.2107 -0.387925 53.3651 0.24901 50.0176 2.04126C46.6701 3.8335 44.008 6.68079 42.4445 10.141C40.881 13.6013 40.5037 17.481 41.3711 21.1776C34.5185 20.8336 27.8149 19.0525 21.6952 15.95C15.5756 12.8474 10.1766 8.49278 5.84885 3.16866C4.36907 5.72129 3.51819 8.68086 3.51819 11.8328C3.51654 14.6703 4.21529 17.4643 5.55244 19.9669C6.8896 22.4696 8.82382 24.6035 11.1835 26.1793C8.4469 26.0922 5.77069 25.3528 3.37761 24.0225V24.2445C3.37733 28.2242 4.75393 32.0814 7.27382 35.1616C9.79371 38.2418 13.3017 40.3554 17.2025 41.1436C14.6639 41.8307 12.0023 41.9319 9.41883 41.4396C10.5194 44.8639 12.6632 47.8583 15.5502 50.0036C18.4372 52.1489 21.9227 53.3377 25.5189 53.4037C19.4142 58.196 11.8749 60.7955 4.1138 60.7841C2.73901 60.7845 1.36538 60.7042 0 60.5436C7.87792 65.6088 17.0484 68.297 26.4142 68.2866C58.1186 68.2866 75.4505 42.0278 75.4505 19.2539C75.4505 18.514 75.4321 17.7667 75.3988 17.0268C78.77 14.5888 81.6801 11.5698 83.9926 8.11114L84 8.10004Z" fill="#11BD5D"/>
</svg>
