<svg width="1366" height="768" viewBox="0 0 1366 768" fill="none" xmlns="http://www.w3.org/2000/svg">
<g clip-path="url(#clip0)">
<rect width="1366" height="768" fill="white"/>
<path fill-rule="evenodd" clip-rule="evenodd" d="M270.458 433.572C316.677 443.397 346.495 483.474 375.652 518.638C397.855 545.415 403.389 578.659 416.883 610.164C431.773 644.926 462.298 675.217 458.709 712.547C454.747 753.762 431.576 793.377 396.835 818.727C361.55 844.474 315.088 848.993 270.458 849.913C224.912 850.851 180.098 844.375 139.998 824.019C95.1233 801.238 48.6318 773.243 30.8264 728.265C12.7372 682.57 29.4954 632.517 45.8743 586.254C62.1354 540.323 82.292 493.484 123.982 465.142C165.609 436.842 220.374 422.926 270.458 433.572Z" stroke="#4B784E" stroke-width="4"/>
<path fill-rule="evenodd" clip-rule="evenodd" d="M167.367 482.669C215.377 471.713 273.394 486.042 307.539 515.691C340.565 544.369 325.821 590.039 335.435 628.609C343.575 661.268 363.395 690.973 359.498 724.149C354.805 764.107 346.681 807.011 311.217 834.816C273.769 864.175 219.227 876.853 167.367 874.783C116.904 872.769 74.3952 847.817 33.3864 823.727C-7.81698 799.522 -56.0231 775.948 -69.0586 735.898C-81.9066 696.424 -61.6401 653.501 -32.9007 620.068C-8.48584 591.665 41.9833 591.192 74.522 568.868C111.302 543.634 121.097 493.228 167.367 482.669Z" stroke="#53CC89" stroke-width="4"/>
<path fill-rule="evenodd" clip-rule="evenodd" d="M873.458 548.572C919.677 558.397 949.495 598.474 978.652 633.638C1000.85 660.415 1006.39 693.659 1019.88 725.164C1034.77 759.926 1065.3 790.217 1061.71 827.547C1057.75 868.762 1034.58 908.377 999.835 933.727C964.55 959.474 918.088 963.993 873.458 964.913C827.912 965.851 783.098 959.375 742.998 939.019C698.123 916.238 651.632 888.243 633.826 843.265C615.737 797.57 632.495 747.517 648.874 701.254C665.135 655.323 685.292 608.484 726.982 580.142C768.609 551.842 823.374 537.926 873.458 548.572Z" stroke="#4B784E" stroke-width="4"/>
<path fill-rule="evenodd" clip-rule="evenodd" d="M770.367 597.669C818.377 586.713 876.394 601.042 910.539 630.691C943.565 659.369 928.821 705.039 938.435 743.609C946.575 776.268 966.395 805.973 962.498 839.149C957.805 879.107 949.681 922.011 914.217 949.816C876.769 979.175 822.227 991.853 770.367 989.783C719.904 987.769 677.395 962.817 636.386 938.727C595.183 914.522 546.977 890.948 533.941 850.898C521.093 811.424 541.36 768.501 570.099 735.068C594.514 706.665 644.983 706.192 677.522 683.868C714.302 658.634 724.097 608.228 770.367 597.669Z" stroke="#53CC89" stroke-width="4"/>
<path fill-rule="evenodd" clip-rule="evenodd" d="M1472.46 422.572C1518.68 432.397 1548.49 472.474 1577.65 507.638C1599.85 534.415 1605.39 567.659 1618.88 599.164C1633.77 633.926 1664.3 664.217 1660.71 701.547C1656.75 742.762 1633.58 782.377 1598.83 807.727C1563.55 833.474 1517.09 837.993 1472.46 838.913C1426.91 839.851 1382.1 833.375 1342 813.019C1297.12 790.238 1250.63 762.243 1232.83 717.265C1214.74 671.57 1231.5 621.517 1247.87 575.254C1264.14 529.323 1284.29 482.484 1325.98 454.142C1367.61 425.842 1422.37 411.926 1472.46 422.572Z" stroke="#4B784E" stroke-width="4"/>
<path fill-rule="evenodd" clip-rule="evenodd" d="M1369.37 471.669C1417.38 460.713 1475.39 475.042 1509.54 504.691C1542.56 533.369 1527.82 579.039 1537.43 617.609C1545.58 650.268 1565.39 679.973 1561.5 713.149C1556.81 753.107 1548.68 796.011 1513.22 823.816C1475.77 853.175 1421.23 865.853 1369.37 863.783C1318.9 861.769 1276.4 836.817 1235.39 812.727C1194.18 788.522 1145.98 764.948 1132.94 724.898C1120.09 685.424 1140.36 642.501 1169.1 609.068C1193.51 580.665 1243.98 580.192 1276.52 557.868C1313.3 532.634 1323.1 482.228 1369.37 471.669Z" stroke="#53CC89" stroke-width="4"/>
<path fill-rule="evenodd" clip-rule="evenodd" d="M646.458 -205.428C692.677 -195.603 722.495 -155.526 751.652 -120.362C773.855 -93.5847 779.389 -60.3414 792.883 -28.8363C807.773 5.92573 838.298 36.2171 834.709 73.5469C830.747 114.762 807.576 154.377 772.835 179.727C737.55 205.474 691.088 209.993 646.458 210.913C600.912 211.851 556.098 205.375 515.998 185.019C471.123 162.238 424.632 134.243 406.826 89.265C388.737 43.5703 405.495 -6.4833 421.874 -52.7463C438.135 -98.6768 458.292 -145.516 499.982 -173.858C541.609 -202.158 596.374 -216.074 646.458 -205.428Z" stroke="#4B784E" stroke-width="4"/>
<path fill-rule="evenodd" clip-rule="evenodd" d="M543.367 -156.331C591.377 -167.287 649.394 -152.958 683.539 -123.309C716.565 -94.6314 701.821 -48.9611 711.435 -10.3914C719.575 22.268 739.395 51.9727 735.498 85.1492C730.805 125.107 722.681 168.011 687.217 195.816C649.769 225.175 595.227 237.853 543.367 235.783C492.904 233.769 450.395 208.817 409.386 184.727C368.183 160.522 319.977 136.948 306.941 96.898C294.093 57.4241 314.36 14.5009 343.099 -18.9322C367.514 -47.3345 417.983 -47.8082 450.522 -70.1322C487.302 -95.3659 497.097 -145.772 543.367 -156.331Z" stroke="#53CC89" stroke-width="4"/>
<path fill-rule="evenodd" clip-rule="evenodd" d="M646.458 -205.428C692.677 -195.603 722.495 -155.526 751.652 -120.362C773.855 -93.5847 779.389 -60.3414 792.883 -28.8363C807.773 5.92573 838.298 36.2171 834.709 73.5469C830.747 114.762 807.576 154.377 772.835 179.727C737.55 205.474 691.088 209.993 646.458 210.913C600.912 211.851 556.098 205.375 515.998 185.019C471.123 162.238 424.632 134.243 406.826 89.265C388.737 43.5703 405.495 -6.4833 421.874 -52.7463C438.135 -98.6768 458.292 -145.516 499.982 -173.858C541.609 -202.158 596.374 -216.074 646.458 -205.428Z" stroke="#4B784E" stroke-width="4"/>
<path fill-rule="evenodd" clip-rule="evenodd" d="M543.367 -156.331C591.377 -167.287 649.394 -152.958 683.539 -123.309C716.565 -94.6314 701.821 -48.9611 711.435 -10.3914C719.575 22.268 739.395 51.9727 735.498 85.1492C730.805 125.107 722.681 168.011 687.217 195.816C649.769 225.175 595.227 237.853 543.367 235.783C492.904 233.769 450.395 208.817 409.386 184.727C368.183 160.522 319.977 136.948 306.941 96.898C294.093 57.4241 314.36 14.5009 343.099 -18.9322C367.514 -47.3345 417.983 -47.8082 450.522 -70.1322C487.302 -95.3659 497.097 -145.772 543.367 -156.331Z" stroke="#53CC89" stroke-width="4"/>
<path fill-rule="evenodd" clip-rule="evenodd" d="M1405.46 -47.5081C1451.68 -37.9043 1481.49 1.27217 1510.65 35.6464C1532.85 61.8217 1538.39 94.3179 1551.88 125.115C1566.77 159.096 1597.3 188.707 1593.71 225.197C1589.75 265.486 1566.58 304.211 1531.83 328.992C1496.55 354.16 1450.09 358.577 1405.46 359.476C1359.91 360.394 1315.1 354.063 1275 334.164C1230.12 311.896 1183.63 284.53 1165.83 240.562C1147.74 195.895 1164.5 146.966 1180.87 101.742C1197.14 56.844 1217.29 11.0576 1258.98 -16.6481C1300.61 -44.312 1355.37 -57.9151 1405.46 -47.5081Z" stroke="#4B784E" stroke-width="4"/>
<path fill-rule="evenodd" clip-rule="evenodd" d="M1302.37 0.485474C1350.38 -10.2246 1408.39 3.78219 1442.54 32.7657C1475.56 60.7985 1460.82 105.443 1470.43 143.146C1478.58 175.071 1498.39 204.108 1494.5 236.539C1489.81 275.599 1481.68 317.539 1446.22 344.719C1408.77 373.419 1354.23 385.811 1302.37 383.788C1251.9 381.819 1209.4 357.428 1168.39 333.879C1127.18 310.219 1078.98 287.174 1065.94 248.024C1053.09 209.437 1073.36 167.478 1102.1 134.797C1126.51 107.033 1176.98 106.57 1209.52 84.7472C1246.3 60.0805 1256.1 10.8074 1302.37 0.485474Z" stroke="#53CC89" stroke-width="4"/>
</g>
<defs>
<clipPath id="clip0">
<rect width="1366" height="768" fill="white"/>
</clipPath>
</defs>
</svg>
