<svg width="1366" height="768" viewBox="0 0 1366 768" fill="none" xmlns="http://www.w3.org/2000/svg">
<g clip-path="url(#clip0)">
<rect width="1366" height="768" fill="white"/>
<path fill-rule="evenodd" clip-rule="evenodd" d="M1344.46 -47.4278C1390.68 -37.6032 1420.49 2.47384 1449.65 37.6383C1471.85 64.4153 1477.39 97.6586 1490.88 129.164C1505.77 163.926 1536.3 194.217 1532.71 231.547C1528.75 272.762 1505.58 312.377 1470.83 337.727C1435.55 363.474 1389.09 367.993 1344.46 368.913C1298.91 369.851 1254.1 363.375 1214 343.019C1169.12 320.238 1122.63 292.243 1104.83 247.265C1086.74 201.57 1103.5 151.517 1119.87 105.254C1136.14 59.3232 1156.29 12.4843 1197.98 -15.8584C1239.61 -44.1582 1294.37 -58.074 1344.46 -47.4278Z" stroke="#4B784E" stroke-width="4"/>
<path fill-rule="evenodd" clip-rule="evenodd" d="M1241.37 1.66904C1289.38 -9.28725 1347.39 5.04155 1381.54 34.6914C1414.56 63.3686 1399.82 109.039 1409.43 147.609C1417.58 180.268 1437.39 209.973 1433.5 243.149C1428.81 283.107 1420.68 326.011 1385.22 353.816C1347.77 383.175 1293.23 395.853 1241.37 393.783C1190.9 391.769 1148.4 366.817 1107.39 342.727C1066.18 318.522 1017.98 294.948 1004.94 254.898C992.093 215.424 1012.36 172.501 1041.1 139.068C1065.51 110.665 1115.98 110.192 1148.52 87.8678C1185.3 62.6341 1195.1 12.2283 1241.37 1.66904Z" stroke="#53CC89" stroke-width="4"/>
</g>
<defs>
<clipPath id="clip0">
<rect width="1366" height="768" fill="white"/>
</clipPath>
</defs>
</svg>
