<svg width="1366" height="768" viewBox="0 0 1366 768" fill="none" xmlns="http://www.w3.org/2000/svg">
<g clip-path="url(#clip0)">
<rect width="1366" height="768" fill="white"/>
<path fill-rule="evenodd" clip-rule="evenodd" d="M375.387 850.776C363.513 896.512 322.148 924.515 285.72 952.077C257.981 973.066 224.524 977.114 192.449 989.192C157.059 1002.52 125.438 1031.66 88.3049 1026.42C47.3075 1020.62 8.7636 995.711 -15.0147 959.875C-39.1646 923.479 -41.6098 876.861 -40.5408 832.235C-39.4498 786.692 -30.9847 742.211 -8.86258 703.057C15.8937 659.241 45.9317 614.043 91.6579 598.258C138.113 582.222 187.371 601.193 232.858 619.616C278.019 637.906 323.914 660.129 350.372 703.04C376.79 745.886 388.253 801.216 375.387 850.776Z" stroke="#4B784E" stroke-width="4"/>
<path fill-rule="evenodd" clip-rule="evenodd" d="M330.93 745.601C339.737 794.051 322.839 851.372 291.698 884.163C261.578 915.879 216.61 899.116 177.65 907.002C144.661 913.68 114.103 932.157 81.1327 926.787C41.4237 920.319 -1.07573 910.293 -27.2737 873.625C-54.9366 834.907 -65.1723 779.854 -60.795 728.138C-56.5356 677.815 -29.7153 636.46 -3.82291 596.564C22.1924 556.48 47.8906 509.371 88.4812 498.132C128.488 487.055 170.466 509.213 202.586 539.413C229.873 565.068 228.099 615.509 248.951 649.009C272.522 686.876 322.442 698.906 330.93 745.601Z" stroke="#53CC89" stroke-width="4"/>
<path fill-rule="evenodd" clip-rule="evenodd" d="M1402.46 -29.4278C1448.68 -19.6032 1478.49 20.4738 1507.65 55.6383C1529.85 82.4153 1535.39 115.659 1548.88 147.164C1563.77 181.926 1594.3 212.217 1590.71 249.547C1586.75 290.762 1563.58 330.377 1528.83 355.727C1493.55 381.474 1447.09 385.993 1402.46 386.913C1356.91 387.851 1312.1 381.375 1272 361.019C1227.12 338.238 1180.63 310.243 1162.83 265.265C1144.74 219.57 1161.5 169.517 1177.87 123.254C1194.14 77.3232 1214.29 30.4843 1255.98 2.14162C1297.61 -26.1582 1352.37 -40.074 1402.46 -29.4278Z" stroke="#4B784E" stroke-width="4"/>
<path fill-rule="evenodd" clip-rule="evenodd" d="M1299.37 19.669C1347.38 8.71275 1405.39 23.0415 1439.54 52.6914C1472.56 81.3686 1457.82 127.039 1467.43 165.609C1475.58 198.268 1495.39 227.973 1491.5 261.149C1486.81 301.107 1478.68 344.011 1443.22 371.816C1405.77 401.175 1351.23 413.853 1299.37 411.783C1248.9 409.769 1206.4 384.817 1165.39 360.727C1124.18 336.522 1075.98 312.948 1062.94 272.898C1050.09 233.424 1070.36 190.501 1099.1 157.068C1123.51 128.665 1173.98 128.192 1206.52 105.868C1243.3 80.6341 1253.1 30.2283 1299.37 19.669Z" stroke="#53CC89" stroke-width="4"/>
</g>
<defs>
<clipPath id="clip0">
<rect width="1366" height="768" fill="white"/>
</clipPath>
</defs>
</svg>
